%TF.GenerationSoftware,KiCad,Pcbnew,10.0.1*%
%TF.CreationDate,2026-06-07T20:36:51-04:00*%
%TF.ProjectId,MeltyPCB v4,4d656c74-7950-4434-9220-76342e6b6963,rev?*%
%TF.SameCoordinates,Original*%
%TF.FileFunction,Copper,L2,Bot*%
%TF.FilePolarity,Positive*%
%FSLAX46Y46*%
G04 Gerber Fmt 4.6, Leading zero omitted, Abs format (unit mm)*
G04 Created by KiCad (PCBNEW 10.0.1) date 2026-06-07 20:36:51*
%MOMM*%
%LPD*%
G01*
G04 APERTURE LIST*
G04 Aperture macros list*
%AMRoundRect*
0 Rectangle with rounded corners*
0 $1 Rounding radius*
0 $2 $3 $4 $5 $6 $7 $8 $9 X,Y pos of 4 corners*
0 Add a 4 corners polygon primitive as box body*
4,1,4,$2,$3,$4,$5,$6,$7,$8,$9,$2,$3,0*
0 Add four circle primitives for the rounded corners*
1,1,$1+$1,$2,$3*
1,1,$1+$1,$4,$5*
1,1,$1+$1,$6,$7*
1,1,$1+$1,$8,$9*
0 Add four rect primitives between the rounded corners*
20,1,$1+$1,$2,$3,$4,$5,0*
20,1,$1+$1,$4,$5,$6,$7,0*
20,1,$1+$1,$6,$7,$8,$9,0*
20,1,$1+$1,$8,$9,$2,$3,0*%
G04 Aperture macros list end*
%TA.AperFunction,ComponentPad*%
%ADD10C,1.530000*%
%TD*%
%TA.AperFunction,ComponentPad*%
%ADD11C,1.600000*%
%TD*%
%TA.AperFunction,ComponentPad*%
%ADD12RoundRect,0.250200X-0.649800X0.649800X-0.649800X-0.649800X0.649800X-0.649800X0.649800X0.649800X0*%
%TD*%
%TA.AperFunction,ComponentPad*%
%ADD13C,1.800000*%
%TD*%
%TA.AperFunction,ComponentPad*%
%ADD14R,1.508000X1.508000*%
%TD*%
%TA.AperFunction,ComponentPad*%
%ADD15C,1.508000*%
%TD*%
%TA.AperFunction,ViaPad*%
%ADD16C,0.600000*%
%TD*%
%TA.AperFunction,Conductor*%
%ADD17C,0.200000*%
%TD*%
G04 APERTURE END LIST*
D10*
%TO.P,U0,0,0_0*%
%TO.N,/RX1*%
X75380000Y-110620000D03*
%TO.P,U0,1,1_1*%
%TO.N,unconnected-(U0-Pad1)*%
X77920000Y-110620000D03*
%TO.P,U0,2,2_2*%
%TO.N,/IR0*%
X80460000Y-110620000D03*
%TO.P,U0,3,3_3*%
%TO.N,/IR1*%
X83000000Y-110620000D03*
%TO.P,U0,3.3V_2,3.3V_2_3.3V_2*%
%TO.N,+3.3V*%
X77920000Y-95380000D03*
%TO.P,U0,4,4_4*%
%TO.N,/Dshot0*%
X85540000Y-110620000D03*
%TO.P,U0,5,5_5*%
%TO.N,/LED0*%
X88080000Y-110620000D03*
%TO.P,U0,6,6_6*%
%TO.N,/LED1*%
X90620000Y-110620000D03*
%TO.P,U0,7,7_7*%
%TO.N,/RX2*%
X93160000Y-110620000D03*
%TO.P,U0,8,8_8*%
%TO.N,/TX2*%
X95700000Y-110620000D03*
%TO.P,U0,9,9_9*%
%TO.N,/Dshot1*%
X98240000Y-110620000D03*
%TO.P,U0,10,10_10*%
%TO.N,/IR2*%
X100780000Y-110620000D03*
%TO.P,U0,11,11_11*%
%TO.N,/IRLED*%
X103320000Y-110620000D03*
%TO.P,U0,12,12_12*%
%TO.N,unconnected-(U0-Pad12)*%
X105860000Y-110620000D03*
%TO.P,U0,13,13_13*%
%TO.N,unconnected-(U0-Pad13)*%
X105860000Y-95380000D03*
%TO.P,U0,14,14_14*%
%TO.N,unconnected-(U0-Pad14)*%
X103320000Y-95380000D03*
%TO.P,U0,15,15_15*%
%TO.N,/RX3*%
X100780000Y-95380000D03*
%TO.P,U0,16,16_16*%
%TO.N,/SCL1*%
X98240000Y-95380000D03*
%TO.P,U0,17,17_17*%
%TO.N,/SDA1*%
X95700000Y-95380000D03*
%TO.P,U0,18,18_18*%
%TO.N,/SDA0*%
X93160000Y-95380000D03*
%TO.P,U0,19,19_19*%
%TO.N,/SCL0*%
X90620000Y-95380000D03*
%TO.P,U0,20,20_20*%
%TO.N,/TX5*%
X88080000Y-95380000D03*
%TO.P,U0,21,21_21*%
%TO.N,/RX5*%
X85540000Y-95380000D03*
%TO.P,U0,22,22_22*%
%TO.N,unconnected-(U0-Pad22)*%
X83000000Y-95380000D03*
%TO.P,U0,23,23_23*%
%TO.N,unconnected-(U0-Pad23)*%
X80460000Y-95380000D03*
%TO.P,U0,G1,G1_G1*%
%TO.N,GND*%
X72840000Y-110620000D03*
%TO.P,U0,G3,G3_G3*%
X75380000Y-95380000D03*
%TO.P,U0,VIN,VIN_VIN*%
%TO.N,+5V*%
X72840000Y-95380000D03*
%TD*%
D11*
%TO.P,ACC1,1,CS_1*%
%TO.N,unconnected-(ACC1-CS-Pad1)*%
X90822450Y-76450725D03*
%TO.P,ACC1,2,SA0_2*%
%TO.N,unconnected-(ACC1-SA0-Pad2)*%
X90822450Y-78990725D03*
%TO.P,ACC1,3,INT2_3*%
%TO.N,unconnected-(ACC1-INT2-Pad3)*%
X90822450Y-81530725D03*
%TO.P,ACC1,4,INT1_4*%
%TO.N,unconnected-(ACC1-INT1-Pad4)*%
X90822450Y-84070725D03*
%TO.P,ACC1,5,SCL_5*%
%TO.N,/SCL0*%
X106022550Y-76450725D03*
%TO.P,ACC1,6,SDA_6*%
%TO.N,/SDA0*%
X106022550Y-78990725D03*
%TO.P,ACC1,7,3.3V_7*%
%TO.N,+3.3V*%
X106022550Y-81530725D03*
%TO.P,ACC1,8,GND_8*%
%TO.N,GND*%
X106022550Y-84070725D03*
%TD*%
%TO.P,ACC0,1,CS_1*%
%TO.N,unconnected-(ACC0-CS-Pad1)*%
X68399450Y-76450725D03*
%TO.P,ACC0,2,SA0_2*%
%TO.N,unconnected-(ACC0-SA0-Pad2)*%
X68399450Y-78990725D03*
%TO.P,ACC0,3,INT2_3*%
%TO.N,unconnected-(ACC0-INT2-Pad3)*%
X68399450Y-81530725D03*
%TO.P,ACC0,4,INT1_4*%
%TO.N,unconnected-(ACC0-INT1-Pad4)*%
X68399450Y-84070725D03*
%TO.P,ACC0,5,SCL_5*%
%TO.N,/SCL0*%
X83599550Y-76450725D03*
%TO.P,ACC0,6,SDA_6*%
%TO.N,/SDA0*%
X83599550Y-78990725D03*
%TO.P,ACC0,7,3.3V_7*%
%TO.N,+3.3V*%
X83599550Y-81530725D03*
%TO.P,ACC0,8,GND_8*%
%TO.N,GND*%
X83599550Y-84070725D03*
%TD*%
%TO.P,TF0,1,GND_1*%
%TO.N,GND*%
X67000000Y-103400000D03*
%TO.P,TF0,2,5V_2*%
%TO.N,+5V*%
X67000000Y-106000000D03*
%TO.P,TF0,3,TX_3*%
%TO.N,/TX2*%
X67000000Y-108600000D03*
%TO.P,TF0,4,RX_4*%
%TO.N,/RX2*%
X67000000Y-111200000D03*
%TD*%
%TO.P,VESC1,1,RX_1*%
%TO.N,/RX3*%
X90500000Y-51950000D03*
%TO.P,VESC1,2,Dshot_2*%
%TO.N,/Dshot1*%
X90500000Y-54450000D03*
%TD*%
D12*
%TO.P,IR1,1,OUT_1*%
%TO.N,/IR1*%
X114525000Y-60460000D03*
D13*
%TO.P,IR1,2,GND_2*%
%TO.N,GND*%
X114525000Y-63000000D03*
%TO.P,IR1,3,Vs_3*%
%TO.N,+3.3V*%
X114525000Y-65540000D03*
%TD*%
D12*
%TO.P,IR0,1,OUT_1*%
%TO.N,/IR0*%
X114525000Y-50960000D03*
D13*
%TO.P,IR0,2,GND_2*%
%TO.N,GND*%
X114525000Y-53500000D03*
%TO.P,IR0,3,Vs_3*%
%TO.N,+3.3V*%
X114525000Y-56040000D03*
%TD*%
D11*
%TO.P,MAG0,1,SCL_1*%
%TO.N,/SCL0*%
X91700000Y-63000000D03*
%TO.P,MAG0,2,SDA_2*%
%TO.N,/SDA0*%
X94300000Y-63000000D03*
%TO.P,MAG0,3,3.3V_3*%
%TO.N,+3.3V*%
X96900000Y-63000000D03*
%TO.P,MAG0,4,GND_4*%
%TO.N,GND*%
X99500000Y-63000000D03*
%TD*%
%TO.P,LED0,1,Vin_1*%
%TO.N,/LED0*%
X112500000Y-91500000D03*
%TO.P,LED0,2,GND_2*%
%TO.N,GND*%
X112500000Y-94100000D03*
%TD*%
%TO.P,POW0,1,5V_1*%
%TO.N,+5V*%
X68100000Y-96000000D03*
%TO.P,POW0,2,GND_2*%
%TO.N,GND*%
X65500000Y-96000000D03*
%TD*%
D14*
%TO.P,U1,1,D0/GPIO1_1*%
%TO.N,unconnected-(U1-D0{slash}GPIO1-Pad1)*%
X65204750Y-65852500D03*
D15*
%TO.P,U1,2,D1/GPIO2_2*%
%TO.N,unconnected-(U1-D1{slash}GPIO2-Pad2)*%
X67744750Y-65852500D03*
%TO.P,U1,3,D2/GPIO3_3*%
%TO.N,unconnected-(U1-D2{slash}GPIO3-Pad3)*%
X70284750Y-65852500D03*
%TO.P,U1,4,D3/GPIO4_4*%
%TO.N,unconnected-(U1-D3{slash}GPIO4-Pad4)*%
X72824750Y-65852500D03*
%TO.P,U1,5,D4/GPIO5_5*%
%TO.N,/SDA1*%
X75364750Y-65852500D03*
%TO.P,U1,6,D5/GPIO6_6*%
%TO.N,/SCL1*%
X77904750Y-65852500D03*
%TO.P,U1,7,D6/GPIO43_7*%
%TO.N,unconnected-(U1-D6{slash}GPIO43-Pad7)*%
X80444750Y-65852500D03*
%TO.P,U1,8,D7/GPIO44_8*%
%TO.N,unconnected-(U1-D7{slash}GPIO44-Pad8)*%
X80444750Y-50612500D03*
%TO.P,U1,9,D8/GPIO7_9*%
%TO.N,unconnected-(U1-D8{slash}GPIO7-Pad9)*%
X77904750Y-50612500D03*
%TO.P,U1,10,D9/GPIO8_10*%
%TO.N,unconnected-(U1-D9{slash}GPIO8-Pad10)*%
X75364750Y-50612500D03*
%TO.P,U1,11,D10/GPIO9_11*%
%TO.N,unconnected-(U1-D10{slash}GPIO9-Pad11)*%
X72824750Y-50612500D03*
%TO.P,U1,12,3V3_12*%
%TO.N,unconnected-(U1-3V3-Pad12)*%
X70284750Y-50612500D03*
%TO.P,U1,13,GND_13*%
%TO.N,GND*%
X67744750Y-50612500D03*
%TO.P,U1,14,5V_14*%
%TO.N,+5V*%
X65204750Y-50612500D03*
%TD*%
D11*
%TO.P,RAD0,1,GND_1*%
%TO.N,GND*%
X62000000Y-103350000D03*
%TO.P,RAD0,2,5V_2*%
%TO.N,+5V*%
X62000000Y-105950000D03*
%TO.P,RAD0,3,TX_3*%
%TO.N,/TX5*%
X62000000Y-108550000D03*
%TO.P,RAD0,4,RX_4*%
%TO.N,/RX5*%
X62000000Y-111150000D03*
%TD*%
%TO.P,VESC0,1,RX_1*%
%TO.N,/RX1*%
X100500000Y-51950000D03*
%TO.P,VESC0,2,Dshot_2*%
%TO.N,/Dshot0*%
X100500000Y-54450000D03*
%TD*%
%TO.P,R2,1*%
%TO.N,/LED1*%
X59000000Y-97000000D03*
%TO.P,R2,2*%
X59000000Y-94000000D03*
%TD*%
%TO.P,IRLED0,1,Vin_1*%
%TO.N,/IRLED*%
X112500000Y-108000000D03*
%TO.P,IRLED0,2,GND_2*%
%TO.N,GND*%
X112500000Y-110600000D03*
%TD*%
D12*
%TO.P,IR2,1,OUT_1*%
%TO.N,/IR2*%
X114025000Y-68960000D03*
D13*
%TO.P,IR2,2,GND_2*%
%TO.N,GND*%
X114025000Y-71500000D03*
%TO.P,IR2,3,Vs_3*%
%TO.N,+3.3V*%
X114025000Y-74040000D03*
%TD*%
D11*
%TO.P,R1,1*%
%TO.N,/LED0*%
X114500000Y-103000000D03*
%TO.P,R1,2*%
X114500000Y-100000000D03*
%TD*%
%TO.P,LED1,1,Vin_1*%
%TO.N,/LED1*%
X59000000Y-85900000D03*
%TO.P,LED1,2,GND_2*%
%TO.N,GND*%
X59000000Y-88500000D03*
%TD*%
%TO.P,R0,1*%
%TO.N,/IRLED*%
X111000000Y-103000000D03*
%TO.P,R0,2*%
X111000000Y-100000000D03*
%TD*%
D16*
%TO.N,+3.3V*%
X107949275Y-77550725D03*
X102000000Y-81500000D03*
%TO.N,/Dshot1*%
X93500000Y-106500000D03*
X90500000Y-90500000D03*
X89500000Y-79000000D03*
%TO.N,/RX1*%
X100500000Y-97045000D03*
%TO.N,/LED1*%
X92500000Y-107400000D03*
%TD*%
%TO.N,+3.3V*%
D17*
X104000000Y-79457640D02*
X105906915Y-77550725D01*
X103030725Y-81530725D02*
X104000000Y-81530725D01*
X104000000Y-81530725D02*
X104000000Y-79457640D01*
X102000000Y-81500000D02*
X103000000Y-81500000D01*
X104000000Y-81530725D02*
X106022550Y-81530725D01*
X103000000Y-81500000D02*
X103030725Y-81530725D01*
X105906915Y-77550725D02*
X107949275Y-77550725D01*
X108000000Y-77500000D02*
X107949275Y-77550725D01*
%TO.N,/RX3*%
X90500000Y-51950000D02*
X100780000Y-62230000D01*
X100780000Y-62230000D02*
X100780000Y-95380000D01*
%TO.N,/Dshot1*%
X92095000Y-92095000D02*
X92095000Y-105095000D01*
X92095000Y-105095000D02*
X93500000Y-106500000D01*
X89500000Y-55450000D02*
X89500000Y-79000000D01*
X90500000Y-54450000D02*
X89500000Y-55450000D01*
X90500000Y-90500000D02*
X92095000Y-92095000D01*
%TO.N,/IR1*%
X109900000Y-104900000D02*
X110000000Y-105000000D01*
X110000000Y-105000000D02*
X108015000Y-105000000D01*
X99500000Y-110866138D02*
X98366138Y-112000000D01*
X108015000Y-105000000D02*
X106000000Y-107015000D01*
X84380000Y-112000000D02*
X83000000Y-110620000D01*
X106000000Y-107015000D02*
X102878862Y-107015000D01*
X109900000Y-65085000D02*
X109900000Y-104900000D01*
X99500000Y-110393862D02*
X99500000Y-110866138D01*
X114525000Y-60460000D02*
X109900000Y-65085000D01*
X98366138Y-112000000D02*
X84380000Y-112000000D01*
X102878862Y-107015000D02*
X99500000Y-110393862D01*
%TO.N,/IR0*%
X116500000Y-52935000D02*
X116500000Y-109000000D01*
X114525000Y-50960000D02*
X116500000Y-52935000D01*
X116500000Y-109000000D02*
X113100000Y-112400000D01*
X113100000Y-112400000D02*
X82240000Y-112400000D01*
X82240000Y-112400000D02*
X80460000Y-110620000D01*
%TO.N,/RX1*%
X108549275Y-59999275D02*
X108549275Y-88468902D01*
X101186823Y-97045000D02*
X102245000Y-95986824D01*
X100500000Y-97045000D02*
X101186823Y-97045000D01*
X108549275Y-88468902D02*
X102245000Y-94773177D01*
X102245000Y-94773177D02*
X102245000Y-95986824D01*
X100500000Y-51950000D02*
X108549275Y-59999275D01*
%TO.N,/Dshot0*%
X100500000Y-54450000D02*
X101221138Y-55171138D01*
X88160000Y-108000000D02*
X85540000Y-110620000D01*
X93500000Y-108000000D02*
X88160000Y-108000000D01*
X95000000Y-106500000D02*
X93500000Y-108000000D01*
X95000000Y-101160000D02*
X95000000Y-106500000D01*
X101221138Y-94315000D02*
X101845000Y-94938862D01*
X101221138Y-96445000D02*
X99715000Y-96445000D01*
X101221138Y-55171138D02*
X101221138Y-94315000D01*
X99715000Y-96445000D02*
X95000000Y-101160000D01*
X101845000Y-94938862D02*
X101845000Y-95821138D01*
X101845000Y-95821138D02*
X101221138Y-96445000D01*
%TO.N,/LED1*%
X59000000Y-97000000D02*
X66500000Y-104500000D01*
X66500000Y-104500000D02*
X89600000Y-104500000D01*
X89600000Y-104500000D02*
X92500000Y-107400000D01*
%TO.N,/IR2*%
X115500000Y-105500000D02*
X110055000Y-105500000D01*
X115600000Y-105400000D02*
X115500000Y-105500000D01*
X101845000Y-109555000D02*
X100780000Y-110620000D01*
X110055000Y-105500000D02*
X106000000Y-109555000D01*
X114025000Y-68960000D02*
X115600000Y-70535000D01*
X115600000Y-70535000D02*
X115600000Y-105400000D01*
X106000000Y-109555000D02*
X101845000Y-109555000D01*
%TO.N,/SCL1*%
X77904750Y-65852500D02*
X85099550Y-73047300D01*
X85099550Y-73047300D02*
X85099550Y-82239550D01*
X85099550Y-82239550D02*
X98240000Y-95380000D01*
%TO.N,/SDA1*%
X75364750Y-65852500D02*
X84699550Y-75187300D01*
X95700000Y-94298127D02*
X95700000Y-95380000D01*
X84699550Y-75187300D02*
X84699550Y-83297677D01*
X84699550Y-83297677D02*
X95700000Y-94298127D01*
%TD*%
%TA.AperFunction,Conductor*%
%TO.N,GND*%
G36*
X115859996Y-106084931D02*
G01*
X115895648Y-106145020D01*
X115899500Y-106175686D01*
X115899500Y-108699902D01*
X115879815Y-108766941D01*
X115863181Y-108787583D01*
X114011681Y-110639083D01*
X113950358Y-110672568D01*
X113880666Y-110667584D01*
X113824733Y-110625712D01*
X113800316Y-110560248D01*
X113800000Y-110551402D01*
X113800000Y-110497682D01*
X113767990Y-110295582D01*
X113704755Y-110100968D01*
X113611859Y-109918650D01*
X113579474Y-109874077D01*
X113579474Y-109874076D01*
X112982962Y-110470590D01*
X112965925Y-110407007D01*
X112900099Y-110292993D01*
X112807007Y-110199901D01*
X112692993Y-110134075D01*
X112629408Y-110117037D01*
X113225922Y-109520524D01*
X113225921Y-109520523D01*
X113181359Y-109488147D01*
X113181350Y-109488141D01*
X113029491Y-109410765D01*
X112978695Y-109362790D01*
X112961900Y-109294969D01*
X112984437Y-109228834D01*
X113029489Y-109189796D01*
X113181610Y-109112287D01*
X113268411Y-109049223D01*
X113347213Y-108991971D01*
X113347215Y-108991968D01*
X113347219Y-108991966D01*
X113491966Y-108847219D01*
X113491968Y-108847215D01*
X113491971Y-108847213D01*
X113597217Y-108702352D01*
X113612287Y-108681610D01*
X113705220Y-108499219D01*
X113768477Y-108304534D01*
X113800500Y-108102352D01*
X113800500Y-107897648D01*
X113777555Y-107752781D01*
X113768477Y-107695465D01*
X113729197Y-107574576D01*
X113705220Y-107500781D01*
X113705218Y-107500778D01*
X113705218Y-107500776D01*
X113659212Y-107410485D01*
X113612287Y-107318390D01*
X113580515Y-107274659D01*
X113491971Y-107152786D01*
X113347213Y-107008028D01*
X113181613Y-106887715D01*
X113181612Y-106887714D01*
X113181610Y-106887713D01*
X113124653Y-106858691D01*
X112999223Y-106794781D01*
X112804534Y-106731522D01*
X112629995Y-106703878D01*
X112602352Y-106699500D01*
X112397648Y-106699500D01*
X112373329Y-106703351D01*
X112195465Y-106731522D01*
X112000776Y-106794781D01*
X111818386Y-106887715D01*
X111652786Y-107008028D01*
X111508028Y-107152786D01*
X111387715Y-107318386D01*
X111294781Y-107500776D01*
X111231522Y-107695465D01*
X111199500Y-107897648D01*
X111199500Y-108102351D01*
X111231522Y-108304534D01*
X111294781Y-108499223D01*
X111346385Y-108600500D01*
X111372805Y-108652352D01*
X111387715Y-108681613D01*
X111508028Y-108847213D01*
X111652786Y-108991971D01*
X111818385Y-109112284D01*
X111818387Y-109112285D01*
X111818390Y-109112287D01*
X111970508Y-109189795D01*
X112021304Y-109237770D01*
X112038099Y-109305591D01*
X112015562Y-109371726D01*
X111970508Y-109410765D01*
X111818644Y-109488143D01*
X111774077Y-109520523D01*
X111774077Y-109520524D01*
X112370591Y-110117037D01*
X112307007Y-110134075D01*
X112192993Y-110199901D01*
X112099901Y-110292993D01*
X112034075Y-110407007D01*
X112017037Y-110470590D01*
X111420524Y-109874077D01*
X111420523Y-109874077D01*
X111388143Y-109918644D01*
X111295244Y-110100968D01*
X111232009Y-110295582D01*
X111200000Y-110497682D01*
X111200000Y-110702317D01*
X111232009Y-110904417D01*
X111295244Y-111099031D01*
X111388141Y-111281350D01*
X111388147Y-111281359D01*
X111420523Y-111325921D01*
X111420524Y-111325922D01*
X112017037Y-110729409D01*
X112034075Y-110792993D01*
X112099901Y-110907007D01*
X112192993Y-111000099D01*
X112307007Y-111065925D01*
X112370590Y-111082962D01*
X111769067Y-111684483D01*
X111758635Y-111734147D01*
X111709584Y-111783905D01*
X111649381Y-111799500D01*
X106769549Y-111799500D01*
X106702510Y-111779815D01*
X106656755Y-111727011D01*
X106646811Y-111657853D01*
X106675836Y-111594297D01*
X106681868Y-111587819D01*
X106684421Y-111585266D01*
X106825269Y-111444418D01*
X106942353Y-111283266D01*
X107032785Y-111105783D01*
X107045736Y-111065925D01*
X107094338Y-110916343D01*
X107094338Y-110916342D01*
X107094339Y-110916339D01*
X107125500Y-110719597D01*
X107125500Y-110520403D01*
X107094339Y-110323661D01*
X107094338Y-110323657D01*
X107094338Y-110323656D01*
X107032786Y-110134219D01*
X107015844Y-110100968D01*
X106942353Y-109956734D01*
X106825269Y-109795582D01*
X106804642Y-109774955D01*
X106771157Y-109713632D01*
X106776141Y-109643940D01*
X106804642Y-109599593D01*
X110267416Y-106136819D01*
X110328739Y-106103334D01*
X110355097Y-106100500D01*
X115413331Y-106100500D01*
X115413347Y-106100501D01*
X115420943Y-106100501D01*
X115579054Y-106100501D01*
X115579057Y-106100501D01*
X115731785Y-106059577D01*
X115731786Y-106059575D01*
X115739635Y-106057473D01*
X115740261Y-106059811D01*
X115797517Y-106053656D01*
X115859996Y-106084931D01*
G37*
%TD.AperFunction*%
%TA.AperFunction,Conductor*%
G36*
X113044334Y-62892415D02*
G01*
X113100267Y-62934287D01*
X113124684Y-62999751D01*
X113125000Y-63008597D01*
X113125000Y-63110181D01*
X113159473Y-63327835D01*
X113227567Y-63537410D01*
X113327611Y-63733756D01*
X113373932Y-63797513D01*
X114082861Y-63088584D01*
X114105667Y-63173694D01*
X114164910Y-63276306D01*
X114248694Y-63360090D01*
X114351306Y-63419333D01*
X114436414Y-63442137D01*
X113727485Y-64151065D01*
X113727485Y-64151066D01*
X113752680Y-64169371D01*
X113795346Y-64224701D01*
X113801325Y-64294314D01*
X113768720Y-64356110D01*
X113752681Y-64370008D01*
X113612636Y-64471756D01*
X113456756Y-64627636D01*
X113456752Y-64627641D01*
X113327187Y-64805974D01*
X113227104Y-65002393D01*
X113227103Y-65002396D01*
X113158985Y-65212047D01*
X113124500Y-65429778D01*
X113124500Y-65650221D01*
X113158985Y-65867952D01*
X113227103Y-66077603D01*
X113227104Y-66077606D01*
X113293089Y-66207105D01*
X113326412Y-66272505D01*
X113327187Y-66274025D01*
X113456752Y-66452358D01*
X113456756Y-66452363D01*
X113612636Y-66608243D01*
X113612641Y-66608247D01*
X113758174Y-66713982D01*
X113790978Y-66737815D01*
X113919375Y-66803237D01*
X113987393Y-66837895D01*
X113987396Y-66837896D01*
X114021064Y-66848835D01*
X114197049Y-66906015D01*
X114414778Y-66940500D01*
X114414779Y-66940500D01*
X114635221Y-66940500D01*
X114635222Y-66940500D01*
X114852951Y-66906015D01*
X115062606Y-66837895D01*
X115259022Y-66737815D01*
X115437365Y-66608242D01*
X115593242Y-66452365D01*
X115675182Y-66339582D01*
X115730511Y-66296918D01*
X115800124Y-66290939D01*
X115861920Y-66323544D01*
X115896277Y-66384383D01*
X115899500Y-66412469D01*
X115899500Y-69685903D01*
X115879815Y-69752942D01*
X115827011Y-69798697D01*
X115757853Y-69808641D01*
X115694297Y-69779616D01*
X115687819Y-69773584D01*
X115461819Y-69547584D01*
X115428334Y-69486261D01*
X115425500Y-69459903D01*
X115425500Y-68260177D01*
X115425499Y-68260166D01*
X115414996Y-68157361D01*
X115396596Y-68101834D01*
X115359797Y-67990780D01*
X115267670Y-67841419D01*
X115143581Y-67717330D01*
X114994220Y-67625203D01*
X114994217Y-67625202D01*
X114827638Y-67570003D01*
X114724833Y-67559500D01*
X114724826Y-67559500D01*
X113325174Y-67559500D01*
X113325166Y-67559500D01*
X113222361Y-67570003D01*
X113055782Y-67625202D01*
X113055777Y-67625204D01*
X112906417Y-67717331D01*
X112782331Y-67841417D01*
X112690204Y-67990777D01*
X112690202Y-67990782D01*
X112635003Y-68157361D01*
X112624500Y-68260166D01*
X112624500Y-69659833D01*
X112635003Y-69762638D01*
X112690202Y-69929217D01*
X112690203Y-69929220D01*
X112782330Y-70078581D01*
X112906419Y-70202670D01*
X113055780Y-70294797D01*
X113203718Y-70343818D01*
X113252396Y-70373843D01*
X113936414Y-71057861D01*
X113851306Y-71080667D01*
X113748694Y-71139910D01*
X113664910Y-71223694D01*
X113605667Y-71326306D01*
X113582861Y-71411414D01*
X112873932Y-70702485D01*
X112873931Y-70702485D01*
X112827616Y-70766233D01*
X112727567Y-70962589D01*
X112659473Y-71172164D01*
X112625000Y-71389818D01*
X112625000Y-71610181D01*
X112659473Y-71827835D01*
X112727567Y-72037410D01*
X112827611Y-72233756D01*
X112873932Y-72297513D01*
X113582861Y-71588584D01*
X113605667Y-71673694D01*
X113664910Y-71776306D01*
X113748694Y-71860090D01*
X113851306Y-71919333D01*
X113936413Y-71942137D01*
X113227485Y-72651065D01*
X113227485Y-72651066D01*
X113252680Y-72669371D01*
X113295346Y-72724701D01*
X113301325Y-72794314D01*
X113268720Y-72856110D01*
X113252681Y-72870008D01*
X113112636Y-72971756D01*
X112956756Y-73127636D01*
X112956752Y-73127641D01*
X112827187Y-73305974D01*
X112727104Y-73502393D01*
X112727103Y-73502396D01*
X112658985Y-73712047D01*
X112624500Y-73929778D01*
X112624500Y-74150221D01*
X112658985Y-74367952D01*
X112727103Y-74577603D01*
X112727104Y-74577606D01*
X112827187Y-74774025D01*
X112956752Y-74952358D01*
X112956756Y-74952363D01*
X113112636Y-75108243D01*
X113112641Y-75108247D01*
X113214496Y-75182248D01*
X113290978Y-75237815D01*
X113419375Y-75303237D01*
X113487393Y-75337895D01*
X113487396Y-75337896D01*
X113579267Y-75367746D01*
X113697049Y-75406015D01*
X113914778Y-75440500D01*
X113914779Y-75440500D01*
X114135221Y-75440500D01*
X114135222Y-75440500D01*
X114352951Y-75406015D01*
X114562606Y-75337895D01*
X114759022Y-75237815D01*
X114802616Y-75206142D01*
X114868420Y-75182663D01*
X114936474Y-75198488D01*
X114985169Y-75248593D01*
X114999500Y-75306461D01*
X114999500Y-98624199D01*
X114979815Y-98691238D01*
X114927011Y-98736993D01*
X114857853Y-98746937D01*
X114837183Y-98742130D01*
X114804542Y-98731524D01*
X114804535Y-98731523D01*
X114703443Y-98715511D01*
X114602352Y-98699500D01*
X114397648Y-98699500D01*
X114373329Y-98703351D01*
X114195465Y-98731522D01*
X114000776Y-98794781D01*
X113818386Y-98887715D01*
X113652786Y-99008028D01*
X113508028Y-99152786D01*
X113387715Y-99318386D01*
X113294781Y-99500776D01*
X113231522Y-99695465D01*
X113199500Y-99897648D01*
X113199500Y-100102351D01*
X113231522Y-100304534D01*
X113294781Y-100499223D01*
X113387715Y-100681613D01*
X113508028Y-100847213D01*
X113652786Y-100991971D01*
X113775248Y-101080943D01*
X113818390Y-101112287D01*
X113934607Y-101171503D01*
X114000776Y-101205218D01*
X114000778Y-101205218D01*
X114000781Y-101205220D01*
X114104921Y-101239057D01*
X114195465Y-101268477D01*
X114281395Y-101282087D01*
X114397648Y-101300500D01*
X114397649Y-101300500D01*
X114602351Y-101300500D01*
X114602352Y-101300500D01*
X114804534Y-101268477D01*
X114804539Y-101268475D01*
X114804541Y-101268475D01*
X114837180Y-101257870D01*
X114865300Y-101257065D01*
X114893147Y-101253062D01*
X114899757Y-101256080D01*
X114907021Y-101255873D01*
X114931112Y-101270400D01*
X114956703Y-101282087D01*
X114960631Y-101288200D01*
X114966855Y-101291953D01*
X114979269Y-101317201D01*
X114994477Y-101340865D01*
X114995953Y-101351133D01*
X114997684Y-101354653D01*
X114999500Y-101375800D01*
X114999500Y-101624199D01*
X114979815Y-101691238D01*
X114927011Y-101736993D01*
X114857853Y-101746937D01*
X114837183Y-101742130D01*
X114804542Y-101731524D01*
X114804535Y-101731523D01*
X114679991Y-101711797D01*
X114602352Y-101699500D01*
X114397648Y-101699500D01*
X114373329Y-101703351D01*
X114195465Y-101731522D01*
X114000776Y-101794781D01*
X113818386Y-101887715D01*
X113652786Y-102008028D01*
X113508028Y-102152786D01*
X113387715Y-102318386D01*
X113294781Y-102500776D01*
X113231522Y-102695465D01*
X113199500Y-102897648D01*
X113199500Y-103102351D01*
X113231522Y-103304534D01*
X113294781Y-103499223D01*
X113342560Y-103592993D01*
X113373857Y-103654417D01*
X113387715Y-103681613D01*
X113508028Y-103847213D01*
X113652786Y-103991971D01*
X113768336Y-104075921D01*
X113818390Y-104112287D01*
X113934607Y-104171503D01*
X114000776Y-104205218D01*
X114000778Y-104205218D01*
X114000781Y-104205220D01*
X114105137Y-104239127D01*
X114195465Y-104268477D01*
X114296557Y-104284488D01*
X114397648Y-104300500D01*
X114397649Y-104300500D01*
X114602351Y-104300500D01*
X114602352Y-104300500D01*
X114804534Y-104268477D01*
X114804539Y-104268475D01*
X114804541Y-104268475D01*
X114837180Y-104257870D01*
X114907021Y-104255873D01*
X114966855Y-104291953D01*
X114997684Y-104354653D01*
X114999500Y-104375800D01*
X114999500Y-104775500D01*
X114979815Y-104842539D01*
X114927011Y-104888294D01*
X114875500Y-104899500D01*
X110689903Y-104899500D01*
X110622864Y-104879815D01*
X110577160Y-104827124D01*
X110572823Y-104817654D01*
X110559577Y-104768216D01*
X110514191Y-104689604D01*
X110511757Y-104684288D01*
X110508729Y-104663377D01*
X110500500Y-104632664D01*
X110500500Y-104375800D01*
X110520185Y-104308761D01*
X110572989Y-104263006D01*
X110642147Y-104253062D01*
X110662820Y-104257870D01*
X110695458Y-104268475D01*
X110695461Y-104268475D01*
X110695466Y-104268477D01*
X110897648Y-104300500D01*
X110897649Y-104300500D01*
X111102351Y-104300500D01*
X111102352Y-104300500D01*
X111304534Y-104268477D01*
X111499219Y-104205220D01*
X111681610Y-104112287D01*
X111809349Y-104019480D01*
X111847213Y-103991971D01*
X111847215Y-103991968D01*
X111847219Y-103991966D01*
X111991966Y-103847219D01*
X111991968Y-103847215D01*
X111991971Y-103847213D01*
X112093835Y-103707007D01*
X112112287Y-103681610D01*
X112202872Y-103503827D01*
X112205218Y-103499223D01*
X112205218Y-103499222D01*
X112205220Y-103499219D01*
X112268477Y-103304534D01*
X112300500Y-103102352D01*
X112300500Y-102897648D01*
X112298350Y-102884075D01*
X112268477Y-102695465D01*
X112205218Y-102500776D01*
X112171503Y-102434607D01*
X112112287Y-102318390D01*
X112104556Y-102307749D01*
X111991971Y-102152786D01*
X111847213Y-102008028D01*
X111681613Y-101887715D01*
X111681612Y-101887714D01*
X111681610Y-101887713D01*
X111624653Y-101858691D01*
X111499223Y-101794781D01*
X111304534Y-101731522D01*
X111129995Y-101703878D01*
X111102352Y-101699500D01*
X110897648Y-101699500D01*
X110843704Y-101708044D01*
X110695464Y-101731523D01*
X110695457Y-101731524D01*
X110662817Y-101742130D01*
X110634698Y-101742933D01*
X110606853Y-101746937D01*
X110600241Y-101743917D01*
X110592976Y-101744125D01*
X110568886Y-101729598D01*
X110543297Y-101717912D01*
X110539367Y-101711797D01*
X110533143Y-101708044D01*
X110520730Y-101682797D01*
X110505523Y-101659134D01*
X110504046Y-101648861D01*
X110502316Y-101645343D01*
X110500500Y-101624199D01*
X110500500Y-101375800D01*
X110520185Y-101308761D01*
X110572989Y-101263006D01*
X110642147Y-101253062D01*
X110662820Y-101257870D01*
X110695458Y-101268475D01*
X110695461Y-101268475D01*
X110695466Y-101268477D01*
X110897648Y-101300500D01*
X110897649Y-101300500D01*
X111102351Y-101300500D01*
X111102352Y-101300500D01*
X111304534Y-101268477D01*
X111499219Y-101205220D01*
X111681610Y-101112287D01*
X111774590Y-101044732D01*
X111847213Y-100991971D01*
X111847215Y-100991968D01*
X111847219Y-100991966D01*
X111991966Y-100847219D01*
X111991968Y-100847215D01*
X111991971Y-100847213D01*
X112044732Y-100774590D01*
X112112287Y-100681610D01*
X112205220Y-100499219D01*
X112268477Y-100304534D01*
X112300500Y-100102352D01*
X112300500Y-99897648D01*
X112268477Y-99695466D01*
X112205220Y-99500781D01*
X112205218Y-99500778D01*
X112205218Y-99500776D01*
X112171503Y-99434607D01*
X112112287Y-99318390D01*
X112104556Y-99307749D01*
X111991971Y-99152786D01*
X111847213Y-99008028D01*
X111681613Y-98887715D01*
X111681612Y-98887714D01*
X111681610Y-98887713D01*
X111624653Y-98858691D01*
X111499223Y-98794781D01*
X111304534Y-98731522D01*
X111129995Y-98703878D01*
X111102352Y-98699500D01*
X110897648Y-98699500D01*
X110843704Y-98708044D01*
X110695464Y-98731523D01*
X110695457Y-98731524D01*
X110662817Y-98742130D01*
X110592976Y-98744125D01*
X110533143Y-98708044D01*
X110502316Y-98645343D01*
X110500500Y-98624199D01*
X110500500Y-91397648D01*
X111199500Y-91397648D01*
X111199500Y-91602351D01*
X111231522Y-91804534D01*
X111294781Y-91999223D01*
X111358691Y-92124653D01*
X111367970Y-92142863D01*
X111387715Y-92181613D01*
X111508028Y-92347213D01*
X111652786Y-92491971D01*
X111818385Y-92612284D01*
X111818387Y-92612285D01*
X111818390Y-92612287D01*
X111970508Y-92689795D01*
X112021304Y-92737770D01*
X112038099Y-92805591D01*
X112015562Y-92871726D01*
X111970508Y-92910765D01*
X111818644Y-92988143D01*
X111774077Y-93020523D01*
X111774077Y-93020524D01*
X112370591Y-93617037D01*
X112307007Y-93634075D01*
X112192993Y-93699901D01*
X112099901Y-93792993D01*
X112034075Y-93907007D01*
X112017037Y-93970590D01*
X111420524Y-93374077D01*
X111420523Y-93374077D01*
X111388143Y-93418644D01*
X111295244Y-93600968D01*
X111232009Y-93795582D01*
X111200000Y-93997682D01*
X111200000Y-94202317D01*
X111232009Y-94404417D01*
X111295244Y-94599031D01*
X111388141Y-94781350D01*
X111388147Y-94781359D01*
X111420523Y-94825921D01*
X111420524Y-94825922D01*
X112017037Y-94229409D01*
X112034075Y-94292993D01*
X112099901Y-94407007D01*
X112192993Y-94500099D01*
X112307007Y-94565925D01*
X112370590Y-94582962D01*
X111774076Y-95179474D01*
X111818650Y-95211859D01*
X112000968Y-95304755D01*
X112195582Y-95367990D01*
X112397683Y-95400000D01*
X112602317Y-95400000D01*
X112804417Y-95367990D01*
X112999031Y-95304755D01*
X113181349Y-95211859D01*
X113225921Y-95179474D01*
X112629409Y-94582962D01*
X112692993Y-94565925D01*
X112807007Y-94500099D01*
X112900099Y-94407007D01*
X112965925Y-94292993D01*
X112982962Y-94229409D01*
X113579474Y-94825921D01*
X113611859Y-94781349D01*
X113704755Y-94599031D01*
X113767990Y-94404417D01*
X113800000Y-94202317D01*
X113800000Y-93997682D01*
X113767990Y-93795582D01*
X113704755Y-93600968D01*
X113611859Y-93418650D01*
X113579474Y-93374077D01*
X113579474Y-93374076D01*
X112982962Y-93970589D01*
X112965925Y-93907007D01*
X112900099Y-93792993D01*
X112807007Y-93699901D01*
X112692993Y-93634075D01*
X112629408Y-93617037D01*
X113225922Y-93020524D01*
X113225921Y-93020523D01*
X113181359Y-92988147D01*
X113181350Y-92988141D01*
X113029491Y-92910765D01*
X112978695Y-92862790D01*
X112961900Y-92794969D01*
X112984437Y-92728834D01*
X113029489Y-92689796D01*
X113181610Y-92612287D01*
X113202770Y-92596913D01*
X113347213Y-92491971D01*
X113347215Y-92491968D01*
X113347219Y-92491966D01*
X113491966Y-92347219D01*
X113491968Y-92347215D01*
X113491971Y-92347213D01*
X113544732Y-92274590D01*
X113612287Y-92181610D01*
X113705220Y-91999219D01*
X113768477Y-91804534D01*
X113800500Y-91602352D01*
X113800500Y-91397648D01*
X113780240Y-91269735D01*
X113768477Y-91195465D01*
X113705218Y-91000776D01*
X113671503Y-90934607D01*
X113612287Y-90818390D01*
X113604556Y-90807749D01*
X113491971Y-90652786D01*
X113347213Y-90508028D01*
X113181613Y-90387715D01*
X113181612Y-90387714D01*
X113181610Y-90387713D01*
X113124653Y-90358691D01*
X112999223Y-90294781D01*
X112804534Y-90231522D01*
X112629995Y-90203878D01*
X112602352Y-90199500D01*
X112397648Y-90199500D01*
X112373329Y-90203351D01*
X112195465Y-90231522D01*
X112000776Y-90294781D01*
X111818386Y-90387715D01*
X111652786Y-90508028D01*
X111508028Y-90652786D01*
X111387715Y-90818386D01*
X111294781Y-91000776D01*
X111231522Y-91195465D01*
X111199500Y-91397648D01*
X110500500Y-91397648D01*
X110500500Y-65385097D01*
X110520185Y-65318058D01*
X110536819Y-65297416D01*
X112152885Y-63681350D01*
X112913320Y-62920915D01*
X112974642Y-62887431D01*
X113044334Y-62892415D01*
G37*
%TD.AperFunction*%
%TA.AperFunction,Conductor*%
G36*
X107387652Y-78156552D02*
G01*
X107406562Y-78156890D01*
X107434779Y-78170390D01*
X107436548Y-78170910D01*
X107438400Y-78172123D01*
X107570089Y-78260115D01*
X107570102Y-78260122D01*
X107715773Y-78320460D01*
X107715778Y-78320462D01*
X107826262Y-78342438D01*
X107848966Y-78346955D01*
X107910877Y-78379340D01*
X107945451Y-78440055D01*
X107948775Y-78468572D01*
X107948775Y-88168804D01*
X107929090Y-88235843D01*
X107912456Y-88256485D01*
X102049838Y-94119103D01*
X102041892Y-94123441D01*
X102036467Y-94130689D01*
X102011707Y-94139923D01*
X101988515Y-94152588D01*
X101979485Y-94151942D01*
X101971003Y-94155106D01*
X101945182Y-94149489D01*
X101918823Y-94147604D01*
X101909769Y-94141785D01*
X101902730Y-94140254D01*
X101874476Y-94119103D01*
X101857957Y-94102584D01*
X101824472Y-94041261D01*
X101821638Y-94014903D01*
X101821638Y-82424500D01*
X101841323Y-82357461D01*
X101894127Y-82311706D01*
X101945638Y-82300500D01*
X102078844Y-82300500D01*
X102078845Y-82300499D01*
X102233497Y-82269737D01*
X102379179Y-82209394D01*
X102379185Y-82209390D01*
X102510875Y-82121398D01*
X102528921Y-82115747D01*
X102544831Y-82105523D01*
X102575792Y-82101071D01*
X102577553Y-82100520D01*
X102579766Y-82100500D01*
X102820674Y-82100500D01*
X102852767Y-82104724D01*
X102951668Y-82131226D01*
X102951670Y-82131226D01*
X103117379Y-82131226D01*
X103117395Y-82131225D01*
X103920943Y-82131225D01*
X104792948Y-82131225D01*
X104859987Y-82150910D01*
X104903433Y-82198930D01*
X104910265Y-82212339D01*
X105030578Y-82377938D01*
X105175336Y-82522696D01*
X105340935Y-82643009D01*
X105340937Y-82643010D01*
X105340940Y-82643012D01*
X105433630Y-82690240D01*
X105434180Y-82690520D01*
X105484976Y-82738495D01*
X105501771Y-82806316D01*
X105479234Y-82872450D01*
X105434180Y-82911490D01*
X105341194Y-82958868D01*
X105296627Y-82991248D01*
X105296627Y-82991249D01*
X105893141Y-83587762D01*
X105829557Y-83604800D01*
X105715543Y-83670626D01*
X105622451Y-83763718D01*
X105556625Y-83877732D01*
X105539587Y-83941315D01*
X104943074Y-83344802D01*
X104943073Y-83344802D01*
X104910693Y-83389369D01*
X104817794Y-83571693D01*
X104754559Y-83766307D01*
X104722550Y-83968407D01*
X104722550Y-84173042D01*
X104754559Y-84375142D01*
X104817794Y-84569756D01*
X104910691Y-84752075D01*
X104910697Y-84752084D01*
X104943073Y-84796646D01*
X104943074Y-84796647D01*
X105539587Y-84200134D01*
X105556625Y-84263718D01*
X105622451Y-84377732D01*
X105715543Y-84470824D01*
X105829557Y-84536650D01*
X105893140Y-84553687D01*
X105296626Y-85150199D01*
X105341200Y-85182584D01*
X105523518Y-85275480D01*
X105718132Y-85338715D01*
X105920233Y-85370725D01*
X106124867Y-85370725D01*
X106326967Y-85338715D01*
X106521581Y-85275480D01*
X106703899Y-85182584D01*
X106748471Y-85150199D01*
X106151959Y-84553687D01*
X106215543Y-84536650D01*
X106329557Y-84470824D01*
X106422649Y-84377732D01*
X106488475Y-84263718D01*
X106505512Y-84200134D01*
X107102024Y-84796646D01*
X107134409Y-84752074D01*
X107227305Y-84569756D01*
X107290540Y-84375142D01*
X107322550Y-84173042D01*
X107322550Y-83968407D01*
X107290540Y-83766307D01*
X107227305Y-83571693D01*
X107134409Y-83389375D01*
X107102024Y-83344802D01*
X107102024Y-83344801D01*
X106505512Y-83941314D01*
X106488475Y-83877732D01*
X106422649Y-83763718D01*
X106329557Y-83670626D01*
X106215543Y-83604800D01*
X106151958Y-83587762D01*
X106748472Y-82991249D01*
X106748471Y-82991248D01*
X106703909Y-82958872D01*
X106703900Y-82958866D01*
X106610919Y-82911490D01*
X106560123Y-82863515D01*
X106543328Y-82795694D01*
X106565865Y-82729560D01*
X106610920Y-82690520D01*
X106611470Y-82690240D01*
X106704160Y-82643012D01*
X106753694Y-82607023D01*
X106869763Y-82522696D01*
X106869765Y-82522693D01*
X106869769Y-82522691D01*
X107014516Y-82377944D01*
X107014518Y-82377940D01*
X107014521Y-82377938D01*
X107085164Y-82280704D01*
X107134837Y-82212335D01*
X107227770Y-82029944D01*
X107291027Y-81835259D01*
X107323050Y-81633077D01*
X107323050Y-81428373D01*
X107291027Y-81226191D01*
X107227770Y-81031506D01*
X107227768Y-81031503D01*
X107227768Y-81031501D01*
X107194053Y-80965332D01*
X107134837Y-80849115D01*
X107103676Y-80806225D01*
X107014521Y-80683511D01*
X106869763Y-80538753D01*
X106704164Y-80418440D01*
X106697556Y-80415073D01*
X106611467Y-80371208D01*
X106560673Y-80323236D01*
X106543878Y-80255415D01*
X106566415Y-80189280D01*
X106611467Y-80150241D01*
X106704160Y-80103012D01*
X106725320Y-80087638D01*
X106869763Y-79982696D01*
X106869765Y-79982693D01*
X106869769Y-79982691D01*
X107014516Y-79837944D01*
X107014518Y-79837940D01*
X107014521Y-79837938D01*
X107107915Y-79709390D01*
X107134837Y-79672335D01*
X107227770Y-79489944D01*
X107291027Y-79295259D01*
X107323050Y-79093077D01*
X107323050Y-78888373D01*
X107291027Y-78686190D01*
X107227768Y-78491501D01*
X107146253Y-78331520D01*
X107133357Y-78262851D01*
X107159633Y-78198110D01*
X107216740Y-78157853D01*
X107256738Y-78151225D01*
X107369509Y-78151225D01*
X107387652Y-78156552D01*
G37*
%TD.AperFunction*%
%TA.AperFunction,Conductor*%
G36*
X115676066Y-63797514D02*
G01*
X115676840Y-63797453D01*
X115730511Y-63756066D01*
X115800125Y-63750087D01*
X115861920Y-63782692D01*
X115896277Y-63843531D01*
X115899500Y-63871617D01*
X115899500Y-64667530D01*
X115879815Y-64734569D01*
X115827011Y-64780324D01*
X115757853Y-64790268D01*
X115694297Y-64761243D01*
X115675182Y-64740415D01*
X115593247Y-64627641D01*
X115593243Y-64627636D01*
X115437363Y-64471756D01*
X115437358Y-64471752D01*
X115297319Y-64370008D01*
X115254653Y-64314678D01*
X115248674Y-64245065D01*
X115281279Y-64183270D01*
X115297319Y-64169372D01*
X115322513Y-64151066D01*
X115322514Y-64151066D01*
X114613585Y-63442138D01*
X114698694Y-63419333D01*
X114801306Y-63360090D01*
X114885090Y-63276306D01*
X114944333Y-63173694D01*
X114967137Y-63088585D01*
X115676066Y-63797514D01*
G37*
%TD.AperFunction*%
%TA.AperFunction,Conductor*%
G36*
X115818834Y-61629931D02*
G01*
X115874767Y-61671803D01*
X115899184Y-61737267D01*
X115899500Y-61746113D01*
X115899500Y-62128381D01*
X115879815Y-62195420D01*
X115827011Y-62241175D01*
X115757853Y-62251119D01*
X115694297Y-62222094D01*
X115676318Y-62202505D01*
X115676065Y-62202485D01*
X114967137Y-62911413D01*
X114944333Y-62826306D01*
X114885090Y-62723694D01*
X114801306Y-62639910D01*
X114698694Y-62580667D01*
X114613584Y-62557861D01*
X115297601Y-61873844D01*
X115346279Y-61843819D01*
X115494220Y-61794797D01*
X115643581Y-61702670D01*
X115687819Y-61658432D01*
X115749142Y-61624947D01*
X115818834Y-61629931D01*
G37*
%TD.AperFunction*%
%TA.AperFunction,Conductor*%
G36*
X115676066Y-54297514D02*
G01*
X115676840Y-54297453D01*
X115730511Y-54256066D01*
X115800125Y-54250087D01*
X115861920Y-54282692D01*
X115896277Y-54343531D01*
X115899500Y-54371617D01*
X115899500Y-55167530D01*
X115879815Y-55234569D01*
X115827011Y-55280324D01*
X115757853Y-55290268D01*
X115694297Y-55261243D01*
X115675182Y-55240415D01*
X115593247Y-55127641D01*
X115593243Y-55127636D01*
X115437363Y-54971756D01*
X115437358Y-54971752D01*
X115297319Y-54870008D01*
X115254653Y-54814678D01*
X115248674Y-54745065D01*
X115281279Y-54683270D01*
X115297319Y-54669372D01*
X115322513Y-54651066D01*
X115322514Y-54651066D01*
X114613585Y-53942138D01*
X114698694Y-53919333D01*
X114801306Y-53860090D01*
X114885090Y-53776306D01*
X114944333Y-53673694D01*
X114967138Y-53588584D01*
X115676066Y-54297514D01*
G37*
%TD.AperFunction*%
%TA.AperFunction,Conductor*%
G36*
X117220565Y-47609122D02*
G01*
X117266320Y-47661926D01*
X117276264Y-47731084D01*
X117247239Y-47794640D01*
X117200979Y-47827998D01*
X117179794Y-47836772D01*
X117179785Y-47836777D01*
X116969706Y-47958067D01*
X116777263Y-48105733D01*
X116777256Y-48105739D01*
X116605739Y-48277256D01*
X116605733Y-48277263D01*
X116458067Y-48469706D01*
X116336777Y-48679785D01*
X116336773Y-48679794D01*
X116243947Y-48903895D01*
X116181161Y-49138214D01*
X116149500Y-49378711D01*
X116149500Y-49621288D01*
X116181161Y-49861785D01*
X116243947Y-50096104D01*
X116311909Y-50260177D01*
X116336776Y-50320212D01*
X116458064Y-50530289D01*
X116458066Y-50530292D01*
X116458067Y-50530293D01*
X116605733Y-50722736D01*
X116605739Y-50722743D01*
X116777256Y-50894260D01*
X116777263Y-50894266D01*
X116870818Y-50966053D01*
X116969711Y-51041936D01*
X117179788Y-51163224D01*
X117403900Y-51256054D01*
X117638211Y-51318838D01*
X117818586Y-51342584D01*
X117878711Y-51350500D01*
X117878712Y-51350500D01*
X118121289Y-51350500D01*
X118169388Y-51344167D01*
X118361789Y-51318838D01*
X118596100Y-51256054D01*
X118820212Y-51163224D01*
X119030289Y-51041936D01*
X119222738Y-50894265D01*
X119394265Y-50722738D01*
X119541936Y-50530289D01*
X119663224Y-50320212D01*
X119756054Y-50096100D01*
X119756056Y-50096090D01*
X119757357Y-50092262D01*
X119758564Y-50092671D01*
X119792086Y-50037670D01*
X119854932Y-50007138D01*
X119924308Y-50015430D01*
X119978188Y-50059913D01*
X119999465Y-50126464D01*
X119999500Y-50129420D01*
X119999500Y-112870579D01*
X119979815Y-112937618D01*
X119927011Y-112983373D01*
X119857853Y-112993317D01*
X119794297Y-112964292D01*
X119757845Y-112907572D01*
X119757357Y-112907738D01*
X119756690Y-112905775D01*
X119756523Y-112905514D01*
X119756143Y-112904163D01*
X119756054Y-112903901D01*
X119756052Y-112903895D01*
X119663224Y-112679788D01*
X119541936Y-112469711D01*
X119394265Y-112277262D01*
X119394260Y-112277256D01*
X119222743Y-112105739D01*
X119222736Y-112105733D01*
X119030293Y-111958067D01*
X119030292Y-111958066D01*
X119030289Y-111958064D01*
X118820212Y-111836776D01*
X118810058Y-111832570D01*
X118596104Y-111743947D01*
X118361785Y-111681161D01*
X118121289Y-111649500D01*
X118121288Y-111649500D01*
X117878712Y-111649500D01*
X117878711Y-111649500D01*
X117638214Y-111681161D01*
X117403895Y-111743947D01*
X117179794Y-111836773D01*
X117179785Y-111836777D01*
X116969706Y-111958067D01*
X116777263Y-112105733D01*
X116777256Y-112105739D01*
X116605739Y-112277256D01*
X116605733Y-112277263D01*
X116458067Y-112469706D01*
X116336777Y-112679785D01*
X116336773Y-112679794D01*
X116243947Y-112903895D01*
X116181161Y-113138214D01*
X116149500Y-113378711D01*
X116149500Y-113621288D01*
X116181161Y-113861785D01*
X116243947Y-114096104D01*
X116336773Y-114320205D01*
X116336776Y-114320212D01*
X116458064Y-114530289D01*
X116458066Y-114530292D01*
X116458067Y-114530293D01*
X116605733Y-114722736D01*
X116605739Y-114722743D01*
X116777256Y-114894260D01*
X116777262Y-114894265D01*
X116969711Y-115041936D01*
X117179788Y-115163224D01*
X117403900Y-115256054D01*
X117403904Y-115256055D01*
X117407738Y-115257357D01*
X117407328Y-115258564D01*
X117462330Y-115292086D01*
X117492862Y-115354932D01*
X117484570Y-115424308D01*
X117440087Y-115478188D01*
X117373536Y-115499465D01*
X117370580Y-115499500D01*
X58129420Y-115499500D01*
X58062381Y-115479815D01*
X58016626Y-115427011D01*
X58006682Y-115357853D01*
X58035707Y-115294297D01*
X58092427Y-115257845D01*
X58092262Y-115257357D01*
X58094222Y-115256691D01*
X58094485Y-115256523D01*
X58095838Y-115256143D01*
X58096090Y-115256056D01*
X58096100Y-115256054D01*
X58320212Y-115163224D01*
X58530289Y-115041936D01*
X58722738Y-114894265D01*
X58894265Y-114722738D01*
X59041936Y-114530289D01*
X59163224Y-114320212D01*
X59256054Y-114096100D01*
X59318838Y-113861789D01*
X59350500Y-113621288D01*
X59350500Y-113378712D01*
X59318838Y-113138211D01*
X59256054Y-112903900D01*
X59163224Y-112679788D01*
X59041936Y-112469711D01*
X58894265Y-112277262D01*
X58894260Y-112277256D01*
X58722743Y-112105739D01*
X58722736Y-112105733D01*
X58530293Y-111958067D01*
X58530292Y-111958066D01*
X58530289Y-111958064D01*
X58320212Y-111836776D01*
X58310058Y-111832570D01*
X58096104Y-111743947D01*
X57861785Y-111681161D01*
X57621289Y-111649500D01*
X57621288Y-111649500D01*
X57378712Y-111649500D01*
X57378711Y-111649500D01*
X57138214Y-111681161D01*
X56903895Y-111743947D01*
X56679794Y-111836773D01*
X56679785Y-111836777D01*
X56469706Y-111958067D01*
X56277263Y-112105733D01*
X56277256Y-112105739D01*
X56105739Y-112277256D01*
X56105733Y-112277263D01*
X55958067Y-112469706D01*
X55836777Y-112679785D01*
X55836773Y-112679794D01*
X55743945Y-112903901D01*
X55742643Y-112907738D01*
X55741438Y-112907329D01*
X55707905Y-112962337D01*
X55645057Y-112992863D01*
X55575682Y-112984565D01*
X55521806Y-112940077D01*
X55500535Y-112873524D01*
X55500500Y-112870579D01*
X55500500Y-105847648D01*
X60699500Y-105847648D01*
X60699500Y-106052352D01*
X60701281Y-106063599D01*
X60731522Y-106254534D01*
X60794781Y-106449223D01*
X60838223Y-106534481D01*
X60884518Y-106625340D01*
X60887715Y-106631613D01*
X61008028Y-106797213D01*
X61152786Y-106941971D01*
X61307749Y-107054556D01*
X61318390Y-107062287D01*
X61452252Y-107130493D01*
X61469958Y-107139515D01*
X61520754Y-107187490D01*
X61537549Y-107255311D01*
X61515012Y-107321446D01*
X61469958Y-107360485D01*
X61318386Y-107437715D01*
X61152786Y-107558028D01*
X61008028Y-107702786D01*
X60887715Y-107868386D01*
X60794781Y-108050776D01*
X60731522Y-108245465D01*
X60699500Y-108447648D01*
X60699500Y-108652351D01*
X60731522Y-108854534D01*
X60794781Y-109049223D01*
X60887715Y-109231613D01*
X61008028Y-109397213D01*
X61152786Y-109541971D01*
X61293137Y-109643940D01*
X61318390Y-109662287D01*
X61450868Y-109729788D01*
X61469958Y-109739515D01*
X61520754Y-109787490D01*
X61537549Y-109855311D01*
X61515012Y-109921446D01*
X61469958Y-109960485D01*
X61318386Y-110037715D01*
X61152786Y-110158028D01*
X61008028Y-110302786D01*
X60887715Y-110468386D01*
X60794781Y-110650776D01*
X60731522Y-110845465D01*
X60699500Y-111047648D01*
X60699500Y-111252351D01*
X60731522Y-111454534D01*
X60794781Y-111649223D01*
X60887715Y-111831613D01*
X61008028Y-111997213D01*
X61152786Y-112141971D01*
X61307749Y-112254556D01*
X61318390Y-112262287D01*
X61434607Y-112321503D01*
X61500776Y-112355218D01*
X61500778Y-112355218D01*
X61500781Y-112355220D01*
X61605137Y-112389127D01*
X61695465Y-112418477D01*
X61796557Y-112434488D01*
X61897648Y-112450500D01*
X61897649Y-112450500D01*
X62102351Y-112450500D01*
X62102352Y-112450500D01*
X62304534Y-112418477D01*
X62499219Y-112355220D01*
X62681610Y-112262287D01*
X62774590Y-112194732D01*
X62847213Y-112141971D01*
X62847215Y-112141968D01*
X62847219Y-112141966D01*
X62991966Y-111997219D01*
X62991968Y-111997215D01*
X62991971Y-111997213D01*
X63075960Y-111881610D01*
X63112287Y-111831610D01*
X63205220Y-111649219D01*
X63268477Y-111454534D01*
X63300500Y-111252352D01*
X63300500Y-111047648D01*
X63290314Y-110983335D01*
X63268477Y-110845465D01*
X63221464Y-110700776D01*
X63205220Y-110650781D01*
X63205218Y-110650778D01*
X63205218Y-110650776D01*
X63154584Y-110551402D01*
X63112287Y-110468390D01*
X63104556Y-110457749D01*
X62991971Y-110302786D01*
X62847213Y-110158028D01*
X62681614Y-110037715D01*
X62597349Y-109994780D01*
X62530040Y-109960484D01*
X62479245Y-109912511D01*
X62462450Y-109844690D01*
X62484987Y-109778555D01*
X62530039Y-109739515D01*
X62681610Y-109662287D01*
X62767902Y-109599593D01*
X62847213Y-109541971D01*
X62847215Y-109541968D01*
X62847219Y-109541966D01*
X62991966Y-109397219D01*
X62991968Y-109397215D01*
X62991971Y-109397213D01*
X63075960Y-109281610D01*
X63112287Y-109231610D01*
X63205220Y-109049219D01*
X63268477Y-108854534D01*
X63300500Y-108652352D01*
X63300500Y-108447648D01*
X63268477Y-108245466D01*
X63205220Y-108050781D01*
X63205218Y-108050778D01*
X63205218Y-108050776D01*
X63137761Y-107918386D01*
X63112287Y-107868390D01*
X63104556Y-107857749D01*
X62991971Y-107702786D01*
X62847213Y-107558028D01*
X62681614Y-107437715D01*
X62606611Y-107399499D01*
X62530040Y-107360484D01*
X62479245Y-107312511D01*
X62462450Y-107244690D01*
X62484987Y-107178555D01*
X62530039Y-107139515D01*
X62681610Y-107062287D01*
X62702770Y-107046913D01*
X62847213Y-106941971D01*
X62847215Y-106941968D01*
X62847219Y-106941966D01*
X62991966Y-106797219D01*
X62991968Y-106797215D01*
X62991971Y-106797213D01*
X63101624Y-106646286D01*
X63112287Y-106631610D01*
X63205220Y-106449219D01*
X63268477Y-106254534D01*
X63300500Y-106052352D01*
X63300500Y-105847648D01*
X63268477Y-105645465D01*
X63205218Y-105450776D01*
X63155859Y-105353905D01*
X63112287Y-105268390D01*
X63043751Y-105174057D01*
X62991971Y-105102786D01*
X62847213Y-104958028D01*
X62681613Y-104837715D01*
X62681612Y-104837714D01*
X62681610Y-104837713D01*
X62597212Y-104794710D01*
X62529491Y-104760204D01*
X62478695Y-104712229D01*
X62461900Y-104644408D01*
X62484438Y-104578273D01*
X62529492Y-104539234D01*
X62681346Y-104461861D01*
X62681347Y-104461861D01*
X62725921Y-104429474D01*
X62129409Y-103832962D01*
X62192993Y-103815925D01*
X62307007Y-103750099D01*
X62400099Y-103657007D01*
X62465925Y-103542993D01*
X62482962Y-103479410D01*
X63079474Y-104075922D01*
X63079474Y-104075921D01*
X63111859Y-104031349D01*
X63204755Y-103849031D01*
X63267990Y-103654417D01*
X63300000Y-103452317D01*
X63300000Y-103247682D01*
X63267990Y-103045582D01*
X63204755Y-102850968D01*
X63111859Y-102668650D01*
X63079474Y-102624077D01*
X63079474Y-102624076D01*
X62482962Y-103220589D01*
X62465925Y-103157007D01*
X62400099Y-103042993D01*
X62307007Y-102949901D01*
X62192993Y-102884075D01*
X62129408Y-102867037D01*
X62725922Y-102270524D01*
X62725921Y-102270523D01*
X62681359Y-102238147D01*
X62681350Y-102238141D01*
X62499031Y-102145244D01*
X62304417Y-102082009D01*
X62102317Y-102050000D01*
X61897683Y-102050000D01*
X61695582Y-102082009D01*
X61500968Y-102145244D01*
X61318644Y-102238143D01*
X61274077Y-102270523D01*
X61274077Y-102270524D01*
X61870591Y-102867037D01*
X61807007Y-102884075D01*
X61692993Y-102949901D01*
X61599901Y-103042993D01*
X61534075Y-103157007D01*
X61517037Y-103220590D01*
X60920524Y-102624077D01*
X60920523Y-102624077D01*
X60888143Y-102668644D01*
X60795244Y-102850968D01*
X60732009Y-103045582D01*
X60700000Y-103247682D01*
X60700000Y-103452317D01*
X60732009Y-103654417D01*
X60795244Y-103849031D01*
X60888141Y-104031350D01*
X60888147Y-104031359D01*
X60920523Y-104075921D01*
X60920524Y-104075922D01*
X61517037Y-103479408D01*
X61534075Y-103542993D01*
X61599901Y-103657007D01*
X61692993Y-103750099D01*
X61807007Y-103815925D01*
X61870590Y-103832962D01*
X61274076Y-104429474D01*
X61318652Y-104461861D01*
X61470507Y-104539234D01*
X61521304Y-104587208D01*
X61538099Y-104655029D01*
X61515562Y-104721164D01*
X61470508Y-104760203D01*
X61318391Y-104837711D01*
X61318389Y-104837712D01*
X61152786Y-104958028D01*
X61008028Y-105102786D01*
X60887715Y-105268386D01*
X60794781Y-105450776D01*
X60731522Y-105645465D01*
X60699500Y-105847648D01*
X55500500Y-105847648D01*
X55500500Y-96897648D01*
X57699500Y-96897648D01*
X57699500Y-97102351D01*
X57731522Y-97304534D01*
X57794781Y-97499223D01*
X57858691Y-97624653D01*
X57880161Y-97666789D01*
X57887715Y-97681613D01*
X58008028Y-97847213D01*
X58152786Y-97991971D01*
X58307749Y-98104556D01*
X58318390Y-98112287D01*
X58434607Y-98171503D01*
X58500776Y-98205218D01*
X58500778Y-98205218D01*
X58500781Y-98205220D01*
X58605137Y-98239127D01*
X58695465Y-98268477D01*
X58796557Y-98284488D01*
X58897648Y-98300500D01*
X58897649Y-98300500D01*
X59102351Y-98300500D01*
X59102352Y-98300500D01*
X59304534Y-98268477D01*
X59318842Y-98263827D01*
X59388682Y-98261831D01*
X59444842Y-98294077D01*
X66068108Y-104917344D01*
X66101593Y-104978667D01*
X66096609Y-105048359D01*
X66068109Y-105092706D01*
X66008027Y-105152788D01*
X65887715Y-105318386D01*
X65794781Y-105500776D01*
X65731522Y-105695465D01*
X65699500Y-105897648D01*
X65699500Y-106102351D01*
X65731522Y-106304534D01*
X65794781Y-106499223D01*
X65845876Y-106599500D01*
X65869714Y-106646286D01*
X65887715Y-106681613D01*
X66008028Y-106847213D01*
X66152786Y-106991971D01*
X66249566Y-107062284D01*
X66318390Y-107112287D01*
X66397874Y-107152786D01*
X66469958Y-107189515D01*
X66520754Y-107237490D01*
X66537549Y-107305311D01*
X66515012Y-107371446D01*
X66469958Y-107410485D01*
X66318386Y-107487715D01*
X66152786Y-107608028D01*
X66008028Y-107752786D01*
X65887715Y-107918386D01*
X65794781Y-108100776D01*
X65731522Y-108295465D01*
X65699500Y-108497648D01*
X65699500Y-108702351D01*
X65731522Y-108904534D01*
X65794781Y-109099223D01*
X65840931Y-109189795D01*
X65881021Y-109268477D01*
X65887715Y-109281613D01*
X66008028Y-109447213D01*
X66152786Y-109591971D01*
X66249566Y-109662284D01*
X66318390Y-109712287D01*
X66402651Y-109755220D01*
X66469958Y-109789515D01*
X66520754Y-109837490D01*
X66537549Y-109905311D01*
X66515012Y-109971446D01*
X66469958Y-110010485D01*
X66318386Y-110087715D01*
X66152786Y-110208028D01*
X66008028Y-110352786D01*
X65887715Y-110518386D01*
X65794781Y-110700776D01*
X65731522Y-110895465D01*
X65699500Y-111097648D01*
X65699500Y-111302351D01*
X65731522Y-111504534D01*
X65794781Y-111699223D01*
X65842217Y-111792320D01*
X65864869Y-111836777D01*
X65887715Y-111881613D01*
X66008028Y-112047213D01*
X66152786Y-112191971D01*
X66270183Y-112277263D01*
X66318390Y-112312287D01*
X66402647Y-112355218D01*
X66500776Y-112405218D01*
X66500778Y-112405218D01*
X66500781Y-112405220D01*
X66605137Y-112439127D01*
X66695465Y-112468477D01*
X66796557Y-112484488D01*
X66897648Y-112500500D01*
X66897649Y-112500500D01*
X67102351Y-112500500D01*
X67102352Y-112500500D01*
X67304534Y-112468477D01*
X67499219Y-112405220D01*
X67681610Y-112312287D01*
X67774590Y-112244732D01*
X67847213Y-112191971D01*
X67847215Y-112191968D01*
X67847219Y-112191966D01*
X67991966Y-112047219D01*
X67991968Y-112047215D01*
X67991971Y-112047213D01*
X68056740Y-111958064D01*
X68112287Y-111881610D01*
X68205220Y-111699219D01*
X68228932Y-111626238D01*
X68241085Y-111588839D01*
X68241085Y-111588838D01*
X68268476Y-111504538D01*
X68268476Y-111504537D01*
X68268477Y-111504534D01*
X68300500Y-111302352D01*
X68300500Y-111097648D01*
X68295766Y-111067758D01*
X68268477Y-110895465D01*
X68235181Y-110792993D01*
X68205220Y-110700781D01*
X68205218Y-110700778D01*
X68205218Y-110700776D01*
X68139534Y-110571865D01*
X68113329Y-110520436D01*
X68112287Y-110518390D01*
X68097242Y-110497682D01*
X67991971Y-110352786D01*
X67847213Y-110208028D01*
X67681614Y-110087715D01*
X67644046Y-110068573D01*
X67530040Y-110010484D01*
X67479245Y-109962511D01*
X67462450Y-109894690D01*
X67484987Y-109828555D01*
X67530039Y-109789515D01*
X67681610Y-109712287D01*
X67760830Y-109654731D01*
X67847213Y-109591971D01*
X67847215Y-109591968D01*
X67847219Y-109591966D01*
X67991966Y-109447219D01*
X67991968Y-109447215D01*
X67991971Y-109447213D01*
X68064684Y-109347130D01*
X68112287Y-109281610D01*
X68205220Y-109099219D01*
X68268477Y-108904534D01*
X68300500Y-108702352D01*
X68300500Y-108497648D01*
X68268477Y-108295466D01*
X68205220Y-108100781D01*
X68205218Y-108100778D01*
X68205218Y-108100776D01*
X68171503Y-108034607D01*
X68112287Y-107918390D01*
X68097217Y-107897648D01*
X67991971Y-107752786D01*
X67847213Y-107608028D01*
X67681614Y-107487715D01*
X67588798Y-107440423D01*
X67530040Y-107410484D01*
X67479245Y-107362511D01*
X67462450Y-107294690D01*
X67484987Y-107228555D01*
X67530039Y-107189515D01*
X67681610Y-107112287D01*
X67750434Y-107062284D01*
X67847213Y-106991971D01*
X67847215Y-106991968D01*
X67847219Y-106991966D01*
X67991966Y-106847219D01*
X67991968Y-106847215D01*
X67991971Y-106847213D01*
X68075829Y-106731790D01*
X68112287Y-106681610D01*
X68205220Y-106499219D01*
X68268477Y-106304534D01*
X68300500Y-106102352D01*
X68300500Y-105897648D01*
X68273989Y-105730264D01*
X68268477Y-105695465D01*
X68237621Y-105600500D01*
X68205220Y-105500781D01*
X68205218Y-105500778D01*
X68205218Y-105500776D01*
X68112287Y-105318390D01*
X68097026Y-105297385D01*
X68073547Y-105231578D01*
X68089373Y-105163524D01*
X68139479Y-105114830D01*
X68197345Y-105100500D01*
X89299903Y-105100500D01*
X89366942Y-105120185D01*
X89387584Y-105136819D01*
X91438584Y-107187819D01*
X91472069Y-107249142D01*
X91467085Y-107318834D01*
X91425213Y-107374767D01*
X91359749Y-107399184D01*
X91350903Y-107399500D01*
X88246670Y-107399500D01*
X88246654Y-107399499D01*
X88239058Y-107399499D01*
X88080943Y-107399499D01*
X88004579Y-107419961D01*
X87928214Y-107440423D01*
X87928209Y-107440426D01*
X87791290Y-107519475D01*
X87791282Y-107519481D01*
X85957022Y-109353741D01*
X85895699Y-109387226D01*
X85840404Y-109386636D01*
X85836344Y-109385661D01*
X85649623Y-109356088D01*
X85639597Y-109354500D01*
X85440403Y-109354500D01*
X85388062Y-109362790D01*
X85243659Y-109385661D01*
X85243656Y-109385661D01*
X85054219Y-109447213D01*
X84876733Y-109537647D01*
X84791473Y-109599593D01*
X84715582Y-109654731D01*
X84715580Y-109654733D01*
X84715579Y-109654733D01*
X84574733Y-109795579D01*
X84574733Y-109795580D01*
X84574731Y-109795582D01*
X84550775Y-109828555D01*
X84457647Y-109956733D01*
X84380485Y-110108172D01*
X84332510Y-110158968D01*
X84264689Y-110175763D01*
X84198554Y-110153225D01*
X84159515Y-110108172D01*
X84089849Y-109971446D01*
X84082353Y-109956734D01*
X83965269Y-109795582D01*
X83824418Y-109654731D01*
X83663266Y-109537647D01*
X83629658Y-109520523D01*
X83485780Y-109447213D01*
X83296342Y-109385661D01*
X83148782Y-109362290D01*
X83099597Y-109354500D01*
X82900403Y-109354500D01*
X82848062Y-109362790D01*
X82703659Y-109385661D01*
X82703656Y-109385661D01*
X82514219Y-109447213D01*
X82336733Y-109537647D01*
X82251473Y-109599593D01*
X82175582Y-109654731D01*
X82175580Y-109654733D01*
X82175579Y-109654733D01*
X82034733Y-109795579D01*
X82034733Y-109795580D01*
X82034731Y-109795582D01*
X82010775Y-109828555D01*
X81917647Y-109956733D01*
X81840485Y-110108172D01*
X81792510Y-110158968D01*
X81724689Y-110175763D01*
X81658554Y-110153225D01*
X81619515Y-110108172D01*
X81549849Y-109971446D01*
X81542353Y-109956734D01*
X81425269Y-109795582D01*
X81284418Y-109654731D01*
X81123266Y-109537647D01*
X81089658Y-109520523D01*
X80945780Y-109447213D01*
X80756342Y-109385661D01*
X80608782Y-109362290D01*
X80559597Y-109354500D01*
X80360403Y-109354500D01*
X80308062Y-109362790D01*
X80163659Y-109385661D01*
X80163656Y-109385661D01*
X79974219Y-109447213D01*
X79796733Y-109537647D01*
X79711473Y-109599593D01*
X79635582Y-109654731D01*
X79635580Y-109654733D01*
X79635579Y-109654733D01*
X79494733Y-109795579D01*
X79494733Y-109795580D01*
X79494731Y-109795582D01*
X79470775Y-109828555D01*
X79377647Y-109956733D01*
X79300485Y-110108172D01*
X79252510Y-110158968D01*
X79184689Y-110175763D01*
X79118554Y-110153225D01*
X79079515Y-110108172D01*
X79009849Y-109971446D01*
X79002353Y-109956734D01*
X78885269Y-109795582D01*
X78744418Y-109654731D01*
X78583266Y-109537647D01*
X78549658Y-109520523D01*
X78405780Y-109447213D01*
X78216342Y-109385661D01*
X78068782Y-109362290D01*
X78019597Y-109354500D01*
X77820403Y-109354500D01*
X77768062Y-109362790D01*
X77623659Y-109385661D01*
X77623656Y-109385661D01*
X77434219Y-109447213D01*
X77256733Y-109537647D01*
X77171473Y-109599593D01*
X77095582Y-109654731D01*
X77095580Y-109654733D01*
X77095579Y-109654733D01*
X76954733Y-109795579D01*
X76954733Y-109795580D01*
X76954731Y-109795582D01*
X76930775Y-109828555D01*
X76837647Y-109956733D01*
X76760485Y-110108172D01*
X76712510Y-110158968D01*
X76644689Y-110175763D01*
X76578554Y-110153225D01*
X76539515Y-110108172D01*
X76469849Y-109971446D01*
X76462353Y-109956734D01*
X76345269Y-109795582D01*
X76204418Y-109654731D01*
X76043266Y-109537647D01*
X76009658Y-109520523D01*
X75865780Y-109447213D01*
X75676342Y-109385661D01*
X75528782Y-109362290D01*
X75479597Y-109354500D01*
X75280403Y-109354500D01*
X75228062Y-109362790D01*
X75083659Y-109385661D01*
X75083656Y-109385661D01*
X74894219Y-109447213D01*
X74716733Y-109537647D01*
X74631473Y-109599593D01*
X74555582Y-109654731D01*
X74555580Y-109654733D01*
X74555579Y-109654733D01*
X74414733Y-109795579D01*
X74414733Y-109795580D01*
X74414731Y-109795582D01*
X74407729Y-109805220D01*
X74297645Y-109956735D01*
X74220203Y-110108723D01*
X74172229Y-110159518D01*
X74104408Y-110176313D01*
X74038273Y-110153775D01*
X73999234Y-110108722D01*
X73921924Y-109956994D01*
X73894417Y-109919135D01*
X73894417Y-109919134D01*
X73331128Y-110482424D01*
X73315245Y-110423147D01*
X73248102Y-110306853D01*
X73153147Y-110211898D01*
X73036853Y-110144755D01*
X72977574Y-110128871D01*
X73540864Y-109565581D01*
X73540863Y-109565580D01*
X73503008Y-109538077D01*
X73325594Y-109447679D01*
X73136222Y-109386147D01*
X72939563Y-109355000D01*
X72740437Y-109355000D01*
X72543777Y-109386147D01*
X72354405Y-109447679D01*
X72176990Y-109538077D01*
X72139135Y-109565580D01*
X72139135Y-109565581D01*
X72702425Y-110128871D01*
X72643147Y-110144755D01*
X72526853Y-110211898D01*
X72431898Y-110306853D01*
X72364755Y-110423147D01*
X72348871Y-110482425D01*
X71785581Y-109919135D01*
X71785580Y-109919135D01*
X71758077Y-109956990D01*
X71667679Y-110134405D01*
X71606147Y-110323777D01*
X71575000Y-110520436D01*
X71575000Y-110719563D01*
X71606147Y-110916222D01*
X71667679Y-111105594D01*
X71758077Y-111283008D01*
X71785580Y-111320863D01*
X71785581Y-111320864D01*
X72348871Y-110757574D01*
X72364755Y-110816853D01*
X72431898Y-110933147D01*
X72526853Y-111028102D01*
X72643147Y-111095245D01*
X72702425Y-111111128D01*
X72139134Y-111674417D01*
X72176994Y-111701924D01*
X72354405Y-111792320D01*
X72543777Y-111853852D01*
X72740437Y-111885000D01*
X72939563Y-111885000D01*
X73136222Y-111853852D01*
X73325594Y-111792320D01*
X73503005Y-111701924D01*
X73540863Y-111674418D01*
X73540863Y-111674417D01*
X72977574Y-111111128D01*
X73036853Y-111095245D01*
X73153147Y-111028102D01*
X73248102Y-110933147D01*
X73315245Y-110816853D01*
X73331128Y-110757574D01*
X73894417Y-111320863D01*
X73894418Y-111320863D01*
X73921924Y-111283005D01*
X73999234Y-111131277D01*
X74047208Y-111080481D01*
X74115029Y-111063686D01*
X74181164Y-111086223D01*
X74220204Y-111131277D01*
X74296671Y-111281350D01*
X74297647Y-111283266D01*
X74414731Y-111444418D01*
X74555582Y-111585269D01*
X74716734Y-111702353D01*
X74798365Y-111743946D01*
X74894219Y-111792786D01*
X75083657Y-111854338D01*
X75083658Y-111854338D01*
X75083661Y-111854339D01*
X75280403Y-111885500D01*
X75280404Y-111885500D01*
X75479596Y-111885500D01*
X75479597Y-111885500D01*
X75676339Y-111854339D01*
X75676342Y-111854338D01*
X75676343Y-111854338D01*
X75865780Y-111792786D01*
X75865780Y-111792785D01*
X75865783Y-111792785D01*
X76043266Y-111702353D01*
X76204418Y-111585269D01*
X76345269Y-111444418D01*
X76462353Y-111283266D01*
X76539515Y-111131827D01*
X76587490Y-111081031D01*
X76655311Y-111064236D01*
X76721446Y-111086773D01*
X76760485Y-111131827D01*
X76837647Y-111283266D01*
X76954731Y-111444418D01*
X77095582Y-111585269D01*
X77256734Y-111702353D01*
X77338365Y-111743946D01*
X77434219Y-111792786D01*
X77623657Y-111854338D01*
X77623658Y-111854338D01*
X77623661Y-111854339D01*
X77820403Y-111885500D01*
X77820404Y-111885500D01*
X78019596Y-111885500D01*
X78019597Y-111885500D01*
X78216339Y-111854339D01*
X78216342Y-111854338D01*
X78216343Y-111854338D01*
X78405780Y-111792786D01*
X78405780Y-111792785D01*
X78405783Y-111792785D01*
X78583266Y-111702353D01*
X78744418Y-111585269D01*
X78885269Y-111444418D01*
X79002353Y-111283266D01*
X79079515Y-111131827D01*
X79127490Y-111081031D01*
X79195311Y-111064236D01*
X79261446Y-111086773D01*
X79300485Y-111131827D01*
X79377647Y-111283266D01*
X79494731Y-111444418D01*
X79635582Y-111585269D01*
X79796734Y-111702353D01*
X79878365Y-111743946D01*
X79974219Y-111792786D01*
X80163657Y-111854338D01*
X80163658Y-111854338D01*
X80163661Y-111854339D01*
X80360403Y-111885500D01*
X80360404Y-111885500D01*
X80559596Y-111885500D01*
X80559597Y-111885500D01*
X80756339Y-111854339D01*
X80756358Y-111854332D01*
X80760378Y-111853368D01*
X80830161Y-111856849D01*
X80877022Y-111886257D01*
X81755139Y-112764374D01*
X81755149Y-112764385D01*
X81759479Y-112768715D01*
X81759480Y-112768716D01*
X81871284Y-112880520D01*
X81958095Y-112930639D01*
X81958097Y-112930641D01*
X81974441Y-112940077D01*
X82008215Y-112959577D01*
X82160943Y-113000500D01*
X82319057Y-113000500D01*
X113013331Y-113000500D01*
X113013347Y-113000501D01*
X113020943Y-113000501D01*
X113179054Y-113000501D01*
X113179057Y-113000501D01*
X113331785Y-112959577D01*
X113381904Y-112930639D01*
X113468716Y-112880520D01*
X113580520Y-112768716D01*
X113580520Y-112768714D01*
X113590728Y-112758507D01*
X113590730Y-112758504D01*
X116858506Y-109490728D01*
X116858511Y-109490724D01*
X116868714Y-109480520D01*
X116868716Y-109480520D01*
X116980520Y-109368716D01*
X117019904Y-109300500D01*
X117030810Y-109281611D01*
X117030810Y-109281610D01*
X117059576Y-109231786D01*
X117059577Y-109231785D01*
X117100500Y-109079057D01*
X117100500Y-108920943D01*
X117100500Y-53024060D01*
X117100501Y-53024047D01*
X117100501Y-52855945D01*
X117100501Y-52855943D01*
X117059577Y-52703215D01*
X116980520Y-52566284D01*
X115961819Y-51547583D01*
X115928334Y-51486260D01*
X115925500Y-51459902D01*
X115925500Y-50260177D01*
X115925499Y-50260166D01*
X115925374Y-50258946D01*
X115914996Y-50157362D01*
X115906240Y-50130939D01*
X115882705Y-50059913D01*
X115859797Y-49990780D01*
X115767670Y-49841419D01*
X115643581Y-49717330D01*
X115543535Y-49655621D01*
X115494222Y-49625204D01*
X115494217Y-49625202D01*
X115327638Y-49570003D01*
X115224833Y-49559500D01*
X115224826Y-49559500D01*
X113825174Y-49559500D01*
X113825166Y-49559500D01*
X113722361Y-49570003D01*
X113555782Y-49625202D01*
X113555777Y-49625204D01*
X113406417Y-49717331D01*
X113282331Y-49841417D01*
X113190204Y-49990777D01*
X113190202Y-49990782D01*
X113135003Y-50157361D01*
X113124500Y-50260166D01*
X113124500Y-51659833D01*
X113135003Y-51762638D01*
X113190202Y-51929217D01*
X113190203Y-51929220D01*
X113282330Y-52078581D01*
X113406419Y-52202670D01*
X113555780Y-52294797D01*
X113703718Y-52343818D01*
X113752396Y-52373843D01*
X114436415Y-53057861D01*
X114351306Y-53080667D01*
X114248694Y-53139910D01*
X114164910Y-53223694D01*
X114105667Y-53326306D01*
X114082861Y-53411414D01*
X113373932Y-52702485D01*
X113373931Y-52702485D01*
X113327616Y-52766233D01*
X113227567Y-52962589D01*
X113159473Y-53172164D01*
X113125000Y-53389818D01*
X113125000Y-53610181D01*
X113159473Y-53827835D01*
X113227567Y-54037410D01*
X113327611Y-54233756D01*
X113373932Y-54297513D01*
X114082861Y-53588584D01*
X114105667Y-53673694D01*
X114164910Y-53776306D01*
X114248694Y-53860090D01*
X114351306Y-53919333D01*
X114436414Y-53942137D01*
X113727485Y-54651065D01*
X113727485Y-54651066D01*
X113752680Y-54669371D01*
X113795346Y-54724701D01*
X113801325Y-54794314D01*
X113768720Y-54856110D01*
X113752681Y-54870008D01*
X113612636Y-54971756D01*
X113456756Y-55127636D01*
X113456752Y-55127641D01*
X113327187Y-55305974D01*
X113227104Y-55502393D01*
X113227103Y-55502396D01*
X113158985Y-55712047D01*
X113124500Y-55929778D01*
X113124500Y-56150221D01*
X113158985Y-56367952D01*
X113227103Y-56577603D01*
X113227104Y-56577606D01*
X113327187Y-56774025D01*
X113456752Y-56952358D01*
X113456756Y-56952363D01*
X113612636Y-57108243D01*
X113612641Y-57108247D01*
X113768192Y-57221260D01*
X113790978Y-57237815D01*
X113919375Y-57303237D01*
X113987393Y-57337895D01*
X113987396Y-57337896D01*
X114092221Y-57371955D01*
X114197049Y-57406015D01*
X114414778Y-57440500D01*
X114414779Y-57440500D01*
X114635221Y-57440500D01*
X114635222Y-57440500D01*
X114852951Y-57406015D01*
X115062606Y-57337895D01*
X115259022Y-57237815D01*
X115437365Y-57108242D01*
X115593242Y-56952365D01*
X115675182Y-56839582D01*
X115730511Y-56796918D01*
X115800124Y-56790939D01*
X115861920Y-56823544D01*
X115896277Y-56884383D01*
X115899500Y-56912469D01*
X115899500Y-59173887D01*
X115879815Y-59240926D01*
X115827011Y-59286681D01*
X115757853Y-59296625D01*
X115694297Y-59267600D01*
X115687819Y-59261568D01*
X115643582Y-59217331D01*
X115643581Y-59217330D01*
X115494220Y-59125203D01*
X115494217Y-59125202D01*
X115327638Y-59070003D01*
X115224833Y-59059500D01*
X115224826Y-59059500D01*
X113825174Y-59059500D01*
X113825166Y-59059500D01*
X113722361Y-59070003D01*
X113555782Y-59125202D01*
X113555777Y-59125204D01*
X113406417Y-59217331D01*
X113282331Y-59341417D01*
X113190204Y-59490777D01*
X113190202Y-59490782D01*
X113135003Y-59657361D01*
X113124500Y-59760166D01*
X113124500Y-60959902D01*
X113104815Y-61026941D01*
X113088181Y-61047583D01*
X109419481Y-64716282D01*
X109419475Y-64716290D01*
X109381162Y-64782652D01*
X109330596Y-64830868D01*
X109261989Y-64844092D01*
X109197124Y-64818124D01*
X109156595Y-64761210D01*
X109149775Y-64720653D01*
X109149775Y-60088334D01*
X109149776Y-60088321D01*
X109149776Y-59920220D01*
X109149776Y-59920218D01*
X109108852Y-59767490D01*
X109079914Y-59717370D01*
X109029795Y-59630559D01*
X108917991Y-59518755D01*
X108917990Y-59518754D01*
X108913660Y-59514424D01*
X108913649Y-59514414D01*
X101794077Y-52394842D01*
X101760592Y-52333519D01*
X101763828Y-52268841D01*
X101768477Y-52254534D01*
X101800500Y-52052352D01*
X101800500Y-51847648D01*
X101770753Y-51659833D01*
X101768477Y-51645465D01*
X101716748Y-51486260D01*
X101705220Y-51450781D01*
X101705218Y-51450778D01*
X101705218Y-51450776D01*
X101654124Y-51350500D01*
X101612287Y-51268390D01*
X101535882Y-51163226D01*
X101491971Y-51102786D01*
X101347213Y-50958028D01*
X101181613Y-50837715D01*
X101181612Y-50837714D01*
X101181610Y-50837713D01*
X101118375Y-50805493D01*
X100999223Y-50744781D01*
X100804534Y-50681522D01*
X100629995Y-50653878D01*
X100602352Y-50649500D01*
X100397648Y-50649500D01*
X100373329Y-50653351D01*
X100195465Y-50681522D01*
X100000776Y-50744781D01*
X99818386Y-50837715D01*
X99652786Y-50958028D01*
X99508028Y-51102786D01*
X99387715Y-51268386D01*
X99294781Y-51450776D01*
X99231522Y-51645465D01*
X99199500Y-51847648D01*
X99199500Y-52052351D01*
X99231522Y-52254534D01*
X99294781Y-52449223D01*
X99387715Y-52631613D01*
X99508028Y-52797213D01*
X99652786Y-52941971D01*
X99818388Y-53062286D01*
X99871828Y-53089516D01*
X99922623Y-53137490D01*
X99939418Y-53205312D01*
X99916880Y-53271446D01*
X99871828Y-53310484D01*
X99818388Y-53337713D01*
X99652786Y-53458028D01*
X99508028Y-53602786D01*
X99387715Y-53768386D01*
X99294781Y-53950776D01*
X99231522Y-54145465D01*
X99199500Y-54347648D01*
X99199500Y-54552351D01*
X99231522Y-54754534D01*
X99294781Y-54949223D01*
X99358691Y-55074653D01*
X99385688Y-55127636D01*
X99387715Y-55131613D01*
X99508028Y-55297213D01*
X99652786Y-55441971D01*
X99786401Y-55539046D01*
X99818390Y-55562287D01*
X99934607Y-55621503D01*
X100000776Y-55655218D01*
X100000778Y-55655218D01*
X100000781Y-55655220D01*
X100105137Y-55689127D01*
X100195465Y-55718477D01*
X100296557Y-55734488D01*
X100397648Y-55750500D01*
X100397649Y-55750500D01*
X100496638Y-55750500D01*
X100563677Y-55770185D01*
X100609432Y-55822989D01*
X100620638Y-55874500D01*
X100620638Y-60922041D01*
X100600953Y-60989080D01*
X100548149Y-61034835D01*
X100478991Y-61044779D01*
X100415435Y-61015754D01*
X100408957Y-61009722D01*
X91794077Y-52394842D01*
X91760592Y-52333519D01*
X91763828Y-52268841D01*
X91768477Y-52254534D01*
X91800500Y-52052352D01*
X91800500Y-51847648D01*
X91770753Y-51659833D01*
X91768477Y-51645465D01*
X91716748Y-51486260D01*
X91705220Y-51450781D01*
X91705218Y-51450778D01*
X91705218Y-51450776D01*
X91654124Y-51350500D01*
X91612287Y-51268390D01*
X91535882Y-51163226D01*
X91491971Y-51102786D01*
X91347213Y-50958028D01*
X91181613Y-50837715D01*
X91181612Y-50837714D01*
X91181610Y-50837713D01*
X91118375Y-50805493D01*
X90999223Y-50744781D01*
X90804534Y-50681522D01*
X90629995Y-50653878D01*
X90602352Y-50649500D01*
X90397648Y-50649500D01*
X90373329Y-50653351D01*
X90195465Y-50681522D01*
X90000776Y-50744781D01*
X89818386Y-50837715D01*
X89652786Y-50958028D01*
X89508028Y-51102786D01*
X89387715Y-51268386D01*
X89294781Y-51450776D01*
X89231522Y-51645465D01*
X89199500Y-51847648D01*
X89199500Y-52052351D01*
X89231522Y-52254534D01*
X89294781Y-52449223D01*
X89387715Y-52631613D01*
X89508028Y-52797213D01*
X89652786Y-52941971D01*
X89818388Y-53062286D01*
X89871828Y-53089516D01*
X89922623Y-53137490D01*
X89939418Y-53205312D01*
X89916880Y-53271446D01*
X89871828Y-53310484D01*
X89818388Y-53337713D01*
X89652786Y-53458028D01*
X89508028Y-53602786D01*
X89387715Y-53768386D01*
X89294781Y-53950776D01*
X89231522Y-54145465D01*
X89199500Y-54347648D01*
X89199500Y-54552351D01*
X89231522Y-54754534D01*
X89236173Y-54768848D01*
X89236606Y-54784058D01*
X89241924Y-54798314D01*
X89237582Y-54818272D01*
X89238165Y-54838690D01*
X89230077Y-54852774D01*
X89227073Y-54866587D01*
X89205922Y-54894842D01*
X89131286Y-54969478D01*
X89131285Y-54969478D01*
X89131284Y-54969479D01*
X89019481Y-55081282D01*
X89019479Y-55081285D01*
X88990426Y-55131608D01*
X88990425Y-55131610D01*
X88940423Y-55218214D01*
X88940423Y-55218215D01*
X88899499Y-55370943D01*
X88899499Y-55370945D01*
X88899499Y-55539046D01*
X88899500Y-55539059D01*
X88899500Y-78420234D01*
X88879815Y-78487273D01*
X88878602Y-78489125D01*
X88790609Y-78620814D01*
X88790602Y-78620827D01*
X88730264Y-78766498D01*
X88730261Y-78766510D01*
X88699500Y-78921153D01*
X88699500Y-79078846D01*
X88730261Y-79233489D01*
X88730264Y-79233501D01*
X88790602Y-79379172D01*
X88790609Y-79379185D01*
X88878210Y-79510288D01*
X88878213Y-79510292D01*
X88989707Y-79621786D01*
X88989711Y-79621789D01*
X89120814Y-79709390D01*
X89120827Y-79709397D01*
X89266498Y-79769735D01*
X89266503Y-79769737D01*
X89421153Y-79800499D01*
X89421156Y-79800500D01*
X89421158Y-79800500D01*
X89578844Y-79800500D01*
X89578845Y-79800499D01*
X89610801Y-79794142D01*
X89697087Y-79776980D01*
X89766678Y-79783207D01*
X89821596Y-79825712D01*
X89830478Y-79837937D01*
X89830482Y-79837942D01*
X89975236Y-79982696D01*
X90130199Y-80095281D01*
X90140840Y-80103012D01*
X90232290Y-80149608D01*
X90233530Y-80150240D01*
X90284326Y-80198215D01*
X90301121Y-80266036D01*
X90278584Y-80332171D01*
X90233530Y-80371210D01*
X90140836Y-80418440D01*
X89975236Y-80538753D01*
X89830478Y-80683511D01*
X89710165Y-80849111D01*
X89617231Y-81031501D01*
X89553972Y-81226190D01*
X89521950Y-81428373D01*
X89521950Y-81633076D01*
X89553972Y-81835259D01*
X89617231Y-82029948D01*
X89655739Y-82105523D01*
X89708664Y-82209394D01*
X89710165Y-82212338D01*
X89830478Y-82377938D01*
X89975236Y-82522696D01*
X90130199Y-82635281D01*
X90140840Y-82643012D01*
X90232290Y-82689608D01*
X90233530Y-82690240D01*
X90284326Y-82738215D01*
X90301121Y-82806036D01*
X90278584Y-82872171D01*
X90233530Y-82911210D01*
X90140836Y-82958440D01*
X89975236Y-83078753D01*
X89830478Y-83223511D01*
X89710165Y-83389111D01*
X89617231Y-83571501D01*
X89553972Y-83766190D01*
X89521950Y-83968373D01*
X89521950Y-84173076D01*
X89553972Y-84375259D01*
X89617231Y-84569948D01*
X89648606Y-84631523D01*
X89710035Y-84752084D01*
X89710165Y-84752338D01*
X89830478Y-84917938D01*
X89975236Y-85062696D01*
X90095676Y-85150199D01*
X90140840Y-85183012D01*
X90257057Y-85242228D01*
X90323226Y-85275943D01*
X90323228Y-85275943D01*
X90323231Y-85275945D01*
X90427587Y-85309852D01*
X90517915Y-85339202D01*
X90619007Y-85355213D01*
X90720098Y-85371225D01*
X90720099Y-85371225D01*
X90924801Y-85371225D01*
X90924802Y-85371225D01*
X91126984Y-85339202D01*
X91321669Y-85275945D01*
X91504060Y-85183012D01*
X91597040Y-85115457D01*
X91669663Y-85062696D01*
X91669665Y-85062693D01*
X91669669Y-85062691D01*
X91814416Y-84917944D01*
X91814418Y-84917940D01*
X91814421Y-84917938D01*
X91867182Y-84845315D01*
X91934737Y-84752335D01*
X92027670Y-84569944D01*
X92090927Y-84375259D01*
X92122950Y-84173077D01*
X92122950Y-83968373D01*
X92092829Y-83778197D01*
X92090927Y-83766190D01*
X92038488Y-83604800D01*
X92027670Y-83571506D01*
X92027668Y-83571503D01*
X92027668Y-83571501D01*
X91934869Y-83389375D01*
X91934737Y-83389115D01*
X91902542Y-83344802D01*
X91814421Y-83223511D01*
X91669663Y-83078753D01*
X91504064Y-82958440D01*
X91497456Y-82955073D01*
X91411367Y-82911208D01*
X91360573Y-82863236D01*
X91343778Y-82795415D01*
X91366315Y-82729280D01*
X91411367Y-82690241D01*
X91504060Y-82643012D01*
X91525220Y-82627638D01*
X91669663Y-82522696D01*
X91669665Y-82522693D01*
X91669669Y-82522691D01*
X91814416Y-82377944D01*
X91814418Y-82377940D01*
X91814421Y-82377938D01*
X91885064Y-82280704D01*
X91934737Y-82212335D01*
X92027670Y-82029944D01*
X92090927Y-81835259D01*
X92122950Y-81633077D01*
X92122950Y-81428373D01*
X92090927Y-81226191D01*
X92027670Y-81031506D01*
X92027668Y-81031503D01*
X92027668Y-81031501D01*
X91993953Y-80965332D01*
X91934737Y-80849115D01*
X91903576Y-80806225D01*
X91814421Y-80683511D01*
X91669663Y-80538753D01*
X91504064Y-80418440D01*
X91497456Y-80415073D01*
X91411367Y-80371208D01*
X91360573Y-80323236D01*
X91343778Y-80255415D01*
X91366315Y-80189280D01*
X91411367Y-80150241D01*
X91504060Y-80103012D01*
X91525220Y-80087638D01*
X91669663Y-79982696D01*
X91669665Y-79982693D01*
X91669669Y-79982691D01*
X91814416Y-79837944D01*
X91814418Y-79837940D01*
X91814421Y-79837938D01*
X91907815Y-79709390D01*
X91934737Y-79672335D01*
X92027670Y-79489944D01*
X92090927Y-79295259D01*
X92122950Y-79093077D01*
X92122950Y-78888373D01*
X92090927Y-78686190D01*
X92027668Y-78491501D01*
X91954017Y-78346955D01*
X91934737Y-78309115D01*
X91899137Y-78260115D01*
X91814421Y-78143511D01*
X91669663Y-77998753D01*
X91504064Y-77878440D01*
X91497456Y-77875073D01*
X91411367Y-77831208D01*
X91360573Y-77783236D01*
X91343778Y-77715415D01*
X91366315Y-77649280D01*
X91411367Y-77610241D01*
X91504060Y-77563012D01*
X91555605Y-77525563D01*
X91669663Y-77442696D01*
X91669665Y-77442693D01*
X91669669Y-77442691D01*
X91814416Y-77297944D01*
X91814418Y-77297940D01*
X91814421Y-77297938D01*
X91867182Y-77225315D01*
X91934737Y-77132335D01*
X92027670Y-76949944D01*
X92090927Y-76755259D01*
X92122950Y-76553077D01*
X92122950Y-76348373D01*
X92090927Y-76146191D01*
X92027670Y-75951506D01*
X92027668Y-75951503D01*
X92027668Y-75951501D01*
X91993953Y-75885332D01*
X91934737Y-75769115D01*
X91927006Y-75758474D01*
X91814421Y-75603511D01*
X91669663Y-75458753D01*
X91504063Y-75338440D01*
X91504062Y-75338439D01*
X91504060Y-75338438D01*
X91441302Y-75306461D01*
X91321673Y-75245506D01*
X91126984Y-75182247D01*
X90952445Y-75154603D01*
X90924802Y-75150225D01*
X90720098Y-75150225D01*
X90695779Y-75154076D01*
X90517915Y-75182247D01*
X90366209Y-75231540D01*
X90323231Y-75245505D01*
X90323228Y-75245506D01*
X90323226Y-75245507D01*
X90280795Y-75267127D01*
X90212125Y-75280023D01*
X90147385Y-75253747D01*
X90107128Y-75196640D01*
X90100500Y-75156642D01*
X90100500Y-55848621D01*
X90120185Y-55781582D01*
X90172989Y-55735827D01*
X90242147Y-55725883D01*
X90243898Y-55726148D01*
X90397648Y-55750500D01*
X90397649Y-55750500D01*
X90602351Y-55750500D01*
X90602352Y-55750500D01*
X90804534Y-55718477D01*
X90999219Y-55655220D01*
X91181610Y-55562287D01*
X91274590Y-55494732D01*
X91347213Y-55441971D01*
X91347215Y-55441968D01*
X91347219Y-55441966D01*
X91491966Y-55297219D01*
X91491968Y-55297215D01*
X91491971Y-55297213D01*
X91549366Y-55218214D01*
X91612287Y-55131610D01*
X91705220Y-54949219D01*
X91768477Y-54754534D01*
X91800500Y-54552352D01*
X91800500Y-54399097D01*
X91820185Y-54332058D01*
X91872989Y-54286303D01*
X91942147Y-54276359D01*
X92005703Y-54305384D01*
X92012181Y-54311416D01*
X99231523Y-61530758D01*
X99265008Y-61592081D01*
X99260024Y-61661773D01*
X99218152Y-61717706D01*
X99182161Y-61736370D01*
X99000968Y-61795244D01*
X98818644Y-61888143D01*
X98774077Y-61920523D01*
X98774077Y-61920524D01*
X99370590Y-62517037D01*
X99307007Y-62534075D01*
X99192993Y-62599901D01*
X99099901Y-62692993D01*
X99034075Y-62807007D01*
X99017037Y-62870590D01*
X98420524Y-62274077D01*
X98420523Y-62274077D01*
X98388143Y-62318644D01*
X98310765Y-62470508D01*
X98262790Y-62521304D01*
X98194969Y-62538099D01*
X98128834Y-62515561D01*
X98089795Y-62470508D01*
X98012284Y-62318385D01*
X97891971Y-62152786D01*
X97747213Y-62008028D01*
X97581613Y-61887715D01*
X97581612Y-61887714D01*
X97581610Y-61887713D01*
X97524653Y-61858691D01*
X97399223Y-61794781D01*
X97204534Y-61731522D01*
X97022366Y-61702670D01*
X97002352Y-61699500D01*
X96797648Y-61699500D01*
X96777634Y-61702670D01*
X96595465Y-61731522D01*
X96400776Y-61794781D01*
X96218386Y-61887715D01*
X96052786Y-62008028D01*
X95908028Y-62152786D01*
X95787715Y-62318386D01*
X95710485Y-62469958D01*
X95662510Y-62520754D01*
X95594689Y-62537549D01*
X95528554Y-62515012D01*
X95489515Y-62469958D01*
X95480493Y-62452252D01*
X95412287Y-62318390D01*
X95380092Y-62274077D01*
X95291971Y-62152786D01*
X95147213Y-62008028D01*
X94981613Y-61887715D01*
X94981612Y-61887714D01*
X94981610Y-61887713D01*
X94924653Y-61858691D01*
X94799223Y-61794781D01*
X94604534Y-61731522D01*
X94422366Y-61702670D01*
X94402352Y-61699500D01*
X94197648Y-61699500D01*
X94177634Y-61702670D01*
X93995465Y-61731522D01*
X93800776Y-61794781D01*
X93618386Y-61887715D01*
X93452786Y-62008028D01*
X93308028Y-62152786D01*
X93187715Y-62318386D01*
X93110485Y-62469958D01*
X93062510Y-62520754D01*
X92994689Y-62537549D01*
X92928554Y-62515012D01*
X92889515Y-62469958D01*
X92880493Y-62452252D01*
X92812287Y-62318390D01*
X92780092Y-62274077D01*
X92691971Y-62152786D01*
X92547213Y-62008028D01*
X92381613Y-61887715D01*
X92381612Y-61887714D01*
X92381610Y-61887713D01*
X92324653Y-61858691D01*
X92199223Y-61794781D01*
X92004534Y-61731522D01*
X91822366Y-61702670D01*
X91802352Y-61699500D01*
X91597648Y-61699500D01*
X91577634Y-61702670D01*
X91395465Y-61731522D01*
X91200776Y-61794781D01*
X91018386Y-61887715D01*
X90852786Y-62008028D01*
X90708028Y-62152786D01*
X90587715Y-62318386D01*
X90494781Y-62500776D01*
X90431522Y-62695465D01*
X90399500Y-62897648D01*
X90399500Y-63102351D01*
X90431522Y-63304534D01*
X90494781Y-63499223D01*
X90514239Y-63537410D01*
X90587585Y-63681359D01*
X90587715Y-63681613D01*
X90708028Y-63847213D01*
X90852786Y-63991971D01*
X90973226Y-64079474D01*
X91018390Y-64112287D01*
X91134607Y-64171503D01*
X91200776Y-64205218D01*
X91200778Y-64205218D01*
X91200781Y-64205220D01*
X91305137Y-64239127D01*
X91395465Y-64268477D01*
X91496557Y-64284488D01*
X91597648Y-64300500D01*
X91597649Y-64300500D01*
X91802351Y-64300500D01*
X91802352Y-64300500D01*
X92004534Y-64268477D01*
X92199219Y-64205220D01*
X92200297Y-64204671D01*
X92242298Y-64183270D01*
X92381610Y-64112287D01*
X92474590Y-64044732D01*
X92547213Y-63991971D01*
X92547215Y-63991968D01*
X92547219Y-63991966D01*
X92691966Y-63847219D01*
X92691968Y-63847215D01*
X92691971Y-63847213D01*
X92812284Y-63681614D01*
X92812285Y-63681613D01*
X92812287Y-63681610D01*
X92889515Y-63530040D01*
X92937489Y-63479245D01*
X93005310Y-63462450D01*
X93071445Y-63484987D01*
X93110484Y-63530039D01*
X93180715Y-63667875D01*
X93187715Y-63681614D01*
X93308028Y-63847213D01*
X93452786Y-63991971D01*
X93573226Y-64079474D01*
X93618390Y-64112287D01*
X93734607Y-64171503D01*
X93800776Y-64205218D01*
X93800778Y-64205218D01*
X93800781Y-64205220D01*
X93905137Y-64239127D01*
X93995465Y-64268477D01*
X94096557Y-64284488D01*
X94197648Y-64300500D01*
X94197649Y-64300500D01*
X94402351Y-64300500D01*
X94402352Y-64300500D01*
X94604534Y-64268477D01*
X94799219Y-64205220D01*
X94800297Y-64204671D01*
X94842298Y-64183270D01*
X94981610Y-64112287D01*
X95074590Y-64044732D01*
X95147213Y-63991971D01*
X95147215Y-63991968D01*
X95147219Y-63991966D01*
X95291966Y-63847219D01*
X95291968Y-63847215D01*
X95291971Y-63847213D01*
X95412284Y-63681614D01*
X95412285Y-63681613D01*
X95412287Y-63681610D01*
X95489515Y-63530040D01*
X95537489Y-63479245D01*
X95605310Y-63462450D01*
X95671445Y-63484987D01*
X95710484Y-63530039D01*
X95780715Y-63667875D01*
X95787715Y-63681614D01*
X95908028Y-63847213D01*
X96052786Y-63991971D01*
X96173226Y-64079474D01*
X96218390Y-64112287D01*
X96334607Y-64171503D01*
X96400776Y-64205218D01*
X96400778Y-64205218D01*
X96400781Y-64205220D01*
X96505137Y-64239127D01*
X96595465Y-64268477D01*
X96696557Y-64284488D01*
X96797648Y-64300500D01*
X96797649Y-64300500D01*
X97002351Y-64300500D01*
X97002352Y-64300500D01*
X97204534Y-64268477D01*
X97399219Y-64205220D01*
X97400297Y-64204671D01*
X97442298Y-64183270D01*
X97581610Y-64112287D01*
X97674590Y-64044732D01*
X97747213Y-63991971D01*
X97747215Y-63991968D01*
X97747219Y-63991966D01*
X97891966Y-63847219D01*
X97891968Y-63847215D01*
X97891971Y-63847213D01*
X98012284Y-63681614D01*
X98012285Y-63681613D01*
X98012287Y-63681610D01*
X98089796Y-63529489D01*
X98137769Y-63478695D01*
X98205590Y-63461900D01*
X98271725Y-63484437D01*
X98310765Y-63529491D01*
X98388141Y-63681350D01*
X98388147Y-63681359D01*
X98420523Y-63725921D01*
X98420524Y-63725922D01*
X99017037Y-63129409D01*
X99034075Y-63192993D01*
X99099901Y-63307007D01*
X99192993Y-63400099D01*
X99307007Y-63465925D01*
X99370589Y-63482962D01*
X98774076Y-64079474D01*
X98818650Y-64111859D01*
X99000968Y-64204755D01*
X99195582Y-64267990D01*
X99397683Y-64300000D01*
X99602317Y-64300000D01*
X99804417Y-64267990D01*
X99999031Y-64204755D01*
X99999196Y-64204671D01*
X99999268Y-64204657D01*
X100003536Y-64202890D01*
X100003907Y-64203785D01*
X100067865Y-64191769D01*
X100132607Y-64218040D01*
X100172869Y-64275143D01*
X100179500Y-64315151D01*
X100179500Y-94189740D01*
X100159815Y-94256779D01*
X100120293Y-94295466D01*
X100116733Y-94297647D01*
X100078286Y-94325581D01*
X99955582Y-94414731D01*
X99955580Y-94414733D01*
X99955579Y-94414733D01*
X99814733Y-94555579D01*
X99814733Y-94555580D01*
X99814731Y-94555582D01*
X99764447Y-94624790D01*
X99697647Y-94716733D01*
X99620485Y-94868172D01*
X99572510Y-94918968D01*
X99504689Y-94935763D01*
X99438554Y-94913225D01*
X99399515Y-94868172D01*
X99329888Y-94731523D01*
X99322353Y-94716734D01*
X99205269Y-94555582D01*
X99064418Y-94414731D01*
X98903266Y-94297647D01*
X98870901Y-94281156D01*
X98725780Y-94207213D01*
X98536342Y-94145661D01*
X98368659Y-94119103D01*
X98339597Y-94114500D01*
X98140403Y-94114500D01*
X98111341Y-94119103D01*
X97943657Y-94145661D01*
X97939592Y-94146637D01*
X97869810Y-94143139D01*
X97822977Y-94113741D01*
X85736369Y-82027133D01*
X85702884Y-81965810D01*
X85700050Y-81939452D01*
X85700050Y-73136360D01*
X85700051Y-73136347D01*
X85700051Y-72968244D01*
X85659126Y-72815514D01*
X85659123Y-72815509D01*
X85580074Y-72678590D01*
X85580068Y-72678582D01*
X82980067Y-70078581D01*
X80214818Y-67313333D01*
X80181334Y-67252011D01*
X80186318Y-67182319D01*
X80228190Y-67126386D01*
X80293654Y-67101969D01*
X80321900Y-67103180D01*
X80346016Y-67107000D01*
X80346019Y-67107000D01*
X80543486Y-67107000D01*
X80738513Y-67076110D01*
X80740858Y-67075348D01*
X80926311Y-67015091D01*
X81102251Y-66925444D01*
X81207705Y-66848828D01*
X81261996Y-66809384D01*
X81261998Y-66809381D01*
X81262002Y-66809379D01*
X81401629Y-66669752D01*
X81401631Y-66669748D01*
X81401634Y-66669746D01*
X81505931Y-66526191D01*
X81517694Y-66510001D01*
X81607341Y-66334061D01*
X81668360Y-66146263D01*
X81679235Y-66077603D01*
X81699250Y-65951236D01*
X81699250Y-65753763D01*
X81668360Y-65558736D01*
X81611941Y-65385097D01*
X81607341Y-65370939D01*
X81517694Y-65194999D01*
X81495216Y-65164060D01*
X81401634Y-65035253D01*
X81261996Y-64895615D01*
X81102254Y-64779558D01*
X81102253Y-64779557D01*
X81102251Y-64779556D01*
X80926311Y-64689909D01*
X80926308Y-64689908D01*
X80738513Y-64628889D01*
X80543486Y-64598000D01*
X80543481Y-64598000D01*
X80346019Y-64598000D01*
X80346014Y-64598000D01*
X80150986Y-64628889D01*
X79963191Y-64689908D01*
X79787245Y-64779558D01*
X79627503Y-64895615D01*
X79487865Y-65035253D01*
X79371808Y-65194995D01*
X79371806Y-65194999D01*
X79319622Y-65297416D01*
X79285235Y-65364903D01*
X79237260Y-65415699D01*
X79169439Y-65432494D01*
X79103304Y-65409956D01*
X79064265Y-65364903D01*
X79040396Y-65318058D01*
X78977694Y-65194999D01*
X78955216Y-65164060D01*
X78861634Y-65035253D01*
X78721996Y-64895615D01*
X78562254Y-64779558D01*
X78562253Y-64779557D01*
X78562251Y-64779556D01*
X78386311Y-64689909D01*
X78386308Y-64689908D01*
X78198513Y-64628889D01*
X78003486Y-64598000D01*
X78003481Y-64598000D01*
X77806019Y-64598000D01*
X77806014Y-64598000D01*
X77610986Y-64628889D01*
X77423191Y-64689908D01*
X77247245Y-64779558D01*
X77087503Y-64895615D01*
X76947865Y-65035253D01*
X76831808Y-65194995D01*
X76831806Y-65194999D01*
X76779622Y-65297416D01*
X76745235Y-65364903D01*
X76697260Y-65415699D01*
X76629439Y-65432494D01*
X76563304Y-65409956D01*
X76524265Y-65364903D01*
X76500396Y-65318058D01*
X76437694Y-65194999D01*
X76415216Y-65164060D01*
X76321634Y-65035253D01*
X76181996Y-64895615D01*
X76022254Y-64779558D01*
X76022253Y-64779557D01*
X76022251Y-64779556D01*
X75846311Y-64689909D01*
X75846308Y-64689908D01*
X75658513Y-64628889D01*
X75463486Y-64598000D01*
X75463481Y-64598000D01*
X75266019Y-64598000D01*
X75266014Y-64598000D01*
X75070986Y-64628889D01*
X74883191Y-64689908D01*
X74707245Y-64779558D01*
X74547503Y-64895615D01*
X74407865Y-65035253D01*
X74291808Y-65194995D01*
X74291806Y-65194999D01*
X74239622Y-65297416D01*
X74205235Y-65364903D01*
X74157260Y-65415699D01*
X74089439Y-65432494D01*
X74023304Y-65409956D01*
X73984265Y-65364903D01*
X73960396Y-65318058D01*
X73897694Y-65194999D01*
X73875216Y-65164060D01*
X73781634Y-65035253D01*
X73641996Y-64895615D01*
X73482254Y-64779558D01*
X73482253Y-64779557D01*
X73482251Y-64779556D01*
X73306311Y-64689909D01*
X73306308Y-64689908D01*
X73118513Y-64628889D01*
X72923486Y-64598000D01*
X72923481Y-64598000D01*
X72726019Y-64598000D01*
X72726014Y-64598000D01*
X72530986Y-64628889D01*
X72343191Y-64689908D01*
X72167245Y-64779558D01*
X72007503Y-64895615D01*
X71867865Y-65035253D01*
X71751808Y-65194995D01*
X71751806Y-65194999D01*
X71699622Y-65297416D01*
X71665235Y-65364903D01*
X71617260Y-65415699D01*
X71549439Y-65432494D01*
X71483304Y-65409956D01*
X71444265Y-65364903D01*
X71420396Y-65318058D01*
X71357694Y-65194999D01*
X71335216Y-65164060D01*
X71241634Y-65035253D01*
X71101996Y-64895615D01*
X70942254Y-64779558D01*
X70942253Y-64779557D01*
X70942251Y-64779556D01*
X70766311Y-64689909D01*
X70766308Y-64689908D01*
X70578513Y-64628889D01*
X70383486Y-64598000D01*
X70383481Y-64598000D01*
X70186019Y-64598000D01*
X70186014Y-64598000D01*
X69990986Y-64628889D01*
X69803191Y-64689908D01*
X69627245Y-64779558D01*
X69467503Y-64895615D01*
X69327865Y-65035253D01*
X69211808Y-65194995D01*
X69211806Y-65194999D01*
X69159622Y-65297416D01*
X69125235Y-65364903D01*
X69077260Y-65415699D01*
X69009439Y-65432494D01*
X68943304Y-65409956D01*
X68904265Y-65364903D01*
X68880396Y-65318058D01*
X68817694Y-65194999D01*
X68795216Y-65164060D01*
X68701634Y-65035253D01*
X68561996Y-64895615D01*
X68402254Y-64779558D01*
X68402253Y-64779557D01*
X68402251Y-64779556D01*
X68226311Y-64689909D01*
X68226308Y-64689908D01*
X68038513Y-64628889D01*
X67843486Y-64598000D01*
X67843481Y-64598000D01*
X67646019Y-64598000D01*
X67646014Y-64598000D01*
X67450986Y-64628889D01*
X67263191Y-64689908D01*
X67087245Y-64779558D01*
X66927503Y-64895615D01*
X66787869Y-65035249D01*
X66787865Y-65035254D01*
X66683567Y-65178810D01*
X66628238Y-65221476D01*
X66558624Y-65227455D01*
X66496829Y-65194850D01*
X66462472Y-65134011D01*
X66459249Y-65105925D01*
X66459249Y-65050629D01*
X66459248Y-65050623D01*
X66459247Y-65050616D01*
X66452841Y-64991017D01*
X66417258Y-64895615D01*
X66402547Y-64856171D01*
X66402543Y-64856164D01*
X66316297Y-64740955D01*
X66316294Y-64740952D01*
X66201085Y-64654706D01*
X66201078Y-64654702D01*
X66066232Y-64604408D01*
X66066233Y-64604408D01*
X66006633Y-64598001D01*
X66006631Y-64598000D01*
X66006623Y-64598000D01*
X66006614Y-64598000D01*
X64402879Y-64598000D01*
X64402873Y-64598001D01*
X64343266Y-64604408D01*
X64208421Y-64654702D01*
X64208414Y-64654706D01*
X64093205Y-64740952D01*
X64093202Y-64740955D01*
X64006956Y-64856164D01*
X64006952Y-64856171D01*
X63956658Y-64991017D01*
X63950251Y-65050616D01*
X63950251Y-65050623D01*
X63950250Y-65050635D01*
X63950250Y-66654370D01*
X63950251Y-66654376D01*
X63956658Y-66713983D01*
X64006952Y-66848828D01*
X64006956Y-66848835D01*
X64093202Y-66964044D01*
X64093205Y-66964047D01*
X64208414Y-67050293D01*
X64208421Y-67050297D01*
X64343267Y-67100591D01*
X64343266Y-67100591D01*
X64350194Y-67101335D01*
X64402877Y-67107000D01*
X66006622Y-67106999D01*
X66066233Y-67100591D01*
X66201081Y-67050296D01*
X66316296Y-66964046D01*
X66402546Y-66848831D01*
X66452841Y-66713983D01*
X66459250Y-66654373D01*
X66459249Y-66599074D01*
X66478932Y-66532038D01*
X66531736Y-66486283D01*
X66600894Y-66476338D01*
X66664450Y-66505362D01*
X66683567Y-66526191D01*
X66787865Y-66669745D01*
X66787869Y-66669750D01*
X66927503Y-66809384D01*
X67060507Y-66906015D01*
X67087249Y-66925444D01*
X67263189Y-67015091D01*
X67388387Y-67055770D01*
X67450986Y-67076110D01*
X67646014Y-67107000D01*
X67646019Y-67107000D01*
X67843486Y-67107000D01*
X68038513Y-67076110D01*
X68040858Y-67075348D01*
X68226311Y-67015091D01*
X68402251Y-66925444D01*
X68507705Y-66848828D01*
X68561996Y-66809384D01*
X68561998Y-66809381D01*
X68562002Y-66809379D01*
X68701629Y-66669752D01*
X68701631Y-66669748D01*
X68701634Y-66669746D01*
X68817691Y-66510005D01*
X68817692Y-66510004D01*
X68817694Y-66510001D01*
X68904267Y-66340093D01*
X68952240Y-66289300D01*
X69020061Y-66272505D01*
X69086196Y-66295042D01*
X69125232Y-66340093D01*
X69182435Y-66452358D01*
X69211808Y-66510005D01*
X69327865Y-66669746D01*
X69467503Y-66809384D01*
X69600507Y-66906015D01*
X69627249Y-66925444D01*
X69803189Y-67015091D01*
X69928387Y-67055770D01*
X69990986Y-67076110D01*
X70186014Y-67107000D01*
X70186019Y-67107000D01*
X70383486Y-67107000D01*
X70578513Y-67076110D01*
X70580858Y-67075348D01*
X70766311Y-67015091D01*
X70942251Y-66925444D01*
X71047705Y-66848828D01*
X71101996Y-66809384D01*
X71101998Y-66809381D01*
X71102002Y-66809379D01*
X71241629Y-66669752D01*
X71241631Y-66669748D01*
X71241634Y-66669746D01*
X71357691Y-66510005D01*
X71357692Y-66510004D01*
X71357694Y-66510001D01*
X71444267Y-66340093D01*
X71492240Y-66289300D01*
X71560061Y-66272505D01*
X71626196Y-66295042D01*
X71665232Y-66340093D01*
X71722435Y-66452358D01*
X71751808Y-66510005D01*
X71867865Y-66669746D01*
X72007503Y-66809384D01*
X72140507Y-66906015D01*
X72167249Y-66925444D01*
X72343189Y-67015091D01*
X72468387Y-67055770D01*
X72530986Y-67076110D01*
X72726014Y-67107000D01*
X72726019Y-67107000D01*
X72923486Y-67107000D01*
X73118513Y-67076110D01*
X73120858Y-67075348D01*
X73306311Y-67015091D01*
X73482251Y-66925444D01*
X73587705Y-66848828D01*
X73641996Y-66809384D01*
X73641998Y-66809381D01*
X73642002Y-66809379D01*
X73781629Y-66669752D01*
X73781631Y-66669748D01*
X73781634Y-66669746D01*
X73897691Y-66510005D01*
X73897692Y-66510004D01*
X73897694Y-66510001D01*
X73984267Y-66340093D01*
X74032240Y-66289300D01*
X74100061Y-66272505D01*
X74166196Y-66295042D01*
X74205232Y-66340093D01*
X74262435Y-66452358D01*
X74291808Y-66510005D01*
X74407865Y-66669746D01*
X74547503Y-66809384D01*
X74680507Y-66906015D01*
X74707249Y-66925444D01*
X74883189Y-67015091D01*
X75008387Y-67055770D01*
X75070986Y-67076110D01*
X75266014Y-67107000D01*
X75266019Y-67107000D01*
X75463486Y-67107000D01*
X75663325Y-67075348D01*
X75663603Y-67077103D01*
X75725738Y-67080192D01*
X75772621Y-67109607D01*
X83601558Y-74938544D01*
X83635043Y-74999867D01*
X83630059Y-75069559D01*
X83588187Y-75125492D01*
X83522723Y-75149909D01*
X83513877Y-75150225D01*
X83497198Y-75150225D01*
X83472879Y-75154076D01*
X83295015Y-75182247D01*
X83100326Y-75245506D01*
X82917936Y-75338440D01*
X82752336Y-75458753D01*
X82607578Y-75603511D01*
X82487265Y-75769111D01*
X82394331Y-75951501D01*
X82331072Y-76146190D01*
X82299050Y-76348373D01*
X82299050Y-76553076D01*
X82331072Y-76755259D01*
X82394331Y-76949948D01*
X82487265Y-77132338D01*
X82607578Y-77297938D01*
X82752336Y-77442696D01*
X82866395Y-77525563D01*
X82917940Y-77563012D01*
X83009390Y-77609608D01*
X83010630Y-77610240D01*
X83061426Y-77658215D01*
X83078221Y-77726036D01*
X83055684Y-77792171D01*
X83010630Y-77831210D01*
X82917936Y-77878440D01*
X82752336Y-77998753D01*
X82607578Y-78143511D01*
X82487265Y-78309111D01*
X82394331Y-78491501D01*
X82331072Y-78686190D01*
X82299050Y-78888373D01*
X82299050Y-79093076D01*
X82331072Y-79295259D01*
X82394331Y-79489948D01*
X82441164Y-79581861D01*
X82486101Y-79670055D01*
X82487265Y-79672338D01*
X82607578Y-79837938D01*
X82752336Y-79982696D01*
X82907299Y-80095281D01*
X82917940Y-80103012D01*
X83009390Y-80149608D01*
X83010630Y-80150240D01*
X83061426Y-80198215D01*
X83078221Y-80266036D01*
X83055684Y-80332171D01*
X83010630Y-80371210D01*
X82917936Y-80418440D01*
X82752336Y-80538753D01*
X82607578Y-80683511D01*
X82487265Y-80849111D01*
X82394331Y-81031501D01*
X82331072Y-81226190D01*
X82299050Y-81428373D01*
X82299050Y-81633076D01*
X82331072Y-81835259D01*
X82394331Y-82029948D01*
X82432839Y-82105523D01*
X82485764Y-82209394D01*
X82487265Y-82212338D01*
X82607578Y-82377938D01*
X82752336Y-82522696D01*
X82917935Y-82643009D01*
X82917937Y-82643010D01*
X82917940Y-82643012D01*
X83010630Y-82690240D01*
X83011180Y-82690520D01*
X83061976Y-82738495D01*
X83078771Y-82806316D01*
X83056234Y-82872450D01*
X83011180Y-82911490D01*
X82918194Y-82958868D01*
X82873627Y-82991248D01*
X82873627Y-82991249D01*
X83470141Y-83587762D01*
X83406557Y-83604800D01*
X83292543Y-83670626D01*
X83199451Y-83763718D01*
X83133625Y-83877732D01*
X83116587Y-83941315D01*
X82520074Y-83344802D01*
X82520073Y-83344802D01*
X82487693Y-83389369D01*
X82394794Y-83571693D01*
X82331559Y-83766307D01*
X82299550Y-83968407D01*
X82299550Y-84173042D01*
X82331559Y-84375142D01*
X82394794Y-84569756D01*
X82487691Y-84752075D01*
X82487697Y-84752084D01*
X82520073Y-84796646D01*
X82520074Y-84796647D01*
X83116587Y-84200134D01*
X83133625Y-84263718D01*
X83199451Y-84377732D01*
X83292543Y-84470824D01*
X83406557Y-84536650D01*
X83470140Y-84553687D01*
X82873626Y-85150199D01*
X82918200Y-85182584D01*
X83100518Y-85275480D01*
X83295132Y-85338715D01*
X83497233Y-85370725D01*
X83701867Y-85370725D01*
X83903967Y-85338715D01*
X84098581Y-85275480D01*
X84280899Y-85182584D01*
X84325471Y-85150199D01*
X83728959Y-84553687D01*
X83792543Y-84536650D01*
X83906557Y-84470824D01*
X83999649Y-84377732D01*
X84065475Y-84263718D01*
X84082512Y-84200133D01*
X84679024Y-84796646D01*
X84711409Y-84752074D01*
X84804305Y-84569754D01*
X84819783Y-84522120D01*
X84859220Y-84464445D01*
X84923579Y-84437246D01*
X84992425Y-84449160D01*
X85025394Y-84472756D01*
X87642432Y-87089795D01*
X90147542Y-89594905D01*
X90181027Y-89656228D01*
X90176043Y-89725920D01*
X90134171Y-89781853D01*
X90125842Y-89787155D01*
X90125886Y-89787221D01*
X89989711Y-89878210D01*
X89989707Y-89878213D01*
X89878213Y-89989707D01*
X89878210Y-89989711D01*
X89790609Y-90120814D01*
X89790602Y-90120827D01*
X89730264Y-90266498D01*
X89730261Y-90266510D01*
X89699500Y-90421153D01*
X89699500Y-90578846D01*
X89730261Y-90733489D01*
X89730264Y-90733501D01*
X89790602Y-90879172D01*
X89790609Y-90879185D01*
X89878210Y-91010288D01*
X89878213Y-91010292D01*
X89989707Y-91121786D01*
X89989711Y-91121789D01*
X90120814Y-91209390D01*
X90120827Y-91209397D01*
X90266498Y-91269735D01*
X90266503Y-91269737D01*
X90331147Y-91282595D01*
X90421849Y-91300638D01*
X90483760Y-91333023D01*
X90485339Y-91334574D01*
X91458181Y-92307416D01*
X91491666Y-92368739D01*
X91494500Y-92395097D01*
X91494500Y-94207753D01*
X91474815Y-94274792D01*
X91422011Y-94320547D01*
X91352853Y-94330491D01*
X91297616Y-94308072D01*
X91283269Y-94297648D01*
X91105780Y-94207213D01*
X90916342Y-94145661D01*
X90748659Y-94119103D01*
X90719597Y-94114500D01*
X90520403Y-94114500D01*
X90491341Y-94119103D01*
X90323659Y-94145661D01*
X90323656Y-94145661D01*
X90134219Y-94207213D01*
X89956733Y-94297647D01*
X89918286Y-94325581D01*
X89795582Y-94414731D01*
X89795580Y-94414733D01*
X89795579Y-94414733D01*
X89654733Y-94555579D01*
X89654733Y-94555580D01*
X89654731Y-94555582D01*
X89604447Y-94624790D01*
X89537647Y-94716733D01*
X89460485Y-94868172D01*
X89412510Y-94918968D01*
X89344689Y-94935763D01*
X89278554Y-94913225D01*
X89239515Y-94868172D01*
X89169888Y-94731523D01*
X89162353Y-94716734D01*
X89045269Y-94555582D01*
X88904418Y-94414731D01*
X88743266Y-94297647D01*
X88710901Y-94281156D01*
X88565780Y-94207213D01*
X88376342Y-94145661D01*
X88208659Y-94119103D01*
X88179597Y-94114500D01*
X87980403Y-94114500D01*
X87951341Y-94119103D01*
X87783659Y-94145661D01*
X87783656Y-94145661D01*
X87594219Y-94207213D01*
X87416733Y-94297647D01*
X87378286Y-94325581D01*
X87255582Y-94414731D01*
X87255580Y-94414733D01*
X87255579Y-94414733D01*
X87114733Y-94555579D01*
X87114733Y-94555580D01*
X87114731Y-94555582D01*
X87064447Y-94624790D01*
X86997647Y-94716733D01*
X86920485Y-94868172D01*
X86872510Y-94918968D01*
X86804689Y-94935763D01*
X86738554Y-94913225D01*
X86699515Y-94868172D01*
X86629888Y-94731523D01*
X86622353Y-94716734D01*
X86505269Y-94555582D01*
X86364418Y-94414731D01*
X86203266Y-94297647D01*
X86170901Y-94281156D01*
X86025780Y-94207213D01*
X85836342Y-94145661D01*
X85668659Y-94119103D01*
X85639597Y-94114500D01*
X85440403Y-94114500D01*
X85411341Y-94119103D01*
X85243659Y-94145661D01*
X85243656Y-94145661D01*
X85054219Y-94207213D01*
X84876733Y-94297647D01*
X84838286Y-94325581D01*
X84715582Y-94414731D01*
X84715580Y-94414733D01*
X84715579Y-94414733D01*
X84574733Y-94555579D01*
X84574733Y-94555580D01*
X84574731Y-94555582D01*
X84524447Y-94624790D01*
X84457647Y-94716733D01*
X84380485Y-94868172D01*
X84332510Y-94918968D01*
X84264689Y-94935763D01*
X84198554Y-94913225D01*
X84159515Y-94868172D01*
X84089888Y-94731523D01*
X84082353Y-94716734D01*
X83965269Y-94555582D01*
X83824418Y-94414731D01*
X83663266Y-94297647D01*
X83630901Y-94281156D01*
X83485780Y-94207213D01*
X83296342Y-94145661D01*
X83128659Y-94119103D01*
X83099597Y-94114500D01*
X82900403Y-94114500D01*
X82871341Y-94119103D01*
X82703659Y-94145661D01*
X82703656Y-94145661D01*
X82514219Y-94207213D01*
X82336733Y-94297647D01*
X82298286Y-94325581D01*
X82175582Y-94414731D01*
X82175580Y-94414733D01*
X82175579Y-94414733D01*
X82034733Y-94555579D01*
X82034733Y-94555580D01*
X82034731Y-94555582D01*
X81984447Y-94624790D01*
X81917647Y-94716733D01*
X81840485Y-94868172D01*
X81792510Y-94918968D01*
X81724689Y-94935763D01*
X81658554Y-94913225D01*
X81619515Y-94868172D01*
X81549888Y-94731523D01*
X81542353Y-94716734D01*
X81425269Y-94555582D01*
X81284418Y-94414731D01*
X81123266Y-94297647D01*
X81090901Y-94281156D01*
X80945780Y-94207213D01*
X80756342Y-94145661D01*
X80588659Y-94119103D01*
X80559597Y-94114500D01*
X80360403Y-94114500D01*
X80331341Y-94119103D01*
X80163659Y-94145661D01*
X80163656Y-94145661D01*
X79974219Y-94207213D01*
X79796733Y-94297647D01*
X79758286Y-94325581D01*
X79635582Y-94414731D01*
X79635580Y-94414733D01*
X79635579Y-94414733D01*
X79494733Y-94555579D01*
X79494733Y-94555580D01*
X79494731Y-94555582D01*
X79444447Y-94624790D01*
X79377647Y-94716733D01*
X79300485Y-94868172D01*
X79252510Y-94918968D01*
X79184689Y-94935763D01*
X79118554Y-94913225D01*
X79079515Y-94868172D01*
X79009888Y-94731523D01*
X79002353Y-94716734D01*
X78885269Y-94555582D01*
X78744418Y-94414731D01*
X78583266Y-94297647D01*
X78550901Y-94281156D01*
X78405780Y-94207213D01*
X78216342Y-94145661D01*
X78048659Y-94119103D01*
X78019597Y-94114500D01*
X77820403Y-94114500D01*
X77791341Y-94119103D01*
X77623659Y-94145661D01*
X77623656Y-94145661D01*
X77434219Y-94207213D01*
X77256733Y-94297647D01*
X77218286Y-94325581D01*
X77095582Y-94414731D01*
X77095580Y-94414733D01*
X77095579Y-94414733D01*
X76954733Y-94555579D01*
X76954733Y-94555580D01*
X76954731Y-94555582D01*
X76923163Y-94599031D01*
X76837645Y-94716735D01*
X76760203Y-94868723D01*
X76712229Y-94919518D01*
X76644408Y-94936313D01*
X76578273Y-94913775D01*
X76539234Y-94868722D01*
X76461924Y-94716994D01*
X76434417Y-94679135D01*
X76434417Y-94679134D01*
X75871128Y-95242424D01*
X75855245Y-95183147D01*
X75788102Y-95066853D01*
X75693147Y-94971898D01*
X75576853Y-94904755D01*
X75517574Y-94888871D01*
X76080864Y-94325581D01*
X76080863Y-94325580D01*
X76043008Y-94298077D01*
X75865594Y-94207679D01*
X75676222Y-94146147D01*
X75479563Y-94115000D01*
X75280437Y-94115000D01*
X75083777Y-94146147D01*
X74894405Y-94207679D01*
X74716990Y-94298077D01*
X74679135Y-94325580D01*
X74679135Y-94325581D01*
X75242425Y-94888871D01*
X75183147Y-94904755D01*
X75066853Y-94971898D01*
X74971898Y-95066853D01*
X74904755Y-95183147D01*
X74888871Y-95242425D01*
X74325581Y-94679135D01*
X74325580Y-94679135D01*
X74298075Y-94716993D01*
X74220764Y-94868723D01*
X74172790Y-94919518D01*
X74104969Y-94936313D01*
X74038834Y-94913775D01*
X73999795Y-94868722D01*
X73929888Y-94731523D01*
X73922353Y-94716734D01*
X73805269Y-94555582D01*
X73664418Y-94414731D01*
X73503266Y-94297647D01*
X73470901Y-94281156D01*
X73325780Y-94207213D01*
X73136342Y-94145661D01*
X72968659Y-94119103D01*
X72939597Y-94114500D01*
X72740403Y-94114500D01*
X72711341Y-94119103D01*
X72543659Y-94145661D01*
X72543656Y-94145661D01*
X72354219Y-94207213D01*
X72176733Y-94297647D01*
X72138286Y-94325581D01*
X72015582Y-94414731D01*
X72015580Y-94414733D01*
X72015579Y-94414733D01*
X71874733Y-94555579D01*
X71874733Y-94555580D01*
X71874731Y-94555582D01*
X71824447Y-94624790D01*
X71757647Y-94716733D01*
X71667213Y-94894219D01*
X71605661Y-95083656D01*
X71605661Y-95083659D01*
X71589904Y-95183147D01*
X71574500Y-95280403D01*
X71574500Y-95479597D01*
X71577855Y-95500781D01*
X71605661Y-95676340D01*
X71605661Y-95676343D01*
X71667213Y-95865780D01*
X71680485Y-95891827D01*
X71757647Y-96043266D01*
X71874731Y-96204418D01*
X72015582Y-96345269D01*
X72176734Y-96462353D01*
X72288572Y-96519337D01*
X72354219Y-96552786D01*
X72543657Y-96614338D01*
X72543658Y-96614338D01*
X72543661Y-96614339D01*
X72740403Y-96645500D01*
X72740404Y-96645500D01*
X72939596Y-96645500D01*
X72939597Y-96645500D01*
X73136339Y-96614339D01*
X73136342Y-96614338D01*
X73136343Y-96614338D01*
X73325780Y-96552786D01*
X73325780Y-96552785D01*
X73325783Y-96552785D01*
X73503266Y-96462353D01*
X73664418Y-96345269D01*
X73805269Y-96204418D01*
X73922353Y-96043266D01*
X73999795Y-95891276D01*
X74047769Y-95840481D01*
X74115590Y-95823686D01*
X74181725Y-95846223D01*
X74220765Y-95891277D01*
X74298077Y-96043008D01*
X74325580Y-96080863D01*
X74325581Y-96080864D01*
X74888871Y-95517574D01*
X74904755Y-95576853D01*
X74971898Y-95693147D01*
X75066853Y-95788102D01*
X75183147Y-95855245D01*
X75242425Y-95871128D01*
X74679134Y-96434417D01*
X74716994Y-96461924D01*
X74894405Y-96552320D01*
X75083777Y-96613852D01*
X75280437Y-96645000D01*
X75479563Y-96645000D01*
X75676222Y-96613852D01*
X75865594Y-96552320D01*
X76043005Y-96461924D01*
X76080863Y-96434418D01*
X76080863Y-96434417D01*
X75517574Y-95871128D01*
X75576853Y-95855245D01*
X75693147Y-95788102D01*
X75788102Y-95693147D01*
X75855245Y-95576853D01*
X75871128Y-95517574D01*
X76434417Y-96080863D01*
X76434418Y-96080863D01*
X76461924Y-96043005D01*
X76539234Y-95891277D01*
X76587208Y-95840481D01*
X76655029Y-95823686D01*
X76721164Y-95846223D01*
X76760204Y-95891277D01*
X76790746Y-95951218D01*
X76837647Y-96043266D01*
X76954731Y-96204418D01*
X77095582Y-96345269D01*
X77256734Y-96462353D01*
X77368572Y-96519337D01*
X77434219Y-96552786D01*
X77623657Y-96614338D01*
X77623658Y-96614338D01*
X77623661Y-96614339D01*
X77820403Y-96645500D01*
X77820404Y-96645500D01*
X78019596Y-96645500D01*
X78019597Y-96645500D01*
X78216339Y-96614339D01*
X78216342Y-96614338D01*
X78216343Y-96614338D01*
X78405780Y-96552786D01*
X78405780Y-96552785D01*
X78405783Y-96552785D01*
X78583266Y-96462353D01*
X78744418Y-96345269D01*
X78885269Y-96204418D01*
X79002353Y-96043266D01*
X79079515Y-95891827D01*
X79127490Y-95841031D01*
X79195311Y-95824236D01*
X79261446Y-95846773D01*
X79300485Y-95891827D01*
X79377647Y-96043266D01*
X79494731Y-96204418D01*
X79635582Y-96345269D01*
X79796734Y-96462353D01*
X79908572Y-96519337D01*
X79974219Y-96552786D01*
X80163657Y-96614338D01*
X80163658Y-96614338D01*
X80163661Y-96614339D01*
X80360403Y-96645500D01*
X80360404Y-96645500D01*
X80559596Y-96645500D01*
X80559597Y-96645500D01*
X80756339Y-96614339D01*
X80756342Y-96614338D01*
X80756343Y-96614338D01*
X80945780Y-96552786D01*
X80945780Y-96552785D01*
X80945783Y-96552785D01*
X81123266Y-96462353D01*
X81284418Y-96345269D01*
X81425269Y-96204418D01*
X81542353Y-96043266D01*
X81619515Y-95891827D01*
X81667490Y-95841031D01*
X81735311Y-95824236D01*
X81801446Y-95846773D01*
X81840485Y-95891827D01*
X81917647Y-96043266D01*
X82034731Y-96204418D01*
X82175582Y-96345269D01*
X82336734Y-96462353D01*
X82448572Y-96519337D01*
X82514219Y-96552786D01*
X82703657Y-96614338D01*
X82703658Y-96614338D01*
X82703661Y-96614339D01*
X82900403Y-96645500D01*
X82900404Y-96645500D01*
X83099596Y-96645500D01*
X83099597Y-96645500D01*
X83296339Y-96614339D01*
X83296342Y-96614338D01*
X83296343Y-96614338D01*
X83485780Y-96552786D01*
X83485780Y-96552785D01*
X83485783Y-96552785D01*
X83663266Y-96462353D01*
X83824418Y-96345269D01*
X83965269Y-96204418D01*
X84082353Y-96043266D01*
X84159515Y-95891827D01*
X84207490Y-95841031D01*
X84275311Y-95824236D01*
X84341446Y-95846773D01*
X84380485Y-95891827D01*
X84457647Y-96043266D01*
X84574731Y-96204418D01*
X84715582Y-96345269D01*
X84876734Y-96462353D01*
X84988572Y-96519337D01*
X85054219Y-96552786D01*
X85243657Y-96614338D01*
X85243658Y-96614338D01*
X85243661Y-96614339D01*
X85440403Y-96645500D01*
X85440404Y-96645500D01*
X85639596Y-96645500D01*
X85639597Y-96645500D01*
X85836339Y-96614339D01*
X85836342Y-96614338D01*
X85836343Y-96614338D01*
X86025780Y-96552786D01*
X86025780Y-96552785D01*
X86025783Y-96552785D01*
X86203266Y-96462353D01*
X86364418Y-96345269D01*
X86505269Y-96204418D01*
X86622353Y-96043266D01*
X86699515Y-95891827D01*
X86747490Y-95841031D01*
X86815311Y-95824236D01*
X86881446Y-95846773D01*
X86920485Y-95891827D01*
X86997647Y-96043266D01*
X87114731Y-96204418D01*
X87255582Y-96345269D01*
X87416734Y-96462353D01*
X87528572Y-96519337D01*
X87594219Y-96552786D01*
X87783657Y-96614338D01*
X87783658Y-96614338D01*
X87783661Y-96614339D01*
X87980403Y-96645500D01*
X87980404Y-96645500D01*
X88179596Y-96645500D01*
X88179597Y-96645500D01*
X88376339Y-96614339D01*
X88376342Y-96614338D01*
X88376343Y-96614338D01*
X88565780Y-96552786D01*
X88565780Y-96552785D01*
X88565783Y-96552785D01*
X88743266Y-96462353D01*
X88904418Y-96345269D01*
X89045269Y-96204418D01*
X89162353Y-96043266D01*
X89239515Y-95891827D01*
X89287490Y-95841031D01*
X89355311Y-95824236D01*
X89421446Y-95846773D01*
X89460485Y-95891827D01*
X89537647Y-96043266D01*
X89654731Y-96204418D01*
X89795582Y-96345269D01*
X89956734Y-96462353D01*
X90068572Y-96519337D01*
X90134219Y-96552786D01*
X90323657Y-96614338D01*
X90323658Y-96614338D01*
X90323661Y-96614339D01*
X90520403Y-96645500D01*
X90520404Y-96645500D01*
X90719596Y-96645500D01*
X90719597Y-96645500D01*
X90916339Y-96614339D01*
X90916342Y-96614338D01*
X90916343Y-96614338D01*
X91105780Y-96552786D01*
X91105780Y-96552785D01*
X91105783Y-96552785D01*
X91283266Y-96462353D01*
X91297613Y-96451928D01*
X91363419Y-96428448D01*
X91431473Y-96444272D01*
X91480169Y-96494377D01*
X91494500Y-96552246D01*
X91494500Y-105008330D01*
X91494499Y-105008348D01*
X91494499Y-105174056D01*
X91510596Y-105234131D01*
X91508933Y-105303981D01*
X91469770Y-105361843D01*
X91405542Y-105389347D01*
X91336640Y-105377760D01*
X91303140Y-105353905D01*
X90087590Y-104138355D01*
X90087588Y-104138352D01*
X89968717Y-104019481D01*
X89968716Y-104019480D01*
X89869245Y-103962051D01*
X89869244Y-103962050D01*
X89831783Y-103940422D01*
X89775881Y-103925443D01*
X89679057Y-103899499D01*
X89520943Y-103899499D01*
X89513347Y-103899499D01*
X89513331Y-103899500D01*
X68375276Y-103899500D01*
X68308237Y-103879815D01*
X68262482Y-103827011D01*
X68252538Y-103757853D01*
X68257345Y-103737183D01*
X68267988Y-103704425D01*
X68267989Y-103704418D01*
X68300000Y-103502317D01*
X68300000Y-103297682D01*
X68267990Y-103095582D01*
X68204755Y-102900968D01*
X68111859Y-102718650D01*
X68079474Y-102674077D01*
X68079474Y-102674076D01*
X67482962Y-103270589D01*
X67465925Y-103207007D01*
X67400099Y-103092993D01*
X67307007Y-102999901D01*
X67192993Y-102934075D01*
X67129408Y-102917037D01*
X67725922Y-102320524D01*
X67725921Y-102320523D01*
X67681359Y-102288147D01*
X67681350Y-102288141D01*
X67499031Y-102195244D01*
X67304417Y-102132009D01*
X67102317Y-102100000D01*
X66897683Y-102100000D01*
X66695582Y-102132009D01*
X66500968Y-102195244D01*
X66318644Y-102288143D01*
X66274077Y-102320523D01*
X66274077Y-102320524D01*
X66870591Y-102917037D01*
X66807007Y-102934075D01*
X66692993Y-102999901D01*
X66599901Y-103092993D01*
X66534075Y-103207007D01*
X66517037Y-103270590D01*
X65920524Y-102674077D01*
X65920523Y-102674077D01*
X65888144Y-102718644D01*
X65857525Y-102778738D01*
X65809551Y-102829534D01*
X65741730Y-102846329D01*
X65675595Y-102823792D01*
X65659364Y-102810128D01*
X60294076Y-97444841D01*
X60260592Y-97383519D01*
X60263828Y-97318841D01*
X60268477Y-97304534D01*
X60300500Y-97102352D01*
X60300500Y-96897648D01*
X60268477Y-96695466D01*
X60263893Y-96681359D01*
X60221942Y-96552246D01*
X60205220Y-96500781D01*
X60205218Y-96500778D01*
X60205218Y-96500776D01*
X60130203Y-96353553D01*
X60112287Y-96318390D01*
X60095429Y-96295187D01*
X59991971Y-96152786D01*
X59847219Y-96008034D01*
X59826712Y-95993135D01*
X59826710Y-95993132D01*
X59695332Y-95897682D01*
X64200000Y-95897682D01*
X64200000Y-96102317D01*
X64232009Y-96304417D01*
X64295244Y-96499031D01*
X64388141Y-96681350D01*
X64388147Y-96681359D01*
X64420523Y-96725921D01*
X64420524Y-96725922D01*
X65017037Y-96129409D01*
X65034075Y-96192993D01*
X65099901Y-96307007D01*
X65192993Y-96400099D01*
X65307007Y-96465925D01*
X65370590Y-96482962D01*
X64774076Y-97079474D01*
X64818650Y-97111859D01*
X65000968Y-97204755D01*
X65195582Y-97267990D01*
X65397683Y-97300000D01*
X65602317Y-97300000D01*
X65804417Y-97267990D01*
X65999031Y-97204755D01*
X66181349Y-97111859D01*
X66225921Y-97079474D01*
X65629409Y-96482962D01*
X65692993Y-96465925D01*
X65807007Y-96400099D01*
X65900099Y-96307007D01*
X65965925Y-96192993D01*
X65982962Y-96129409D01*
X66579474Y-96725921D01*
X66611861Y-96681347D01*
X66611861Y-96681346D01*
X66689234Y-96529492D01*
X66737208Y-96478696D01*
X66805029Y-96461900D01*
X66871164Y-96484437D01*
X66910204Y-96529491D01*
X66944710Y-96597212D01*
X66987585Y-96681359D01*
X66987715Y-96681613D01*
X67108028Y-96847213D01*
X67252786Y-96991971D01*
X67407749Y-97104556D01*
X67418390Y-97112287D01*
X67534607Y-97171503D01*
X67600776Y-97205218D01*
X67600778Y-97205218D01*
X67600781Y-97205220D01*
X67705137Y-97239127D01*
X67795465Y-97268477D01*
X67896557Y-97284488D01*
X67997648Y-97300500D01*
X67997649Y-97300500D01*
X68202351Y-97300500D01*
X68202352Y-97300500D01*
X68404534Y-97268477D01*
X68599219Y-97205220D01*
X68781610Y-97112287D01*
X68874590Y-97044732D01*
X68947213Y-96991971D01*
X68947215Y-96991968D01*
X68947219Y-96991966D01*
X69091966Y-96847219D01*
X69091968Y-96847215D01*
X69091971Y-96847213D01*
X69151985Y-96764609D01*
X69212287Y-96681610D01*
X69305220Y-96499219D01*
X69368477Y-96304534D01*
X69400500Y-96102352D01*
X69400500Y-95897648D01*
X69391533Y-95841031D01*
X69368477Y-95695465D01*
X69310022Y-95515561D01*
X69305220Y-95500781D01*
X69305218Y-95500778D01*
X69305218Y-95500776D01*
X69219133Y-95331826D01*
X69219132Y-95331824D01*
X69212286Y-95318388D01*
X69091971Y-95152786D01*
X68947213Y-95008028D01*
X68781613Y-94887715D01*
X68781612Y-94887714D01*
X68781610Y-94887713D01*
X68724653Y-94858691D01*
X68599223Y-94794781D01*
X68404534Y-94731522D01*
X68229995Y-94703878D01*
X68202352Y-94699500D01*
X67997648Y-94699500D01*
X67973329Y-94703351D01*
X67795465Y-94731522D01*
X67600776Y-94794781D01*
X67418386Y-94887715D01*
X67252786Y-95008028D01*
X67108028Y-95152786D01*
X66987712Y-95318389D01*
X66987711Y-95318391D01*
X66910203Y-95470508D01*
X66862229Y-95521304D01*
X66794408Y-95538099D01*
X66728273Y-95515561D01*
X66689234Y-95470507D01*
X66611861Y-95318652D01*
X66579474Y-95274077D01*
X66579474Y-95274076D01*
X65982962Y-95870589D01*
X65965925Y-95807007D01*
X65900099Y-95692993D01*
X65807007Y-95599901D01*
X65692993Y-95534075D01*
X65629408Y-95517037D01*
X66225922Y-94920524D01*
X66225921Y-94920523D01*
X66181359Y-94888147D01*
X66181350Y-94888141D01*
X65999031Y-94795244D01*
X65804417Y-94732009D01*
X65602317Y-94700000D01*
X65397683Y-94700000D01*
X65195582Y-94732009D01*
X65000968Y-94795244D01*
X64818644Y-94888143D01*
X64774077Y-94920523D01*
X64774077Y-94920524D01*
X65370591Y-95517037D01*
X65307007Y-95534075D01*
X65192993Y-95599901D01*
X65099901Y-95692993D01*
X65034075Y-95807007D01*
X65017037Y-95870590D01*
X64420524Y-95274077D01*
X64420523Y-95274077D01*
X64388143Y-95318644D01*
X64295244Y-95500968D01*
X64232009Y-95695582D01*
X64200000Y-95897682D01*
X59695332Y-95897682D01*
X59681613Y-95887715D01*
X59681612Y-95887714D01*
X59681610Y-95887713D01*
X59617888Y-95855245D01*
X59499223Y-95794781D01*
X59304534Y-95731522D01*
X59129995Y-95703878D01*
X59102352Y-95699500D01*
X58897648Y-95699500D01*
X58873329Y-95703351D01*
X58695465Y-95731522D01*
X58500776Y-95794781D01*
X58318386Y-95887715D01*
X58152786Y-96008028D01*
X58008028Y-96152786D01*
X57887715Y-96318386D01*
X57794781Y-96500776D01*
X57731522Y-96695465D01*
X57699500Y-96897648D01*
X55500500Y-96897648D01*
X55500500Y-93897648D01*
X57699500Y-93897648D01*
X57699500Y-94102351D01*
X57731522Y-94304534D01*
X57794781Y-94499223D01*
X57858691Y-94624653D01*
X57886451Y-94679134D01*
X57887715Y-94681613D01*
X58008028Y-94847213D01*
X58152786Y-94991971D01*
X58278989Y-95083661D01*
X58318390Y-95112287D01*
X58397864Y-95152781D01*
X58500776Y-95205218D01*
X58500778Y-95205218D01*
X58500781Y-95205220D01*
X58605137Y-95239127D01*
X58695465Y-95268477D01*
X58796557Y-95284488D01*
X58897648Y-95300500D01*
X58897649Y-95300500D01*
X59102351Y-95300500D01*
X59102352Y-95300500D01*
X59304534Y-95268477D01*
X59499219Y-95205220D01*
X59681610Y-95112287D01*
X59799761Y-95026446D01*
X59847213Y-94991971D01*
X59847215Y-94991968D01*
X59847219Y-94991966D01*
X59991966Y-94847219D01*
X59991968Y-94847215D01*
X59991971Y-94847213D01*
X60086579Y-94716994D01*
X60112287Y-94681610D01*
X60205220Y-94499219D01*
X60268477Y-94304534D01*
X60300500Y-94102352D01*
X60300500Y-93897648D01*
X60276552Y-93746446D01*
X60268477Y-93695465D01*
X60205218Y-93500776D01*
X60163369Y-93418644D01*
X60112287Y-93318390D01*
X60104556Y-93307749D01*
X59991971Y-93152786D01*
X59847213Y-93008028D01*
X59681613Y-92887715D01*
X59681612Y-92887714D01*
X59681610Y-92887713D01*
X59624653Y-92858691D01*
X59499223Y-92794781D01*
X59304534Y-92731522D01*
X59129995Y-92703878D01*
X59102352Y-92699500D01*
X58897648Y-92699500D01*
X58873329Y-92703351D01*
X58695465Y-92731522D01*
X58500776Y-92794781D01*
X58318386Y-92887715D01*
X58152786Y-93008028D01*
X58008028Y-93152786D01*
X57887715Y-93318386D01*
X57794781Y-93500776D01*
X57731522Y-93695465D01*
X57699500Y-93897648D01*
X55500500Y-93897648D01*
X55500500Y-85797648D01*
X57699500Y-85797648D01*
X57699500Y-86002351D01*
X57731522Y-86204534D01*
X57794781Y-86399223D01*
X57887715Y-86581613D01*
X58008028Y-86747213D01*
X58152786Y-86891971D01*
X58318385Y-87012284D01*
X58318387Y-87012285D01*
X58318390Y-87012287D01*
X58470508Y-87089795D01*
X58521304Y-87137770D01*
X58538099Y-87205591D01*
X58515562Y-87271726D01*
X58470508Y-87310765D01*
X58318644Y-87388143D01*
X58274077Y-87420523D01*
X58274077Y-87420524D01*
X58870591Y-88017037D01*
X58807007Y-88034075D01*
X58692993Y-88099901D01*
X58599901Y-88192993D01*
X58534075Y-88307007D01*
X58517037Y-88370590D01*
X57920524Y-87774077D01*
X57920523Y-87774077D01*
X57888143Y-87818644D01*
X57795244Y-88000968D01*
X57732009Y-88195582D01*
X57700000Y-88397682D01*
X57700000Y-88602317D01*
X57732009Y-88804417D01*
X57795244Y-88999031D01*
X57888141Y-89181350D01*
X57888147Y-89181359D01*
X57920523Y-89225921D01*
X57920524Y-89225922D01*
X58517037Y-88629408D01*
X58534075Y-88692993D01*
X58599901Y-88807007D01*
X58692993Y-88900099D01*
X58807007Y-88965925D01*
X58870590Y-88982962D01*
X58274076Y-89579474D01*
X58318650Y-89611859D01*
X58500968Y-89704755D01*
X58695582Y-89767990D01*
X58897683Y-89800000D01*
X59102317Y-89800000D01*
X59304417Y-89767990D01*
X59499031Y-89704755D01*
X59681349Y-89611859D01*
X59725921Y-89579474D01*
X59129409Y-88982962D01*
X59192993Y-88965925D01*
X59307007Y-88900099D01*
X59400099Y-88807007D01*
X59465925Y-88692993D01*
X59482962Y-88629409D01*
X60079474Y-89225921D01*
X60111859Y-89181349D01*
X60204755Y-88999031D01*
X60267990Y-88804417D01*
X60300000Y-88602317D01*
X60300000Y-88397682D01*
X60267990Y-88195582D01*
X60204755Y-88000968D01*
X60111859Y-87818650D01*
X60079474Y-87774077D01*
X60079474Y-87774076D01*
X59482962Y-88370589D01*
X59465925Y-88307007D01*
X59400099Y-88192993D01*
X59307007Y-88099901D01*
X59192993Y-88034075D01*
X59129408Y-88017037D01*
X59725922Y-87420524D01*
X59725921Y-87420523D01*
X59681359Y-87388147D01*
X59681350Y-87388141D01*
X59529491Y-87310765D01*
X59478695Y-87262790D01*
X59461900Y-87194969D01*
X59484437Y-87128834D01*
X59529489Y-87089796D01*
X59681610Y-87012287D01*
X59702770Y-86996913D01*
X59847213Y-86891971D01*
X59847215Y-86891968D01*
X59847219Y-86891966D01*
X59991966Y-86747219D01*
X59991968Y-86747215D01*
X59991971Y-86747213D01*
X60044732Y-86674590D01*
X60112287Y-86581610D01*
X60205220Y-86399219D01*
X60268477Y-86204534D01*
X60300500Y-86002352D01*
X60300500Y-85797648D01*
X60268477Y-85595466D01*
X60205220Y-85400781D01*
X60205218Y-85400778D01*
X60205218Y-85400776D01*
X60171503Y-85334607D01*
X60112287Y-85218390D01*
X60086584Y-85183012D01*
X59991971Y-85052786D01*
X59847213Y-84908028D01*
X59681613Y-84787715D01*
X59681612Y-84787714D01*
X59681610Y-84787713D01*
X59611665Y-84752074D01*
X59499223Y-84694781D01*
X59304534Y-84631522D01*
X59129995Y-84603878D01*
X59102352Y-84599500D01*
X58897648Y-84599500D01*
X58873329Y-84603351D01*
X58695465Y-84631522D01*
X58500776Y-84694781D01*
X58318386Y-84787715D01*
X58152786Y-84908028D01*
X58008028Y-85052786D01*
X57887715Y-85218386D01*
X57794781Y-85400776D01*
X57731522Y-85595465D01*
X57699500Y-85797648D01*
X55500500Y-85797648D01*
X55500500Y-76348373D01*
X67098950Y-76348373D01*
X67098950Y-76553076D01*
X67130972Y-76755259D01*
X67194231Y-76949948D01*
X67287165Y-77132338D01*
X67407478Y-77297938D01*
X67552236Y-77442696D01*
X67666295Y-77525563D01*
X67717840Y-77563012D01*
X67809290Y-77609608D01*
X67810530Y-77610240D01*
X67861326Y-77658215D01*
X67878121Y-77726036D01*
X67855584Y-77792171D01*
X67810530Y-77831210D01*
X67717836Y-77878440D01*
X67552236Y-77998753D01*
X67407478Y-78143511D01*
X67287165Y-78309111D01*
X67194231Y-78491501D01*
X67130972Y-78686190D01*
X67098950Y-78888373D01*
X67098950Y-79093076D01*
X67130972Y-79295259D01*
X67194231Y-79489948D01*
X67241064Y-79581861D01*
X67286001Y-79670055D01*
X67287165Y-79672338D01*
X67407478Y-79837938D01*
X67552236Y-79982696D01*
X67707199Y-80095281D01*
X67717840Y-80103012D01*
X67809290Y-80149608D01*
X67810530Y-80150240D01*
X67861326Y-80198215D01*
X67878121Y-80266036D01*
X67855584Y-80332171D01*
X67810530Y-80371210D01*
X67717836Y-80418440D01*
X67552236Y-80538753D01*
X67407478Y-80683511D01*
X67287165Y-80849111D01*
X67194231Y-81031501D01*
X67130972Y-81226190D01*
X67098950Y-81428373D01*
X67098950Y-81633076D01*
X67130972Y-81835259D01*
X67194231Y-82029948D01*
X67232739Y-82105523D01*
X67285664Y-82209394D01*
X67287165Y-82212338D01*
X67407478Y-82377938D01*
X67552236Y-82522696D01*
X67707199Y-82635281D01*
X67717840Y-82643012D01*
X67809290Y-82689608D01*
X67810530Y-82690240D01*
X67861326Y-82738215D01*
X67878121Y-82806036D01*
X67855584Y-82872171D01*
X67810530Y-82911210D01*
X67717836Y-82958440D01*
X67552236Y-83078753D01*
X67407478Y-83223511D01*
X67287165Y-83389111D01*
X67194231Y-83571501D01*
X67130972Y-83766190D01*
X67098950Y-83968373D01*
X67098950Y-84173076D01*
X67130972Y-84375259D01*
X67194231Y-84569948D01*
X67225606Y-84631523D01*
X67287035Y-84752084D01*
X67287165Y-84752338D01*
X67407478Y-84917938D01*
X67552236Y-85062696D01*
X67672676Y-85150199D01*
X67717840Y-85183012D01*
X67834057Y-85242228D01*
X67900226Y-85275943D01*
X67900228Y-85275943D01*
X67900231Y-85275945D01*
X68004587Y-85309852D01*
X68094915Y-85339202D01*
X68196007Y-85355213D01*
X68297098Y-85371225D01*
X68297099Y-85371225D01*
X68501801Y-85371225D01*
X68501802Y-85371225D01*
X68703984Y-85339202D01*
X68898669Y-85275945D01*
X69081060Y-85183012D01*
X69174040Y-85115457D01*
X69246663Y-85062696D01*
X69246665Y-85062693D01*
X69246669Y-85062691D01*
X69391416Y-84917944D01*
X69391418Y-84917940D01*
X69391421Y-84917938D01*
X69444182Y-84845315D01*
X69511737Y-84752335D01*
X69604670Y-84569944D01*
X69667927Y-84375259D01*
X69699950Y-84173077D01*
X69699950Y-83968373D01*
X69669829Y-83778197D01*
X69667927Y-83766190D01*
X69615488Y-83604800D01*
X69604670Y-83571506D01*
X69604668Y-83571503D01*
X69604668Y-83571501D01*
X69511869Y-83389375D01*
X69511737Y-83389115D01*
X69479542Y-83344802D01*
X69391421Y-83223511D01*
X69246663Y-83078753D01*
X69081064Y-82958440D01*
X69074456Y-82955073D01*
X68988367Y-82911208D01*
X68937573Y-82863236D01*
X68920778Y-82795415D01*
X68943315Y-82729280D01*
X68988367Y-82690241D01*
X69081060Y-82643012D01*
X69102220Y-82627638D01*
X69246663Y-82522696D01*
X69246665Y-82522693D01*
X69246669Y-82522691D01*
X69391416Y-82377944D01*
X69391418Y-82377940D01*
X69391421Y-82377938D01*
X69462064Y-82280704D01*
X69511737Y-82212335D01*
X69604670Y-82029944D01*
X69667927Y-81835259D01*
X69699950Y-81633077D01*
X69699950Y-81428373D01*
X69667927Y-81226191D01*
X69604670Y-81031506D01*
X69604668Y-81031503D01*
X69604668Y-81031501D01*
X69570953Y-80965332D01*
X69511737Y-80849115D01*
X69480576Y-80806225D01*
X69391421Y-80683511D01*
X69246663Y-80538753D01*
X69081064Y-80418440D01*
X69074456Y-80415073D01*
X68988367Y-80371208D01*
X68937573Y-80323236D01*
X68920778Y-80255415D01*
X68943315Y-80189280D01*
X68988367Y-80150241D01*
X69081060Y-80103012D01*
X69102220Y-80087638D01*
X69246663Y-79982696D01*
X69246665Y-79982693D01*
X69246669Y-79982691D01*
X69391416Y-79837944D01*
X69391418Y-79837940D01*
X69391421Y-79837938D01*
X69484815Y-79709390D01*
X69511737Y-79672335D01*
X69604670Y-79489944D01*
X69667927Y-79295259D01*
X69699950Y-79093077D01*
X69699950Y-78888373D01*
X69667927Y-78686190D01*
X69604668Y-78491501D01*
X69531017Y-78346955D01*
X69511737Y-78309115D01*
X69476137Y-78260115D01*
X69391421Y-78143511D01*
X69246663Y-77998753D01*
X69081064Y-77878440D01*
X69074456Y-77875073D01*
X68988367Y-77831208D01*
X68937573Y-77783236D01*
X68920778Y-77715415D01*
X68943315Y-77649280D01*
X68988367Y-77610241D01*
X69081060Y-77563012D01*
X69132605Y-77525563D01*
X69246663Y-77442696D01*
X69246665Y-77442693D01*
X69246669Y-77442691D01*
X69391416Y-77297944D01*
X69391418Y-77297940D01*
X69391421Y-77297938D01*
X69444182Y-77225315D01*
X69511737Y-77132335D01*
X69604670Y-76949944D01*
X69667927Y-76755259D01*
X69699950Y-76553077D01*
X69699950Y-76348373D01*
X69667927Y-76146191D01*
X69604670Y-75951506D01*
X69604668Y-75951503D01*
X69604668Y-75951501D01*
X69570953Y-75885332D01*
X69511737Y-75769115D01*
X69504006Y-75758474D01*
X69391421Y-75603511D01*
X69246663Y-75458753D01*
X69081063Y-75338440D01*
X69081062Y-75338439D01*
X69081060Y-75338438D01*
X69018302Y-75306461D01*
X68898673Y-75245506D01*
X68703984Y-75182247D01*
X68529445Y-75154603D01*
X68501802Y-75150225D01*
X68297098Y-75150225D01*
X68272779Y-75154076D01*
X68094915Y-75182247D01*
X67900226Y-75245506D01*
X67717836Y-75338440D01*
X67552236Y-75458753D01*
X67407478Y-75603511D01*
X67287165Y-75769111D01*
X67194231Y-75951501D01*
X67130972Y-76146190D01*
X67098950Y-76348373D01*
X55500500Y-76348373D01*
X55500500Y-50129420D01*
X55520185Y-50062381D01*
X55572989Y-50016626D01*
X55642147Y-50006682D01*
X55705703Y-50035707D01*
X55742154Y-50092427D01*
X55742643Y-50092262D01*
X55743308Y-50094222D01*
X55743477Y-50094485D01*
X55743856Y-50095838D01*
X55743945Y-50096098D01*
X55811909Y-50260177D01*
X55836776Y-50320212D01*
X55958064Y-50530289D01*
X55958066Y-50530292D01*
X55958067Y-50530293D01*
X56105733Y-50722736D01*
X56105739Y-50722743D01*
X56277256Y-50894260D01*
X56277263Y-50894266D01*
X56370818Y-50966053D01*
X56469711Y-51041936D01*
X56679788Y-51163224D01*
X56903900Y-51256054D01*
X57138211Y-51318838D01*
X57318586Y-51342584D01*
X57378711Y-51350500D01*
X57378712Y-51350500D01*
X57621289Y-51350500D01*
X57669388Y-51344167D01*
X57861789Y-51318838D01*
X58096100Y-51256054D01*
X58320212Y-51163224D01*
X58530289Y-51041936D01*
X58722738Y-50894265D01*
X58894265Y-50722738D01*
X59041936Y-50530289D01*
X59051477Y-50513763D01*
X63950250Y-50513763D01*
X63950250Y-50711236D01*
X63981139Y-50906263D01*
X64042158Y-51094058D01*
X64042159Y-51094061D01*
X64131671Y-51269736D01*
X64131808Y-51270004D01*
X64247865Y-51429746D01*
X64387503Y-51569384D01*
X64511998Y-51659833D01*
X64547249Y-51685444D01*
X64723189Y-51775091D01*
X64848387Y-51815770D01*
X64910986Y-51836110D01*
X65106014Y-51867000D01*
X65106019Y-51867000D01*
X65303486Y-51867000D01*
X65498513Y-51836110D01*
X65500012Y-51835623D01*
X65686311Y-51775091D01*
X65862251Y-51685444D01*
X65951942Y-51620279D01*
X66021996Y-51569384D01*
X66021998Y-51569381D01*
X66022002Y-51569379D01*
X66161629Y-51429752D01*
X66161631Y-51429748D01*
X66161634Y-51429746D01*
X66277693Y-51270002D01*
X66277829Y-51269736D01*
X66364547Y-51099543D01*
X66412518Y-51048750D01*
X66480339Y-51031955D01*
X66546474Y-51054492D01*
X66585513Y-51099545D01*
X66672231Y-51269736D01*
X66698207Y-51305488D01*
X66698207Y-51305489D01*
X67261787Y-50741908D01*
X67278825Y-50805493D01*
X67344651Y-50919507D01*
X67437743Y-51012599D01*
X67551757Y-51078425D01*
X67615340Y-51095462D01*
X67051759Y-51659041D01*
X67051760Y-51659042D01*
X67087505Y-51685012D01*
X67087518Y-51685020D01*
X67263376Y-51774626D01*
X67451103Y-51835623D01*
X67646053Y-51866500D01*
X67843447Y-51866500D01*
X68038396Y-51835623D01*
X68226123Y-51774626D01*
X68401991Y-51685016D01*
X68437738Y-51659043D01*
X68437738Y-51659041D01*
X67874160Y-51095462D01*
X67937743Y-51078425D01*
X68051757Y-51012599D01*
X68144849Y-50919507D01*
X68210675Y-50805493D01*
X68227712Y-50741909D01*
X68791291Y-51305488D01*
X68791293Y-51305488D01*
X68817266Y-51269741D01*
X68903985Y-51099546D01*
X68951960Y-51048750D01*
X69019781Y-51031955D01*
X69085915Y-51054492D01*
X69124952Y-51099542D01*
X69204699Y-51256052D01*
X69211808Y-51270005D01*
X69327865Y-51429746D01*
X69467503Y-51569384D01*
X69591998Y-51659833D01*
X69627249Y-51685444D01*
X69803189Y-51775091D01*
X69928387Y-51815770D01*
X69990986Y-51836110D01*
X70186014Y-51867000D01*
X70186019Y-51867000D01*
X70383486Y-51867000D01*
X70578513Y-51836110D01*
X70580012Y-51835623D01*
X70766311Y-51775091D01*
X70942251Y-51685444D01*
X71031942Y-51620279D01*
X71101996Y-51569384D01*
X71101998Y-51569381D01*
X71102002Y-51569379D01*
X71241629Y-51429752D01*
X71241631Y-51429748D01*
X71241634Y-51429746D01*
X71357691Y-51270005D01*
X71357693Y-51270002D01*
X71357694Y-51270001D01*
X71444267Y-51100093D01*
X71492240Y-51049300D01*
X71560061Y-51032505D01*
X71626196Y-51055042D01*
X71665232Y-51100093D01*
X71697399Y-51163222D01*
X71751808Y-51270005D01*
X71867865Y-51429746D01*
X72007503Y-51569384D01*
X72131998Y-51659833D01*
X72167249Y-51685444D01*
X72343189Y-51775091D01*
X72468387Y-51815770D01*
X72530986Y-51836110D01*
X72726014Y-51867000D01*
X72726019Y-51867000D01*
X72923486Y-51867000D01*
X73118513Y-51836110D01*
X73120012Y-51835623D01*
X73306311Y-51775091D01*
X73482251Y-51685444D01*
X73571942Y-51620279D01*
X73641996Y-51569384D01*
X73641998Y-51569381D01*
X73642002Y-51569379D01*
X73781629Y-51429752D01*
X73781631Y-51429748D01*
X73781634Y-51429746D01*
X73897691Y-51270005D01*
X73897693Y-51270002D01*
X73897694Y-51270001D01*
X73984267Y-51100093D01*
X74032240Y-51049300D01*
X74100061Y-51032505D01*
X74166196Y-51055042D01*
X74205232Y-51100093D01*
X74237399Y-51163222D01*
X74291808Y-51270005D01*
X74407865Y-51429746D01*
X74547503Y-51569384D01*
X74671998Y-51659833D01*
X74707249Y-51685444D01*
X74883189Y-51775091D01*
X75008387Y-51815770D01*
X75070986Y-51836110D01*
X75266014Y-51867000D01*
X75266019Y-51867000D01*
X75463486Y-51867000D01*
X75658513Y-51836110D01*
X75660012Y-51835623D01*
X75846311Y-51775091D01*
X76022251Y-51685444D01*
X76111942Y-51620279D01*
X76181996Y-51569384D01*
X76181998Y-51569381D01*
X76182002Y-51569379D01*
X76321629Y-51429752D01*
X76321631Y-51429748D01*
X76321634Y-51429746D01*
X76437691Y-51270005D01*
X76437693Y-51270002D01*
X76437694Y-51270001D01*
X76524267Y-51100093D01*
X76572240Y-51049300D01*
X76640061Y-51032505D01*
X76706196Y-51055042D01*
X76745232Y-51100093D01*
X76777399Y-51163222D01*
X76831808Y-51270005D01*
X76947865Y-51429746D01*
X77087503Y-51569384D01*
X77211998Y-51659833D01*
X77247249Y-51685444D01*
X77423189Y-51775091D01*
X77548387Y-51815770D01*
X77610986Y-51836110D01*
X77806014Y-51867000D01*
X77806019Y-51867000D01*
X78003486Y-51867000D01*
X78198513Y-51836110D01*
X78200012Y-51835623D01*
X78386311Y-51775091D01*
X78562251Y-51685444D01*
X78651942Y-51620279D01*
X78721996Y-51569384D01*
X78721998Y-51569381D01*
X78722002Y-51569379D01*
X78861629Y-51429752D01*
X78861631Y-51429748D01*
X78861634Y-51429746D01*
X78977691Y-51270005D01*
X78977693Y-51270002D01*
X78977694Y-51270001D01*
X79064267Y-51100093D01*
X79112240Y-51049300D01*
X79180061Y-51032505D01*
X79246196Y-51055042D01*
X79285232Y-51100093D01*
X79317399Y-51163222D01*
X79371808Y-51270005D01*
X79487865Y-51429746D01*
X79627503Y-51569384D01*
X79751998Y-51659833D01*
X79787249Y-51685444D01*
X79963189Y-51775091D01*
X80088387Y-51815770D01*
X80150986Y-51836110D01*
X80346014Y-51867000D01*
X80346019Y-51867000D01*
X80543486Y-51867000D01*
X80738513Y-51836110D01*
X80740012Y-51835623D01*
X80926311Y-51775091D01*
X81102251Y-51685444D01*
X81191942Y-51620279D01*
X81261996Y-51569384D01*
X81261998Y-51569381D01*
X81262002Y-51569379D01*
X81401629Y-51429752D01*
X81401631Y-51429748D01*
X81401634Y-51429746D01*
X81452529Y-51359692D01*
X81517694Y-51270001D01*
X81607341Y-51094061D01*
X81668360Y-50906263D01*
X81679217Y-50837715D01*
X81699250Y-50711236D01*
X81699250Y-50513763D01*
X81668360Y-50318736D01*
X81615926Y-50157362D01*
X81607341Y-50130939D01*
X81517694Y-49954999D01*
X81491909Y-49919509D01*
X81401634Y-49795253D01*
X81261996Y-49655615D01*
X81102254Y-49539558D01*
X81102253Y-49539557D01*
X81102251Y-49539556D01*
X80926311Y-49449909D01*
X80926308Y-49449908D01*
X80738513Y-49388889D01*
X80543486Y-49358000D01*
X80543481Y-49358000D01*
X80346019Y-49358000D01*
X80346014Y-49358000D01*
X80150986Y-49388889D01*
X79963191Y-49449908D01*
X79787245Y-49539558D01*
X79627503Y-49655615D01*
X79487865Y-49795253D01*
X79371808Y-49954995D01*
X79371806Y-49954999D01*
X79291555Y-50112500D01*
X79285235Y-50124903D01*
X79237260Y-50175699D01*
X79169439Y-50192494D01*
X79103304Y-50169956D01*
X79064265Y-50124903D01*
X78977694Y-49954999D01*
X78951909Y-49919509D01*
X78861634Y-49795253D01*
X78721996Y-49655615D01*
X78562254Y-49539558D01*
X78562253Y-49539557D01*
X78562251Y-49539556D01*
X78386311Y-49449909D01*
X78386308Y-49449908D01*
X78198513Y-49388889D01*
X78003486Y-49358000D01*
X78003481Y-49358000D01*
X77806019Y-49358000D01*
X77806014Y-49358000D01*
X77610986Y-49388889D01*
X77423191Y-49449908D01*
X77247245Y-49539558D01*
X77087503Y-49655615D01*
X76947865Y-49795253D01*
X76831808Y-49954995D01*
X76831806Y-49954999D01*
X76751555Y-50112500D01*
X76745235Y-50124903D01*
X76697260Y-50175699D01*
X76629439Y-50192494D01*
X76563304Y-50169956D01*
X76524265Y-50124903D01*
X76437694Y-49954999D01*
X76411909Y-49919509D01*
X76321634Y-49795253D01*
X76181996Y-49655615D01*
X76022254Y-49539558D01*
X76022253Y-49539557D01*
X76022251Y-49539556D01*
X75846311Y-49449909D01*
X75846308Y-49449908D01*
X75658513Y-49388889D01*
X75463486Y-49358000D01*
X75463481Y-49358000D01*
X75266019Y-49358000D01*
X75266014Y-49358000D01*
X75070986Y-49388889D01*
X74883191Y-49449908D01*
X74707245Y-49539558D01*
X74547503Y-49655615D01*
X74407865Y-49795253D01*
X74291808Y-49954995D01*
X74291806Y-49954999D01*
X74211555Y-50112500D01*
X74205235Y-50124903D01*
X74157260Y-50175699D01*
X74089439Y-50192494D01*
X74023304Y-50169956D01*
X73984265Y-50124903D01*
X73897694Y-49954999D01*
X73871909Y-49919509D01*
X73781634Y-49795253D01*
X73641996Y-49655615D01*
X73482254Y-49539558D01*
X73482253Y-49539557D01*
X73482251Y-49539556D01*
X73306311Y-49449909D01*
X73306308Y-49449908D01*
X73118513Y-49388889D01*
X72923486Y-49358000D01*
X72923481Y-49358000D01*
X72726019Y-49358000D01*
X72726014Y-49358000D01*
X72530986Y-49388889D01*
X72343191Y-49449908D01*
X72167245Y-49539558D01*
X72007503Y-49655615D01*
X71867865Y-49795253D01*
X71751808Y-49954995D01*
X71751806Y-49954999D01*
X71671555Y-50112500D01*
X71665235Y-50124903D01*
X71617260Y-50175699D01*
X71549439Y-50192494D01*
X71483304Y-50169956D01*
X71444265Y-50124903D01*
X71357694Y-49954999D01*
X71331909Y-49919509D01*
X71241634Y-49795253D01*
X71101996Y-49655615D01*
X70942254Y-49539558D01*
X70942253Y-49539557D01*
X70942251Y-49539556D01*
X70766311Y-49449909D01*
X70766308Y-49449908D01*
X70578513Y-49388889D01*
X70383486Y-49358000D01*
X70383481Y-49358000D01*
X70186019Y-49358000D01*
X70186014Y-49358000D01*
X69990986Y-49388889D01*
X69803191Y-49449908D01*
X69627245Y-49539558D01*
X69467503Y-49655615D01*
X69327865Y-49795253D01*
X69211808Y-49954995D01*
X69211806Y-49954999D01*
X69124953Y-50125454D01*
X69076980Y-50176249D01*
X69009159Y-50193044D01*
X68943024Y-50170506D01*
X68903985Y-50125453D01*
X68817270Y-49955268D01*
X68817262Y-49955255D01*
X68791292Y-49919510D01*
X68791291Y-49919509D01*
X68227712Y-50483089D01*
X68210675Y-50419507D01*
X68144849Y-50305493D01*
X68051757Y-50212401D01*
X67937743Y-50146575D01*
X67874159Y-50129537D01*
X68437739Y-49565957D01*
X68401989Y-49539983D01*
X68226123Y-49450373D01*
X68038396Y-49389376D01*
X67843447Y-49358500D01*
X67646053Y-49358500D01*
X67451103Y-49389376D01*
X67263376Y-49450373D01*
X67087512Y-49539982D01*
X67087510Y-49539983D01*
X67051760Y-49565956D01*
X67051760Y-49565957D01*
X67615341Y-50129537D01*
X67551757Y-50146575D01*
X67437743Y-50212401D01*
X67344651Y-50305493D01*
X67278825Y-50419507D01*
X67261787Y-50483090D01*
X66698207Y-49919510D01*
X66698206Y-49919510D01*
X66672233Y-49955260D01*
X66672229Y-49955267D01*
X66585513Y-50125454D01*
X66537538Y-50176249D01*
X66469717Y-50193044D01*
X66403583Y-50170506D01*
X66364548Y-50125457D01*
X66277694Y-49954999D01*
X66277692Y-49954996D01*
X66277691Y-49954994D01*
X66161634Y-49795253D01*
X66021996Y-49655615D01*
X65862254Y-49539558D01*
X65862253Y-49539557D01*
X65862251Y-49539556D01*
X65686311Y-49449909D01*
X65686308Y-49449908D01*
X65498513Y-49388889D01*
X65303486Y-49358000D01*
X65303481Y-49358000D01*
X65106019Y-49358000D01*
X65106014Y-49358000D01*
X64910986Y-49388889D01*
X64723191Y-49449908D01*
X64547245Y-49539558D01*
X64387503Y-49655615D01*
X64247865Y-49795253D01*
X64131808Y-49954995D01*
X64042158Y-50130941D01*
X63981139Y-50318736D01*
X63950250Y-50513763D01*
X59051477Y-50513763D01*
X59163224Y-50320212D01*
X59256054Y-50096100D01*
X59318838Y-49861789D01*
X59350500Y-49621288D01*
X59350500Y-49378712D01*
X59318838Y-49138211D01*
X59256054Y-48903900D01*
X59163224Y-48679788D01*
X59041936Y-48469711D01*
X58894265Y-48277262D01*
X58894260Y-48277256D01*
X58722743Y-48105739D01*
X58722736Y-48105733D01*
X58530293Y-47958067D01*
X58530292Y-47958066D01*
X58530289Y-47958064D01*
X58320212Y-47836776D01*
X58320205Y-47836772D01*
X58299021Y-47827998D01*
X58244618Y-47784157D01*
X58222553Y-47717862D01*
X58239832Y-47650163D01*
X58290970Y-47602553D01*
X58346474Y-47589437D01*
X117153526Y-47589437D01*
X117220565Y-47609122D01*
G37*
%TD.AperFunction*%
%TD*%
M02*
