M48
; DRILL file KiCad 10.0.1 date 2026-06-07T20:36:54
; FORMAT={-:-/ absolute / metric / decimal}
; #@! TF.CreationDate,2026-06-07T20:36:54-04:00
; #@! TF.GenerationSoftware,Kicad,Pcbnew,10.0.1
; #@! TF.FileFunction,Plated,1,2,PTH
FMAT,2
METRIC
; #@! TA.AperFunction,Plated,PTH,ViaDrill
T1C0.300
; #@! TA.AperFunction,Plated,PTH,ComponentDrill
T2C0.900
; #@! TA.AperFunction,Plated,PTH,ComponentDrill
T3C1.000
; #@! TA.AperFunction,Plated,PTH,ComponentDrill
T4C1.020
%
G90
G05
T1
X89.5Y-79.0
X90.5Y-90.5
X92.5Y-107.4
X93.5Y-106.5
X100.5Y-97.045
X102.0Y-81.5
X107.949Y-77.551
T2
X114.025Y-68.96
X114.025Y-71.5
X114.025Y-74.04
X114.525Y-50.96
X114.525Y-53.5
X114.525Y-56.04
X114.525Y-60.46
X114.525Y-63.0
X114.525Y-65.54
T3
X59.0Y-85.9
X59.0Y-88.5
X59.0Y-94.0
X59.0Y-97.0
X62.0Y-103.35
X62.0Y-105.95
X62.0Y-108.55
X62.0Y-111.15
X65.205Y-50.612
X65.205Y-65.852
X65.5Y-96.0
X67.0Y-103.4
X67.0Y-106.0
X67.0Y-108.6
X67.0Y-111.2
X67.745Y-50.612
X67.745Y-65.852
X68.1Y-96.0
X68.399Y-76.451
X68.399Y-78.991
X68.399Y-81.531
X68.399Y-84.071
X70.285Y-50.612
X70.285Y-65.852
X72.825Y-50.612
X72.825Y-65.852
X75.365Y-50.612
X75.365Y-65.852
X77.905Y-50.612
X77.905Y-65.852
X80.445Y-50.612
X80.445Y-65.852
X83.6Y-76.451
X83.6Y-78.991
X83.6Y-81.531
X83.6Y-84.071
X90.5Y-51.95
X90.5Y-54.45
X90.822Y-76.451
X90.822Y-78.991
X90.822Y-81.531
X90.822Y-84.071
X91.7Y-63.0
X94.3Y-63.0
X96.9Y-63.0
X99.5Y-63.0
X100.5Y-51.95
X100.5Y-54.45
X106.023Y-76.451
X106.023Y-78.991
X106.023Y-81.531
X106.023Y-84.071
X111.0Y-100.0
X111.0Y-103.0
X112.5Y-91.5
X112.5Y-94.1
X112.5Y-108.0
X112.5Y-110.6
X114.5Y-100.0
X114.5Y-103.0
T4
X72.84Y-95.38
X72.84Y-110.62
X75.38Y-95.38
X75.38Y-110.62
X77.92Y-95.38
X77.92Y-110.62
X80.46Y-95.38
X80.46Y-110.62
X83.0Y-95.38
X83.0Y-110.62
X85.54Y-95.38
X85.54Y-110.62
X88.08Y-95.38
X88.08Y-110.62
X90.62Y-95.38
X90.62Y-110.62
X93.16Y-95.38
X93.16Y-110.62
X95.7Y-95.38
X95.7Y-110.62
X98.24Y-95.38
X98.24Y-110.62
X100.78Y-95.38
X100.78Y-110.62
X103.32Y-95.38
X103.32Y-110.62
X105.86Y-95.38
X105.86Y-110.62
M30
