%TF.GenerationSoftware,KiCad,Pcbnew,10.0.1*%
%TF.CreationDate,2026-06-12T18:32:36-04:00*%
%TF.ProjectId,MeltyPCB v4,4d656c74-7950-4434-9220-76342e6b6963,rev?*%
%TF.SameCoordinates,Original*%
%TF.FileFunction,Soldermask,Bot*%
%TF.FilePolarity,Negative*%
%FSLAX46Y46*%
G04 Gerber Fmt 4.6, Leading zero omitted, Abs format (unit mm)*
G04 Created by KiCad (PCBNEW 10.0.1) date 2026-06-12 18:32:36*
%MOMM*%
%LPD*%
G01*
G04 APERTURE LIST*
G04 Aperture macros list*
%AMRoundRect*
0 Rectangle with rounded corners*
0 $1 Rounding radius*
0 $2 $3 $4 $5 $6 $7 $8 $9 X,Y pos of 4 corners*
0 Add a 4 corners polygon primitive as box body*
4,1,4,$2,$3,$4,$5,$6,$7,$8,$9,$2,$3,0*
0 Add four circle primitives for the rounded corners*
1,1,$1+$1,$2,$3*
1,1,$1+$1,$4,$5*
1,1,$1+$1,$6,$7*
1,1,$1+$1,$8,$9*
0 Add four rect primitives between the rounded corners*
20,1,$1+$1,$2,$3,$4,$5,0*
20,1,$1+$1,$4,$5,$6,$7,0*
20,1,$1+$1,$6,$7,$8,$9,0*
20,1,$1+$1,$8,$9,$2,$3,0*%
G04 Aperture macros list end*
%ADD10C,1.600000*%
%ADD11C,3.200000*%
%ADD12RoundRect,0.250200X-0.649800X0.649800X-0.649800X-0.649800X0.649800X-0.649800X0.649800X0.649800X0*%
%ADD13C,1.800000*%
%ADD14C,1.734000*%
%ADD15RoundRect,0.102000X0.754000X-0.754000X0.754000X0.754000X-0.754000X0.754000X-0.754000X-0.754000X0*%
%ADD16C,1.712000*%
G04 APERTURE END LIST*
D10*
%TO.C,ACC1*%
X90822450Y-76450725D03*
X90822450Y-78990725D03*
X90822450Y-81530725D03*
X90822450Y-84070725D03*
X106022550Y-76450725D03*
X106022550Y-78990725D03*
X106022550Y-81530725D03*
X106022550Y-84070725D03*
%TD*%
%TO.C,ACC0*%
X68399450Y-76450725D03*
X68399450Y-78990725D03*
X68399450Y-81530725D03*
X68399450Y-84070725D03*
X83599550Y-76450725D03*
X83599550Y-78990725D03*
X83599550Y-81530725D03*
X83599550Y-84070725D03*
%TD*%
D11*
%TO.C,*%
X117500000Y-37500000D03*
%TD*%
D10*
%TO.C,BUCK1*%
X95500000Y-42500000D03*
X98000000Y-42500000D03*
X100500000Y-42500000D03*
%TD*%
%TO.C,ToF*%
X66500000Y-103400000D03*
X66500000Y-106000000D03*
X66500000Y-108600000D03*
X66500000Y-111200000D03*
%TD*%
D11*
%TO.C,*%
X58000000Y-118000000D03*
%TD*%
D10*
%TO.C,ESC1*%
X102000000Y-50450000D03*
X102000000Y-52950000D03*
%TD*%
D12*
%TO.C,IR1*%
X114525000Y-51460000D03*
D13*
X114525000Y-54000000D03*
X114525000Y-56540000D03*
%TD*%
D12*
%TO.C,IR0*%
X114525000Y-42460000D03*
D13*
X114525000Y-45000000D03*
X114525000Y-47540000D03*
%TD*%
D10*
%TO.C,MAG0*%
X91700000Y-63000000D03*
X94300000Y-63000000D03*
X96900000Y-63000000D03*
X99500000Y-63000000D03*
%TD*%
D14*
%TO.C,U0*%
X75840000Y-118240000D03*
X75840000Y-113740000D03*
X78380000Y-118240000D03*
X78380000Y-113740000D03*
X80920000Y-118240000D03*
X80920000Y-113740000D03*
X83460000Y-118240000D03*
X83460000Y-113740000D03*
X78380000Y-98500000D03*
X78380000Y-94000000D03*
X86000000Y-118240000D03*
X86000000Y-113740000D03*
X88540000Y-118240000D03*
X88540000Y-113740000D03*
X91080000Y-118240000D03*
X91080000Y-113740000D03*
X93620000Y-118240000D03*
X93620000Y-113740000D03*
X96160000Y-118240000D03*
X96160000Y-113740000D03*
X98700000Y-118240000D03*
X98700000Y-113740000D03*
X101240000Y-118240000D03*
X101240000Y-113740000D03*
X103780000Y-118240000D03*
X103780000Y-113740000D03*
X106320000Y-118240000D03*
X106320000Y-113740000D03*
X106320000Y-98500000D03*
X106320000Y-94000000D03*
X103780000Y-98500000D03*
X103780000Y-94000000D03*
X101240000Y-98500000D03*
X101240000Y-94000000D03*
X98700000Y-98500000D03*
X98700000Y-94000000D03*
X96160000Y-98500000D03*
X96160000Y-94000000D03*
X93620000Y-98500000D03*
X93620000Y-94000000D03*
X91080000Y-98500000D03*
X91080000Y-94000000D03*
X88540000Y-98500000D03*
X88540000Y-94000000D03*
X86000000Y-98500000D03*
X86000000Y-94000000D03*
X83460000Y-98500000D03*
X83460000Y-94000000D03*
X80920000Y-98500000D03*
X80920000Y-94000000D03*
X73300000Y-118240000D03*
X73300000Y-113740000D03*
X75840000Y-98500000D03*
X75840000Y-94000000D03*
X73300000Y-98500000D03*
X73300000Y-94000000D03*
%TD*%
D10*
%TO.C,LED0*%
X112500000Y-91500000D03*
X112500000Y-94100000D03*
%TD*%
%TO.C,POW0*%
X68100000Y-96000000D03*
X65500000Y-96000000D03*
%TD*%
D15*
%TO.C,U1*%
X67000000Y-65000000D03*
X67000000Y-60500000D03*
D16*
X69540000Y-65000000D03*
X69540000Y-60500000D03*
X72080000Y-65000000D03*
X72080000Y-60500000D03*
X74620000Y-65000000D03*
X74620000Y-60500000D03*
X77160000Y-65000000D03*
X77160000Y-60500000D03*
X79700000Y-65000000D03*
X79700000Y-60500000D03*
X82240000Y-65000000D03*
X82240000Y-60500000D03*
X82240000Y-45260000D03*
X82240000Y-40760000D03*
X79700000Y-45260000D03*
X79700000Y-40760000D03*
X77160000Y-45260000D03*
X77160000Y-40760000D03*
X74620000Y-45260000D03*
X74620000Y-40760000D03*
X72080000Y-45260000D03*
X72080000Y-40760000D03*
X69540000Y-45260000D03*
X69540000Y-40760000D03*
X67000000Y-45260000D03*
X67000000Y-40760000D03*
%TD*%
D10*
%TO.C,RAD*%
X60500000Y-103400000D03*
X60500000Y-106000000D03*
X60500000Y-108600000D03*
X60500000Y-111200000D03*
%TD*%
%TO.C,ESC0*%
X91500000Y-50500000D03*
X91500000Y-53000000D03*
%TD*%
%TO.C,R2*%
X59000000Y-97000000D03*
X59000000Y-94000000D03*
%TD*%
%TO.C,IRLED0*%
X112500000Y-110000000D03*
X112500000Y-112600000D03*
%TD*%
D12*
%TO.C,IR2*%
X114525000Y-60460000D03*
D13*
X114525000Y-63000000D03*
X114525000Y-65540000D03*
%TD*%
D11*
%TO.C,*%
X117500000Y-118000000D03*
%TD*%
D10*
%TO.C,R1*%
X114500000Y-103000000D03*
X114500000Y-100000000D03*
%TD*%
D11*
%TO.C,*%
X58000000Y-37500000D03*
%TD*%
D10*
%TO.C,LED1*%
X59000000Y-85900000D03*
X59000000Y-88500000D03*
%TD*%
%TO.C,R0*%
X111000000Y-103000000D03*
X111000000Y-100000000D03*
%TD*%
M02*
