%TF.GenerationSoftware,KiCad,Pcbnew,10.0.1*%
%TF.CreationDate,2026-06-07T20:36:51-04:00*%
%TF.ProjectId,MeltyPCB v4,4d656c74-7950-4434-9220-76342e6b6963,rev?*%
%TF.SameCoordinates,Original*%
%TF.FileFunction,Legend,Top*%
%TF.FilePolarity,Positive*%
%FSLAX46Y46*%
G04 Gerber Fmt 4.6, Leading zero omitted, Abs format (unit mm)*
G04 Created by KiCad (PCBNEW 10.0.1) date 2026-06-07 20:36:51*
%MOMM*%
%LPD*%
G01*
G04 APERTURE LIST*
%ADD10C,0.150000*%
%ADD11C,0.100000*%
%ADD12C,0.062500*%
%ADD13C,0.127000*%
%ADD14C,0.120000*%
%ADD15C,0.200000*%
G04 APERTURE END LIST*
D10*
X69119819Y-109476904D02*
X69929342Y-109476904D01*
X69929342Y-109476904D02*
X70024580Y-109429285D01*
X70024580Y-109429285D02*
X70072200Y-109381666D01*
X70072200Y-109381666D02*
X70119819Y-109286428D01*
X70119819Y-109286428D02*
X70119819Y-109095952D01*
X70119819Y-109095952D02*
X70072200Y-109000714D01*
X70072200Y-109000714D02*
X70024580Y-108953095D01*
X70024580Y-108953095D02*
X69929342Y-108905476D01*
X69929342Y-108905476D02*
X69119819Y-108905476D01*
X69119819Y-108238809D02*
X69119819Y-108143571D01*
X69119819Y-108143571D02*
X69167438Y-108048333D01*
X69167438Y-108048333D02*
X69215057Y-108000714D01*
X69215057Y-108000714D02*
X69310295Y-107953095D01*
X69310295Y-107953095D02*
X69500771Y-107905476D01*
X69500771Y-107905476D02*
X69738866Y-107905476D01*
X69738866Y-107905476D02*
X69929342Y-107953095D01*
X69929342Y-107953095D02*
X70024580Y-108000714D01*
X70024580Y-108000714D02*
X70072200Y-108048333D01*
X70072200Y-108048333D02*
X70119819Y-108143571D01*
X70119819Y-108143571D02*
X70119819Y-108238809D01*
X70119819Y-108238809D02*
X70072200Y-108334047D01*
X70072200Y-108334047D02*
X70024580Y-108381666D01*
X70024580Y-108381666D02*
X69929342Y-108429285D01*
X69929342Y-108429285D02*
X69738866Y-108476904D01*
X69738866Y-108476904D02*
X69500771Y-108476904D01*
X69500771Y-108476904D02*
X69310295Y-108429285D01*
X69310295Y-108429285D02*
X69215057Y-108381666D01*
X69215057Y-108381666D02*
X69167438Y-108334047D01*
X69167438Y-108334047D02*
X69119819Y-108238809D01*
X72772752Y-115552618D02*
X72742276Y-115613571D01*
X72742276Y-115613571D02*
X72742276Y-115704999D01*
X72742276Y-115704999D02*
X72772752Y-115796428D01*
X72772752Y-115796428D02*
X72833704Y-115857380D01*
X72833704Y-115857380D02*
X72894657Y-115887857D01*
X72894657Y-115887857D02*
X73016561Y-115918333D01*
X73016561Y-115918333D02*
X73107990Y-115918333D01*
X73107990Y-115918333D02*
X73229895Y-115887857D01*
X73229895Y-115887857D02*
X73290847Y-115857380D01*
X73290847Y-115857380D02*
X73351800Y-115796428D01*
X73351800Y-115796428D02*
X73382276Y-115704999D01*
X73382276Y-115704999D02*
X73382276Y-115644047D01*
X73382276Y-115644047D02*
X73351800Y-115552618D01*
X73351800Y-115552618D02*
X73321323Y-115522142D01*
X73321323Y-115522142D02*
X73107990Y-115522142D01*
X73107990Y-115522142D02*
X73107990Y-115644047D01*
X73382276Y-115247857D02*
X72742276Y-115247857D01*
X72742276Y-115247857D02*
X73382276Y-114882142D01*
X73382276Y-114882142D02*
X72742276Y-114882142D01*
X73382276Y-114577381D02*
X72742276Y-114577381D01*
X72742276Y-114577381D02*
X72742276Y-114425000D01*
X72742276Y-114425000D02*
X72772752Y-114333571D01*
X72772752Y-114333571D02*
X72833704Y-114272619D01*
X72833704Y-114272619D02*
X72894657Y-114242142D01*
X72894657Y-114242142D02*
X73016561Y-114211666D01*
X73016561Y-114211666D02*
X73107990Y-114211666D01*
X73107990Y-114211666D02*
X73229895Y-114242142D01*
X73229895Y-114242142D02*
X73290847Y-114272619D01*
X73290847Y-114272619D02*
X73351800Y-114333571D01*
X73351800Y-114333571D02*
X73382276Y-114425000D01*
X73382276Y-114425000D02*
X73382276Y-114577381D01*
D11*
X96685164Y-69110929D02*
X97161354Y-69110929D01*
X96589926Y-69396644D02*
X96923259Y-68396644D01*
X96923259Y-68396644D02*
X97256592Y-69396644D01*
X98161354Y-69301405D02*
X98113735Y-69349025D01*
X98113735Y-69349025D02*
X97970878Y-69396644D01*
X97970878Y-69396644D02*
X97875640Y-69396644D01*
X97875640Y-69396644D02*
X97732783Y-69349025D01*
X97732783Y-69349025D02*
X97637545Y-69253786D01*
X97637545Y-69253786D02*
X97589926Y-69158548D01*
X97589926Y-69158548D02*
X97542307Y-68968072D01*
X97542307Y-68968072D02*
X97542307Y-68825215D01*
X97542307Y-68825215D02*
X97589926Y-68634739D01*
X97589926Y-68634739D02*
X97637545Y-68539501D01*
X97637545Y-68539501D02*
X97732783Y-68444263D01*
X97732783Y-68444263D02*
X97875640Y-68396644D01*
X97875640Y-68396644D02*
X97970878Y-68396644D01*
X97970878Y-68396644D02*
X98113735Y-68444263D01*
X98113735Y-68444263D02*
X98161354Y-68491882D01*
X99161354Y-69301405D02*
X99113735Y-69349025D01*
X99113735Y-69349025D02*
X98970878Y-69396644D01*
X98970878Y-69396644D02*
X98875640Y-69396644D01*
X98875640Y-69396644D02*
X98732783Y-69349025D01*
X98732783Y-69349025D02*
X98637545Y-69253786D01*
X98637545Y-69253786D02*
X98589926Y-69158548D01*
X98589926Y-69158548D02*
X98542307Y-68968072D01*
X98542307Y-68968072D02*
X98542307Y-68825215D01*
X98542307Y-68825215D02*
X98589926Y-68634739D01*
X98589926Y-68634739D02*
X98637545Y-68539501D01*
X98637545Y-68539501D02*
X98732783Y-68444263D01*
X98732783Y-68444263D02*
X98875640Y-68396644D01*
X98875640Y-68396644D02*
X98970878Y-68396644D01*
X98970878Y-68396644D02*
X99113735Y-68444263D01*
X99113735Y-68444263D02*
X99161354Y-68491882D01*
X100113735Y-69396644D02*
X99542307Y-69396644D01*
X99828021Y-69396644D02*
X99828021Y-68396644D01*
X99828021Y-68396644D02*
X99732783Y-68539501D01*
X99732783Y-68539501D02*
X99637545Y-68634739D01*
X99637545Y-68634739D02*
X99542307Y-68682358D01*
X93274762Y-76716405D02*
X93227143Y-76764025D01*
X93227143Y-76764025D02*
X93084286Y-76811644D01*
X93084286Y-76811644D02*
X92989048Y-76811644D01*
X92989048Y-76811644D02*
X92846191Y-76764025D01*
X92846191Y-76764025D02*
X92750953Y-76668786D01*
X92750953Y-76668786D02*
X92703334Y-76573548D01*
X92703334Y-76573548D02*
X92655715Y-76383072D01*
X92655715Y-76383072D02*
X92655715Y-76240215D01*
X92655715Y-76240215D02*
X92703334Y-76049739D01*
X92703334Y-76049739D02*
X92750953Y-75954501D01*
X92750953Y-75954501D02*
X92846191Y-75859263D01*
X92846191Y-75859263D02*
X92989048Y-75811644D01*
X92989048Y-75811644D02*
X93084286Y-75811644D01*
X93084286Y-75811644D02*
X93227143Y-75859263D01*
X93227143Y-75859263D02*
X93274762Y-75906882D01*
X93655715Y-76764025D02*
X93798572Y-76811644D01*
X93798572Y-76811644D02*
X94036667Y-76811644D01*
X94036667Y-76811644D02*
X94131905Y-76764025D01*
X94131905Y-76764025D02*
X94179524Y-76716405D01*
X94179524Y-76716405D02*
X94227143Y-76621167D01*
X94227143Y-76621167D02*
X94227143Y-76525929D01*
X94227143Y-76525929D02*
X94179524Y-76430691D01*
X94179524Y-76430691D02*
X94131905Y-76383072D01*
X94131905Y-76383072D02*
X94036667Y-76335453D01*
X94036667Y-76335453D02*
X93846191Y-76287834D01*
X93846191Y-76287834D02*
X93750953Y-76240215D01*
X93750953Y-76240215D02*
X93703334Y-76192596D01*
X93703334Y-76192596D02*
X93655715Y-76097358D01*
X93655715Y-76097358D02*
X93655715Y-76002120D01*
X93655715Y-76002120D02*
X93703334Y-75906882D01*
X93703334Y-75906882D02*
X93750953Y-75859263D01*
X93750953Y-75859263D02*
X93846191Y-75811644D01*
X93846191Y-75811644D02*
X94084286Y-75811644D01*
X94084286Y-75811644D02*
X94227143Y-75859263D01*
X92655715Y-79264025D02*
X92798572Y-79311644D01*
X92798572Y-79311644D02*
X93036667Y-79311644D01*
X93036667Y-79311644D02*
X93131905Y-79264025D01*
X93131905Y-79264025D02*
X93179524Y-79216405D01*
X93179524Y-79216405D02*
X93227143Y-79121167D01*
X93227143Y-79121167D02*
X93227143Y-79025929D01*
X93227143Y-79025929D02*
X93179524Y-78930691D01*
X93179524Y-78930691D02*
X93131905Y-78883072D01*
X93131905Y-78883072D02*
X93036667Y-78835453D01*
X93036667Y-78835453D02*
X92846191Y-78787834D01*
X92846191Y-78787834D02*
X92750953Y-78740215D01*
X92750953Y-78740215D02*
X92703334Y-78692596D01*
X92703334Y-78692596D02*
X92655715Y-78597358D01*
X92655715Y-78597358D02*
X92655715Y-78502120D01*
X92655715Y-78502120D02*
X92703334Y-78406882D01*
X92703334Y-78406882D02*
X92750953Y-78359263D01*
X92750953Y-78359263D02*
X92846191Y-78311644D01*
X92846191Y-78311644D02*
X93084286Y-78311644D01*
X93084286Y-78311644D02*
X93227143Y-78359263D01*
X93608096Y-79025929D02*
X94084286Y-79025929D01*
X93512858Y-79311644D02*
X93846191Y-78311644D01*
X93846191Y-78311644D02*
X94179524Y-79311644D01*
X94703334Y-78311644D02*
X94798572Y-78311644D01*
X94798572Y-78311644D02*
X94893810Y-78359263D01*
X94893810Y-78359263D02*
X94941429Y-78406882D01*
X94941429Y-78406882D02*
X94989048Y-78502120D01*
X94989048Y-78502120D02*
X95036667Y-78692596D01*
X95036667Y-78692596D02*
X95036667Y-78930691D01*
X95036667Y-78930691D02*
X94989048Y-79121167D01*
X94989048Y-79121167D02*
X94941429Y-79216405D01*
X94941429Y-79216405D02*
X94893810Y-79264025D01*
X94893810Y-79264025D02*
X94798572Y-79311644D01*
X94798572Y-79311644D02*
X94703334Y-79311644D01*
X94703334Y-79311644D02*
X94608096Y-79264025D01*
X94608096Y-79264025D02*
X94560477Y-79216405D01*
X94560477Y-79216405D02*
X94512858Y-79121167D01*
X94512858Y-79121167D02*
X94465239Y-78930691D01*
X94465239Y-78930691D02*
X94465239Y-78692596D01*
X94465239Y-78692596D02*
X94512858Y-78502120D01*
X94512858Y-78502120D02*
X94560477Y-78406882D01*
X94560477Y-78406882D02*
X94608096Y-78359263D01*
X94608096Y-78359263D02*
X94703334Y-78311644D01*
X92703334Y-81811644D02*
X92703334Y-80811644D01*
X93179524Y-81811644D02*
X93179524Y-80811644D01*
X93179524Y-80811644D02*
X93750952Y-81811644D01*
X93750952Y-81811644D02*
X93750952Y-80811644D01*
X94084286Y-80811644D02*
X94655714Y-80811644D01*
X94370000Y-81811644D02*
X94370000Y-80811644D01*
X94941429Y-80906882D02*
X94989048Y-80859263D01*
X94989048Y-80859263D02*
X95084286Y-80811644D01*
X95084286Y-80811644D02*
X95322381Y-80811644D01*
X95322381Y-80811644D02*
X95417619Y-80859263D01*
X95417619Y-80859263D02*
X95465238Y-80906882D01*
X95465238Y-80906882D02*
X95512857Y-81002120D01*
X95512857Y-81002120D02*
X95512857Y-81097358D01*
X95512857Y-81097358D02*
X95465238Y-81240215D01*
X95465238Y-81240215D02*
X94893810Y-81811644D01*
X94893810Y-81811644D02*
X95512857Y-81811644D01*
X92703334Y-84311644D02*
X92703334Y-83311644D01*
X93179524Y-84311644D02*
X93179524Y-83311644D01*
X93179524Y-83311644D02*
X93750952Y-84311644D01*
X93750952Y-84311644D02*
X93750952Y-83311644D01*
X94084286Y-83311644D02*
X94655714Y-83311644D01*
X94370000Y-84311644D02*
X94370000Y-83311644D01*
X95512857Y-84311644D02*
X94941429Y-84311644D01*
X95227143Y-84311644D02*
X95227143Y-83311644D01*
X95227143Y-83311644D02*
X95131905Y-83454501D01*
X95131905Y-83454501D02*
X95036667Y-83549739D01*
X95036667Y-83549739D02*
X94941429Y-83597358D01*
X109655715Y-76764025D02*
X109798572Y-76811644D01*
X109798572Y-76811644D02*
X110036667Y-76811644D01*
X110036667Y-76811644D02*
X110131905Y-76764025D01*
X110131905Y-76764025D02*
X110179524Y-76716405D01*
X110179524Y-76716405D02*
X110227143Y-76621167D01*
X110227143Y-76621167D02*
X110227143Y-76525929D01*
X110227143Y-76525929D02*
X110179524Y-76430691D01*
X110179524Y-76430691D02*
X110131905Y-76383072D01*
X110131905Y-76383072D02*
X110036667Y-76335453D01*
X110036667Y-76335453D02*
X109846191Y-76287834D01*
X109846191Y-76287834D02*
X109750953Y-76240215D01*
X109750953Y-76240215D02*
X109703334Y-76192596D01*
X109703334Y-76192596D02*
X109655715Y-76097358D01*
X109655715Y-76097358D02*
X109655715Y-76002120D01*
X109655715Y-76002120D02*
X109703334Y-75906882D01*
X109703334Y-75906882D02*
X109750953Y-75859263D01*
X109750953Y-75859263D02*
X109846191Y-75811644D01*
X109846191Y-75811644D02*
X110084286Y-75811644D01*
X110084286Y-75811644D02*
X110227143Y-75859263D01*
X111227143Y-76716405D02*
X111179524Y-76764025D01*
X111179524Y-76764025D02*
X111036667Y-76811644D01*
X111036667Y-76811644D02*
X110941429Y-76811644D01*
X110941429Y-76811644D02*
X110798572Y-76764025D01*
X110798572Y-76764025D02*
X110703334Y-76668786D01*
X110703334Y-76668786D02*
X110655715Y-76573548D01*
X110655715Y-76573548D02*
X110608096Y-76383072D01*
X110608096Y-76383072D02*
X110608096Y-76240215D01*
X110608096Y-76240215D02*
X110655715Y-76049739D01*
X110655715Y-76049739D02*
X110703334Y-75954501D01*
X110703334Y-75954501D02*
X110798572Y-75859263D01*
X110798572Y-75859263D02*
X110941429Y-75811644D01*
X110941429Y-75811644D02*
X111036667Y-75811644D01*
X111036667Y-75811644D02*
X111179524Y-75859263D01*
X111179524Y-75859263D02*
X111227143Y-75906882D01*
X112131905Y-76811644D02*
X111655715Y-76811644D01*
X111655715Y-76811644D02*
X111655715Y-75811644D01*
X109655715Y-79264025D02*
X109798572Y-79311644D01*
X109798572Y-79311644D02*
X110036667Y-79311644D01*
X110036667Y-79311644D02*
X110131905Y-79264025D01*
X110131905Y-79264025D02*
X110179524Y-79216405D01*
X110179524Y-79216405D02*
X110227143Y-79121167D01*
X110227143Y-79121167D02*
X110227143Y-79025929D01*
X110227143Y-79025929D02*
X110179524Y-78930691D01*
X110179524Y-78930691D02*
X110131905Y-78883072D01*
X110131905Y-78883072D02*
X110036667Y-78835453D01*
X110036667Y-78835453D02*
X109846191Y-78787834D01*
X109846191Y-78787834D02*
X109750953Y-78740215D01*
X109750953Y-78740215D02*
X109703334Y-78692596D01*
X109703334Y-78692596D02*
X109655715Y-78597358D01*
X109655715Y-78597358D02*
X109655715Y-78502120D01*
X109655715Y-78502120D02*
X109703334Y-78406882D01*
X109703334Y-78406882D02*
X109750953Y-78359263D01*
X109750953Y-78359263D02*
X109846191Y-78311644D01*
X109846191Y-78311644D02*
X110084286Y-78311644D01*
X110084286Y-78311644D02*
X110227143Y-78359263D01*
X110655715Y-79311644D02*
X110655715Y-78311644D01*
X110655715Y-78311644D02*
X110893810Y-78311644D01*
X110893810Y-78311644D02*
X111036667Y-78359263D01*
X111036667Y-78359263D02*
X111131905Y-78454501D01*
X111131905Y-78454501D02*
X111179524Y-78549739D01*
X111179524Y-78549739D02*
X111227143Y-78740215D01*
X111227143Y-78740215D02*
X111227143Y-78883072D01*
X111227143Y-78883072D02*
X111179524Y-79073548D01*
X111179524Y-79073548D02*
X111131905Y-79168786D01*
X111131905Y-79168786D02*
X111036667Y-79264025D01*
X111036667Y-79264025D02*
X110893810Y-79311644D01*
X110893810Y-79311644D02*
X110655715Y-79311644D01*
X111608096Y-79025929D02*
X112084286Y-79025929D01*
X111512858Y-79311644D02*
X111846191Y-78311644D01*
X111846191Y-78311644D02*
X112179524Y-79311644D01*
X109608096Y-81011644D02*
X110227143Y-81011644D01*
X110227143Y-81011644D02*
X109893810Y-81392596D01*
X109893810Y-81392596D02*
X110036667Y-81392596D01*
X110036667Y-81392596D02*
X110131905Y-81440215D01*
X110131905Y-81440215D02*
X110179524Y-81487834D01*
X110179524Y-81487834D02*
X110227143Y-81583072D01*
X110227143Y-81583072D02*
X110227143Y-81821167D01*
X110227143Y-81821167D02*
X110179524Y-81916405D01*
X110179524Y-81916405D02*
X110131905Y-81964025D01*
X110131905Y-81964025D02*
X110036667Y-82011644D01*
X110036667Y-82011644D02*
X109750953Y-82011644D01*
X109750953Y-82011644D02*
X109655715Y-81964025D01*
X109655715Y-81964025D02*
X109608096Y-81916405D01*
X110655715Y-81916405D02*
X110703334Y-81964025D01*
X110703334Y-81964025D02*
X110655715Y-82011644D01*
X110655715Y-82011644D02*
X110608096Y-81964025D01*
X110608096Y-81964025D02*
X110655715Y-81916405D01*
X110655715Y-81916405D02*
X110655715Y-82011644D01*
X111036667Y-81011644D02*
X111655714Y-81011644D01*
X111655714Y-81011644D02*
X111322381Y-81392596D01*
X111322381Y-81392596D02*
X111465238Y-81392596D01*
X111465238Y-81392596D02*
X111560476Y-81440215D01*
X111560476Y-81440215D02*
X111608095Y-81487834D01*
X111608095Y-81487834D02*
X111655714Y-81583072D01*
X111655714Y-81583072D02*
X111655714Y-81821167D01*
X111655714Y-81821167D02*
X111608095Y-81916405D01*
X111608095Y-81916405D02*
X111560476Y-81964025D01*
X111560476Y-81964025D02*
X111465238Y-82011644D01*
X111465238Y-82011644D02*
X111179524Y-82011644D01*
X111179524Y-82011644D02*
X111084286Y-81964025D01*
X111084286Y-81964025D02*
X111036667Y-81916405D01*
X111941429Y-81011644D02*
X112274762Y-82011644D01*
X112274762Y-82011644D02*
X112608095Y-81011644D01*
X110227143Y-83859263D02*
X110131905Y-83811644D01*
X110131905Y-83811644D02*
X109989048Y-83811644D01*
X109989048Y-83811644D02*
X109846191Y-83859263D01*
X109846191Y-83859263D02*
X109750953Y-83954501D01*
X109750953Y-83954501D02*
X109703334Y-84049739D01*
X109703334Y-84049739D02*
X109655715Y-84240215D01*
X109655715Y-84240215D02*
X109655715Y-84383072D01*
X109655715Y-84383072D02*
X109703334Y-84573548D01*
X109703334Y-84573548D02*
X109750953Y-84668786D01*
X109750953Y-84668786D02*
X109846191Y-84764025D01*
X109846191Y-84764025D02*
X109989048Y-84811644D01*
X109989048Y-84811644D02*
X110084286Y-84811644D01*
X110084286Y-84811644D02*
X110227143Y-84764025D01*
X110227143Y-84764025D02*
X110274762Y-84716405D01*
X110274762Y-84716405D02*
X110274762Y-84383072D01*
X110274762Y-84383072D02*
X110084286Y-84383072D01*
X110703334Y-84811644D02*
X110703334Y-83811644D01*
X110703334Y-83811644D02*
X111274762Y-84811644D01*
X111274762Y-84811644D02*
X111274762Y-83811644D01*
X111750953Y-84811644D02*
X111750953Y-83811644D01*
X111750953Y-83811644D02*
X111989048Y-83811644D01*
X111989048Y-83811644D02*
X112131905Y-83859263D01*
X112131905Y-83859263D02*
X112227143Y-83954501D01*
X112227143Y-83954501D02*
X112274762Y-84049739D01*
X112274762Y-84049739D02*
X112322381Y-84240215D01*
X112322381Y-84240215D02*
X112322381Y-84383072D01*
X112322381Y-84383072D02*
X112274762Y-84573548D01*
X112274762Y-84573548D02*
X112227143Y-84668786D01*
X112227143Y-84668786D02*
X112131905Y-84764025D01*
X112131905Y-84764025D02*
X111989048Y-84811644D01*
X111989048Y-84811644D02*
X111750953Y-84811644D01*
X74262164Y-69110929D02*
X74738354Y-69110929D01*
X74166926Y-69396644D02*
X74500259Y-68396644D01*
X74500259Y-68396644D02*
X74833592Y-69396644D01*
X75738354Y-69301405D02*
X75690735Y-69349025D01*
X75690735Y-69349025D02*
X75547878Y-69396644D01*
X75547878Y-69396644D02*
X75452640Y-69396644D01*
X75452640Y-69396644D02*
X75309783Y-69349025D01*
X75309783Y-69349025D02*
X75214545Y-69253786D01*
X75214545Y-69253786D02*
X75166926Y-69158548D01*
X75166926Y-69158548D02*
X75119307Y-68968072D01*
X75119307Y-68968072D02*
X75119307Y-68825215D01*
X75119307Y-68825215D02*
X75166926Y-68634739D01*
X75166926Y-68634739D02*
X75214545Y-68539501D01*
X75214545Y-68539501D02*
X75309783Y-68444263D01*
X75309783Y-68444263D02*
X75452640Y-68396644D01*
X75452640Y-68396644D02*
X75547878Y-68396644D01*
X75547878Y-68396644D02*
X75690735Y-68444263D01*
X75690735Y-68444263D02*
X75738354Y-68491882D01*
X76738354Y-69301405D02*
X76690735Y-69349025D01*
X76690735Y-69349025D02*
X76547878Y-69396644D01*
X76547878Y-69396644D02*
X76452640Y-69396644D01*
X76452640Y-69396644D02*
X76309783Y-69349025D01*
X76309783Y-69349025D02*
X76214545Y-69253786D01*
X76214545Y-69253786D02*
X76166926Y-69158548D01*
X76166926Y-69158548D02*
X76119307Y-68968072D01*
X76119307Y-68968072D02*
X76119307Y-68825215D01*
X76119307Y-68825215D02*
X76166926Y-68634739D01*
X76166926Y-68634739D02*
X76214545Y-68539501D01*
X76214545Y-68539501D02*
X76309783Y-68444263D01*
X76309783Y-68444263D02*
X76452640Y-68396644D01*
X76452640Y-68396644D02*
X76547878Y-68396644D01*
X76547878Y-68396644D02*
X76690735Y-68444263D01*
X76690735Y-68444263D02*
X76738354Y-68491882D01*
X77357402Y-68396644D02*
X77452640Y-68396644D01*
X77452640Y-68396644D02*
X77547878Y-68444263D01*
X77547878Y-68444263D02*
X77595497Y-68491882D01*
X77595497Y-68491882D02*
X77643116Y-68587120D01*
X77643116Y-68587120D02*
X77690735Y-68777596D01*
X77690735Y-68777596D02*
X77690735Y-69015691D01*
X77690735Y-69015691D02*
X77643116Y-69206167D01*
X77643116Y-69206167D02*
X77595497Y-69301405D01*
X77595497Y-69301405D02*
X77547878Y-69349025D01*
X77547878Y-69349025D02*
X77452640Y-69396644D01*
X77452640Y-69396644D02*
X77357402Y-69396644D01*
X77357402Y-69396644D02*
X77262164Y-69349025D01*
X77262164Y-69349025D02*
X77214545Y-69301405D01*
X77214545Y-69301405D02*
X77166926Y-69206167D01*
X77166926Y-69206167D02*
X77119307Y-69015691D01*
X77119307Y-69015691D02*
X77119307Y-68777596D01*
X77119307Y-68777596D02*
X77166926Y-68587120D01*
X77166926Y-68587120D02*
X77214545Y-68491882D01*
X77214545Y-68491882D02*
X77262164Y-68444263D01*
X77262164Y-68444263D02*
X77357402Y-68396644D01*
X61780334Y-81811644D02*
X61780334Y-80811644D01*
X62256524Y-81811644D02*
X62256524Y-80811644D01*
X62256524Y-80811644D02*
X62827952Y-81811644D01*
X62827952Y-81811644D02*
X62827952Y-80811644D01*
X63161286Y-80811644D02*
X63732714Y-80811644D01*
X63447000Y-81811644D02*
X63447000Y-80811644D01*
X64018429Y-80906882D02*
X64066048Y-80859263D01*
X64066048Y-80859263D02*
X64161286Y-80811644D01*
X64161286Y-80811644D02*
X64399381Y-80811644D01*
X64399381Y-80811644D02*
X64494619Y-80859263D01*
X64494619Y-80859263D02*
X64542238Y-80906882D01*
X64542238Y-80906882D02*
X64589857Y-81002120D01*
X64589857Y-81002120D02*
X64589857Y-81097358D01*
X64589857Y-81097358D02*
X64542238Y-81240215D01*
X64542238Y-81240215D02*
X63970810Y-81811644D01*
X63970810Y-81811644D02*
X64589857Y-81811644D01*
X61780334Y-84311644D02*
X61780334Y-83311644D01*
X62256524Y-84311644D02*
X62256524Y-83311644D01*
X62256524Y-83311644D02*
X62827952Y-84311644D01*
X62827952Y-84311644D02*
X62827952Y-83311644D01*
X63161286Y-83311644D02*
X63732714Y-83311644D01*
X63447000Y-84311644D02*
X63447000Y-83311644D01*
X64589857Y-84311644D02*
X64018429Y-84311644D01*
X64304143Y-84311644D02*
X64304143Y-83311644D01*
X64304143Y-83311644D02*
X64208905Y-83454501D01*
X64208905Y-83454501D02*
X64113667Y-83549739D01*
X64113667Y-83549739D02*
X64018429Y-83597358D01*
X62232715Y-79264025D02*
X62375572Y-79311644D01*
X62375572Y-79311644D02*
X62613667Y-79311644D01*
X62613667Y-79311644D02*
X62708905Y-79264025D01*
X62708905Y-79264025D02*
X62756524Y-79216405D01*
X62756524Y-79216405D02*
X62804143Y-79121167D01*
X62804143Y-79121167D02*
X62804143Y-79025929D01*
X62804143Y-79025929D02*
X62756524Y-78930691D01*
X62756524Y-78930691D02*
X62708905Y-78883072D01*
X62708905Y-78883072D02*
X62613667Y-78835453D01*
X62613667Y-78835453D02*
X62423191Y-78787834D01*
X62423191Y-78787834D02*
X62327953Y-78740215D01*
X62327953Y-78740215D02*
X62280334Y-78692596D01*
X62280334Y-78692596D02*
X62232715Y-78597358D01*
X62232715Y-78597358D02*
X62232715Y-78502120D01*
X62232715Y-78502120D02*
X62280334Y-78406882D01*
X62280334Y-78406882D02*
X62327953Y-78359263D01*
X62327953Y-78359263D02*
X62423191Y-78311644D01*
X62423191Y-78311644D02*
X62661286Y-78311644D01*
X62661286Y-78311644D02*
X62804143Y-78359263D01*
X63185096Y-79025929D02*
X63661286Y-79025929D01*
X63089858Y-79311644D02*
X63423191Y-78311644D01*
X63423191Y-78311644D02*
X63756524Y-79311644D01*
X64280334Y-78311644D02*
X64375572Y-78311644D01*
X64375572Y-78311644D02*
X64470810Y-78359263D01*
X64470810Y-78359263D02*
X64518429Y-78406882D01*
X64518429Y-78406882D02*
X64566048Y-78502120D01*
X64566048Y-78502120D02*
X64613667Y-78692596D01*
X64613667Y-78692596D02*
X64613667Y-78930691D01*
X64613667Y-78930691D02*
X64566048Y-79121167D01*
X64566048Y-79121167D02*
X64518429Y-79216405D01*
X64518429Y-79216405D02*
X64470810Y-79264025D01*
X64470810Y-79264025D02*
X64375572Y-79311644D01*
X64375572Y-79311644D02*
X64280334Y-79311644D01*
X64280334Y-79311644D02*
X64185096Y-79264025D01*
X64185096Y-79264025D02*
X64137477Y-79216405D01*
X64137477Y-79216405D02*
X64089858Y-79121167D01*
X64089858Y-79121167D02*
X64042239Y-78930691D01*
X64042239Y-78930691D02*
X64042239Y-78692596D01*
X64042239Y-78692596D02*
X64089858Y-78502120D01*
X64089858Y-78502120D02*
X64137477Y-78406882D01*
X64137477Y-78406882D02*
X64185096Y-78359263D01*
X64185096Y-78359263D02*
X64280334Y-78311644D01*
X63851762Y-76716405D02*
X63804143Y-76764025D01*
X63804143Y-76764025D02*
X63661286Y-76811644D01*
X63661286Y-76811644D02*
X63566048Y-76811644D01*
X63566048Y-76811644D02*
X63423191Y-76764025D01*
X63423191Y-76764025D02*
X63327953Y-76668786D01*
X63327953Y-76668786D02*
X63280334Y-76573548D01*
X63280334Y-76573548D02*
X63232715Y-76383072D01*
X63232715Y-76383072D02*
X63232715Y-76240215D01*
X63232715Y-76240215D02*
X63280334Y-76049739D01*
X63280334Y-76049739D02*
X63327953Y-75954501D01*
X63327953Y-75954501D02*
X63423191Y-75859263D01*
X63423191Y-75859263D02*
X63566048Y-75811644D01*
X63566048Y-75811644D02*
X63661286Y-75811644D01*
X63661286Y-75811644D02*
X63804143Y-75859263D01*
X63804143Y-75859263D02*
X63851762Y-75906882D01*
X64232715Y-76764025D02*
X64375572Y-76811644D01*
X64375572Y-76811644D02*
X64613667Y-76811644D01*
X64613667Y-76811644D02*
X64708905Y-76764025D01*
X64708905Y-76764025D02*
X64756524Y-76716405D01*
X64756524Y-76716405D02*
X64804143Y-76621167D01*
X64804143Y-76621167D02*
X64804143Y-76525929D01*
X64804143Y-76525929D02*
X64756524Y-76430691D01*
X64756524Y-76430691D02*
X64708905Y-76383072D01*
X64708905Y-76383072D02*
X64613667Y-76335453D01*
X64613667Y-76335453D02*
X64423191Y-76287834D01*
X64423191Y-76287834D02*
X64327953Y-76240215D01*
X64327953Y-76240215D02*
X64280334Y-76192596D01*
X64280334Y-76192596D02*
X64232715Y-76097358D01*
X64232715Y-76097358D02*
X64232715Y-76002120D01*
X64232715Y-76002120D02*
X64280334Y-75906882D01*
X64280334Y-75906882D02*
X64327953Y-75859263D01*
X64327953Y-75859263D02*
X64423191Y-75811644D01*
X64423191Y-75811644D02*
X64661286Y-75811644D01*
X64661286Y-75811644D02*
X64804143Y-75859263D01*
X79355815Y-76775525D02*
X79498672Y-76823144D01*
X79498672Y-76823144D02*
X79736767Y-76823144D01*
X79736767Y-76823144D02*
X79832005Y-76775525D01*
X79832005Y-76775525D02*
X79879624Y-76727905D01*
X79879624Y-76727905D02*
X79927243Y-76632667D01*
X79927243Y-76632667D02*
X79927243Y-76537429D01*
X79927243Y-76537429D02*
X79879624Y-76442191D01*
X79879624Y-76442191D02*
X79832005Y-76394572D01*
X79832005Y-76394572D02*
X79736767Y-76346953D01*
X79736767Y-76346953D02*
X79546291Y-76299334D01*
X79546291Y-76299334D02*
X79451053Y-76251715D01*
X79451053Y-76251715D02*
X79403434Y-76204096D01*
X79403434Y-76204096D02*
X79355815Y-76108858D01*
X79355815Y-76108858D02*
X79355815Y-76013620D01*
X79355815Y-76013620D02*
X79403434Y-75918382D01*
X79403434Y-75918382D02*
X79451053Y-75870763D01*
X79451053Y-75870763D02*
X79546291Y-75823144D01*
X79546291Y-75823144D02*
X79784386Y-75823144D01*
X79784386Y-75823144D02*
X79927243Y-75870763D01*
X80927243Y-76727905D02*
X80879624Y-76775525D01*
X80879624Y-76775525D02*
X80736767Y-76823144D01*
X80736767Y-76823144D02*
X80641529Y-76823144D01*
X80641529Y-76823144D02*
X80498672Y-76775525D01*
X80498672Y-76775525D02*
X80403434Y-76680286D01*
X80403434Y-76680286D02*
X80355815Y-76585048D01*
X80355815Y-76585048D02*
X80308196Y-76394572D01*
X80308196Y-76394572D02*
X80308196Y-76251715D01*
X80308196Y-76251715D02*
X80355815Y-76061239D01*
X80355815Y-76061239D02*
X80403434Y-75966001D01*
X80403434Y-75966001D02*
X80498672Y-75870763D01*
X80498672Y-75870763D02*
X80641529Y-75823144D01*
X80641529Y-75823144D02*
X80736767Y-75823144D01*
X80736767Y-75823144D02*
X80879624Y-75870763D01*
X80879624Y-75870763D02*
X80927243Y-75918382D01*
X81832005Y-76823144D02*
X81355815Y-76823144D01*
X81355815Y-76823144D02*
X81355815Y-75823144D01*
X79355815Y-79275525D02*
X79498672Y-79323144D01*
X79498672Y-79323144D02*
X79736767Y-79323144D01*
X79736767Y-79323144D02*
X79832005Y-79275525D01*
X79832005Y-79275525D02*
X79879624Y-79227905D01*
X79879624Y-79227905D02*
X79927243Y-79132667D01*
X79927243Y-79132667D02*
X79927243Y-79037429D01*
X79927243Y-79037429D02*
X79879624Y-78942191D01*
X79879624Y-78942191D02*
X79832005Y-78894572D01*
X79832005Y-78894572D02*
X79736767Y-78846953D01*
X79736767Y-78846953D02*
X79546291Y-78799334D01*
X79546291Y-78799334D02*
X79451053Y-78751715D01*
X79451053Y-78751715D02*
X79403434Y-78704096D01*
X79403434Y-78704096D02*
X79355815Y-78608858D01*
X79355815Y-78608858D02*
X79355815Y-78513620D01*
X79355815Y-78513620D02*
X79403434Y-78418382D01*
X79403434Y-78418382D02*
X79451053Y-78370763D01*
X79451053Y-78370763D02*
X79546291Y-78323144D01*
X79546291Y-78323144D02*
X79784386Y-78323144D01*
X79784386Y-78323144D02*
X79927243Y-78370763D01*
X80355815Y-79323144D02*
X80355815Y-78323144D01*
X80355815Y-78323144D02*
X80593910Y-78323144D01*
X80593910Y-78323144D02*
X80736767Y-78370763D01*
X80736767Y-78370763D02*
X80832005Y-78466001D01*
X80832005Y-78466001D02*
X80879624Y-78561239D01*
X80879624Y-78561239D02*
X80927243Y-78751715D01*
X80927243Y-78751715D02*
X80927243Y-78894572D01*
X80927243Y-78894572D02*
X80879624Y-79085048D01*
X80879624Y-79085048D02*
X80832005Y-79180286D01*
X80832005Y-79180286D02*
X80736767Y-79275525D01*
X80736767Y-79275525D02*
X80593910Y-79323144D01*
X80593910Y-79323144D02*
X80355815Y-79323144D01*
X81308196Y-79037429D02*
X81784386Y-79037429D01*
X81212958Y-79323144D02*
X81546291Y-78323144D01*
X81546291Y-78323144D02*
X81879624Y-79323144D01*
X79308196Y-81023144D02*
X79927243Y-81023144D01*
X79927243Y-81023144D02*
X79593910Y-81404096D01*
X79593910Y-81404096D02*
X79736767Y-81404096D01*
X79736767Y-81404096D02*
X79832005Y-81451715D01*
X79832005Y-81451715D02*
X79879624Y-81499334D01*
X79879624Y-81499334D02*
X79927243Y-81594572D01*
X79927243Y-81594572D02*
X79927243Y-81832667D01*
X79927243Y-81832667D02*
X79879624Y-81927905D01*
X79879624Y-81927905D02*
X79832005Y-81975525D01*
X79832005Y-81975525D02*
X79736767Y-82023144D01*
X79736767Y-82023144D02*
X79451053Y-82023144D01*
X79451053Y-82023144D02*
X79355815Y-81975525D01*
X79355815Y-81975525D02*
X79308196Y-81927905D01*
X80355815Y-81927905D02*
X80403434Y-81975525D01*
X80403434Y-81975525D02*
X80355815Y-82023144D01*
X80355815Y-82023144D02*
X80308196Y-81975525D01*
X80308196Y-81975525D02*
X80355815Y-81927905D01*
X80355815Y-81927905D02*
X80355815Y-82023144D01*
X80736767Y-81023144D02*
X81355814Y-81023144D01*
X81355814Y-81023144D02*
X81022481Y-81404096D01*
X81022481Y-81404096D02*
X81165338Y-81404096D01*
X81165338Y-81404096D02*
X81260576Y-81451715D01*
X81260576Y-81451715D02*
X81308195Y-81499334D01*
X81308195Y-81499334D02*
X81355814Y-81594572D01*
X81355814Y-81594572D02*
X81355814Y-81832667D01*
X81355814Y-81832667D02*
X81308195Y-81927905D01*
X81308195Y-81927905D02*
X81260576Y-81975525D01*
X81260576Y-81975525D02*
X81165338Y-82023144D01*
X81165338Y-82023144D02*
X80879624Y-82023144D01*
X80879624Y-82023144D02*
X80784386Y-81975525D01*
X80784386Y-81975525D02*
X80736767Y-81927905D01*
X81641529Y-81023144D02*
X81974862Y-82023144D01*
X81974862Y-82023144D02*
X82308195Y-81023144D01*
X79927243Y-83382263D02*
X79832005Y-83334644D01*
X79832005Y-83334644D02*
X79689148Y-83334644D01*
X79689148Y-83334644D02*
X79546291Y-83382263D01*
X79546291Y-83382263D02*
X79451053Y-83477501D01*
X79451053Y-83477501D02*
X79403434Y-83572739D01*
X79403434Y-83572739D02*
X79355815Y-83763215D01*
X79355815Y-83763215D02*
X79355815Y-83906072D01*
X79355815Y-83906072D02*
X79403434Y-84096548D01*
X79403434Y-84096548D02*
X79451053Y-84191786D01*
X79451053Y-84191786D02*
X79546291Y-84287025D01*
X79546291Y-84287025D02*
X79689148Y-84334644D01*
X79689148Y-84334644D02*
X79784386Y-84334644D01*
X79784386Y-84334644D02*
X79927243Y-84287025D01*
X79927243Y-84287025D02*
X79974862Y-84239405D01*
X79974862Y-84239405D02*
X79974862Y-83906072D01*
X79974862Y-83906072D02*
X79784386Y-83906072D01*
X80403434Y-84334644D02*
X80403434Y-83334644D01*
X80403434Y-83334644D02*
X80974862Y-84334644D01*
X80974862Y-84334644D02*
X80974862Y-83334644D01*
X81451053Y-84334644D02*
X81451053Y-83334644D01*
X81451053Y-83334644D02*
X81689148Y-83334644D01*
X81689148Y-83334644D02*
X81832005Y-83382263D01*
X81832005Y-83382263D02*
X81927243Y-83477501D01*
X81927243Y-83477501D02*
X81974862Y-83572739D01*
X81974862Y-83572739D02*
X82022481Y-83763215D01*
X82022481Y-83763215D02*
X82022481Y-83906072D01*
X82022481Y-83906072D02*
X81974862Y-84096548D01*
X81974862Y-84096548D02*
X81927243Y-84191786D01*
X81927243Y-84191786D02*
X81832005Y-84287025D01*
X81832005Y-84287025D02*
X81689148Y-84334644D01*
X81689148Y-84334644D02*
X81451053Y-84334644D01*
X65809524Y-100407419D02*
X66380952Y-100407419D01*
X66095238Y-101407419D02*
X66095238Y-100407419D01*
X67047619Y-100883609D02*
X66714286Y-100883609D01*
X66714286Y-101407419D02*
X66714286Y-100407419D01*
X66714286Y-100407419D02*
X67190476Y-100407419D01*
X67761905Y-100407419D02*
X67857143Y-100407419D01*
X67857143Y-100407419D02*
X67952381Y-100455038D01*
X67952381Y-100455038D02*
X68000000Y-100502657D01*
X68000000Y-100502657D02*
X68047619Y-100597895D01*
X68047619Y-100597895D02*
X68095238Y-100788371D01*
X68095238Y-100788371D02*
X68095238Y-101026466D01*
X68095238Y-101026466D02*
X68047619Y-101216942D01*
X68047619Y-101216942D02*
X68000000Y-101312180D01*
X68000000Y-101312180D02*
X67952381Y-101359800D01*
X67952381Y-101359800D02*
X67857143Y-101407419D01*
X67857143Y-101407419D02*
X67761905Y-101407419D01*
X67761905Y-101407419D02*
X67666667Y-101359800D01*
X67666667Y-101359800D02*
X67619048Y-101312180D01*
X67619048Y-101312180D02*
X67571429Y-101216942D01*
X67571429Y-101216942D02*
X67523810Y-101026466D01*
X67523810Y-101026466D02*
X67523810Y-100788371D01*
X67523810Y-100788371D02*
X67571429Y-100597895D01*
X67571429Y-100597895D02*
X67619048Y-100502657D01*
X67619048Y-100502657D02*
X67666667Y-100455038D01*
X67666667Y-100455038D02*
X67761905Y-100407419D01*
D12*
X69422070Y-103309369D02*
X69374451Y-103285559D01*
X69374451Y-103285559D02*
X69303022Y-103285559D01*
X69303022Y-103285559D02*
X69231594Y-103309369D01*
X69231594Y-103309369D02*
X69183975Y-103356988D01*
X69183975Y-103356988D02*
X69160165Y-103404607D01*
X69160165Y-103404607D02*
X69136356Y-103499845D01*
X69136356Y-103499845D02*
X69136356Y-103571273D01*
X69136356Y-103571273D02*
X69160165Y-103666511D01*
X69160165Y-103666511D02*
X69183975Y-103714130D01*
X69183975Y-103714130D02*
X69231594Y-103761750D01*
X69231594Y-103761750D02*
X69303022Y-103785559D01*
X69303022Y-103785559D02*
X69350641Y-103785559D01*
X69350641Y-103785559D02*
X69422070Y-103761750D01*
X69422070Y-103761750D02*
X69445879Y-103737940D01*
X69445879Y-103737940D02*
X69445879Y-103571273D01*
X69445879Y-103571273D02*
X69350641Y-103571273D01*
X69660165Y-103785559D02*
X69660165Y-103285559D01*
X69660165Y-103285559D02*
X69945879Y-103785559D01*
X69945879Y-103785559D02*
X69945879Y-103285559D01*
X70183975Y-103785559D02*
X70183975Y-103285559D01*
X70183975Y-103285559D02*
X70303023Y-103285559D01*
X70303023Y-103285559D02*
X70374451Y-103309369D01*
X70374451Y-103309369D02*
X70422070Y-103356988D01*
X70422070Y-103356988D02*
X70445880Y-103404607D01*
X70445880Y-103404607D02*
X70469689Y-103499845D01*
X70469689Y-103499845D02*
X70469689Y-103571273D01*
X70469689Y-103571273D02*
X70445880Y-103666511D01*
X70445880Y-103666511D02*
X70422070Y-103714130D01*
X70422070Y-103714130D02*
X70374451Y-103761750D01*
X70374451Y-103761750D02*
X70303023Y-103785559D01*
X70303023Y-103785559D02*
X70183975Y-103785559D01*
X69898260Y-105885559D02*
X69660165Y-105885559D01*
X69660165Y-105885559D02*
X69636356Y-106123654D01*
X69636356Y-106123654D02*
X69660165Y-106099845D01*
X69660165Y-106099845D02*
X69707784Y-106076035D01*
X69707784Y-106076035D02*
X69826832Y-106076035D01*
X69826832Y-106076035D02*
X69874451Y-106099845D01*
X69874451Y-106099845D02*
X69898260Y-106123654D01*
X69898260Y-106123654D02*
X69922070Y-106171273D01*
X69922070Y-106171273D02*
X69922070Y-106290321D01*
X69922070Y-106290321D02*
X69898260Y-106337940D01*
X69898260Y-106337940D02*
X69874451Y-106361750D01*
X69874451Y-106361750D02*
X69826832Y-106385559D01*
X69826832Y-106385559D02*
X69707784Y-106385559D01*
X69707784Y-106385559D02*
X69660165Y-106361750D01*
X69660165Y-106361750D02*
X69636356Y-106337940D01*
X70064927Y-105885559D02*
X70231593Y-106385559D01*
X70231593Y-106385559D02*
X70398260Y-105885559D01*
X69588737Y-108385559D02*
X69874451Y-108385559D01*
X69731594Y-108885559D02*
X69731594Y-108385559D01*
X69993498Y-108385559D02*
X70326831Y-108885559D01*
X70326831Y-108385559D02*
X69993498Y-108885559D01*
X69945879Y-111385559D02*
X69779213Y-111147464D01*
X69660165Y-111385559D02*
X69660165Y-110885559D01*
X69660165Y-110885559D02*
X69850641Y-110885559D01*
X69850641Y-110885559D02*
X69898260Y-110909369D01*
X69898260Y-110909369D02*
X69922070Y-110933178D01*
X69922070Y-110933178D02*
X69945879Y-110980797D01*
X69945879Y-110980797D02*
X69945879Y-111052226D01*
X69945879Y-111052226D02*
X69922070Y-111099845D01*
X69922070Y-111099845D02*
X69898260Y-111123654D01*
X69898260Y-111123654D02*
X69850641Y-111147464D01*
X69850641Y-111147464D02*
X69660165Y-111147464D01*
X70112546Y-110885559D02*
X70445879Y-111385559D01*
X70445879Y-110885559D02*
X70112546Y-111385559D01*
D11*
X88261905Y-48907419D02*
X88595238Y-49907419D01*
X88595238Y-49907419D02*
X88928571Y-48907419D01*
X89261905Y-49383609D02*
X89595238Y-49383609D01*
X89738095Y-49907419D02*
X89261905Y-49907419D01*
X89261905Y-49907419D02*
X89261905Y-48907419D01*
X89261905Y-48907419D02*
X89738095Y-48907419D01*
X90119048Y-49859800D02*
X90261905Y-49907419D01*
X90261905Y-49907419D02*
X90500000Y-49907419D01*
X90500000Y-49907419D02*
X90595238Y-49859800D01*
X90595238Y-49859800D02*
X90642857Y-49812180D01*
X90642857Y-49812180D02*
X90690476Y-49716942D01*
X90690476Y-49716942D02*
X90690476Y-49621704D01*
X90690476Y-49621704D02*
X90642857Y-49526466D01*
X90642857Y-49526466D02*
X90595238Y-49478847D01*
X90595238Y-49478847D02*
X90500000Y-49431228D01*
X90500000Y-49431228D02*
X90309524Y-49383609D01*
X90309524Y-49383609D02*
X90214286Y-49335990D01*
X90214286Y-49335990D02*
X90166667Y-49288371D01*
X90166667Y-49288371D02*
X90119048Y-49193133D01*
X90119048Y-49193133D02*
X90119048Y-49097895D01*
X90119048Y-49097895D02*
X90166667Y-49002657D01*
X90166667Y-49002657D02*
X90214286Y-48955038D01*
X90214286Y-48955038D02*
X90309524Y-48907419D01*
X90309524Y-48907419D02*
X90547619Y-48907419D01*
X90547619Y-48907419D02*
X90690476Y-48955038D01*
X91690476Y-49812180D02*
X91642857Y-49859800D01*
X91642857Y-49859800D02*
X91500000Y-49907419D01*
X91500000Y-49907419D02*
X91404762Y-49907419D01*
X91404762Y-49907419D02*
X91261905Y-49859800D01*
X91261905Y-49859800D02*
X91166667Y-49764561D01*
X91166667Y-49764561D02*
X91119048Y-49669323D01*
X91119048Y-49669323D02*
X91071429Y-49478847D01*
X91071429Y-49478847D02*
X91071429Y-49335990D01*
X91071429Y-49335990D02*
X91119048Y-49145514D01*
X91119048Y-49145514D02*
X91166667Y-49050276D01*
X91166667Y-49050276D02*
X91261905Y-48955038D01*
X91261905Y-48955038D02*
X91404762Y-48907419D01*
X91404762Y-48907419D02*
X91500000Y-48907419D01*
X91500000Y-48907419D02*
X91642857Y-48955038D01*
X91642857Y-48955038D02*
X91690476Y-49002657D01*
X92642857Y-49907419D02*
X92071429Y-49907419D01*
X92357143Y-49907419D02*
X92357143Y-48907419D01*
X92357143Y-48907419D02*
X92261905Y-49050276D01*
X92261905Y-49050276D02*
X92166667Y-49145514D01*
X92166667Y-49145514D02*
X92071429Y-49193133D01*
D12*
X93445879Y-52385559D02*
X93279213Y-52147464D01*
X93160165Y-52385559D02*
X93160165Y-51885559D01*
X93160165Y-51885559D02*
X93350641Y-51885559D01*
X93350641Y-51885559D02*
X93398260Y-51909369D01*
X93398260Y-51909369D02*
X93422070Y-51933178D01*
X93422070Y-51933178D02*
X93445879Y-51980797D01*
X93445879Y-51980797D02*
X93445879Y-52052226D01*
X93445879Y-52052226D02*
X93422070Y-52099845D01*
X93422070Y-52099845D02*
X93398260Y-52123654D01*
X93398260Y-52123654D02*
X93350641Y-52147464D01*
X93350641Y-52147464D02*
X93160165Y-52147464D01*
X93612546Y-51885559D02*
X93945879Y-52385559D01*
X93945879Y-51885559D02*
X93612546Y-52385559D01*
X93160165Y-54935559D02*
X93160165Y-54435559D01*
X93160165Y-54435559D02*
X93279213Y-54435559D01*
X93279213Y-54435559D02*
X93350641Y-54459369D01*
X93350641Y-54459369D02*
X93398260Y-54506988D01*
X93398260Y-54506988D02*
X93422070Y-54554607D01*
X93422070Y-54554607D02*
X93445879Y-54649845D01*
X93445879Y-54649845D02*
X93445879Y-54721273D01*
X93445879Y-54721273D02*
X93422070Y-54816511D01*
X93422070Y-54816511D02*
X93398260Y-54864130D01*
X93398260Y-54864130D02*
X93350641Y-54911750D01*
X93350641Y-54911750D02*
X93279213Y-54935559D01*
X93279213Y-54935559D02*
X93160165Y-54935559D01*
X93636356Y-54911750D02*
X93683975Y-54935559D01*
X93683975Y-54935559D02*
X93779213Y-54935559D01*
X93779213Y-54935559D02*
X93826832Y-54911750D01*
X93826832Y-54911750D02*
X93850641Y-54864130D01*
X93850641Y-54864130D02*
X93850641Y-54840321D01*
X93850641Y-54840321D02*
X93826832Y-54792702D01*
X93826832Y-54792702D02*
X93779213Y-54768892D01*
X93779213Y-54768892D02*
X93707784Y-54768892D01*
X93707784Y-54768892D02*
X93660165Y-54745083D01*
X93660165Y-54745083D02*
X93636356Y-54697464D01*
X93636356Y-54697464D02*
X93636356Y-54673654D01*
X93636356Y-54673654D02*
X93660165Y-54626035D01*
X93660165Y-54626035D02*
X93707784Y-54602226D01*
X93707784Y-54602226D02*
X93779213Y-54602226D01*
X93779213Y-54602226D02*
X93826832Y-54626035D01*
X94064927Y-54935559D02*
X94064927Y-54435559D01*
X94279213Y-54935559D02*
X94279213Y-54673654D01*
X94279213Y-54673654D02*
X94255403Y-54626035D01*
X94255403Y-54626035D02*
X94207784Y-54602226D01*
X94207784Y-54602226D02*
X94136356Y-54602226D01*
X94136356Y-54602226D02*
X94088737Y-54626035D01*
X94088737Y-54626035D02*
X94064927Y-54649845D01*
X94588737Y-54935559D02*
X94541118Y-54911750D01*
X94541118Y-54911750D02*
X94517308Y-54887940D01*
X94517308Y-54887940D02*
X94493499Y-54840321D01*
X94493499Y-54840321D02*
X94493499Y-54697464D01*
X94493499Y-54697464D02*
X94517308Y-54649845D01*
X94517308Y-54649845D02*
X94541118Y-54626035D01*
X94541118Y-54626035D02*
X94588737Y-54602226D01*
X94588737Y-54602226D02*
X94660165Y-54602226D01*
X94660165Y-54602226D02*
X94707784Y-54626035D01*
X94707784Y-54626035D02*
X94731594Y-54649845D01*
X94731594Y-54649845D02*
X94755403Y-54697464D01*
X94755403Y-54697464D02*
X94755403Y-54840321D01*
X94755403Y-54840321D02*
X94731594Y-54887940D01*
X94731594Y-54887940D02*
X94707784Y-54911750D01*
X94707784Y-54911750D02*
X94660165Y-54935559D01*
X94660165Y-54935559D02*
X94588737Y-54935559D01*
X94898261Y-54602226D02*
X95088737Y-54602226D01*
X94969689Y-54435559D02*
X94969689Y-54864130D01*
X94969689Y-54864130D02*
X94993499Y-54911750D01*
X94993499Y-54911750D02*
X95041118Y-54935559D01*
X95041118Y-54935559D02*
X95088737Y-54935559D01*
D10*
X117379819Y-63936189D02*
X116379819Y-63936189D01*
X117379819Y-62888571D02*
X116903628Y-63221904D01*
X117379819Y-63459999D02*
X116379819Y-63459999D01*
X116379819Y-63459999D02*
X116379819Y-63079047D01*
X116379819Y-63079047D02*
X116427438Y-62983809D01*
X116427438Y-62983809D02*
X116475057Y-62936190D01*
X116475057Y-62936190D02*
X116570295Y-62888571D01*
X116570295Y-62888571D02*
X116713152Y-62888571D01*
X116713152Y-62888571D02*
X116808390Y-62936190D01*
X116808390Y-62936190D02*
X116856009Y-62983809D01*
X116856009Y-62983809D02*
X116903628Y-63079047D01*
X116903628Y-63079047D02*
X116903628Y-63459999D01*
X117379819Y-61936190D02*
X117379819Y-62507618D01*
X117379819Y-62221904D02*
X116379819Y-62221904D01*
X116379819Y-62221904D02*
X116522676Y-62317142D01*
X116522676Y-62317142D02*
X116617914Y-62412380D01*
X116617914Y-62412380D02*
X116665533Y-62507618D01*
X117379819Y-54436189D02*
X116379819Y-54436189D01*
X117379819Y-53388571D02*
X116903628Y-53721904D01*
X117379819Y-53959999D02*
X116379819Y-53959999D01*
X116379819Y-53959999D02*
X116379819Y-53579047D01*
X116379819Y-53579047D02*
X116427438Y-53483809D01*
X116427438Y-53483809D02*
X116475057Y-53436190D01*
X116475057Y-53436190D02*
X116570295Y-53388571D01*
X116570295Y-53388571D02*
X116713152Y-53388571D01*
X116713152Y-53388571D02*
X116808390Y-53436190D01*
X116808390Y-53436190D02*
X116856009Y-53483809D01*
X116856009Y-53483809D02*
X116903628Y-53579047D01*
X116903628Y-53579047D02*
X116903628Y-53959999D01*
X116379819Y-52769523D02*
X116379819Y-52674285D01*
X116379819Y-52674285D02*
X116427438Y-52579047D01*
X116427438Y-52579047D02*
X116475057Y-52531428D01*
X116475057Y-52531428D02*
X116570295Y-52483809D01*
X116570295Y-52483809D02*
X116760771Y-52436190D01*
X116760771Y-52436190D02*
X116998866Y-52436190D01*
X116998866Y-52436190D02*
X117189342Y-52483809D01*
X117189342Y-52483809D02*
X117284580Y-52531428D01*
X117284580Y-52531428D02*
X117332200Y-52579047D01*
X117332200Y-52579047D02*
X117379819Y-52674285D01*
X117379819Y-52674285D02*
X117379819Y-52769523D01*
X117379819Y-52769523D02*
X117332200Y-52864761D01*
X117332200Y-52864761D02*
X117284580Y-52912380D01*
X117284580Y-52912380D02*
X117189342Y-52959999D01*
X117189342Y-52959999D02*
X116998866Y-53007618D01*
X116998866Y-53007618D02*
X116760771Y-53007618D01*
X116760771Y-53007618D02*
X116570295Y-52959999D01*
X116570295Y-52959999D02*
X116475057Y-52912380D01*
X116475057Y-52912380D02*
X116427438Y-52864761D01*
X116427438Y-52864761D02*
X116379819Y-52769523D01*
D11*
X94061905Y-66457419D02*
X94061905Y-65457419D01*
X94061905Y-65457419D02*
X94395238Y-66171704D01*
X94395238Y-66171704D02*
X94728571Y-65457419D01*
X94728571Y-65457419D02*
X94728571Y-66457419D01*
X95157143Y-66171704D02*
X95633333Y-66171704D01*
X95061905Y-66457419D02*
X95395238Y-65457419D01*
X95395238Y-65457419D02*
X95728571Y-66457419D01*
X96585714Y-65505038D02*
X96490476Y-65457419D01*
X96490476Y-65457419D02*
X96347619Y-65457419D01*
X96347619Y-65457419D02*
X96204762Y-65505038D01*
X96204762Y-65505038D02*
X96109524Y-65600276D01*
X96109524Y-65600276D02*
X96061905Y-65695514D01*
X96061905Y-65695514D02*
X96014286Y-65885990D01*
X96014286Y-65885990D02*
X96014286Y-66028847D01*
X96014286Y-66028847D02*
X96061905Y-66219323D01*
X96061905Y-66219323D02*
X96109524Y-66314561D01*
X96109524Y-66314561D02*
X96204762Y-66409800D01*
X96204762Y-66409800D02*
X96347619Y-66457419D01*
X96347619Y-66457419D02*
X96442857Y-66457419D01*
X96442857Y-66457419D02*
X96585714Y-66409800D01*
X96585714Y-66409800D02*
X96633333Y-66362180D01*
X96633333Y-66362180D02*
X96633333Y-66028847D01*
X96633333Y-66028847D02*
X96442857Y-66028847D01*
X97252381Y-65457419D02*
X97347619Y-65457419D01*
X97347619Y-65457419D02*
X97442857Y-65505038D01*
X97442857Y-65505038D02*
X97490476Y-65552657D01*
X97490476Y-65552657D02*
X97538095Y-65647895D01*
X97538095Y-65647895D02*
X97585714Y-65838371D01*
X97585714Y-65838371D02*
X97585714Y-66076466D01*
X97585714Y-66076466D02*
X97538095Y-66266942D01*
X97538095Y-66266942D02*
X97490476Y-66362180D01*
X97490476Y-66362180D02*
X97442857Y-66409800D01*
X97442857Y-66409800D02*
X97347619Y-66457419D01*
X97347619Y-66457419D02*
X97252381Y-66457419D01*
X97252381Y-66457419D02*
X97157143Y-66409800D01*
X97157143Y-66409800D02*
X97109524Y-66362180D01*
X97109524Y-66362180D02*
X97061905Y-66266942D01*
X97061905Y-66266942D02*
X97014286Y-66076466D01*
X97014286Y-66076466D02*
X97014286Y-65838371D01*
X97014286Y-65838371D02*
X97061905Y-65647895D01*
X97061905Y-65647895D02*
X97109524Y-65552657D01*
X97109524Y-65552657D02*
X97157143Y-65505038D01*
X97157143Y-65505038D02*
X97252381Y-65457419D01*
D12*
X92061750Y-60363643D02*
X92085559Y-60292215D01*
X92085559Y-60292215D02*
X92085559Y-60173167D01*
X92085559Y-60173167D02*
X92061750Y-60125548D01*
X92061750Y-60125548D02*
X92037940Y-60101739D01*
X92037940Y-60101739D02*
X91990321Y-60077929D01*
X91990321Y-60077929D02*
X91942702Y-60077929D01*
X91942702Y-60077929D02*
X91895083Y-60101739D01*
X91895083Y-60101739D02*
X91871273Y-60125548D01*
X91871273Y-60125548D02*
X91847464Y-60173167D01*
X91847464Y-60173167D02*
X91823654Y-60268405D01*
X91823654Y-60268405D02*
X91799845Y-60316024D01*
X91799845Y-60316024D02*
X91776035Y-60339834D01*
X91776035Y-60339834D02*
X91728416Y-60363643D01*
X91728416Y-60363643D02*
X91680797Y-60363643D01*
X91680797Y-60363643D02*
X91633178Y-60339834D01*
X91633178Y-60339834D02*
X91609369Y-60316024D01*
X91609369Y-60316024D02*
X91585559Y-60268405D01*
X91585559Y-60268405D02*
X91585559Y-60149358D01*
X91585559Y-60149358D02*
X91609369Y-60077929D01*
X92037940Y-59577930D02*
X92061750Y-59601739D01*
X92061750Y-59601739D02*
X92085559Y-59673168D01*
X92085559Y-59673168D02*
X92085559Y-59720787D01*
X92085559Y-59720787D02*
X92061750Y-59792215D01*
X92061750Y-59792215D02*
X92014130Y-59839834D01*
X92014130Y-59839834D02*
X91966511Y-59863644D01*
X91966511Y-59863644D02*
X91871273Y-59887453D01*
X91871273Y-59887453D02*
X91799845Y-59887453D01*
X91799845Y-59887453D02*
X91704607Y-59863644D01*
X91704607Y-59863644D02*
X91656988Y-59839834D01*
X91656988Y-59839834D02*
X91609369Y-59792215D01*
X91609369Y-59792215D02*
X91585559Y-59720787D01*
X91585559Y-59720787D02*
X91585559Y-59673168D01*
X91585559Y-59673168D02*
X91609369Y-59601739D01*
X91609369Y-59601739D02*
X91633178Y-59577930D01*
X92085559Y-59125549D02*
X92085559Y-59363644D01*
X92085559Y-59363644D02*
X91585559Y-59363644D01*
X94661750Y-60363643D02*
X94685559Y-60292215D01*
X94685559Y-60292215D02*
X94685559Y-60173167D01*
X94685559Y-60173167D02*
X94661750Y-60125548D01*
X94661750Y-60125548D02*
X94637940Y-60101739D01*
X94637940Y-60101739D02*
X94590321Y-60077929D01*
X94590321Y-60077929D02*
X94542702Y-60077929D01*
X94542702Y-60077929D02*
X94495083Y-60101739D01*
X94495083Y-60101739D02*
X94471273Y-60125548D01*
X94471273Y-60125548D02*
X94447464Y-60173167D01*
X94447464Y-60173167D02*
X94423654Y-60268405D01*
X94423654Y-60268405D02*
X94399845Y-60316024D01*
X94399845Y-60316024D02*
X94376035Y-60339834D01*
X94376035Y-60339834D02*
X94328416Y-60363643D01*
X94328416Y-60363643D02*
X94280797Y-60363643D01*
X94280797Y-60363643D02*
X94233178Y-60339834D01*
X94233178Y-60339834D02*
X94209369Y-60316024D01*
X94209369Y-60316024D02*
X94185559Y-60268405D01*
X94185559Y-60268405D02*
X94185559Y-60149358D01*
X94185559Y-60149358D02*
X94209369Y-60077929D01*
X94685559Y-59863644D02*
X94185559Y-59863644D01*
X94185559Y-59863644D02*
X94185559Y-59744596D01*
X94185559Y-59744596D02*
X94209369Y-59673168D01*
X94209369Y-59673168D02*
X94256988Y-59625549D01*
X94256988Y-59625549D02*
X94304607Y-59601739D01*
X94304607Y-59601739D02*
X94399845Y-59577930D01*
X94399845Y-59577930D02*
X94471273Y-59577930D01*
X94471273Y-59577930D02*
X94566511Y-59601739D01*
X94566511Y-59601739D02*
X94614130Y-59625549D01*
X94614130Y-59625549D02*
X94661750Y-59673168D01*
X94661750Y-59673168D02*
X94685559Y-59744596D01*
X94685559Y-59744596D02*
X94685559Y-59863644D01*
X94542702Y-59387453D02*
X94542702Y-59149358D01*
X94685559Y-59435072D02*
X94185559Y-59268406D01*
X94185559Y-59268406D02*
X94685559Y-59101739D01*
X96685559Y-60387453D02*
X96685559Y-60077929D01*
X96685559Y-60077929D02*
X96876035Y-60244596D01*
X96876035Y-60244596D02*
X96876035Y-60173167D01*
X96876035Y-60173167D02*
X96899845Y-60125548D01*
X96899845Y-60125548D02*
X96923654Y-60101739D01*
X96923654Y-60101739D02*
X96971273Y-60077929D01*
X96971273Y-60077929D02*
X97090321Y-60077929D01*
X97090321Y-60077929D02*
X97137940Y-60101739D01*
X97137940Y-60101739D02*
X97161750Y-60125548D01*
X97161750Y-60125548D02*
X97185559Y-60173167D01*
X97185559Y-60173167D02*
X97185559Y-60316024D01*
X97185559Y-60316024D02*
X97161750Y-60363643D01*
X97161750Y-60363643D02*
X97137940Y-60387453D01*
X97137940Y-59863644D02*
X97161750Y-59839834D01*
X97161750Y-59839834D02*
X97185559Y-59863644D01*
X97185559Y-59863644D02*
X97161750Y-59887453D01*
X97161750Y-59887453D02*
X97137940Y-59863644D01*
X97137940Y-59863644D02*
X97185559Y-59863644D01*
X96685559Y-59673168D02*
X96685559Y-59363644D01*
X96685559Y-59363644D02*
X96876035Y-59530311D01*
X96876035Y-59530311D02*
X96876035Y-59458882D01*
X96876035Y-59458882D02*
X96899845Y-59411263D01*
X96899845Y-59411263D02*
X96923654Y-59387454D01*
X96923654Y-59387454D02*
X96971273Y-59363644D01*
X96971273Y-59363644D02*
X97090321Y-59363644D01*
X97090321Y-59363644D02*
X97137940Y-59387454D01*
X97137940Y-59387454D02*
X97161750Y-59411263D01*
X97161750Y-59411263D02*
X97185559Y-59458882D01*
X97185559Y-59458882D02*
X97185559Y-59601739D01*
X97185559Y-59601739D02*
X97161750Y-59649358D01*
X97161750Y-59649358D02*
X97137940Y-59673168D01*
X96685559Y-59220787D02*
X97185559Y-59054121D01*
X97185559Y-59054121D02*
X96685559Y-58887454D01*
X99209369Y-60077929D02*
X99185559Y-60125548D01*
X99185559Y-60125548D02*
X99185559Y-60196977D01*
X99185559Y-60196977D02*
X99209369Y-60268405D01*
X99209369Y-60268405D02*
X99256988Y-60316024D01*
X99256988Y-60316024D02*
X99304607Y-60339834D01*
X99304607Y-60339834D02*
X99399845Y-60363643D01*
X99399845Y-60363643D02*
X99471273Y-60363643D01*
X99471273Y-60363643D02*
X99566511Y-60339834D01*
X99566511Y-60339834D02*
X99614130Y-60316024D01*
X99614130Y-60316024D02*
X99661750Y-60268405D01*
X99661750Y-60268405D02*
X99685559Y-60196977D01*
X99685559Y-60196977D02*
X99685559Y-60149358D01*
X99685559Y-60149358D02*
X99661750Y-60077929D01*
X99661750Y-60077929D02*
X99637940Y-60054120D01*
X99637940Y-60054120D02*
X99471273Y-60054120D01*
X99471273Y-60054120D02*
X99471273Y-60149358D01*
X99685559Y-59839834D02*
X99185559Y-59839834D01*
X99185559Y-59839834D02*
X99685559Y-59554120D01*
X99685559Y-59554120D02*
X99185559Y-59554120D01*
X99685559Y-59316024D02*
X99185559Y-59316024D01*
X99185559Y-59316024D02*
X99185559Y-59196976D01*
X99185559Y-59196976D02*
X99209369Y-59125548D01*
X99209369Y-59125548D02*
X99256988Y-59077929D01*
X99256988Y-59077929D02*
X99304607Y-59054119D01*
X99304607Y-59054119D02*
X99399845Y-59030310D01*
X99399845Y-59030310D02*
X99471273Y-59030310D01*
X99471273Y-59030310D02*
X99566511Y-59054119D01*
X99566511Y-59054119D02*
X99614130Y-59077929D01*
X99614130Y-59077929D02*
X99661750Y-59125548D01*
X99661750Y-59125548D02*
X99685559Y-59196976D01*
X99685559Y-59196976D02*
X99685559Y-59316024D01*
D11*
X111380952Y-89407419D02*
X110904762Y-89407419D01*
X110904762Y-89407419D02*
X110904762Y-88407419D01*
X111714286Y-88883609D02*
X112047619Y-88883609D01*
X112190476Y-89407419D02*
X111714286Y-89407419D01*
X111714286Y-89407419D02*
X111714286Y-88407419D01*
X111714286Y-88407419D02*
X112190476Y-88407419D01*
X112619048Y-89407419D02*
X112619048Y-88407419D01*
X112619048Y-88407419D02*
X112857143Y-88407419D01*
X112857143Y-88407419D02*
X113000000Y-88455038D01*
X113000000Y-88455038D02*
X113095238Y-88550276D01*
X113095238Y-88550276D02*
X113142857Y-88645514D01*
X113142857Y-88645514D02*
X113190476Y-88835990D01*
X113190476Y-88835990D02*
X113190476Y-88978847D01*
X113190476Y-88978847D02*
X113142857Y-89169323D01*
X113142857Y-89169323D02*
X113095238Y-89264561D01*
X113095238Y-89264561D02*
X113000000Y-89359800D01*
X113000000Y-89359800D02*
X112857143Y-89407419D01*
X112857143Y-89407419D02*
X112619048Y-89407419D01*
X113809524Y-88407419D02*
X113904762Y-88407419D01*
X113904762Y-88407419D02*
X114000000Y-88455038D01*
X114000000Y-88455038D02*
X114047619Y-88502657D01*
X114047619Y-88502657D02*
X114095238Y-88597895D01*
X114095238Y-88597895D02*
X114142857Y-88788371D01*
X114142857Y-88788371D02*
X114142857Y-89026466D01*
X114142857Y-89026466D02*
X114095238Y-89216942D01*
X114095238Y-89216942D02*
X114047619Y-89312180D01*
X114047619Y-89312180D02*
X114000000Y-89359800D01*
X114000000Y-89359800D02*
X113904762Y-89407419D01*
X113904762Y-89407419D02*
X113809524Y-89407419D01*
X113809524Y-89407419D02*
X113714286Y-89359800D01*
X113714286Y-89359800D02*
X113666667Y-89312180D01*
X113666667Y-89312180D02*
X113619048Y-89216942D01*
X113619048Y-89216942D02*
X113571429Y-89026466D01*
X113571429Y-89026466D02*
X113571429Y-88788371D01*
X113571429Y-88788371D02*
X113619048Y-88597895D01*
X113619048Y-88597895D02*
X113666667Y-88502657D01*
X113666667Y-88502657D02*
X113714286Y-88455038D01*
X113714286Y-88455038D02*
X113809524Y-88407419D01*
D12*
X115088737Y-91385559D02*
X115255403Y-91885559D01*
X115255403Y-91885559D02*
X115422070Y-91385559D01*
X115588736Y-91885559D02*
X115588736Y-91552226D01*
X115588736Y-91385559D02*
X115564927Y-91409369D01*
X115564927Y-91409369D02*
X115588736Y-91433178D01*
X115588736Y-91433178D02*
X115612546Y-91409369D01*
X115612546Y-91409369D02*
X115588736Y-91385559D01*
X115588736Y-91385559D02*
X115588736Y-91433178D01*
X115826831Y-91552226D02*
X115826831Y-91885559D01*
X115826831Y-91599845D02*
X115850641Y-91576035D01*
X115850641Y-91576035D02*
X115898260Y-91552226D01*
X115898260Y-91552226D02*
X115969688Y-91552226D01*
X115969688Y-91552226D02*
X116017307Y-91576035D01*
X116017307Y-91576035D02*
X116041117Y-91623654D01*
X116041117Y-91623654D02*
X116041117Y-91885559D01*
X115422070Y-94009369D02*
X115374451Y-93985559D01*
X115374451Y-93985559D02*
X115303022Y-93985559D01*
X115303022Y-93985559D02*
X115231594Y-94009369D01*
X115231594Y-94009369D02*
X115183975Y-94056988D01*
X115183975Y-94056988D02*
X115160165Y-94104607D01*
X115160165Y-94104607D02*
X115136356Y-94199845D01*
X115136356Y-94199845D02*
X115136356Y-94271273D01*
X115136356Y-94271273D02*
X115160165Y-94366511D01*
X115160165Y-94366511D02*
X115183975Y-94414130D01*
X115183975Y-94414130D02*
X115231594Y-94461750D01*
X115231594Y-94461750D02*
X115303022Y-94485559D01*
X115303022Y-94485559D02*
X115350641Y-94485559D01*
X115350641Y-94485559D02*
X115422070Y-94461750D01*
X115422070Y-94461750D02*
X115445879Y-94437940D01*
X115445879Y-94437940D02*
X115445879Y-94271273D01*
X115445879Y-94271273D02*
X115350641Y-94271273D01*
X115660165Y-94485559D02*
X115660165Y-93985559D01*
X115660165Y-93985559D02*
X115945879Y-94485559D01*
X115945879Y-94485559D02*
X115945879Y-93985559D01*
X116183975Y-94485559D02*
X116183975Y-93985559D01*
X116183975Y-93985559D02*
X116303023Y-93985559D01*
X116303023Y-93985559D02*
X116374451Y-94009369D01*
X116374451Y-94009369D02*
X116422070Y-94056988D01*
X116422070Y-94056988D02*
X116445880Y-94104607D01*
X116445880Y-94104607D02*
X116469689Y-94199845D01*
X116469689Y-94199845D02*
X116469689Y-94271273D01*
X116469689Y-94271273D02*
X116445880Y-94366511D01*
X116445880Y-94366511D02*
X116422070Y-94414130D01*
X116422070Y-94414130D02*
X116374451Y-94461750D01*
X116374451Y-94461750D02*
X116303023Y-94485559D01*
X116303023Y-94485559D02*
X116183975Y-94485559D01*
D11*
X63357419Y-97833332D02*
X62357419Y-97833332D01*
X62357419Y-97833332D02*
X62357419Y-97452380D01*
X62357419Y-97452380D02*
X62405038Y-97357142D01*
X62405038Y-97357142D02*
X62452657Y-97309523D01*
X62452657Y-97309523D02*
X62547895Y-97261904D01*
X62547895Y-97261904D02*
X62690752Y-97261904D01*
X62690752Y-97261904D02*
X62785990Y-97309523D01*
X62785990Y-97309523D02*
X62833609Y-97357142D01*
X62833609Y-97357142D02*
X62881228Y-97452380D01*
X62881228Y-97452380D02*
X62881228Y-97833332D01*
X62357419Y-96642856D02*
X62357419Y-96452380D01*
X62357419Y-96452380D02*
X62405038Y-96357142D01*
X62405038Y-96357142D02*
X62500276Y-96261904D01*
X62500276Y-96261904D02*
X62690752Y-96214285D01*
X62690752Y-96214285D02*
X63024085Y-96214285D01*
X63024085Y-96214285D02*
X63214561Y-96261904D01*
X63214561Y-96261904D02*
X63309800Y-96357142D01*
X63309800Y-96357142D02*
X63357419Y-96452380D01*
X63357419Y-96452380D02*
X63357419Y-96642856D01*
X63357419Y-96642856D02*
X63309800Y-96738094D01*
X63309800Y-96738094D02*
X63214561Y-96833332D01*
X63214561Y-96833332D02*
X63024085Y-96880951D01*
X63024085Y-96880951D02*
X62690752Y-96880951D01*
X62690752Y-96880951D02*
X62500276Y-96833332D01*
X62500276Y-96833332D02*
X62405038Y-96738094D01*
X62405038Y-96738094D02*
X62357419Y-96642856D01*
X62357419Y-95880951D02*
X63357419Y-95642856D01*
X63357419Y-95642856D02*
X62643133Y-95452380D01*
X62643133Y-95452380D02*
X63357419Y-95261904D01*
X63357419Y-95261904D02*
X62357419Y-95023809D01*
X62357419Y-94452380D02*
X62357419Y-94357142D01*
X62357419Y-94357142D02*
X62405038Y-94261904D01*
X62405038Y-94261904D02*
X62452657Y-94214285D01*
X62452657Y-94214285D02*
X62547895Y-94166666D01*
X62547895Y-94166666D02*
X62738371Y-94119047D01*
X62738371Y-94119047D02*
X62976466Y-94119047D01*
X62976466Y-94119047D02*
X63166942Y-94166666D01*
X63166942Y-94166666D02*
X63262180Y-94214285D01*
X63262180Y-94214285D02*
X63309800Y-94261904D01*
X63309800Y-94261904D02*
X63357419Y-94357142D01*
X63357419Y-94357142D02*
X63357419Y-94452380D01*
X63357419Y-94452380D02*
X63309800Y-94547618D01*
X63309800Y-94547618D02*
X63262180Y-94595237D01*
X63262180Y-94595237D02*
X63166942Y-94642856D01*
X63166942Y-94642856D02*
X62976466Y-94690475D01*
X62976466Y-94690475D02*
X62738371Y-94690475D01*
X62738371Y-94690475D02*
X62547895Y-94642856D01*
X62547895Y-94642856D02*
X62452657Y-94595237D01*
X62452657Y-94595237D02*
X62405038Y-94547618D01*
X62405038Y-94547618D02*
X62357419Y-94452380D01*
D12*
X65059369Y-93077929D02*
X65035559Y-93125548D01*
X65035559Y-93125548D02*
X65035559Y-93196977D01*
X65035559Y-93196977D02*
X65059369Y-93268405D01*
X65059369Y-93268405D02*
X65106988Y-93316024D01*
X65106988Y-93316024D02*
X65154607Y-93339834D01*
X65154607Y-93339834D02*
X65249845Y-93363643D01*
X65249845Y-93363643D02*
X65321273Y-93363643D01*
X65321273Y-93363643D02*
X65416511Y-93339834D01*
X65416511Y-93339834D02*
X65464130Y-93316024D01*
X65464130Y-93316024D02*
X65511750Y-93268405D01*
X65511750Y-93268405D02*
X65535559Y-93196977D01*
X65535559Y-93196977D02*
X65535559Y-93149358D01*
X65535559Y-93149358D02*
X65511750Y-93077929D01*
X65511750Y-93077929D02*
X65487940Y-93054120D01*
X65487940Y-93054120D02*
X65321273Y-93054120D01*
X65321273Y-93054120D02*
X65321273Y-93149358D01*
X65535559Y-92839834D02*
X65035559Y-92839834D01*
X65035559Y-92839834D02*
X65535559Y-92554120D01*
X65535559Y-92554120D02*
X65035559Y-92554120D01*
X65535559Y-92316024D02*
X65035559Y-92316024D01*
X65035559Y-92316024D02*
X65035559Y-92196976D01*
X65035559Y-92196976D02*
X65059369Y-92125548D01*
X65059369Y-92125548D02*
X65106988Y-92077929D01*
X65106988Y-92077929D02*
X65154607Y-92054119D01*
X65154607Y-92054119D02*
X65249845Y-92030310D01*
X65249845Y-92030310D02*
X65321273Y-92030310D01*
X65321273Y-92030310D02*
X65416511Y-92054119D01*
X65416511Y-92054119D02*
X65464130Y-92077929D01*
X65464130Y-92077929D02*
X65511750Y-92125548D01*
X65511750Y-92125548D02*
X65535559Y-92196976D01*
X65535559Y-92196976D02*
X65535559Y-92316024D01*
X67535559Y-93101739D02*
X67535559Y-93339834D01*
X67535559Y-93339834D02*
X67773654Y-93363643D01*
X67773654Y-93363643D02*
X67749845Y-93339834D01*
X67749845Y-93339834D02*
X67726035Y-93292215D01*
X67726035Y-93292215D02*
X67726035Y-93173167D01*
X67726035Y-93173167D02*
X67749845Y-93125548D01*
X67749845Y-93125548D02*
X67773654Y-93101739D01*
X67773654Y-93101739D02*
X67821273Y-93077929D01*
X67821273Y-93077929D02*
X67940321Y-93077929D01*
X67940321Y-93077929D02*
X67987940Y-93101739D01*
X67987940Y-93101739D02*
X68011750Y-93125548D01*
X68011750Y-93125548D02*
X68035559Y-93173167D01*
X68035559Y-93173167D02*
X68035559Y-93292215D01*
X68035559Y-93292215D02*
X68011750Y-93339834D01*
X68011750Y-93339834D02*
X67987940Y-93363643D01*
X67535559Y-92935072D02*
X68035559Y-92768406D01*
X68035559Y-92768406D02*
X67535559Y-92601739D01*
D10*
X59081069Y-64569404D02*
X59890592Y-64569404D01*
X59890592Y-64569404D02*
X59985830Y-64521785D01*
X59985830Y-64521785D02*
X60033450Y-64474166D01*
X60033450Y-64474166D02*
X60081069Y-64378928D01*
X60081069Y-64378928D02*
X60081069Y-64188452D01*
X60081069Y-64188452D02*
X60033450Y-64093214D01*
X60033450Y-64093214D02*
X59985830Y-64045595D01*
X59985830Y-64045595D02*
X59890592Y-63997976D01*
X59890592Y-63997976D02*
X59081069Y-63997976D01*
X60081069Y-62997976D02*
X60081069Y-63569404D01*
X60081069Y-63283690D02*
X59081069Y-63283690D01*
X59081069Y-63283690D02*
X59223926Y-63378928D01*
X59223926Y-63378928D02*
X59319164Y-63474166D01*
X59319164Y-63474166D02*
X59366783Y-63569404D01*
D11*
X60904761Y-101357419D02*
X60571428Y-100881228D01*
X60333333Y-101357419D02*
X60333333Y-100357419D01*
X60333333Y-100357419D02*
X60714285Y-100357419D01*
X60714285Y-100357419D02*
X60809523Y-100405038D01*
X60809523Y-100405038D02*
X60857142Y-100452657D01*
X60857142Y-100452657D02*
X60904761Y-100547895D01*
X60904761Y-100547895D02*
X60904761Y-100690752D01*
X60904761Y-100690752D02*
X60857142Y-100785990D01*
X60857142Y-100785990D02*
X60809523Y-100833609D01*
X60809523Y-100833609D02*
X60714285Y-100881228D01*
X60714285Y-100881228D02*
X60333333Y-100881228D01*
X61285714Y-101071704D02*
X61761904Y-101071704D01*
X61190476Y-101357419D02*
X61523809Y-100357419D01*
X61523809Y-100357419D02*
X61857142Y-101357419D01*
X62190476Y-101357419D02*
X62190476Y-100357419D01*
X62190476Y-100357419D02*
X62428571Y-100357419D01*
X62428571Y-100357419D02*
X62571428Y-100405038D01*
X62571428Y-100405038D02*
X62666666Y-100500276D01*
X62666666Y-100500276D02*
X62714285Y-100595514D01*
X62714285Y-100595514D02*
X62761904Y-100785990D01*
X62761904Y-100785990D02*
X62761904Y-100928847D01*
X62761904Y-100928847D02*
X62714285Y-101119323D01*
X62714285Y-101119323D02*
X62666666Y-101214561D01*
X62666666Y-101214561D02*
X62571428Y-101309800D01*
X62571428Y-101309800D02*
X62428571Y-101357419D01*
X62428571Y-101357419D02*
X62190476Y-101357419D01*
X63380952Y-100357419D02*
X63476190Y-100357419D01*
X63476190Y-100357419D02*
X63571428Y-100405038D01*
X63571428Y-100405038D02*
X63619047Y-100452657D01*
X63619047Y-100452657D02*
X63666666Y-100547895D01*
X63666666Y-100547895D02*
X63714285Y-100738371D01*
X63714285Y-100738371D02*
X63714285Y-100976466D01*
X63714285Y-100976466D02*
X63666666Y-101166942D01*
X63666666Y-101166942D02*
X63619047Y-101262180D01*
X63619047Y-101262180D02*
X63571428Y-101309800D01*
X63571428Y-101309800D02*
X63476190Y-101357419D01*
X63476190Y-101357419D02*
X63380952Y-101357419D01*
X63380952Y-101357419D02*
X63285714Y-101309800D01*
X63285714Y-101309800D02*
X63238095Y-101262180D01*
X63238095Y-101262180D02*
X63190476Y-101166942D01*
X63190476Y-101166942D02*
X63142857Y-100976466D01*
X63142857Y-100976466D02*
X63142857Y-100738371D01*
X63142857Y-100738371D02*
X63190476Y-100547895D01*
X63190476Y-100547895D02*
X63238095Y-100452657D01*
X63238095Y-100452657D02*
X63285714Y-100405038D01*
X63285714Y-100405038D02*
X63380952Y-100357419D01*
D12*
X58422070Y-103259369D02*
X58374451Y-103235559D01*
X58374451Y-103235559D02*
X58303022Y-103235559D01*
X58303022Y-103235559D02*
X58231594Y-103259369D01*
X58231594Y-103259369D02*
X58183975Y-103306988D01*
X58183975Y-103306988D02*
X58160165Y-103354607D01*
X58160165Y-103354607D02*
X58136356Y-103449845D01*
X58136356Y-103449845D02*
X58136356Y-103521273D01*
X58136356Y-103521273D02*
X58160165Y-103616511D01*
X58160165Y-103616511D02*
X58183975Y-103664130D01*
X58183975Y-103664130D02*
X58231594Y-103711750D01*
X58231594Y-103711750D02*
X58303022Y-103735559D01*
X58303022Y-103735559D02*
X58350641Y-103735559D01*
X58350641Y-103735559D02*
X58422070Y-103711750D01*
X58422070Y-103711750D02*
X58445879Y-103687940D01*
X58445879Y-103687940D02*
X58445879Y-103521273D01*
X58445879Y-103521273D02*
X58350641Y-103521273D01*
X58660165Y-103735559D02*
X58660165Y-103235559D01*
X58660165Y-103235559D02*
X58945879Y-103735559D01*
X58945879Y-103735559D02*
X58945879Y-103235559D01*
X59183975Y-103735559D02*
X59183975Y-103235559D01*
X59183975Y-103235559D02*
X59303023Y-103235559D01*
X59303023Y-103235559D02*
X59374451Y-103259369D01*
X59374451Y-103259369D02*
X59422070Y-103306988D01*
X59422070Y-103306988D02*
X59445880Y-103354607D01*
X59445880Y-103354607D02*
X59469689Y-103449845D01*
X59469689Y-103449845D02*
X59469689Y-103521273D01*
X59469689Y-103521273D02*
X59445880Y-103616511D01*
X59445880Y-103616511D02*
X59422070Y-103664130D01*
X59422070Y-103664130D02*
X59374451Y-103711750D01*
X59374451Y-103711750D02*
X59303023Y-103735559D01*
X59303023Y-103735559D02*
X59183975Y-103735559D01*
X58898260Y-105785559D02*
X58660165Y-105785559D01*
X58660165Y-105785559D02*
X58636356Y-106023654D01*
X58636356Y-106023654D02*
X58660165Y-105999845D01*
X58660165Y-105999845D02*
X58707784Y-105976035D01*
X58707784Y-105976035D02*
X58826832Y-105976035D01*
X58826832Y-105976035D02*
X58874451Y-105999845D01*
X58874451Y-105999845D02*
X58898260Y-106023654D01*
X58898260Y-106023654D02*
X58922070Y-106071273D01*
X58922070Y-106071273D02*
X58922070Y-106190321D01*
X58922070Y-106190321D02*
X58898260Y-106237940D01*
X58898260Y-106237940D02*
X58874451Y-106261750D01*
X58874451Y-106261750D02*
X58826832Y-106285559D01*
X58826832Y-106285559D02*
X58707784Y-106285559D01*
X58707784Y-106285559D02*
X58660165Y-106261750D01*
X58660165Y-106261750D02*
X58636356Y-106237940D01*
X59064927Y-105785559D02*
X59231593Y-106285559D01*
X59231593Y-106285559D02*
X59398260Y-105785559D01*
X58588737Y-108335559D02*
X58874451Y-108335559D01*
X58731594Y-108835559D02*
X58731594Y-108335559D01*
X58993498Y-108335559D02*
X59326831Y-108835559D01*
X59326831Y-108335559D02*
X58993498Y-108835559D01*
X58945879Y-111285559D02*
X58779213Y-111047464D01*
X58660165Y-111285559D02*
X58660165Y-110785559D01*
X58660165Y-110785559D02*
X58850641Y-110785559D01*
X58850641Y-110785559D02*
X58898260Y-110809369D01*
X58898260Y-110809369D02*
X58922070Y-110833178D01*
X58922070Y-110833178D02*
X58945879Y-110880797D01*
X58945879Y-110880797D02*
X58945879Y-110952226D01*
X58945879Y-110952226D02*
X58922070Y-110999845D01*
X58922070Y-110999845D02*
X58898260Y-111023654D01*
X58898260Y-111023654D02*
X58850641Y-111047464D01*
X58850641Y-111047464D02*
X58660165Y-111047464D01*
X59112546Y-110785559D02*
X59445879Y-111285559D01*
X59445879Y-110785559D02*
X59112546Y-111285559D01*
D11*
X98261905Y-48907419D02*
X98595238Y-49907419D01*
X98595238Y-49907419D02*
X98928571Y-48907419D01*
X99261905Y-49383609D02*
X99595238Y-49383609D01*
X99738095Y-49907419D02*
X99261905Y-49907419D01*
X99261905Y-49907419D02*
X99261905Y-48907419D01*
X99261905Y-48907419D02*
X99738095Y-48907419D01*
X100119048Y-49859800D02*
X100261905Y-49907419D01*
X100261905Y-49907419D02*
X100500000Y-49907419D01*
X100500000Y-49907419D02*
X100595238Y-49859800D01*
X100595238Y-49859800D02*
X100642857Y-49812180D01*
X100642857Y-49812180D02*
X100690476Y-49716942D01*
X100690476Y-49716942D02*
X100690476Y-49621704D01*
X100690476Y-49621704D02*
X100642857Y-49526466D01*
X100642857Y-49526466D02*
X100595238Y-49478847D01*
X100595238Y-49478847D02*
X100500000Y-49431228D01*
X100500000Y-49431228D02*
X100309524Y-49383609D01*
X100309524Y-49383609D02*
X100214286Y-49335990D01*
X100214286Y-49335990D02*
X100166667Y-49288371D01*
X100166667Y-49288371D02*
X100119048Y-49193133D01*
X100119048Y-49193133D02*
X100119048Y-49097895D01*
X100119048Y-49097895D02*
X100166667Y-49002657D01*
X100166667Y-49002657D02*
X100214286Y-48955038D01*
X100214286Y-48955038D02*
X100309524Y-48907419D01*
X100309524Y-48907419D02*
X100547619Y-48907419D01*
X100547619Y-48907419D02*
X100690476Y-48955038D01*
X101690476Y-49812180D02*
X101642857Y-49859800D01*
X101642857Y-49859800D02*
X101500000Y-49907419D01*
X101500000Y-49907419D02*
X101404762Y-49907419D01*
X101404762Y-49907419D02*
X101261905Y-49859800D01*
X101261905Y-49859800D02*
X101166667Y-49764561D01*
X101166667Y-49764561D02*
X101119048Y-49669323D01*
X101119048Y-49669323D02*
X101071429Y-49478847D01*
X101071429Y-49478847D02*
X101071429Y-49335990D01*
X101071429Y-49335990D02*
X101119048Y-49145514D01*
X101119048Y-49145514D02*
X101166667Y-49050276D01*
X101166667Y-49050276D02*
X101261905Y-48955038D01*
X101261905Y-48955038D02*
X101404762Y-48907419D01*
X101404762Y-48907419D02*
X101500000Y-48907419D01*
X101500000Y-48907419D02*
X101642857Y-48955038D01*
X101642857Y-48955038D02*
X101690476Y-49002657D01*
X102309524Y-48907419D02*
X102404762Y-48907419D01*
X102404762Y-48907419D02*
X102500000Y-48955038D01*
X102500000Y-48955038D02*
X102547619Y-49002657D01*
X102547619Y-49002657D02*
X102595238Y-49097895D01*
X102595238Y-49097895D02*
X102642857Y-49288371D01*
X102642857Y-49288371D02*
X102642857Y-49526466D01*
X102642857Y-49526466D02*
X102595238Y-49716942D01*
X102595238Y-49716942D02*
X102547619Y-49812180D01*
X102547619Y-49812180D02*
X102500000Y-49859800D01*
X102500000Y-49859800D02*
X102404762Y-49907419D01*
X102404762Y-49907419D02*
X102309524Y-49907419D01*
X102309524Y-49907419D02*
X102214286Y-49859800D01*
X102214286Y-49859800D02*
X102166667Y-49812180D01*
X102166667Y-49812180D02*
X102119048Y-49716942D01*
X102119048Y-49716942D02*
X102071429Y-49526466D01*
X102071429Y-49526466D02*
X102071429Y-49288371D01*
X102071429Y-49288371D02*
X102119048Y-49097895D01*
X102119048Y-49097895D02*
X102166667Y-49002657D01*
X102166667Y-49002657D02*
X102214286Y-48955038D01*
X102214286Y-48955038D02*
X102309524Y-48907419D01*
D12*
X103445879Y-52435559D02*
X103279213Y-52197464D01*
X103160165Y-52435559D02*
X103160165Y-51935559D01*
X103160165Y-51935559D02*
X103350641Y-51935559D01*
X103350641Y-51935559D02*
X103398260Y-51959369D01*
X103398260Y-51959369D02*
X103422070Y-51983178D01*
X103422070Y-51983178D02*
X103445879Y-52030797D01*
X103445879Y-52030797D02*
X103445879Y-52102226D01*
X103445879Y-52102226D02*
X103422070Y-52149845D01*
X103422070Y-52149845D02*
X103398260Y-52173654D01*
X103398260Y-52173654D02*
X103350641Y-52197464D01*
X103350641Y-52197464D02*
X103160165Y-52197464D01*
X103612546Y-51935559D02*
X103945879Y-52435559D01*
X103945879Y-51935559D02*
X103612546Y-52435559D01*
X103160165Y-54935559D02*
X103160165Y-54435559D01*
X103160165Y-54435559D02*
X103279213Y-54435559D01*
X103279213Y-54435559D02*
X103350641Y-54459369D01*
X103350641Y-54459369D02*
X103398260Y-54506988D01*
X103398260Y-54506988D02*
X103422070Y-54554607D01*
X103422070Y-54554607D02*
X103445879Y-54649845D01*
X103445879Y-54649845D02*
X103445879Y-54721273D01*
X103445879Y-54721273D02*
X103422070Y-54816511D01*
X103422070Y-54816511D02*
X103398260Y-54864130D01*
X103398260Y-54864130D02*
X103350641Y-54911750D01*
X103350641Y-54911750D02*
X103279213Y-54935559D01*
X103279213Y-54935559D02*
X103160165Y-54935559D01*
X103636356Y-54911750D02*
X103683975Y-54935559D01*
X103683975Y-54935559D02*
X103779213Y-54935559D01*
X103779213Y-54935559D02*
X103826832Y-54911750D01*
X103826832Y-54911750D02*
X103850641Y-54864130D01*
X103850641Y-54864130D02*
X103850641Y-54840321D01*
X103850641Y-54840321D02*
X103826832Y-54792702D01*
X103826832Y-54792702D02*
X103779213Y-54768892D01*
X103779213Y-54768892D02*
X103707784Y-54768892D01*
X103707784Y-54768892D02*
X103660165Y-54745083D01*
X103660165Y-54745083D02*
X103636356Y-54697464D01*
X103636356Y-54697464D02*
X103636356Y-54673654D01*
X103636356Y-54673654D02*
X103660165Y-54626035D01*
X103660165Y-54626035D02*
X103707784Y-54602226D01*
X103707784Y-54602226D02*
X103779213Y-54602226D01*
X103779213Y-54602226D02*
X103826832Y-54626035D01*
X104064927Y-54935559D02*
X104064927Y-54435559D01*
X104279213Y-54935559D02*
X104279213Y-54673654D01*
X104279213Y-54673654D02*
X104255403Y-54626035D01*
X104255403Y-54626035D02*
X104207784Y-54602226D01*
X104207784Y-54602226D02*
X104136356Y-54602226D01*
X104136356Y-54602226D02*
X104088737Y-54626035D01*
X104088737Y-54626035D02*
X104064927Y-54649845D01*
X104588737Y-54935559D02*
X104541118Y-54911750D01*
X104541118Y-54911750D02*
X104517308Y-54887940D01*
X104517308Y-54887940D02*
X104493499Y-54840321D01*
X104493499Y-54840321D02*
X104493499Y-54697464D01*
X104493499Y-54697464D02*
X104517308Y-54649845D01*
X104517308Y-54649845D02*
X104541118Y-54626035D01*
X104541118Y-54626035D02*
X104588737Y-54602226D01*
X104588737Y-54602226D02*
X104660165Y-54602226D01*
X104660165Y-54602226D02*
X104707784Y-54626035D01*
X104707784Y-54626035D02*
X104731594Y-54649845D01*
X104731594Y-54649845D02*
X104755403Y-54697464D01*
X104755403Y-54697464D02*
X104755403Y-54840321D01*
X104755403Y-54840321D02*
X104731594Y-54887940D01*
X104731594Y-54887940D02*
X104707784Y-54911750D01*
X104707784Y-54911750D02*
X104660165Y-54935559D01*
X104660165Y-54935559D02*
X104588737Y-54935559D01*
X104898261Y-54602226D02*
X105088737Y-54602226D01*
X104969689Y-54435559D02*
X104969689Y-54864130D01*
X104969689Y-54864130D02*
X104993499Y-54911750D01*
X104993499Y-54911750D02*
X105041118Y-54935559D01*
X105041118Y-54935559D02*
X105088737Y-54935559D01*
D11*
X58833333Y-91957419D02*
X58500000Y-91481228D01*
X58261905Y-91957419D02*
X58261905Y-90957419D01*
X58261905Y-90957419D02*
X58642857Y-90957419D01*
X58642857Y-90957419D02*
X58738095Y-91005038D01*
X58738095Y-91005038D02*
X58785714Y-91052657D01*
X58785714Y-91052657D02*
X58833333Y-91147895D01*
X58833333Y-91147895D02*
X58833333Y-91290752D01*
X58833333Y-91290752D02*
X58785714Y-91385990D01*
X58785714Y-91385990D02*
X58738095Y-91433609D01*
X58738095Y-91433609D02*
X58642857Y-91481228D01*
X58642857Y-91481228D02*
X58261905Y-91481228D01*
X59214286Y-91052657D02*
X59261905Y-91005038D01*
X59261905Y-91005038D02*
X59357143Y-90957419D01*
X59357143Y-90957419D02*
X59595238Y-90957419D01*
X59595238Y-90957419D02*
X59690476Y-91005038D01*
X59690476Y-91005038D02*
X59738095Y-91052657D01*
X59738095Y-91052657D02*
X59785714Y-91147895D01*
X59785714Y-91147895D02*
X59785714Y-91243133D01*
X59785714Y-91243133D02*
X59738095Y-91385990D01*
X59738095Y-91385990D02*
X59166667Y-91957419D01*
X59166667Y-91957419D02*
X59785714Y-91957419D01*
D12*
X57136356Y-93483178D02*
X57160165Y-93459369D01*
X57160165Y-93459369D02*
X57207784Y-93435559D01*
X57207784Y-93435559D02*
X57326832Y-93435559D01*
X57326832Y-93435559D02*
X57374451Y-93459369D01*
X57374451Y-93459369D02*
X57398260Y-93483178D01*
X57398260Y-93483178D02*
X57422070Y-93530797D01*
X57422070Y-93530797D02*
X57422070Y-93578416D01*
X57422070Y-93578416D02*
X57398260Y-93649845D01*
X57398260Y-93649845D02*
X57112546Y-93935559D01*
X57112546Y-93935559D02*
X57422070Y-93935559D01*
X57422070Y-97435559D02*
X57136356Y-97435559D01*
X57279213Y-97435559D02*
X57279213Y-96935559D01*
X57279213Y-96935559D02*
X57231594Y-97006988D01*
X57231594Y-97006988D02*
X57183975Y-97054607D01*
X57183975Y-97054607D02*
X57136356Y-97078416D01*
D11*
X110166667Y-106407419D02*
X110166667Y-105407419D01*
X111214285Y-106407419D02*
X110880952Y-105931228D01*
X110642857Y-106407419D02*
X110642857Y-105407419D01*
X110642857Y-105407419D02*
X111023809Y-105407419D01*
X111023809Y-105407419D02*
X111119047Y-105455038D01*
X111119047Y-105455038D02*
X111166666Y-105502657D01*
X111166666Y-105502657D02*
X111214285Y-105597895D01*
X111214285Y-105597895D02*
X111214285Y-105740752D01*
X111214285Y-105740752D02*
X111166666Y-105835990D01*
X111166666Y-105835990D02*
X111119047Y-105883609D01*
X111119047Y-105883609D02*
X111023809Y-105931228D01*
X111023809Y-105931228D02*
X110642857Y-105931228D01*
X112119047Y-106407419D02*
X111642857Y-106407419D01*
X111642857Y-106407419D02*
X111642857Y-105407419D01*
X112452381Y-105883609D02*
X112785714Y-105883609D01*
X112928571Y-106407419D02*
X112452381Y-106407419D01*
X112452381Y-106407419D02*
X112452381Y-105407419D01*
X112452381Y-105407419D02*
X112928571Y-105407419D01*
X113357143Y-106407419D02*
X113357143Y-105407419D01*
X113357143Y-105407419D02*
X113595238Y-105407419D01*
X113595238Y-105407419D02*
X113738095Y-105455038D01*
X113738095Y-105455038D02*
X113833333Y-105550276D01*
X113833333Y-105550276D02*
X113880952Y-105645514D01*
X113880952Y-105645514D02*
X113928571Y-105835990D01*
X113928571Y-105835990D02*
X113928571Y-105978847D01*
X113928571Y-105978847D02*
X113880952Y-106169323D01*
X113880952Y-106169323D02*
X113833333Y-106264561D01*
X113833333Y-106264561D02*
X113738095Y-106359800D01*
X113738095Y-106359800D02*
X113595238Y-106407419D01*
X113595238Y-106407419D02*
X113357143Y-106407419D01*
X114547619Y-105407419D02*
X114642857Y-105407419D01*
X114642857Y-105407419D02*
X114738095Y-105455038D01*
X114738095Y-105455038D02*
X114785714Y-105502657D01*
X114785714Y-105502657D02*
X114833333Y-105597895D01*
X114833333Y-105597895D02*
X114880952Y-105788371D01*
X114880952Y-105788371D02*
X114880952Y-106026466D01*
X114880952Y-106026466D02*
X114833333Y-106216942D01*
X114833333Y-106216942D02*
X114785714Y-106312180D01*
X114785714Y-106312180D02*
X114738095Y-106359800D01*
X114738095Y-106359800D02*
X114642857Y-106407419D01*
X114642857Y-106407419D02*
X114547619Y-106407419D01*
X114547619Y-106407419D02*
X114452381Y-106359800D01*
X114452381Y-106359800D02*
X114404762Y-106312180D01*
X114404762Y-106312180D02*
X114357143Y-106216942D01*
X114357143Y-106216942D02*
X114309524Y-106026466D01*
X114309524Y-106026466D02*
X114309524Y-105788371D01*
X114309524Y-105788371D02*
X114357143Y-105597895D01*
X114357143Y-105597895D02*
X114404762Y-105502657D01*
X114404762Y-105502657D02*
X114452381Y-105455038D01*
X114452381Y-105455038D02*
X114547619Y-105407419D01*
D12*
X115088737Y-107835559D02*
X115255403Y-108335559D01*
X115255403Y-108335559D02*
X115422070Y-107835559D01*
X115588736Y-108335559D02*
X115588736Y-108002226D01*
X115588736Y-107835559D02*
X115564927Y-107859369D01*
X115564927Y-107859369D02*
X115588736Y-107883178D01*
X115588736Y-107883178D02*
X115612546Y-107859369D01*
X115612546Y-107859369D02*
X115588736Y-107835559D01*
X115588736Y-107835559D02*
X115588736Y-107883178D01*
X115826831Y-108002226D02*
X115826831Y-108335559D01*
X115826831Y-108049845D02*
X115850641Y-108026035D01*
X115850641Y-108026035D02*
X115898260Y-108002226D01*
X115898260Y-108002226D02*
X115969688Y-108002226D01*
X115969688Y-108002226D02*
X116017307Y-108026035D01*
X116017307Y-108026035D02*
X116041117Y-108073654D01*
X116041117Y-108073654D02*
X116041117Y-108335559D01*
X116422070Y-110459369D02*
X116374451Y-110435559D01*
X116374451Y-110435559D02*
X116303022Y-110435559D01*
X116303022Y-110435559D02*
X116231594Y-110459369D01*
X116231594Y-110459369D02*
X116183975Y-110506988D01*
X116183975Y-110506988D02*
X116160165Y-110554607D01*
X116160165Y-110554607D02*
X116136356Y-110649845D01*
X116136356Y-110649845D02*
X116136356Y-110721273D01*
X116136356Y-110721273D02*
X116160165Y-110816511D01*
X116160165Y-110816511D02*
X116183975Y-110864130D01*
X116183975Y-110864130D02*
X116231594Y-110911750D01*
X116231594Y-110911750D02*
X116303022Y-110935559D01*
X116303022Y-110935559D02*
X116350641Y-110935559D01*
X116350641Y-110935559D02*
X116422070Y-110911750D01*
X116422070Y-110911750D02*
X116445879Y-110887940D01*
X116445879Y-110887940D02*
X116445879Y-110721273D01*
X116445879Y-110721273D02*
X116350641Y-110721273D01*
X116660165Y-110935559D02*
X116660165Y-110435559D01*
X116660165Y-110435559D02*
X116945879Y-110935559D01*
X116945879Y-110935559D02*
X116945879Y-110435559D01*
X117183975Y-110935559D02*
X117183975Y-110435559D01*
X117183975Y-110435559D02*
X117303023Y-110435559D01*
X117303023Y-110435559D02*
X117374451Y-110459369D01*
X117374451Y-110459369D02*
X117422070Y-110506988D01*
X117422070Y-110506988D02*
X117445880Y-110554607D01*
X117445880Y-110554607D02*
X117469689Y-110649845D01*
X117469689Y-110649845D02*
X117469689Y-110721273D01*
X117469689Y-110721273D02*
X117445880Y-110816511D01*
X117445880Y-110816511D02*
X117422070Y-110864130D01*
X117422070Y-110864130D02*
X117374451Y-110911750D01*
X117374451Y-110911750D02*
X117303023Y-110935559D01*
X117303023Y-110935559D02*
X117183975Y-110935559D01*
D10*
X116879819Y-72436189D02*
X115879819Y-72436189D01*
X116879819Y-71388571D02*
X116403628Y-71721904D01*
X116879819Y-71959999D02*
X115879819Y-71959999D01*
X115879819Y-71959999D02*
X115879819Y-71579047D01*
X115879819Y-71579047D02*
X115927438Y-71483809D01*
X115927438Y-71483809D02*
X115975057Y-71436190D01*
X115975057Y-71436190D02*
X116070295Y-71388571D01*
X116070295Y-71388571D02*
X116213152Y-71388571D01*
X116213152Y-71388571D02*
X116308390Y-71436190D01*
X116308390Y-71436190D02*
X116356009Y-71483809D01*
X116356009Y-71483809D02*
X116403628Y-71579047D01*
X116403628Y-71579047D02*
X116403628Y-71959999D01*
X115975057Y-71007618D02*
X115927438Y-70959999D01*
X115927438Y-70959999D02*
X115879819Y-70864761D01*
X115879819Y-70864761D02*
X115879819Y-70626666D01*
X115879819Y-70626666D02*
X115927438Y-70531428D01*
X115927438Y-70531428D02*
X115975057Y-70483809D01*
X115975057Y-70483809D02*
X116070295Y-70436190D01*
X116070295Y-70436190D02*
X116165533Y-70436190D01*
X116165533Y-70436190D02*
X116308390Y-70483809D01*
X116308390Y-70483809D02*
X116879819Y-71055237D01*
X116879819Y-71055237D02*
X116879819Y-70436190D01*
D11*
X114333333Y-97957419D02*
X114000000Y-97481228D01*
X113761905Y-97957419D02*
X113761905Y-96957419D01*
X113761905Y-96957419D02*
X114142857Y-96957419D01*
X114142857Y-96957419D02*
X114238095Y-97005038D01*
X114238095Y-97005038D02*
X114285714Y-97052657D01*
X114285714Y-97052657D02*
X114333333Y-97147895D01*
X114333333Y-97147895D02*
X114333333Y-97290752D01*
X114333333Y-97290752D02*
X114285714Y-97385990D01*
X114285714Y-97385990D02*
X114238095Y-97433609D01*
X114238095Y-97433609D02*
X114142857Y-97481228D01*
X114142857Y-97481228D02*
X113761905Y-97481228D01*
X115285714Y-97957419D02*
X114714286Y-97957419D01*
X115000000Y-97957419D02*
X115000000Y-96957419D01*
X115000000Y-96957419D02*
X114904762Y-97100276D01*
X114904762Y-97100276D02*
X114809524Y-97195514D01*
X114809524Y-97195514D02*
X114714286Y-97243133D01*
D12*
X112636356Y-99483178D02*
X112660165Y-99459369D01*
X112660165Y-99459369D02*
X112707784Y-99435559D01*
X112707784Y-99435559D02*
X112826832Y-99435559D01*
X112826832Y-99435559D02*
X112874451Y-99459369D01*
X112874451Y-99459369D02*
X112898260Y-99483178D01*
X112898260Y-99483178D02*
X112922070Y-99530797D01*
X112922070Y-99530797D02*
X112922070Y-99578416D01*
X112922070Y-99578416D02*
X112898260Y-99649845D01*
X112898260Y-99649845D02*
X112612546Y-99935559D01*
X112612546Y-99935559D02*
X112922070Y-99935559D01*
X112922070Y-102935559D02*
X112636356Y-102935559D01*
X112779213Y-102935559D02*
X112779213Y-102435559D01*
X112779213Y-102435559D02*
X112731594Y-102506988D01*
X112731594Y-102506988D02*
X112683975Y-102554607D01*
X112683975Y-102554607D02*
X112636356Y-102578416D01*
D11*
X57880952Y-83807419D02*
X57404762Y-83807419D01*
X57404762Y-83807419D02*
X57404762Y-82807419D01*
X58214286Y-83283609D02*
X58547619Y-83283609D01*
X58690476Y-83807419D02*
X58214286Y-83807419D01*
X58214286Y-83807419D02*
X58214286Y-82807419D01*
X58214286Y-82807419D02*
X58690476Y-82807419D01*
X59119048Y-83807419D02*
X59119048Y-82807419D01*
X59119048Y-82807419D02*
X59357143Y-82807419D01*
X59357143Y-82807419D02*
X59500000Y-82855038D01*
X59500000Y-82855038D02*
X59595238Y-82950276D01*
X59595238Y-82950276D02*
X59642857Y-83045514D01*
X59642857Y-83045514D02*
X59690476Y-83235990D01*
X59690476Y-83235990D02*
X59690476Y-83378847D01*
X59690476Y-83378847D02*
X59642857Y-83569323D01*
X59642857Y-83569323D02*
X59595238Y-83664561D01*
X59595238Y-83664561D02*
X59500000Y-83759800D01*
X59500000Y-83759800D02*
X59357143Y-83807419D01*
X59357143Y-83807419D02*
X59119048Y-83807419D01*
X60642857Y-83807419D02*
X60071429Y-83807419D01*
X60357143Y-83807419D02*
X60357143Y-82807419D01*
X60357143Y-82807419D02*
X60261905Y-82950276D01*
X60261905Y-82950276D02*
X60166667Y-83045514D01*
X60166667Y-83045514D02*
X60071429Y-83093133D01*
D12*
X61588737Y-85785559D02*
X61755403Y-86285559D01*
X61755403Y-86285559D02*
X61922070Y-85785559D01*
X62088736Y-86285559D02*
X62088736Y-85952226D01*
X62088736Y-85785559D02*
X62064927Y-85809369D01*
X62064927Y-85809369D02*
X62088736Y-85833178D01*
X62088736Y-85833178D02*
X62112546Y-85809369D01*
X62112546Y-85809369D02*
X62088736Y-85785559D01*
X62088736Y-85785559D02*
X62088736Y-85833178D01*
X62326831Y-85952226D02*
X62326831Y-86285559D01*
X62326831Y-85999845D02*
X62350641Y-85976035D01*
X62350641Y-85976035D02*
X62398260Y-85952226D01*
X62398260Y-85952226D02*
X62469688Y-85952226D01*
X62469688Y-85952226D02*
X62517307Y-85976035D01*
X62517307Y-85976035D02*
X62541117Y-86023654D01*
X62541117Y-86023654D02*
X62541117Y-86285559D01*
X61922070Y-88409369D02*
X61874451Y-88385559D01*
X61874451Y-88385559D02*
X61803022Y-88385559D01*
X61803022Y-88385559D02*
X61731594Y-88409369D01*
X61731594Y-88409369D02*
X61683975Y-88456988D01*
X61683975Y-88456988D02*
X61660165Y-88504607D01*
X61660165Y-88504607D02*
X61636356Y-88599845D01*
X61636356Y-88599845D02*
X61636356Y-88671273D01*
X61636356Y-88671273D02*
X61660165Y-88766511D01*
X61660165Y-88766511D02*
X61683975Y-88814130D01*
X61683975Y-88814130D02*
X61731594Y-88861750D01*
X61731594Y-88861750D02*
X61803022Y-88885559D01*
X61803022Y-88885559D02*
X61850641Y-88885559D01*
X61850641Y-88885559D02*
X61922070Y-88861750D01*
X61922070Y-88861750D02*
X61945879Y-88837940D01*
X61945879Y-88837940D02*
X61945879Y-88671273D01*
X61945879Y-88671273D02*
X61850641Y-88671273D01*
X62160165Y-88885559D02*
X62160165Y-88385559D01*
X62160165Y-88385559D02*
X62445879Y-88885559D01*
X62445879Y-88885559D02*
X62445879Y-88385559D01*
X62683975Y-88885559D02*
X62683975Y-88385559D01*
X62683975Y-88385559D02*
X62803023Y-88385559D01*
X62803023Y-88385559D02*
X62874451Y-88409369D01*
X62874451Y-88409369D02*
X62922070Y-88456988D01*
X62922070Y-88456988D02*
X62945880Y-88504607D01*
X62945880Y-88504607D02*
X62969689Y-88599845D01*
X62969689Y-88599845D02*
X62969689Y-88671273D01*
X62969689Y-88671273D02*
X62945880Y-88766511D01*
X62945880Y-88766511D02*
X62922070Y-88814130D01*
X62922070Y-88814130D02*
X62874451Y-88861750D01*
X62874451Y-88861750D02*
X62803023Y-88885559D01*
X62803023Y-88885559D02*
X62683975Y-88885559D01*
D11*
X110833333Y-97957419D02*
X110500000Y-97481228D01*
X110261905Y-97957419D02*
X110261905Y-96957419D01*
X110261905Y-96957419D02*
X110642857Y-96957419D01*
X110642857Y-96957419D02*
X110738095Y-97005038D01*
X110738095Y-97005038D02*
X110785714Y-97052657D01*
X110785714Y-97052657D02*
X110833333Y-97147895D01*
X110833333Y-97147895D02*
X110833333Y-97290752D01*
X110833333Y-97290752D02*
X110785714Y-97385990D01*
X110785714Y-97385990D02*
X110738095Y-97433609D01*
X110738095Y-97433609D02*
X110642857Y-97481228D01*
X110642857Y-97481228D02*
X110261905Y-97481228D01*
X111452381Y-96957419D02*
X111547619Y-96957419D01*
X111547619Y-96957419D02*
X111642857Y-97005038D01*
X111642857Y-97005038D02*
X111690476Y-97052657D01*
X111690476Y-97052657D02*
X111738095Y-97147895D01*
X111738095Y-97147895D02*
X111785714Y-97338371D01*
X111785714Y-97338371D02*
X111785714Y-97576466D01*
X111785714Y-97576466D02*
X111738095Y-97766942D01*
X111738095Y-97766942D02*
X111690476Y-97862180D01*
X111690476Y-97862180D02*
X111642857Y-97909800D01*
X111642857Y-97909800D02*
X111547619Y-97957419D01*
X111547619Y-97957419D02*
X111452381Y-97957419D01*
X111452381Y-97957419D02*
X111357143Y-97909800D01*
X111357143Y-97909800D02*
X111309524Y-97862180D01*
X111309524Y-97862180D02*
X111261905Y-97766942D01*
X111261905Y-97766942D02*
X111214286Y-97576466D01*
X111214286Y-97576466D02*
X111214286Y-97338371D01*
X111214286Y-97338371D02*
X111261905Y-97147895D01*
X111261905Y-97147895D02*
X111309524Y-97052657D01*
X111309524Y-97052657D02*
X111357143Y-97005038D01*
X111357143Y-97005038D02*
X111452381Y-96957419D01*
D12*
X112636356Y-99483178D02*
X112660165Y-99459369D01*
X112660165Y-99459369D02*
X112707784Y-99435559D01*
X112707784Y-99435559D02*
X112826832Y-99435559D01*
X112826832Y-99435559D02*
X112874451Y-99459369D01*
X112874451Y-99459369D02*
X112898260Y-99483178D01*
X112898260Y-99483178D02*
X112922070Y-99530797D01*
X112922070Y-99530797D02*
X112922070Y-99578416D01*
X112922070Y-99578416D02*
X112898260Y-99649845D01*
X112898260Y-99649845D02*
X112612546Y-99935559D01*
X112612546Y-99935559D02*
X112922070Y-99935559D01*
X112922070Y-102935559D02*
X112636356Y-102935559D01*
X112779213Y-102935559D02*
X112779213Y-102435559D01*
X112779213Y-102435559D02*
X112731594Y-102506988D01*
X112731594Y-102506988D02*
X112683975Y-102554607D01*
X112683975Y-102554607D02*
X112636356Y-102578416D01*
%TO.C,U0*%
D13*
X70870000Y-111890000D02*
X70870000Y-94110000D01*
X107130000Y-111890000D02*
X70870000Y-111890000D01*
X70870000Y-94110000D02*
X107130000Y-94110000D01*
X107130000Y-94110000D02*
X107130000Y-111890000D01*
%TO.C,ACC1*%
D11*
X87922950Y-69760675D02*
X108923050Y-69760675D01*
X108923050Y-90760775D01*
X87922950Y-90760775D01*
X87922950Y-69760675D01*
%TO.C,ACC0*%
X65499950Y-69760675D02*
X86500050Y-69760675D01*
X86500050Y-90760775D01*
X65499950Y-90760775D01*
X65499950Y-69760675D01*
%TO.C,TF0*%
X65000000Y-102050000D02*
X69000000Y-102050000D01*
X69000000Y-112850000D01*
X65000000Y-112850000D01*
X65000000Y-102050000D01*
%TO.C,VESC1*%
X88500000Y-50650000D02*
X92500000Y-50650000D01*
X92500000Y-56250000D01*
X88500000Y-56250000D01*
X88500000Y-50650000D01*
%TO.C,IR1*%
D14*
X113025000Y-65600000D02*
X113025000Y-60510000D01*
X113365000Y-65600000D02*
X113025000Y-65600000D01*
X115685000Y-65600000D02*
X116035000Y-65600000D01*
X116035000Y-65600000D02*
X116035000Y-63000000D01*
X113025000Y-65100000D02*
G75*
G02*
X113023264Y-60900083I100000J2100000D01*
G01*
%TO.C,IR0*%
X113025000Y-56100000D02*
X113025000Y-51010000D01*
X113365000Y-56100000D02*
X113025000Y-56100000D01*
X115685000Y-56100000D02*
X116035000Y-56100000D01*
X116035000Y-56100000D02*
X116035000Y-53500000D01*
X113025000Y-55600000D02*
G75*
G02*
X113023264Y-51400083I100000J2100000D01*
G01*
%TO.C,MAG0*%
D11*
X90350000Y-61000000D02*
X101150000Y-61000000D01*
X101150000Y-65000000D01*
X90350000Y-65000000D01*
X90350000Y-61000000D01*
%TO.C,LED0*%
X110500000Y-90150000D02*
X114500000Y-90150000D01*
X114500000Y-95750000D01*
X110500000Y-95750000D01*
X110500000Y-90150000D01*
%TO.C,POW0*%
X63900000Y-94000000D02*
X69500000Y-94000000D01*
X69500000Y-98000000D01*
X63900000Y-98000000D01*
X63900000Y-94000000D01*
%TO.C,U1*%
D13*
X62283750Y-49342500D02*
X83238750Y-49342500D01*
X62283750Y-67122500D02*
X62283750Y-49342500D01*
X83238750Y-49342500D02*
X83238750Y-67122500D01*
X83238750Y-67122500D02*
X62283750Y-67122500D01*
D15*
X65304750Y-67732500D02*
G75*
G02*
X65104750Y-67732500I-100000J0D01*
G01*
X65104750Y-67732500D02*
G75*
G02*
X65304750Y-67732500I100000J0D01*
G01*
%TO.C,RAD0*%
D11*
X60000000Y-102000000D02*
X64000000Y-102000000D01*
X64000000Y-112800000D01*
X60000000Y-112800000D01*
X60000000Y-102000000D01*
%TO.C,VESC0*%
X98500000Y-50650000D02*
X102500000Y-50650000D01*
X102500000Y-56250000D01*
X98500000Y-56250000D01*
X98500000Y-50650000D01*
%TO.C,R2*%
X58000000Y-92500000D02*
X60000000Y-92500000D01*
X60000000Y-98500000D01*
X58000000Y-98500000D01*
X58000000Y-92500000D01*
%TO.C,IRLED0*%
X110500000Y-106650000D02*
X114500000Y-106650000D01*
X114500000Y-112250000D01*
X110500000Y-112250000D01*
X110500000Y-106650000D01*
%TO.C,IR2*%
D14*
X112525000Y-74100000D02*
X112525000Y-69010000D01*
X112865000Y-74100000D02*
X112525000Y-74100000D01*
X115185000Y-74100000D02*
X115535000Y-74100000D01*
X115535000Y-74100000D02*
X115535000Y-71500000D01*
X112525000Y-73600000D02*
G75*
G02*
X112523264Y-69400083I100000J2100000D01*
G01*
%TO.C,R1*%
D11*
X113500000Y-98500000D02*
X115500000Y-98500000D01*
X115500000Y-104500000D01*
X113500000Y-104500000D01*
X113500000Y-98500000D01*
%TO.C,LED1*%
X57000000Y-84550000D02*
X61000000Y-84550000D01*
X61000000Y-90150000D01*
X57000000Y-90150000D01*
X57000000Y-84550000D01*
%TO.C,R0*%
X110000000Y-98500000D02*
X112000000Y-98500000D01*
X112000000Y-104500000D01*
X110000000Y-104500000D01*
X110000000Y-98500000D01*
%TD*%
M02*
