M48
; DRILL file KiCad 10.0.1 date 2026-06-12T18:32:38
; FORMAT={-:-/ absolute / metric / decimal}
; #@! TF.CreationDate,2026-06-12T18:32:38-04:00
; #@! TF.GenerationSoftware,Kicad,Pcbnew,10.0.1
; #@! TF.FileFunction,Plated,1,2,PTH
FMAT,2
METRIC
; #@! TA.AperFunction,Plated,PTH,ViaDrill
T1C0.300
; #@! TA.AperFunction,Plated,PTH,ComponentDrill
T2C0.900
; #@! TA.AperFunction,Plated,PTH,ComponentDrill
T3C1.000
; #@! TA.AperFunction,Plated,PTH,ComponentDrill
T4C1.020
%
G90
G05
T1
X86.0Y-102.0
T2
X114.525Y-42.46
X114.525Y-45.0
X114.525Y-47.54
X114.525Y-51.46
X114.525Y-54.0
X114.525Y-56.54
X114.525Y-60.46
X114.525Y-63.0
X114.525Y-65.54
T3
X59.0Y-85.9
X59.0Y-88.5
X59.0Y-94.0
X59.0Y-97.0
X60.5Y-103.4
X60.5Y-106.0
X60.5Y-108.6
X60.5Y-111.2
X65.5Y-96.0
X66.5Y-103.4
X66.5Y-106.0
X66.5Y-108.6
X66.5Y-111.2
X67.0Y-40.76
X67.0Y-45.26
X67.0Y-60.5
X67.0Y-65.0
X68.1Y-96.0
X68.399Y-76.451
X68.399Y-78.991
X68.399Y-81.531
X68.399Y-84.071
X69.54Y-40.76
X69.54Y-45.26
X69.54Y-60.5
X69.54Y-65.0
X72.08Y-40.76
X72.08Y-45.26
X72.08Y-60.5
X72.08Y-65.0
X74.62Y-40.76
X74.62Y-45.26
X74.62Y-60.5
X74.62Y-65.0
X77.16Y-40.76
X77.16Y-45.26
X77.16Y-60.5
X77.16Y-65.0
X79.7Y-40.76
X79.7Y-45.26
X79.7Y-60.5
X79.7Y-65.0
X82.24Y-40.76
X82.24Y-45.26
X82.24Y-60.5
X82.24Y-65.0
X83.6Y-76.451
X83.6Y-78.991
X83.6Y-81.531
X83.6Y-84.071
X90.822Y-76.451
X90.822Y-78.991
X90.822Y-81.531
X90.822Y-84.071
X91.5Y-50.5
X91.5Y-53.0
X91.7Y-63.0
X94.3Y-63.0
X95.5Y-42.5
X96.9Y-63.0
X98.0Y-42.5
X99.5Y-63.0
X100.5Y-42.5
X102.0Y-50.45
X102.0Y-52.95
X106.023Y-76.451
X106.023Y-78.991
X106.023Y-81.531
X106.023Y-84.071
X111.0Y-100.0
X111.0Y-103.0
X112.5Y-91.5
X112.5Y-94.1
X112.5Y-110.0
X112.5Y-112.6
X114.5Y-100.0
X114.5Y-103.0
T4
X73.3Y-94.0
X73.3Y-98.5
X73.3Y-113.74
X73.3Y-118.24
X75.84Y-94.0
X75.84Y-98.5
X75.84Y-113.74
X75.84Y-118.24
X78.38Y-94.0
X78.38Y-98.5
X78.38Y-113.74
X78.38Y-118.24
X80.92Y-94.0
X80.92Y-98.5
X80.92Y-113.74
X80.92Y-118.24
X83.46Y-94.0
X83.46Y-98.5
X83.46Y-113.74
X83.46Y-118.24
X86.0Y-94.0
X86.0Y-98.5
X86.0Y-113.74
X86.0Y-118.24
X88.54Y-94.0
X88.54Y-98.5
X88.54Y-113.74
X88.54Y-118.24
X91.08Y-94.0
X91.08Y-98.5
X91.08Y-113.74
X91.08Y-118.24
X93.62Y-94.0
X93.62Y-98.5
X93.62Y-113.74
X93.62Y-118.24
X96.16Y-94.0
X96.16Y-98.5
X96.16Y-113.74
X96.16Y-118.24
X98.7Y-94.0
X98.7Y-98.5
X98.7Y-113.74
X98.7Y-118.24
X101.24Y-94.0
X101.24Y-98.5
X101.24Y-113.74
X101.24Y-118.24
X103.78Y-94.0
X103.78Y-98.5
X103.78Y-113.74
X103.78Y-118.24
X106.32Y-94.0
X106.32Y-98.5
X106.32Y-113.74
X106.32Y-118.24
M30
