%TF.GenerationSoftware,KiCad,Pcbnew,9.0.7*%
%TF.CreationDate,2026-03-17T22:44:37-04:00*%
%TF.ProjectId,MeltyPCB v2,4d656c74-7950-4434-9220-76322e6b6963,rev?*%
%TF.SameCoordinates,Original*%
%TF.FileFunction,Copper,L2,Bot*%
%TF.FilePolarity,Positive*%
%FSLAX46Y46*%
G04 Gerber Fmt 4.6, Leading zero omitted, Abs format (unit mm)*
G04 Created by KiCad (PCBNEW 9.0.7) date 2026-03-17 22:44:37*
%MOMM*%
%LPD*%
G01*
G04 APERTURE LIST*
%TA.AperFunction,ComponentPad*%
%ADD10C,1.600000*%
%TD*%
%TA.AperFunction,ComponentPad*%
%ADD11C,1.308000*%
%TD*%
%TA.AperFunction,ViaPad*%
%ADD12C,0.600000*%
%TD*%
%TA.AperFunction,Conductor*%
%ADD13C,0.200000*%
%TD*%
G04 APERTURE END LIST*
D10*
%TO.P,MAG1,1,SCL*%
%TO.N,/SCL2*%
X165000000Y-103000000D03*
%TO.P,MAG1,2,SDA*%
%TO.N,/SDA2*%
X163161522Y-104838478D03*
%TO.P,MAG1,3,3.3V*%
%TO.N,+3.3V*%
X161323045Y-106676955D03*
%TO.P,MAG1,4,GND*%
%TO.N,GND*%
X159484567Y-108515433D03*
%TD*%
%TO.P,LED1,1,Vin*%
%TO.N,/LED1*%
X104000000Y-88000000D03*
%TO.P,LED1,2,GND*%
%TO.N,GND*%
X104000000Y-90600000D03*
%TD*%
%TO.P,REC1,1,GND*%
%TO.N,GND*%
X137000000Y-99400000D03*
%TO.P,REC1,2,5V*%
%TO.N,+5V*%
X137000000Y-102000000D03*
%TO.P,REC1,3,TX*%
%TO.N,/TX*%
X137000000Y-104600000D03*
%TO.P,REC1,4,RX*%
%TO.N,/RX*%
X137000000Y-107200000D03*
%TD*%
%TO.P,REC2,1,GND*%
%TO.N,GND*%
X171000000Y-116000000D03*
%TO.P,REC2,2,5V*%
%TO.N,+5V*%
X171000000Y-118600000D03*
%TO.P,REC2,3,TX*%
%TO.N,/TX5*%
X171000000Y-121200000D03*
%TO.P,REC2,4,RX*%
%TO.N,/RX5*%
X171000000Y-123800000D03*
%TD*%
%TO.P,ESC1,1,PWM*%
%TO.N,/ESC1*%
X104000000Y-106000000D03*
%TO.P,ESC1,2,GND*%
%TO.N,GND*%
X104000000Y-108500000D03*
%TD*%
%TO.P,ACC1,1,CS*%
%TO.N,unconnected-(ACC1-CS-Pad1)*%
X113023893Y-97342064D03*
%TO.P,ACC1,2,SA0*%
%TO.N,unconnected-(ACC1-SA0-Pad2)*%
X114999550Y-99317720D03*
%TO.P,ACC1,3,INT2*%
%TO.N,unconnected-(ACC1-INT2-Pad3)*%
X116975206Y-101293377D03*
%TO.P,ACC1,4,INT1*%
%TO.N,unconnected-(ACC1-INT1-Pad4)*%
X118950862Y-103269033D03*
%TO.P,ACC1,5,SCL*%
%TO.N,/SCL*%
X124365957Y-86000000D03*
%TO.P,ACC1,6,SDA*%
%TO.N,/SDA*%
X126341613Y-87975657D03*
%TO.P,ACC1,7,3.3V*%
%TO.N,+3.3V*%
X128317269Y-89951313D03*
%TO.P,ACC1,8,GND*%
%TO.N,GND*%
X130292926Y-91926969D03*
%TD*%
%TO.P,R2,1*%
%TO.N,/LED2*%
X171000000Y-97000000D03*
%TO.P,R2,2*%
X171000000Y-100000000D03*
%TD*%
%TO.P,R1,1*%
%TO.N,/LED1*%
X104000000Y-97000000D03*
%TO.P,R1,2*%
X104000000Y-100000000D03*
%TD*%
%TO.P,ACC2,1,CS*%
%TO.N,unconnected-(ACC2-CS-Pad1)*%
X144706624Y-97342064D03*
%TO.P,ACC2,2,SA0*%
%TO.N,unconnected-(ACC2-SA0-Pad2)*%
X146682281Y-99317720D03*
%TO.P,ACC2,3,INT2*%
%TO.N,unconnected-(ACC2-INT2-Pad3)*%
X148657937Y-101293377D03*
%TO.P,ACC2,4,INT1*%
%TO.N,unconnected-(ACC2-INT1-Pad4)*%
X150633593Y-103269033D03*
%TO.P,ACC2,5,SCL*%
%TO.N,/SCL*%
X156048688Y-86000000D03*
%TO.P,ACC2,6,SDA*%
%TO.N,/SDA*%
X158024344Y-87975657D03*
%TO.P,ACC2,7,3.3V*%
%TO.N,+3.3V*%
X160000000Y-89951313D03*
%TO.P,ACC2,8,GND*%
%TO.N,GND*%
X161975657Y-91926969D03*
%TD*%
D11*
%TO.P,U1,0,RX1*%
%TO.N,/RX*%
X111000000Y-129240000D03*
%TO.P,U1,1,TX1*%
%TO.N,/TX*%
X113540000Y-129240000D03*
%TO.P,U1,2,OUT2*%
%TO.N,unconnected-(U1-OUT2-Pad2)*%
X116080000Y-129240000D03*
%TO.P,U1,3,LRCLK2*%
%TO.N,unconnected-(U1-LRCLK2-Pad3)*%
X118620000Y-129240000D03*
%TO.P,U1,3.3V_1,3.3V*%
%TO.N,+3.3V*%
X144020000Y-129240000D03*
%TO.P,U1,3.3V_2,3.3V*%
X113540000Y-114000000D03*
%TO.P,U1,4,BCLK2*%
%TO.N,unconnected-(U1-BCLK2-Pad4)*%
X121160000Y-129240000D03*
%TO.P,U1,5,IN2*%
%TO.N,unconnected-(U1-IN2-Pad5)*%
X123700000Y-129240000D03*
%TO.P,U1,6,OUT1D*%
%TO.N,/LED1*%
X126240000Y-129240000D03*
%TO.P,U1,7,RX2*%
%TO.N,/LED2*%
X128780000Y-129240000D03*
%TO.P,U1,8,TX2*%
%TO.N,unconnected-(U1-TX2-Pad8)*%
X131320000Y-129240000D03*
%TO.P,U1,9,OUT1C*%
%TO.N,unconnected-(U1-OUT1C-Pad9)*%
X133860000Y-129240000D03*
%TO.P,U1,10,CS1*%
%TO.N,unconnected-(U1-CS1-Pad10)*%
X136400000Y-129240000D03*
%TO.P,U1,11,MOSI*%
%TO.N,unconnected-(U1-MOSI-Pad11)*%
X138940000Y-129240000D03*
%TO.P,U1,12,MISO*%
%TO.N,unconnected-(U1-MISO-Pad12)*%
X141480000Y-129240000D03*
%TO.P,U1,13,SCK*%
%TO.N,/ESC1*%
X141480000Y-114000000D03*
%TO.P,U1,14,A0*%
%TO.N,unconnected-(U1-A0-Pad14)*%
X138940000Y-114000000D03*
%TO.P,U1,15,A1*%
%TO.N,/ESC2*%
X136400000Y-114000000D03*
%TO.P,U1,16,A2*%
%TO.N,/SCL2*%
X133860000Y-114000000D03*
%TO.P,U1,17,A3*%
%TO.N,/SDA2*%
X131320000Y-114000000D03*
%TO.P,U1,18,A4*%
%TO.N,/SDA*%
X128780000Y-114000000D03*
%TO.P,U1,19,A5*%
%TO.N,/SCL*%
X126240000Y-114000000D03*
%TO.P,U1,20,A6*%
%TO.N,/RX5*%
X123700000Y-114000000D03*
%TO.P,U1,21,A7*%
%TO.N,/TX5*%
X121160000Y-114000000D03*
%TO.P,U1,22,A8*%
%TO.N,unconnected-(U1-A8-Pad22)*%
X118620000Y-114000000D03*
%TO.P,U1,23,A9*%
%TO.N,unconnected-(U1-A9-Pad23)*%
X116080000Y-114000000D03*
%TO.P,U1,24,A10*%
%TO.N,unconnected-(U1-A10-Pad24)*%
X146560000Y-129240000D03*
%TO.P,U1,25,A11*%
%TO.N,unconnected-(U1-A11-Pad25)*%
X149100000Y-129240000D03*
%TO.P,U1,26,A12*%
%TO.N,unconnected-(U1-A12-Pad26)*%
X151640000Y-129240000D03*
%TO.P,U1,27,A13*%
%TO.N,unconnected-(U1-A13-Pad27)*%
X154180000Y-129240000D03*
%TO.P,U1,28,RX7*%
%TO.N,unconnected-(U1-RX7-Pad28)*%
X156720000Y-129240000D03*
%TO.P,U1,29,TX7*%
%TO.N,unconnected-(U1-TX7-Pad29)*%
X159260000Y-129240000D03*
%TO.P,U1,30,CRX3*%
%TO.N,unconnected-(U1-CRX3-Pad30)*%
X161800000Y-129240000D03*
%TO.P,U1,31,CTX3*%
%TO.N,unconnected-(U1-CTX3-Pad31)*%
X164340000Y-129240000D03*
%TO.P,U1,32,OUT1B*%
%TO.N,/RX6*%
X166880000Y-129240000D03*
%TO.P,U1,33,MCLK2*%
%TO.N,/TX6*%
X166880000Y-114000000D03*
%TO.P,U1,34,RX8*%
%TO.N,unconnected-(U1-RX8-Pad34)*%
X164340000Y-114000000D03*
%TO.P,U1,35,TX8*%
%TO.N,unconnected-(U1-TX8-Pad35)*%
X161800000Y-114000000D03*
%TO.P,U1,36,CS2*%
%TO.N,unconnected-(U1-CS2-Pad36)*%
X159260000Y-114000000D03*
%TO.P,U1,37,CS3*%
%TO.N,unconnected-(U1-CS3-Pad37)*%
X156720000Y-114000000D03*
%TO.P,U1,38,A14*%
%TO.N,unconnected-(U1-A14-Pad38)*%
X154180000Y-114000000D03*
%TO.P,U1,39,A15*%
%TO.N,unconnected-(U1-A15-Pad39)*%
X151640000Y-114000000D03*
%TO.P,U1,40,A16*%
%TO.N,unconnected-(U1-A16-Pad40)*%
X149100000Y-114000000D03*
%TO.P,U1,41,A17*%
%TO.N,unconnected-(U1-A17-Pad41)*%
X146560000Y-114000000D03*
%TO.P,U1,GND1,GND*%
%TO.N,GND*%
X108460000Y-129240000D03*
%TO.P,U1,GND2,GND*%
X144020000Y-114000000D03*
%TO.P,U1,GND3,GND*%
X111000000Y-114000000D03*
%TO.P,U1,VIN,VIN*%
%TO.N,+5V*%
X108460000Y-114000000D03*
%TD*%
D10*
%TO.P,POW1,1,5V*%
%TO.N,+5V*%
X138000000Y-86600000D03*
%TO.P,POW1,2,GND*%
%TO.N,GND*%
X138000000Y-84000000D03*
%TD*%
%TO.P,ESC2,1,PWM*%
%TO.N,/ESC2*%
X171000000Y-106000000D03*
%TO.P,ESC2,2,GND*%
%TO.N,GND*%
X171000000Y-108500000D03*
%TD*%
%TO.P,LED2,1,Vin*%
%TO.N,/LED2*%
X171000000Y-88000000D03*
%TO.P,LED2,2,GND*%
%TO.N,GND*%
X171000000Y-90600000D03*
%TD*%
%TO.P,REC3,1,GND*%
%TO.N,GND*%
X102000000Y-115200000D03*
%TO.P,REC3,2,5V*%
%TO.N,+5V*%
X102000000Y-117800000D03*
%TO.P,REC3,3,TX*%
%TO.N,/TX6*%
X102000000Y-120400000D03*
%TO.P,REC3,4,RX*%
%TO.N,/RX6*%
X102000000Y-123000000D03*
%TD*%
D12*
%TO.N,+5V*%
X156000000Y-109000000D03*
%TO.N,/TX*%
X129000000Y-112000000D03*
X117000000Y-125000000D03*
%TO.N,/TX5*%
X122000000Y-117000000D03*
X131000000Y-118000000D03*
%TO.N,/RX5*%
X131951473Y-119800000D03*
X124000000Y-116000000D03*
%TD*%
D13*
%TO.N,GND*%
X100899000Y-123899000D02*
X106240000Y-129240000D01*
X100899000Y-119943950D02*
X100899000Y-123899000D01*
X111000000Y-114000000D02*
X105701000Y-119299000D01*
X106240000Y-129240000D02*
X108460000Y-129240000D01*
X101543950Y-119299000D02*
X100899000Y-119943950D01*
X105701000Y-119299000D02*
X101543950Y-119299000D01*
%TO.N,/SCL*%
X155149688Y-85101000D02*
X156048688Y-86000000D01*
X125264957Y-85101000D02*
X144000000Y-85101000D01*
X124365957Y-86000000D02*
X125264957Y-85101000D01*
X126240000Y-102861000D02*
X144000000Y-85101000D01*
X126240000Y-114000000D02*
X126240000Y-102861000D01*
X144000000Y-85101000D02*
X155149688Y-85101000D01*
%TO.N,/SDA*%
X135000000Y-109557050D02*
X131512050Y-113045000D01*
X135000000Y-109557050D02*
X136442950Y-109557050D01*
X145581281Y-100418719D02*
X145581281Y-98463669D01*
X158024344Y-87975657D02*
X156069293Y-87975657D01*
X145581281Y-98463669D02*
X156069293Y-87975657D01*
X131512050Y-113045000D02*
X129735000Y-113045000D01*
X136442950Y-109557050D02*
X145581281Y-100418719D01*
X129735000Y-113045000D02*
X128780000Y-114000000D01*
%TO.N,+5V*%
X108460000Y-103540000D02*
X108460000Y-111340000D01*
X138000000Y-86600000D02*
X125400000Y-86600000D01*
X169899000Y-117499000D02*
X171000000Y-118600000D01*
X160045000Y-113045000D02*
X167275574Y-113045000D01*
X125400000Y-86600000D02*
X108460000Y-103540000D01*
X108460000Y-111340000D02*
X108460000Y-114000000D01*
X169899000Y-115668426D02*
X169899000Y-117499000D01*
X167275574Y-113045000D02*
X169899000Y-115668426D01*
X102000000Y-117800000D02*
X108460000Y-111340000D01*
X156000000Y-109000000D02*
X160045000Y-113045000D01*
%TO.N,/TX*%
X117000000Y-125000000D02*
X116000000Y-126000000D01*
X137000000Y-104600000D02*
X129600000Y-112000000D01*
X116000000Y-126780000D02*
X113540000Y-129240000D01*
X129600000Y-112000000D02*
X129000000Y-112000000D01*
X116000000Y-126000000D02*
X116000000Y-126780000D01*
%TO.N,/SCL2*%
X143489967Y-104370033D02*
X162072917Y-104370033D01*
X163442950Y-103000000D02*
X165000000Y-103000000D01*
X133860000Y-114000000D02*
X143489967Y-104370033D01*
X162072917Y-104370033D02*
X163442950Y-103000000D01*
%TO.N,/SDA2*%
X148145000Y-113604426D02*
X156910948Y-104838478D01*
X131320000Y-114000000D02*
X132275000Y-114955000D01*
X147190000Y-114955000D02*
X148145000Y-114000000D01*
X156910948Y-104838478D02*
X163161522Y-104838478D01*
X132275000Y-114955000D02*
X147190000Y-114955000D01*
X148145000Y-114000000D02*
X148145000Y-113604426D01*
%TO.N,/TX5*%
X131000000Y-118000000D02*
X123000000Y-118000000D01*
X123000000Y-118000000D02*
X122000000Y-117000000D01*
%TO.N,/RX5*%
X131951473Y-118101530D02*
X131951473Y-119800000D01*
X124000000Y-116000000D02*
X129849943Y-116000000D01*
X129849943Y-116000000D02*
X131951473Y-118101530D01*
%TO.N,/TX6*%
X102000000Y-120400000D02*
X160480000Y-120400000D01*
X160480000Y-120400000D02*
X166880000Y-114000000D01*
%TO.N,/RX6*%
X160640000Y-123000000D02*
X166880000Y-129240000D01*
X102000000Y-123000000D02*
X160640000Y-123000000D01*
%TO.N,+3.3V*%
X157568294Y-86874657D02*
X156923344Y-87519607D01*
X135002000Y-101640950D02*
X135002000Y-104355050D01*
X135743950Y-100899000D02*
X137620607Y-100899000D01*
X135002000Y-104355050D02*
X133956050Y-105401000D01*
X156982471Y-106676955D02*
X150055000Y-113604426D01*
X135002000Y-101640950D02*
X135743950Y-100899000D01*
X156923344Y-87519607D02*
X151000000Y-87519607D01*
X160000000Y-89951313D02*
X160000000Y-88394263D01*
X150055000Y-114395574D02*
X149094574Y-115356000D01*
X127195000Y-114395574D02*
X126635574Y-114955000D01*
X137620607Y-100899000D02*
X151000000Y-87519607D01*
X127195000Y-111249950D02*
X127195000Y-114395574D01*
X128317269Y-99222731D02*
X113540000Y-114000000D01*
X114495000Y-114955000D02*
X113540000Y-114000000D01*
X133956050Y-105401000D02*
X133043950Y-105401000D01*
X149094574Y-115356000D02*
X114896000Y-115356000D01*
X133043950Y-105401000D02*
X127195000Y-111249950D01*
X158480394Y-86874657D02*
X157568294Y-86874657D01*
X128317269Y-89951313D02*
X128317269Y-99222731D01*
X161323045Y-106676955D02*
X156982471Y-106676955D01*
X160000000Y-88394263D02*
X158480394Y-86874657D01*
X150055000Y-113604426D02*
X150055000Y-114395574D01*
X126635574Y-114955000D02*
X114495000Y-114955000D01*
X114896000Y-115356000D02*
X113540000Y-114000000D01*
%TD*%
%TA.AperFunction,Conductor*%
%TO.N,GND*%
G36*
X107299151Y-113452597D02*
G01*
X107355084Y-113494469D01*
X107379501Y-113559933D01*
X107373748Y-113607097D01*
X107333928Y-113729649D01*
X107333928Y-113729652D01*
X107315563Y-113845606D01*
X107305500Y-113909139D01*
X107305500Y-114090861D01*
X107310170Y-114120344D01*
X107333928Y-114270347D01*
X107333928Y-114270350D01*
X107390081Y-114443171D01*
X107390083Y-114443174D01*
X107472583Y-114605090D01*
X107579397Y-114752106D01*
X107707894Y-114880603D01*
X107854910Y-114987417D01*
X108016826Y-115069917D01*
X108016828Y-115069918D01*
X108102278Y-115097682D01*
X108189654Y-115126072D01*
X108369139Y-115154500D01*
X108369140Y-115154500D01*
X108550860Y-115154500D01*
X108550861Y-115154500D01*
X108730346Y-115126072D01*
X108730349Y-115126071D01*
X108730350Y-115126071D01*
X108903171Y-115069918D01*
X108903171Y-115069917D01*
X108903174Y-115069917D01*
X109065090Y-114987417D01*
X109212106Y-114880603D01*
X109340603Y-114752106D01*
X109447417Y-114605090D01*
X109529917Y-114443174D01*
X109569913Y-114320080D01*
X109586071Y-114270350D01*
X109586071Y-114270349D01*
X109586072Y-114270346D01*
X109607780Y-114133286D01*
X109637709Y-114070152D01*
X109697021Y-114033221D01*
X109766883Y-114034219D01*
X109825116Y-114072829D01*
X109852726Y-114133287D01*
X109874415Y-114270225D01*
X109930548Y-114442984D01*
X110013012Y-114604830D01*
X110013014Y-114604834D01*
X110025048Y-114621395D01*
X110025049Y-114621396D01*
X110600000Y-114046445D01*
X110600000Y-114052661D01*
X110627259Y-114154394D01*
X110679920Y-114245606D01*
X110754394Y-114320080D01*
X110845606Y-114372741D01*
X110947339Y-114400000D01*
X110953554Y-114400000D01*
X110378602Y-114974949D01*
X110378603Y-114974950D01*
X110395165Y-114986985D01*
X110395179Y-114986993D01*
X110557012Y-115069450D01*
X110729774Y-115125584D01*
X110909179Y-115154000D01*
X111090821Y-115154000D01*
X111270225Y-115125584D01*
X111442984Y-115069451D01*
X111604831Y-114986986D01*
X111621396Y-114974949D01*
X111046447Y-114400000D01*
X111052661Y-114400000D01*
X111154394Y-114372741D01*
X111245606Y-114320080D01*
X111320080Y-114245606D01*
X111372741Y-114154394D01*
X111400000Y-114052661D01*
X111400000Y-114046446D01*
X111974949Y-114621395D01*
X111986986Y-114604831D01*
X112069451Y-114442984D01*
X112125584Y-114270225D01*
X112125585Y-114270224D01*
X112147273Y-114133288D01*
X112177202Y-114070153D01*
X112236513Y-114033221D01*
X112306376Y-114034219D01*
X112364609Y-114072828D01*
X112392219Y-114133286D01*
X112413928Y-114270349D01*
X112413928Y-114270350D01*
X112470081Y-114443171D01*
X112470083Y-114443174D01*
X112552583Y-114605090D01*
X112659397Y-114752106D01*
X112787894Y-114880603D01*
X112934910Y-114987417D01*
X113096826Y-115069917D01*
X113096828Y-115069918D01*
X113182278Y-115097682D01*
X113269654Y-115126072D01*
X113449139Y-115154500D01*
X113449140Y-115154500D01*
X113630860Y-115154500D01*
X113630861Y-115154500D01*
X113753546Y-115135068D01*
X113822838Y-115144022D01*
X113860624Y-115169860D01*
X114527284Y-115836520D01*
X114527286Y-115836521D01*
X114527290Y-115836524D01*
X114656122Y-115910904D01*
X114664216Y-115915577D01*
X114816943Y-115956501D01*
X114816945Y-115956501D01*
X114982654Y-115956501D01*
X114982670Y-115956500D01*
X123075500Y-115956500D01*
X123142539Y-115976185D01*
X123188294Y-116028989D01*
X123197843Y-116072886D01*
X123198903Y-116072782D01*
X123199500Y-116078846D01*
X123230261Y-116233489D01*
X123230264Y-116233501D01*
X123290602Y-116379172D01*
X123290609Y-116379185D01*
X123378210Y-116510288D01*
X123378213Y-116510292D01*
X123489707Y-116621786D01*
X123489711Y-116621789D01*
X123620814Y-116709390D01*
X123620827Y-116709397D01*
X123758683Y-116766498D01*
X123766503Y-116769737D01*
X123921153Y-116800499D01*
X123921156Y-116800500D01*
X123921158Y-116800500D01*
X124078844Y-116800500D01*
X124078845Y-116800499D01*
X124233497Y-116769737D01*
X124379179Y-116709394D01*
X124411627Y-116687713D01*
X124510875Y-116621398D01*
X124577553Y-116600520D01*
X124579766Y-116600500D01*
X129549846Y-116600500D01*
X129616885Y-116620185D01*
X129637527Y-116636819D01*
X130188527Y-117187819D01*
X130222012Y-117249142D01*
X130217028Y-117318834D01*
X130175156Y-117374767D01*
X130109692Y-117399184D01*
X130100846Y-117399500D01*
X123300098Y-117399500D01*
X123233059Y-117379815D01*
X123212417Y-117363181D01*
X122834573Y-116985337D01*
X122801088Y-116924014D01*
X122800637Y-116921847D01*
X122769738Y-116766510D01*
X122769737Y-116766503D01*
X122746080Y-116709390D01*
X122709397Y-116620827D01*
X122709390Y-116620814D01*
X122621789Y-116489711D01*
X122621786Y-116489707D01*
X122510292Y-116378213D01*
X122510288Y-116378210D01*
X122379185Y-116290609D01*
X122379172Y-116290602D01*
X122233501Y-116230264D01*
X122233491Y-116230261D01*
X122103981Y-116204500D01*
X122103979Y-116204500D01*
X122078842Y-116199500D01*
X121921158Y-116199500D01*
X121896021Y-116204500D01*
X121896019Y-116204500D01*
X121766508Y-116230261D01*
X121766498Y-116230264D01*
X121620827Y-116290602D01*
X121620814Y-116290609D01*
X121489711Y-116378210D01*
X121489707Y-116378213D01*
X121378213Y-116489707D01*
X121378210Y-116489711D01*
X121290609Y-116620814D01*
X121290602Y-116620827D01*
X121230264Y-116766498D01*
X121230261Y-116766510D01*
X121199500Y-116921153D01*
X121199500Y-117078846D01*
X121230261Y-117233489D01*
X121230264Y-117233501D01*
X121290602Y-117379172D01*
X121290609Y-117379185D01*
X121378210Y-117510288D01*
X121378213Y-117510292D01*
X121489707Y-117621786D01*
X121489711Y-117621789D01*
X121620814Y-117709390D01*
X121620827Y-117709397D01*
X121725562Y-117752779D01*
X121766503Y-117769737D01*
X121831147Y-117782595D01*
X121921849Y-117800638D01*
X121983760Y-117833023D01*
X121985336Y-117834571D01*
X122631284Y-118480520D01*
X122631286Y-118480521D01*
X122631290Y-118480524D01*
X122768209Y-118559573D01*
X122768216Y-118559577D01*
X122920943Y-118600501D01*
X122920945Y-118600501D01*
X123086654Y-118600501D01*
X123086670Y-118600500D01*
X130420234Y-118600500D01*
X130487273Y-118620185D01*
X130489125Y-118621398D01*
X130620814Y-118709390D01*
X130620827Y-118709397D01*
X130766498Y-118769735D01*
X130766503Y-118769737D01*
X130921153Y-118800499D01*
X130921156Y-118800500D01*
X130921158Y-118800500D01*
X131078844Y-118800500D01*
X131202781Y-118775847D01*
X131272373Y-118782074D01*
X131327550Y-118824937D01*
X131350795Y-118890827D01*
X131350973Y-118897464D01*
X131350973Y-119220234D01*
X131331288Y-119287273D01*
X131330075Y-119289125D01*
X131242082Y-119420814D01*
X131242075Y-119420827D01*
X131181737Y-119566498D01*
X131181734Y-119566508D01*
X131155242Y-119699692D01*
X131122857Y-119761603D01*
X131062141Y-119796177D01*
X131033625Y-119799500D01*
X103229602Y-119799500D01*
X103162563Y-119779815D01*
X103119117Y-119731795D01*
X103112287Y-119718390D01*
X103112285Y-119718387D01*
X103112284Y-119718385D01*
X102991971Y-119552786D01*
X102847213Y-119408028D01*
X102681614Y-119287715D01*
X102549175Y-119220234D01*
X102530040Y-119210484D01*
X102479245Y-119162511D01*
X102462450Y-119094690D01*
X102484987Y-119028555D01*
X102530039Y-118989515D01*
X102681610Y-118912287D01*
X102711147Y-118890827D01*
X102847213Y-118791971D01*
X102847215Y-118791968D01*
X102847219Y-118791966D01*
X102991966Y-118647219D01*
X102991968Y-118647215D01*
X102991971Y-118647213D01*
X103055644Y-118559573D01*
X103112287Y-118481610D01*
X103205220Y-118299219D01*
X103268477Y-118104534D01*
X103300500Y-117902352D01*
X103300500Y-117697648D01*
X103268477Y-117495466D01*
X103263825Y-117481151D01*
X103261832Y-117411312D01*
X103294075Y-117355158D01*
X107168137Y-113481096D01*
X107229459Y-113447613D01*
X107299151Y-113452597D01*
G37*
%TD.AperFunction*%
%TA.AperFunction,Conductor*%
G36*
X124963143Y-87988605D02*
G01*
X125019076Y-88030477D01*
X125042282Y-88085389D01*
X125073135Y-88280191D01*
X125136394Y-88474880D01*
X125229328Y-88657270D01*
X125349641Y-88822870D01*
X125494399Y-88967628D01*
X125628720Y-89065216D01*
X125660003Y-89087944D01*
X125776220Y-89147160D01*
X125842389Y-89180875D01*
X125842391Y-89180875D01*
X125842394Y-89180877D01*
X125917314Y-89205220D01*
X126037078Y-89244134D01*
X126138170Y-89260145D01*
X126239261Y-89276157D01*
X126239262Y-89276157D01*
X126443964Y-89276157D01*
X126443965Y-89276157D01*
X126646147Y-89244134D01*
X126840832Y-89180877D01*
X127023223Y-89087944D01*
X127054506Y-89065216D01*
X127120312Y-89041735D01*
X127188366Y-89057560D01*
X127237061Y-89107665D01*
X127250937Y-89176143D01*
X127227712Y-89238416D01*
X127204983Y-89269701D01*
X127112050Y-89452089D01*
X127048791Y-89646778D01*
X127016769Y-89848961D01*
X127016769Y-90053664D01*
X127048791Y-90255847D01*
X127112050Y-90450536D01*
X127175960Y-90575966D01*
X127188207Y-90600001D01*
X127204984Y-90632926D01*
X127325297Y-90798526D01*
X127325303Y-90798532D01*
X127470050Y-90943279D01*
X127635659Y-91063600D01*
X127649062Y-91070429D01*
X127699858Y-91118401D01*
X127716769Y-91180914D01*
X127716769Y-98922633D01*
X127697084Y-98989672D01*
X127680450Y-99010314D01*
X113860624Y-112830139D01*
X113799301Y-112863624D01*
X113753545Y-112864931D01*
X113660888Y-112850255D01*
X113630861Y-112845500D01*
X113449139Y-112845500D01*
X113400101Y-112853267D01*
X113269652Y-112873928D01*
X113269649Y-112873928D01*
X113096828Y-112930081D01*
X113096825Y-112930083D01*
X112934909Y-113012583D01*
X112851030Y-113073525D01*
X112787894Y-113119397D01*
X112787892Y-113119399D01*
X112787891Y-113119399D01*
X112659399Y-113247891D01*
X112659399Y-113247892D01*
X112659397Y-113247894D01*
X112614910Y-113309125D01*
X112552583Y-113394909D01*
X112470083Y-113556825D01*
X112470081Y-113556828D01*
X112413928Y-113729649D01*
X112413928Y-113729650D01*
X112392219Y-113866713D01*
X112362289Y-113929847D01*
X112302978Y-113966778D01*
X112233115Y-113965780D01*
X112174883Y-113927170D01*
X112147273Y-113866711D01*
X112125585Y-113729775D01*
X112125584Y-113729774D01*
X112069450Y-113557012D01*
X111986993Y-113395179D01*
X111986985Y-113395165D01*
X111974950Y-113378603D01*
X111974949Y-113378602D01*
X111400000Y-113953552D01*
X111400000Y-113947339D01*
X111372741Y-113845606D01*
X111320080Y-113754394D01*
X111245606Y-113679920D01*
X111154394Y-113627259D01*
X111052661Y-113600000D01*
X111046447Y-113600000D01*
X111621396Y-113025049D01*
X111621395Y-113025048D01*
X111604834Y-113013014D01*
X111604830Y-113013012D01*
X111442984Y-112930548D01*
X111270225Y-112874415D01*
X111090821Y-112846000D01*
X110909179Y-112846000D01*
X110729774Y-112874415D01*
X110557015Y-112930548D01*
X110395170Y-113013012D01*
X110395161Y-113013018D01*
X110378603Y-113025048D01*
X110378602Y-113025049D01*
X110953554Y-113600000D01*
X110947339Y-113600000D01*
X110845606Y-113627259D01*
X110754394Y-113679920D01*
X110679920Y-113754394D01*
X110627259Y-113845606D01*
X110600000Y-113947339D01*
X110600000Y-113953553D01*
X110025049Y-113378602D01*
X110025048Y-113378603D01*
X110013018Y-113395161D01*
X110013012Y-113395170D01*
X109930548Y-113557015D01*
X109874415Y-113729774D01*
X109852726Y-113866712D01*
X109822797Y-113929847D01*
X109763485Y-113966778D01*
X109693622Y-113965780D01*
X109635390Y-113927170D01*
X109607780Y-113866712D01*
X109589990Y-113754394D01*
X109586072Y-113729654D01*
X109586071Y-113729650D01*
X109586071Y-113729649D01*
X109529918Y-113556828D01*
X109529916Y-113556825D01*
X109498145Y-113494469D01*
X109447417Y-113394910D01*
X109340603Y-113247894D01*
X109212106Y-113119397D01*
X109108985Y-113044475D01*
X109106459Y-113042429D01*
X109088374Y-113016246D01*
X109068949Y-112991054D01*
X109068192Y-112987027D01*
X109066751Y-112984940D01*
X109066524Y-112978146D01*
X109060500Y-112946067D01*
X109060500Y-111429059D01*
X109060501Y-111429046D01*
X109060501Y-111253347D01*
X109060500Y-111253329D01*
X109060500Y-103840097D01*
X109080185Y-103773058D01*
X109096819Y-103752416D01*
X111287342Y-101561893D01*
X113490067Y-99359167D01*
X113551388Y-99325684D01*
X113621080Y-99330668D01*
X113677013Y-99372540D01*
X113700219Y-99427452D01*
X113731072Y-99622254D01*
X113794331Y-99816943D01*
X113887265Y-99999333D01*
X114007578Y-100164933D01*
X114152336Y-100309691D01*
X114292002Y-100411162D01*
X114317940Y-100430007D01*
X114415091Y-100479508D01*
X114500326Y-100522938D01*
X114500328Y-100522938D01*
X114500331Y-100522940D01*
X114581348Y-100549264D01*
X114695015Y-100586197D01*
X114700742Y-100587104D01*
X114897198Y-100618220D01*
X114897199Y-100618220D01*
X115101901Y-100618220D01*
X115101902Y-100618220D01*
X115304084Y-100586197D01*
X115498769Y-100522940D01*
X115681160Y-100430007D01*
X115712445Y-100407276D01*
X115778252Y-100383797D01*
X115846306Y-100399622D01*
X115895001Y-100449728D01*
X115908876Y-100518206D01*
X115885650Y-100580479D01*
X115862920Y-100611764D01*
X115769987Y-100794153D01*
X115706728Y-100988842D01*
X115674706Y-101191025D01*
X115674706Y-101395728D01*
X115706728Y-101597911D01*
X115769987Y-101792600D01*
X115862921Y-101974990D01*
X115983234Y-102140590D01*
X116127992Y-102285348D01*
X116261838Y-102382591D01*
X116293596Y-102405664D01*
X116409813Y-102464880D01*
X116475982Y-102498595D01*
X116475984Y-102498595D01*
X116475987Y-102498597D01*
X116558943Y-102525551D01*
X116670671Y-102561854D01*
X116771763Y-102577865D01*
X116872854Y-102593877D01*
X116872855Y-102593877D01*
X117077557Y-102593877D01*
X117077558Y-102593877D01*
X117279740Y-102561854D01*
X117474425Y-102498597D01*
X117656816Y-102405664D01*
X117688099Y-102382936D01*
X117753905Y-102359455D01*
X117821959Y-102375280D01*
X117870654Y-102425385D01*
X117884530Y-102493863D01*
X117861305Y-102556136D01*
X117838576Y-102587421D01*
X117745643Y-102769809D01*
X117682384Y-102964498D01*
X117650362Y-103166681D01*
X117650362Y-103371384D01*
X117682384Y-103573567D01*
X117745643Y-103768256D01*
X117838577Y-103950646D01*
X117958890Y-104116246D01*
X118103648Y-104261004D01*
X118256643Y-104372159D01*
X118269252Y-104381320D01*
X118372852Y-104434107D01*
X118451638Y-104474251D01*
X118451640Y-104474251D01*
X118451643Y-104474253D01*
X118555999Y-104508160D01*
X118646327Y-104537510D01*
X118747419Y-104553521D01*
X118848510Y-104569533D01*
X118848511Y-104569533D01*
X119053213Y-104569533D01*
X119053214Y-104569533D01*
X119255396Y-104537510D01*
X119450081Y-104474253D01*
X119632472Y-104381320D01*
X119750641Y-104295466D01*
X119798075Y-104261004D01*
X119798077Y-104261001D01*
X119798081Y-104260999D01*
X119942828Y-104116252D01*
X119942830Y-104116248D01*
X119942833Y-104116246D01*
X120014249Y-104017949D01*
X120063149Y-103950643D01*
X120156082Y-103768252D01*
X120219339Y-103573567D01*
X120251362Y-103371385D01*
X120251362Y-103166681D01*
X120242746Y-103112284D01*
X120219339Y-102964498D01*
X120156080Y-102769809D01*
X120066437Y-102593877D01*
X120063149Y-102587423D01*
X120013786Y-102519480D01*
X119942833Y-102421819D01*
X119798075Y-102277061D01*
X119632475Y-102156748D01*
X119632474Y-102156747D01*
X119632472Y-102156746D01*
X119575515Y-102127724D01*
X119450085Y-102063814D01*
X119255396Y-102000555D01*
X119080857Y-101972911D01*
X119053214Y-101968533D01*
X118848510Y-101968533D01*
X118824191Y-101972384D01*
X118646327Y-102000555D01*
X118451638Y-102063814D01*
X118269250Y-102156747D01*
X118237965Y-102179476D01*
X118172158Y-102202954D01*
X118104105Y-102187127D01*
X118055411Y-102137020D01*
X118041537Y-102068542D01*
X118064765Y-102006270D01*
X118087490Y-101974991D01*
X118087491Y-101974990D01*
X118087493Y-101974987D01*
X118180426Y-101792596D01*
X118243683Y-101597911D01*
X118275706Y-101395729D01*
X118275706Y-101191025D01*
X118263235Y-101112287D01*
X118243683Y-100988842D01*
X118214333Y-100898514D01*
X118180426Y-100794158D01*
X118180424Y-100794155D01*
X118180424Y-100794153D01*
X118123081Y-100681613D01*
X118087493Y-100611767D01*
X118079762Y-100601126D01*
X117967177Y-100446163D01*
X117822419Y-100301405D01*
X117656819Y-100181092D01*
X117656818Y-100181091D01*
X117656816Y-100181090D01*
X117599859Y-100152068D01*
X117474429Y-100088158D01*
X117279740Y-100024899D01*
X117105201Y-99997255D01*
X117077558Y-99992877D01*
X116872854Y-99992877D01*
X116848535Y-99996728D01*
X116670671Y-100024899D01*
X116475982Y-100088158D01*
X116293590Y-100181092D01*
X116262306Y-100203821D01*
X116196499Y-100227299D01*
X116128446Y-100211472D01*
X116079753Y-100161364D01*
X116065879Y-100092886D01*
X116089105Y-100030616D01*
X116111837Y-99999330D01*
X116204770Y-99816939D01*
X116268027Y-99622254D01*
X116300050Y-99420072D01*
X116300050Y-99215368D01*
X116287783Y-99137918D01*
X116268027Y-99013185D01*
X116204768Y-98818496D01*
X116153890Y-98718644D01*
X116111837Y-98636110D01*
X116047302Y-98547284D01*
X115991521Y-98470506D01*
X115846763Y-98325748D01*
X115681163Y-98205435D01*
X115681162Y-98205434D01*
X115681160Y-98205433D01*
X115624203Y-98176411D01*
X115498773Y-98112501D01*
X115304084Y-98049242D01*
X115127625Y-98021294D01*
X115109281Y-98018388D01*
X115046147Y-97988460D01*
X115009216Y-97929148D01*
X115010214Y-97859286D01*
X115040997Y-97808237D01*
X124832130Y-88017104D01*
X124893451Y-87983621D01*
X124963143Y-87988605D01*
G37*
%TD.AperFunction*%
%TA.AperFunction,Conductor*%
G36*
X155697334Y-104990218D02*
G01*
X155743089Y-105043022D01*
X155753033Y-105112180D01*
X155724008Y-105175736D01*
X155717976Y-105182214D01*
X147664481Y-113235708D01*
X147664475Y-113235716D01*
X147656900Y-113248837D01*
X147606333Y-113297052D01*
X147537726Y-113310274D01*
X147472861Y-113284306D01*
X147449198Y-113259724D01*
X147440603Y-113247894D01*
X147312106Y-113119397D01*
X147165090Y-113012583D01*
X147003174Y-112930083D01*
X147003171Y-112930081D01*
X146830348Y-112873928D01*
X146699899Y-112853267D01*
X146650861Y-112845500D01*
X146469139Y-112845500D01*
X146420101Y-112853267D01*
X146289652Y-112873928D01*
X146289649Y-112873928D01*
X146116828Y-112930081D01*
X146116825Y-112930083D01*
X145954909Y-113012583D01*
X145871030Y-113073525D01*
X145807894Y-113119397D01*
X145807892Y-113119399D01*
X145807891Y-113119399D01*
X145679399Y-113247891D01*
X145679399Y-113247892D01*
X145679397Y-113247894D01*
X145634910Y-113309125D01*
X145572583Y-113394909D01*
X145490083Y-113556825D01*
X145490081Y-113556828D01*
X145433928Y-113729649D01*
X145433928Y-113729650D01*
X145412219Y-113866713D01*
X145382289Y-113929847D01*
X145322978Y-113966778D01*
X145253115Y-113965780D01*
X145194883Y-113927170D01*
X145167273Y-113866711D01*
X145145585Y-113729775D01*
X145145584Y-113729774D01*
X145089450Y-113557012D01*
X145006993Y-113395179D01*
X145006985Y-113395165D01*
X144994950Y-113378603D01*
X144994949Y-113378602D01*
X144420000Y-113953551D01*
X144420000Y-113947339D01*
X144392741Y-113845606D01*
X144340080Y-113754394D01*
X144265606Y-113679920D01*
X144174394Y-113627259D01*
X144072661Y-113600000D01*
X144066447Y-113600000D01*
X144641396Y-113025049D01*
X144641395Y-113025048D01*
X144624834Y-113013014D01*
X144624830Y-113013012D01*
X144462984Y-112930548D01*
X144290225Y-112874415D01*
X144110821Y-112846000D01*
X143929179Y-112846000D01*
X143749774Y-112874415D01*
X143577015Y-112930548D01*
X143415170Y-113013012D01*
X143415161Y-113013018D01*
X143398603Y-113025048D01*
X143398602Y-113025049D01*
X143973554Y-113600000D01*
X143967339Y-113600000D01*
X143865606Y-113627259D01*
X143774394Y-113679920D01*
X143699920Y-113754394D01*
X143647259Y-113845606D01*
X143620000Y-113947339D01*
X143620000Y-113953553D01*
X143045049Y-113378602D01*
X143045048Y-113378603D01*
X143033018Y-113395161D01*
X143033012Y-113395170D01*
X142950548Y-113557015D01*
X142894415Y-113729774D01*
X142872726Y-113866712D01*
X142842797Y-113929847D01*
X142783485Y-113966778D01*
X142713622Y-113965780D01*
X142655390Y-113927170D01*
X142627780Y-113866712D01*
X142609990Y-113754394D01*
X142606072Y-113729654D01*
X142606071Y-113729650D01*
X142606071Y-113729649D01*
X142549918Y-113556828D01*
X142549916Y-113556825D01*
X142518145Y-113494469D01*
X142467417Y-113394910D01*
X142360603Y-113247894D01*
X142232106Y-113119397D01*
X142085090Y-113012583D01*
X141923174Y-112930083D01*
X141923171Y-112930081D01*
X141750348Y-112873928D01*
X141619899Y-112853267D01*
X141570861Y-112845500D01*
X141389139Y-112845500D01*
X141340101Y-112853267D01*
X141209652Y-112873928D01*
X141209649Y-112873928D01*
X141036828Y-112930081D01*
X141036825Y-112930083D01*
X140874909Y-113012583D01*
X140791030Y-113073525D01*
X140727894Y-113119397D01*
X140727892Y-113119399D01*
X140727891Y-113119399D01*
X140599399Y-113247891D01*
X140599399Y-113247892D01*
X140599397Y-113247894D01*
X140554910Y-113309125D01*
X140492583Y-113394909D01*
X140410083Y-113556825D01*
X140410081Y-113556828D01*
X140353928Y-113729649D01*
X140353928Y-113729652D01*
X140332473Y-113865114D01*
X140302544Y-113928249D01*
X140243232Y-113965180D01*
X140173370Y-113964182D01*
X140115137Y-113925572D01*
X140087527Y-113865114D01*
X140069990Y-113754394D01*
X140066072Y-113729654D01*
X140066071Y-113729650D01*
X140066071Y-113729649D01*
X140009918Y-113556828D01*
X140009916Y-113556825D01*
X139978145Y-113494469D01*
X139927417Y-113394910D01*
X139820603Y-113247894D01*
X139692106Y-113119397D01*
X139545090Y-113012583D01*
X139383174Y-112930083D01*
X139383171Y-112930081D01*
X139210348Y-112873928D01*
X139079899Y-112853267D01*
X139030861Y-112845500D01*
X138849139Y-112845500D01*
X138800101Y-112853267D01*
X138669652Y-112873928D01*
X138669649Y-112873928D01*
X138496828Y-112930081D01*
X138496825Y-112930083D01*
X138334909Y-113012583D01*
X138251030Y-113073525D01*
X138187894Y-113119397D01*
X138187892Y-113119399D01*
X138187891Y-113119399D01*
X138059399Y-113247891D01*
X138059399Y-113247892D01*
X138059397Y-113247894D01*
X138014910Y-113309125D01*
X137952583Y-113394909D01*
X137870083Y-113556825D01*
X137870081Y-113556828D01*
X137813928Y-113729649D01*
X137813928Y-113729652D01*
X137792473Y-113865114D01*
X137762544Y-113928249D01*
X137703232Y-113965180D01*
X137633370Y-113964182D01*
X137575137Y-113925572D01*
X137547527Y-113865114D01*
X137529990Y-113754394D01*
X137526072Y-113729654D01*
X137526071Y-113729650D01*
X137526071Y-113729649D01*
X137469918Y-113556828D01*
X137469916Y-113556825D01*
X137438145Y-113494469D01*
X137387417Y-113394910D01*
X137280603Y-113247894D01*
X137152106Y-113119397D01*
X137005090Y-113012583D01*
X136843174Y-112930083D01*
X136843171Y-112930081D01*
X136670348Y-112873928D01*
X136539899Y-112853267D01*
X136490861Y-112845500D01*
X136309139Y-112845500D01*
X136260101Y-112853267D01*
X136156846Y-112869621D01*
X136087552Y-112860666D01*
X136034100Y-112815670D01*
X136013461Y-112748919D01*
X136032186Y-112681605D01*
X136049767Y-112659467D01*
X139443989Y-109265246D01*
X143702383Y-105006852D01*
X143763706Y-104973367D01*
X143790064Y-104970533D01*
X155630295Y-104970533D01*
X155697334Y-104990218D01*
G37*
%TD.AperFunction*%
%TA.AperFunction,Conductor*%
G36*
X154652007Y-85706766D02*
G01*
X154670700Y-85707034D01*
X154684836Y-85716406D01*
X154701109Y-85721185D01*
X154713350Y-85735312D01*
X154728933Y-85745644D01*
X154735758Y-85761172D01*
X154746864Y-85773989D01*
X154749524Y-85792493D01*
X154757047Y-85809608D01*
X154756589Y-85841628D01*
X154756808Y-85843147D01*
X154756546Y-85844874D01*
X154754244Y-85859414D01*
X154748188Y-85897648D01*
X154748188Y-86102351D01*
X154780210Y-86304534D01*
X154843469Y-86499223D01*
X154936402Y-86681612D01*
X154965907Y-86722223D01*
X154989386Y-86788029D01*
X154973560Y-86856083D01*
X154923454Y-86904777D01*
X154865588Y-86919107D01*
X151086669Y-86919107D01*
X151086653Y-86919106D01*
X151079057Y-86919106D01*
X150920943Y-86919106D01*
X150813587Y-86947872D01*
X150768210Y-86960031D01*
X150768209Y-86960032D01*
X150718096Y-86988966D01*
X150718095Y-86988967D01*
X150685080Y-87008028D01*
X150631285Y-87039086D01*
X150631282Y-87039088D01*
X150519478Y-87150893D01*
X138482021Y-99188349D01*
X138420698Y-99221834D01*
X138351006Y-99216850D01*
X138295073Y-99174978D01*
X138271866Y-99120062D01*
X138267989Y-99095579D01*
X138204755Y-98900968D01*
X138111859Y-98718650D01*
X138079474Y-98674077D01*
X138079474Y-98674076D01*
X137482962Y-99270589D01*
X137465925Y-99207007D01*
X137400099Y-99092993D01*
X137307007Y-98999901D01*
X137192993Y-98934075D01*
X137129408Y-98917037D01*
X137725922Y-98320524D01*
X137725921Y-98320523D01*
X137681359Y-98288147D01*
X137681350Y-98288141D01*
X137499031Y-98195244D01*
X137304417Y-98132009D01*
X137102317Y-98100000D01*
X136897683Y-98100000D01*
X136695582Y-98132009D01*
X136500968Y-98195244D01*
X136318644Y-98288143D01*
X136274077Y-98320523D01*
X136274077Y-98320524D01*
X136870591Y-98917037D01*
X136807007Y-98934075D01*
X136692993Y-98999901D01*
X136599901Y-99092993D01*
X136534075Y-99207007D01*
X136517037Y-99270590D01*
X135920524Y-98674077D01*
X135920523Y-98674077D01*
X135888143Y-98718644D01*
X135795244Y-98900968D01*
X135732009Y-99095582D01*
X135700000Y-99297682D01*
X135700000Y-99502317D01*
X135732009Y-99704417D01*
X135795244Y-99899031D01*
X135888142Y-100081353D01*
X135902862Y-100101613D01*
X135926343Y-100167419D01*
X135910518Y-100235473D01*
X135860413Y-100284168D01*
X135802545Y-100298499D01*
X135664893Y-100298499D01*
X135588529Y-100318961D01*
X135512164Y-100339423D01*
X135512159Y-100339426D01*
X135375240Y-100418475D01*
X135375232Y-100418481D01*
X134521481Y-101272232D01*
X134521480Y-101272234D01*
X134472139Y-101357697D01*
X134471361Y-101359044D01*
X134471359Y-101359046D01*
X134442425Y-101409159D01*
X134442424Y-101409160D01*
X134442423Y-101409165D01*
X134401499Y-101561893D01*
X134401499Y-101561895D01*
X134401499Y-101729996D01*
X134401500Y-101730009D01*
X134401500Y-104054952D01*
X134381815Y-104121991D01*
X134365181Y-104142633D01*
X133743634Y-104764181D01*
X133682311Y-104797666D01*
X133655953Y-104800500D01*
X132964890Y-104800500D01*
X132923969Y-104811464D01*
X132923969Y-104811465D01*
X132886701Y-104821451D01*
X132812164Y-104841423D01*
X132812159Y-104841426D01*
X132675240Y-104920475D01*
X132675232Y-104920481D01*
X127052181Y-110543533D01*
X126990858Y-110577018D01*
X126921166Y-110572034D01*
X126865233Y-110530162D01*
X126840816Y-110464698D01*
X126840500Y-110455852D01*
X126840500Y-103161097D01*
X126860185Y-103094058D01*
X126876819Y-103073416D01*
X144212416Y-85737819D01*
X144273739Y-85704334D01*
X144300097Y-85701500D01*
X154634070Y-85701500D01*
X154652007Y-85706766D01*
G37*
%TD.AperFunction*%
%TA.AperFunction,Conductor*%
G36*
X142317942Y-85721185D02*
G01*
X142363697Y-85773989D01*
X142373641Y-85843147D01*
X142344616Y-85906703D01*
X142338584Y-85913181D01*
X129129450Y-99122314D01*
X129068127Y-99155799D01*
X128998435Y-99150815D01*
X128942502Y-99108943D01*
X128918085Y-99043479D01*
X128917769Y-99034633D01*
X128917769Y-92608065D01*
X128937454Y-92541026D01*
X128990258Y-92495271D01*
X129059416Y-92485327D01*
X129122972Y-92514352D01*
X129152254Y-92551771D01*
X129181064Y-92608316D01*
X129301343Y-92773863D01*
X129301343Y-92773864D01*
X129446030Y-92918551D01*
X129611576Y-93038828D01*
X129793894Y-93131723D01*
X129988504Y-93194957D01*
X130042926Y-93203576D01*
X130042926Y-92359981D01*
X130099933Y-92392894D01*
X130227100Y-92426969D01*
X130358752Y-92426969D01*
X130485919Y-92392894D01*
X130542926Y-92359981D01*
X130542926Y-93203575D01*
X130597347Y-93194957D01*
X130791957Y-93131723D01*
X130974275Y-93038828D01*
X131139820Y-92918551D01*
X131139821Y-92918551D01*
X131284508Y-92773864D01*
X131284508Y-92773863D01*
X131404785Y-92608318D01*
X131497681Y-92425998D01*
X131560916Y-92231382D01*
X131569535Y-92176969D01*
X130725938Y-92176969D01*
X130758851Y-92119962D01*
X130792926Y-91992795D01*
X130792926Y-91861143D01*
X130758851Y-91733976D01*
X130725938Y-91676969D01*
X131569535Y-91676969D01*
X131560916Y-91622555D01*
X131497681Y-91427939D01*
X131404785Y-91245619D01*
X131284508Y-91080074D01*
X131284508Y-91080073D01*
X131139821Y-90935386D01*
X130974275Y-90815109D01*
X130791955Y-90722213D01*
X130597339Y-90658978D01*
X130542926Y-90650359D01*
X130542926Y-91493957D01*
X130485919Y-91461044D01*
X130358752Y-91426969D01*
X130227100Y-91426969D01*
X130099933Y-91461044D01*
X130042926Y-91493957D01*
X130042926Y-90650359D01*
X129988512Y-90658978D01*
X129793896Y-90722213D01*
X129611577Y-90815108D01*
X129579079Y-90838720D01*
X129513272Y-90862199D01*
X129445218Y-90846373D01*
X129396524Y-90796267D01*
X129382649Y-90727789D01*
X129405877Y-90665515D01*
X129429553Y-90632927D01*
X129429554Y-90632926D01*
X129429556Y-90632923D01*
X129522489Y-90450532D01*
X129585746Y-90255847D01*
X129617769Y-90053665D01*
X129617769Y-89848961D01*
X129585746Y-89646779D01*
X129522489Y-89452094D01*
X129522487Y-89452091D01*
X129522487Y-89452089D01*
X129476986Y-89362790D01*
X129429556Y-89269703D01*
X129382707Y-89205220D01*
X129309240Y-89104099D01*
X129164482Y-88959341D01*
X128998882Y-88839028D01*
X128998881Y-88839027D01*
X128998879Y-88839026D01*
X128941922Y-88810004D01*
X128816492Y-88746094D01*
X128621803Y-88682835D01*
X128447264Y-88655191D01*
X128419621Y-88650813D01*
X128214917Y-88650813D01*
X128190598Y-88654664D01*
X128012734Y-88682835D01*
X127818045Y-88746094D01*
X127635657Y-88839027D01*
X127604372Y-88861756D01*
X127538565Y-88885234D01*
X127470512Y-88869407D01*
X127421818Y-88819300D01*
X127407944Y-88750822D01*
X127431172Y-88688550D01*
X127453897Y-88657271D01*
X127453898Y-88657270D01*
X127453900Y-88657267D01*
X127546833Y-88474876D01*
X127610090Y-88280191D01*
X127642113Y-88078009D01*
X127642113Y-87873305D01*
X127613946Y-87695466D01*
X127610090Y-87671122D01*
X127580740Y-87580794D01*
X127546833Y-87476438D01*
X127546831Y-87476435D01*
X127546831Y-87476433D01*
X127498100Y-87380795D01*
X127485204Y-87312126D01*
X127511480Y-87247386D01*
X127568586Y-87207128D01*
X127608585Y-87200500D01*
X136770398Y-87200500D01*
X136837437Y-87220185D01*
X136880883Y-87268205D01*
X136887715Y-87281614D01*
X137008028Y-87447213D01*
X137152786Y-87591971D01*
X137261732Y-87671123D01*
X137318390Y-87712287D01*
X137434607Y-87771503D01*
X137500776Y-87805218D01*
X137500778Y-87805218D01*
X137500781Y-87805220D01*
X137605137Y-87839127D01*
X137695465Y-87868477D01*
X137725948Y-87873305D01*
X137897648Y-87900500D01*
X137897649Y-87900500D01*
X138102351Y-87900500D01*
X138102352Y-87900500D01*
X138304534Y-87868477D01*
X138499219Y-87805220D01*
X138681610Y-87712287D01*
X138774590Y-87644732D01*
X138847213Y-87591971D01*
X138847215Y-87591968D01*
X138847219Y-87591966D01*
X138991966Y-87447219D01*
X138991968Y-87447215D01*
X138991971Y-87447213D01*
X139072577Y-87336266D01*
X139112287Y-87281610D01*
X139205220Y-87099219D01*
X139268477Y-86904534D01*
X139300500Y-86702352D01*
X139300500Y-86497648D01*
X139268477Y-86295466D01*
X139261553Y-86274157D01*
X139230066Y-86177250D01*
X139205220Y-86100781D01*
X139205218Y-86100778D01*
X139205218Y-86100776D01*
X139124135Y-85941643D01*
X139112287Y-85918390D01*
X139097752Y-85898385D01*
X139074273Y-85832580D01*
X139090098Y-85764526D01*
X139140204Y-85715831D01*
X139198071Y-85701500D01*
X142250903Y-85701500D01*
X142317942Y-85721185D01*
G37*
%TD.AperFunction*%
%TA.AperFunction,Conductor*%
G36*
X175442539Y-79520185D02*
G01*
X175488294Y-79572989D01*
X175499500Y-79624500D01*
X175499500Y-131375500D01*
X175479815Y-131442539D01*
X175427011Y-131488294D01*
X175375500Y-131499500D01*
X99624500Y-131499500D01*
X99557461Y-131479815D01*
X99511706Y-131427011D01*
X99500500Y-131375500D01*
X99500500Y-128878711D01*
X100149500Y-128878711D01*
X100149500Y-129121288D01*
X100181161Y-129361785D01*
X100243947Y-129596104D01*
X100336773Y-129820205D01*
X100336777Y-129820214D01*
X100351139Y-129845090D01*
X100458064Y-130030289D01*
X100458066Y-130030292D01*
X100458067Y-130030293D01*
X100605733Y-130222736D01*
X100605739Y-130222743D01*
X100777256Y-130394260D01*
X100777262Y-130394265D01*
X100969711Y-130541936D01*
X101179788Y-130663224D01*
X101403900Y-130756054D01*
X101638211Y-130818838D01*
X101818586Y-130842584D01*
X101878711Y-130850500D01*
X101878712Y-130850500D01*
X102121289Y-130850500D01*
X102169388Y-130844167D01*
X102361789Y-130818838D01*
X102596100Y-130756054D01*
X102820212Y-130663224D01*
X103030289Y-130541936D01*
X103222738Y-130394265D01*
X103394265Y-130222738D01*
X103541936Y-130030289D01*
X103663224Y-129820212D01*
X103756054Y-129596100D01*
X103818838Y-129361789D01*
X103839587Y-129204182D01*
X103849601Y-129128121D01*
X103850500Y-129121287D01*
X103850500Y-128878711D01*
X103818838Y-128638214D01*
X103818838Y-128638211D01*
X103756054Y-128403900D01*
X103756051Y-128403892D01*
X103737772Y-128359761D01*
X103663226Y-128179794D01*
X103663224Y-128179788D01*
X103541936Y-127969711D01*
X103394265Y-127777262D01*
X103394260Y-127777256D01*
X103222743Y-127605739D01*
X103222736Y-127605733D01*
X103030293Y-127458067D01*
X103030292Y-127458066D01*
X103030289Y-127458064D01*
X102820212Y-127336776D01*
X102820205Y-127336773D01*
X102596104Y-127243947D01*
X102361785Y-127181161D01*
X102121289Y-127149500D01*
X102121288Y-127149500D01*
X101878712Y-127149500D01*
X101878711Y-127149500D01*
X101638214Y-127181161D01*
X101403895Y-127243947D01*
X101179794Y-127336773D01*
X101179785Y-127336777D01*
X100969706Y-127458067D01*
X100777263Y-127605733D01*
X100777256Y-127605739D01*
X100605739Y-127777256D01*
X100605733Y-127777263D01*
X100458067Y-127969706D01*
X100336777Y-128179785D01*
X100336773Y-128179794D01*
X100243947Y-128403895D01*
X100181161Y-128638214D01*
X100149500Y-128878711D01*
X99500500Y-128878711D01*
X99500500Y-117697648D01*
X100699500Y-117697648D01*
X100699500Y-117902351D01*
X100731522Y-118104534D01*
X100794781Y-118299223D01*
X100887715Y-118481613D01*
X101008028Y-118647213D01*
X101152786Y-118791971D01*
X101297988Y-118897464D01*
X101318390Y-118912287D01*
X101452252Y-118980493D01*
X101469958Y-118989515D01*
X101520754Y-119037490D01*
X101537549Y-119105311D01*
X101515012Y-119171446D01*
X101469958Y-119210485D01*
X101318386Y-119287715D01*
X101152786Y-119408028D01*
X101008028Y-119552786D01*
X100887715Y-119718386D01*
X100794781Y-119900776D01*
X100731522Y-120095465D01*
X100699500Y-120297648D01*
X100699500Y-120502351D01*
X100731522Y-120704534D01*
X100794781Y-120899223D01*
X100887715Y-121081613D01*
X101008028Y-121247213D01*
X101152786Y-121391971D01*
X101307719Y-121504534D01*
X101318390Y-121512287D01*
X101452252Y-121580493D01*
X101469958Y-121589515D01*
X101520754Y-121637490D01*
X101537549Y-121705311D01*
X101515012Y-121771446D01*
X101469958Y-121810485D01*
X101318386Y-121887715D01*
X101152786Y-122008028D01*
X101008028Y-122152786D01*
X100887715Y-122318386D01*
X100794781Y-122500776D01*
X100731522Y-122695465D01*
X100699500Y-122897648D01*
X100699500Y-123102351D01*
X100731522Y-123304534D01*
X100794781Y-123499223D01*
X100887715Y-123681613D01*
X101008028Y-123847213D01*
X101152786Y-123991971D01*
X101307719Y-124104534D01*
X101318390Y-124112287D01*
X101434607Y-124171503D01*
X101500776Y-124205218D01*
X101500778Y-124205218D01*
X101500781Y-124205220D01*
X101605137Y-124239127D01*
X101695465Y-124268477D01*
X101796557Y-124284488D01*
X101897648Y-124300500D01*
X101897649Y-124300500D01*
X102102351Y-124300500D01*
X102102352Y-124300500D01*
X102304534Y-124268477D01*
X102499219Y-124205220D01*
X102681610Y-124112287D01*
X102774590Y-124044732D01*
X102847213Y-123991971D01*
X102847215Y-123991968D01*
X102847219Y-123991966D01*
X102991966Y-123847219D01*
X102991968Y-123847215D01*
X102991971Y-123847213D01*
X103112284Y-123681614D01*
X103112285Y-123681613D01*
X103112287Y-123681610D01*
X103119117Y-123668204D01*
X103167091Y-123617409D01*
X103229602Y-123600500D01*
X160339903Y-123600500D01*
X160406942Y-123620185D01*
X160427584Y-123636819D01*
X164690230Y-127899466D01*
X164723715Y-127960789D01*
X164718731Y-128030481D01*
X164676859Y-128086414D01*
X164611395Y-128110831D01*
X164583152Y-128109620D01*
X164430861Y-128085500D01*
X164249139Y-128085500D01*
X164189310Y-128094976D01*
X164069652Y-128113928D01*
X164069649Y-128113928D01*
X163896828Y-128170081D01*
X163896825Y-128170083D01*
X163734909Y-128252583D01*
X163651030Y-128313525D01*
X163587894Y-128359397D01*
X163587892Y-128359399D01*
X163587891Y-128359399D01*
X163459399Y-128487891D01*
X163459399Y-128487892D01*
X163459397Y-128487894D01*
X163413525Y-128551030D01*
X163352583Y-128634909D01*
X163270083Y-128796825D01*
X163270081Y-128796828D01*
X163213928Y-128969649D01*
X163213928Y-128969652D01*
X163192473Y-129105114D01*
X163162544Y-129168249D01*
X163103232Y-129205180D01*
X163033370Y-129204182D01*
X162975137Y-129165572D01*
X162947527Y-129105114D01*
X162929990Y-128994394D01*
X162926072Y-128969654D01*
X162926071Y-128969650D01*
X162926071Y-128969649D01*
X162869918Y-128796828D01*
X162869916Y-128796825D01*
X162789099Y-128638211D01*
X162787417Y-128634910D01*
X162680603Y-128487894D01*
X162552106Y-128359397D01*
X162405090Y-128252583D01*
X162243174Y-128170083D01*
X162243171Y-128170081D01*
X162070348Y-128113928D01*
X161950689Y-128094976D01*
X161890861Y-128085500D01*
X161709139Y-128085500D01*
X161649310Y-128094976D01*
X161529652Y-128113928D01*
X161529649Y-128113928D01*
X161356828Y-128170081D01*
X161356825Y-128170083D01*
X161194909Y-128252583D01*
X161111030Y-128313525D01*
X161047894Y-128359397D01*
X161047892Y-128359399D01*
X161047891Y-128359399D01*
X160919399Y-128487891D01*
X160919399Y-128487892D01*
X160919397Y-128487894D01*
X160873525Y-128551030D01*
X160812583Y-128634909D01*
X160730083Y-128796825D01*
X160730081Y-128796828D01*
X160673928Y-128969649D01*
X160673928Y-128969652D01*
X160652473Y-129105114D01*
X160622544Y-129168249D01*
X160563232Y-129205180D01*
X160493370Y-129204182D01*
X160435137Y-129165572D01*
X160407527Y-129105114D01*
X160389990Y-128994394D01*
X160386072Y-128969654D01*
X160386071Y-128969650D01*
X160386071Y-128969649D01*
X160329918Y-128796828D01*
X160329916Y-128796825D01*
X160249099Y-128638211D01*
X160247417Y-128634910D01*
X160140603Y-128487894D01*
X160012106Y-128359397D01*
X159865090Y-128252583D01*
X159703174Y-128170083D01*
X159703171Y-128170081D01*
X159530348Y-128113928D01*
X159410689Y-128094976D01*
X159350861Y-128085500D01*
X159169139Y-128085500D01*
X159109310Y-128094976D01*
X158989652Y-128113928D01*
X158989649Y-128113928D01*
X158816828Y-128170081D01*
X158816825Y-128170083D01*
X158654909Y-128252583D01*
X158571030Y-128313525D01*
X158507894Y-128359397D01*
X158507892Y-128359399D01*
X158507891Y-128359399D01*
X158379399Y-128487891D01*
X158379399Y-128487892D01*
X158379397Y-128487894D01*
X158333525Y-128551030D01*
X158272583Y-128634909D01*
X158190083Y-128796825D01*
X158190081Y-128796828D01*
X158133928Y-128969649D01*
X158133928Y-128969652D01*
X158112473Y-129105114D01*
X158082544Y-129168249D01*
X158023232Y-129205180D01*
X157953370Y-129204182D01*
X157895137Y-129165572D01*
X157867527Y-129105114D01*
X157849990Y-128994394D01*
X157846072Y-128969654D01*
X157846071Y-128969650D01*
X157846071Y-128969649D01*
X157789918Y-128796828D01*
X157789916Y-128796825D01*
X157709099Y-128638211D01*
X157707417Y-128634910D01*
X157600603Y-128487894D01*
X157472106Y-128359397D01*
X157325090Y-128252583D01*
X157163174Y-128170083D01*
X157163171Y-128170081D01*
X156990348Y-128113928D01*
X156870689Y-128094976D01*
X156810861Y-128085500D01*
X156629139Y-128085500D01*
X156569310Y-128094976D01*
X156449652Y-128113928D01*
X156449649Y-128113928D01*
X156276828Y-128170081D01*
X156276825Y-128170083D01*
X156114909Y-128252583D01*
X156031030Y-128313525D01*
X155967894Y-128359397D01*
X155967892Y-128359399D01*
X155967891Y-128359399D01*
X155839399Y-128487891D01*
X155839399Y-128487892D01*
X155839397Y-128487894D01*
X155793525Y-128551030D01*
X155732583Y-128634909D01*
X155650083Y-128796825D01*
X155650081Y-128796828D01*
X155593928Y-128969649D01*
X155593928Y-128969652D01*
X155572473Y-129105114D01*
X155542544Y-129168249D01*
X155483232Y-129205180D01*
X155413370Y-129204182D01*
X155355137Y-129165572D01*
X155327527Y-129105114D01*
X155309990Y-128994394D01*
X155306072Y-128969654D01*
X155306071Y-128969650D01*
X155306071Y-128969649D01*
X155249918Y-128796828D01*
X155249916Y-128796825D01*
X155169099Y-128638211D01*
X155167417Y-128634910D01*
X155060603Y-128487894D01*
X154932106Y-128359397D01*
X154785090Y-128252583D01*
X154623174Y-128170083D01*
X154623171Y-128170081D01*
X154450348Y-128113928D01*
X154330689Y-128094976D01*
X154270861Y-128085500D01*
X154089139Y-128085500D01*
X154029310Y-128094976D01*
X153909652Y-128113928D01*
X153909649Y-128113928D01*
X153736828Y-128170081D01*
X153736825Y-128170083D01*
X153574909Y-128252583D01*
X153491030Y-128313525D01*
X153427894Y-128359397D01*
X153427892Y-128359399D01*
X153427891Y-128359399D01*
X153299399Y-128487891D01*
X153299399Y-128487892D01*
X153299397Y-128487894D01*
X153253525Y-128551030D01*
X153192583Y-128634909D01*
X153110083Y-128796825D01*
X153110081Y-128796828D01*
X153053928Y-128969649D01*
X153053928Y-128969652D01*
X153032473Y-129105114D01*
X153002544Y-129168249D01*
X152943232Y-129205180D01*
X152873370Y-129204182D01*
X152815137Y-129165572D01*
X152787527Y-129105114D01*
X152769990Y-128994394D01*
X152766072Y-128969654D01*
X152766071Y-128969650D01*
X152766071Y-128969649D01*
X152709918Y-128796828D01*
X152709916Y-128796825D01*
X152629099Y-128638211D01*
X152627417Y-128634910D01*
X152520603Y-128487894D01*
X152392106Y-128359397D01*
X152245090Y-128252583D01*
X152083174Y-128170083D01*
X152083171Y-128170081D01*
X151910348Y-128113928D01*
X151790689Y-128094976D01*
X151730861Y-128085500D01*
X151549139Y-128085500D01*
X151489310Y-128094976D01*
X151369652Y-128113928D01*
X151369649Y-128113928D01*
X151196828Y-128170081D01*
X151196825Y-128170083D01*
X151034909Y-128252583D01*
X150951030Y-128313525D01*
X150887894Y-128359397D01*
X150887892Y-128359399D01*
X150887891Y-128359399D01*
X150759399Y-128487891D01*
X150759399Y-128487892D01*
X150759397Y-128487894D01*
X150713525Y-128551030D01*
X150652583Y-128634909D01*
X150570083Y-128796825D01*
X150570081Y-128796828D01*
X150513928Y-128969649D01*
X150513928Y-128969652D01*
X150492473Y-129105114D01*
X150462544Y-129168249D01*
X150403232Y-129205180D01*
X150333370Y-129204182D01*
X150275137Y-129165572D01*
X150247527Y-129105114D01*
X150229990Y-128994394D01*
X150226072Y-128969654D01*
X150226071Y-128969650D01*
X150226071Y-128969649D01*
X150169918Y-128796828D01*
X150169916Y-128796825D01*
X150089099Y-128638211D01*
X150087417Y-128634910D01*
X149980603Y-128487894D01*
X149852106Y-128359397D01*
X149705090Y-128252583D01*
X149543174Y-128170083D01*
X149543171Y-128170081D01*
X149370348Y-128113928D01*
X149250689Y-128094976D01*
X149190861Y-128085500D01*
X149009139Y-128085500D01*
X148949310Y-128094976D01*
X148829652Y-128113928D01*
X148829649Y-128113928D01*
X148656828Y-128170081D01*
X148656825Y-128170083D01*
X148494909Y-128252583D01*
X148411030Y-128313525D01*
X148347894Y-128359397D01*
X148347892Y-128359399D01*
X148347891Y-128359399D01*
X148219399Y-128487891D01*
X148219399Y-128487892D01*
X148219397Y-128487894D01*
X148173525Y-128551030D01*
X148112583Y-128634909D01*
X148030083Y-128796825D01*
X148030081Y-128796828D01*
X147973928Y-128969649D01*
X147973928Y-128969652D01*
X147952473Y-129105114D01*
X147922544Y-129168249D01*
X147863232Y-129205180D01*
X147793370Y-129204182D01*
X147735137Y-129165572D01*
X147707527Y-129105114D01*
X147689990Y-128994394D01*
X147686072Y-128969654D01*
X147686071Y-128969650D01*
X147686071Y-128969649D01*
X147629918Y-128796828D01*
X147629916Y-128796825D01*
X147549099Y-128638211D01*
X147547417Y-128634910D01*
X147440603Y-128487894D01*
X147312106Y-128359397D01*
X147165090Y-128252583D01*
X147003174Y-128170083D01*
X147003171Y-128170081D01*
X146830348Y-128113928D01*
X146710689Y-128094976D01*
X146650861Y-128085500D01*
X146469139Y-128085500D01*
X146409310Y-128094976D01*
X146289652Y-128113928D01*
X146289649Y-128113928D01*
X146116828Y-128170081D01*
X146116825Y-128170083D01*
X145954909Y-128252583D01*
X145871030Y-128313525D01*
X145807894Y-128359397D01*
X145807892Y-128359399D01*
X145807891Y-128359399D01*
X145679399Y-128487891D01*
X145679399Y-128487892D01*
X145679397Y-128487894D01*
X145633525Y-128551030D01*
X145572583Y-128634909D01*
X145490083Y-128796825D01*
X145490081Y-128796828D01*
X145433928Y-128969649D01*
X145433928Y-128969652D01*
X145412473Y-129105114D01*
X145382544Y-129168249D01*
X145323232Y-129205180D01*
X145253370Y-129204182D01*
X145195137Y-129165572D01*
X145167527Y-129105114D01*
X145149990Y-128994394D01*
X145146072Y-128969654D01*
X145146071Y-128969650D01*
X145146071Y-128969649D01*
X145089918Y-128796828D01*
X145089916Y-128796825D01*
X145009099Y-128638211D01*
X145007417Y-128634910D01*
X144900603Y-128487894D01*
X144772106Y-128359397D01*
X144625090Y-128252583D01*
X144463174Y-128170083D01*
X144463171Y-128170081D01*
X144290348Y-128113928D01*
X144170689Y-128094976D01*
X144110861Y-128085500D01*
X143929139Y-128085500D01*
X143869310Y-128094976D01*
X143749652Y-128113928D01*
X143749649Y-128113928D01*
X143576828Y-128170081D01*
X143576825Y-128170083D01*
X143414909Y-128252583D01*
X143331030Y-128313525D01*
X143267894Y-128359397D01*
X143267892Y-128359399D01*
X143267891Y-128359399D01*
X143139399Y-128487891D01*
X143139399Y-128487892D01*
X143139397Y-128487894D01*
X143093525Y-128551030D01*
X143032583Y-128634909D01*
X142950083Y-128796825D01*
X142950081Y-128796828D01*
X142893928Y-128969649D01*
X142893928Y-128969652D01*
X142872473Y-129105114D01*
X142842544Y-129168249D01*
X142783232Y-129205180D01*
X142713370Y-129204182D01*
X142655137Y-129165572D01*
X142627527Y-129105114D01*
X142609990Y-128994394D01*
X142606072Y-128969654D01*
X142606071Y-128969650D01*
X142606071Y-128969649D01*
X142549918Y-128796828D01*
X142549916Y-128796825D01*
X142469099Y-128638211D01*
X142467417Y-128634910D01*
X142360603Y-128487894D01*
X142232106Y-128359397D01*
X142085090Y-128252583D01*
X141923174Y-128170083D01*
X141923171Y-128170081D01*
X141750348Y-128113928D01*
X141630689Y-128094976D01*
X141570861Y-128085500D01*
X141389139Y-128085500D01*
X141329310Y-128094976D01*
X141209652Y-128113928D01*
X141209649Y-128113928D01*
X141036828Y-128170081D01*
X141036825Y-128170083D01*
X140874909Y-128252583D01*
X140791030Y-128313525D01*
X140727894Y-128359397D01*
X140727892Y-128359399D01*
X140727891Y-128359399D01*
X140599399Y-128487891D01*
X140599399Y-128487892D01*
X140599397Y-128487894D01*
X140553525Y-128551030D01*
X140492583Y-128634909D01*
X140410083Y-128796825D01*
X140410081Y-128796828D01*
X140353928Y-128969649D01*
X140353928Y-128969652D01*
X140332473Y-129105114D01*
X140302544Y-129168249D01*
X140243232Y-129205180D01*
X140173370Y-129204182D01*
X140115137Y-129165572D01*
X140087527Y-129105114D01*
X140069990Y-128994394D01*
X140066072Y-128969654D01*
X140066071Y-128969650D01*
X140066071Y-128969649D01*
X140009918Y-128796828D01*
X140009916Y-128796825D01*
X139929099Y-128638211D01*
X139927417Y-128634910D01*
X139820603Y-128487894D01*
X139692106Y-128359397D01*
X139545090Y-128252583D01*
X139383174Y-128170083D01*
X139383171Y-128170081D01*
X139210348Y-128113928D01*
X139090689Y-128094976D01*
X139030861Y-128085500D01*
X138849139Y-128085500D01*
X138789310Y-128094976D01*
X138669652Y-128113928D01*
X138669649Y-128113928D01*
X138496828Y-128170081D01*
X138496825Y-128170083D01*
X138334909Y-128252583D01*
X138251030Y-128313525D01*
X138187894Y-128359397D01*
X138187892Y-128359399D01*
X138187891Y-128359399D01*
X138059399Y-128487891D01*
X138059399Y-128487892D01*
X138059397Y-128487894D01*
X138013525Y-128551030D01*
X137952583Y-128634909D01*
X137870083Y-128796825D01*
X137870081Y-128796828D01*
X137813928Y-128969649D01*
X137813928Y-128969652D01*
X137792473Y-129105114D01*
X137762544Y-129168249D01*
X137703232Y-129205180D01*
X137633370Y-129204182D01*
X137575137Y-129165572D01*
X137547527Y-129105114D01*
X137529990Y-128994394D01*
X137526072Y-128969654D01*
X137526071Y-128969650D01*
X137526071Y-128969649D01*
X137469918Y-128796828D01*
X137469916Y-128796825D01*
X137389099Y-128638211D01*
X137387417Y-128634910D01*
X137280603Y-128487894D01*
X137152106Y-128359397D01*
X137005090Y-128252583D01*
X136843174Y-128170083D01*
X136843171Y-128170081D01*
X136670348Y-128113928D01*
X136550689Y-128094976D01*
X136490861Y-128085500D01*
X136309139Y-128085500D01*
X136249310Y-128094976D01*
X136129652Y-128113928D01*
X136129649Y-128113928D01*
X135956828Y-128170081D01*
X135956825Y-128170083D01*
X135794909Y-128252583D01*
X135711030Y-128313525D01*
X135647894Y-128359397D01*
X135647892Y-128359399D01*
X135647891Y-128359399D01*
X135519399Y-128487891D01*
X135519399Y-128487892D01*
X135519397Y-128487894D01*
X135473525Y-128551030D01*
X135412583Y-128634909D01*
X135330083Y-128796825D01*
X135330081Y-128796828D01*
X135273928Y-128969649D01*
X135273928Y-128969652D01*
X135252473Y-129105114D01*
X135222544Y-129168249D01*
X135163232Y-129205180D01*
X135093370Y-129204182D01*
X135035137Y-129165572D01*
X135007527Y-129105114D01*
X134989990Y-128994394D01*
X134986072Y-128969654D01*
X134986071Y-128969650D01*
X134986071Y-128969649D01*
X134929918Y-128796828D01*
X134929916Y-128796825D01*
X134849099Y-128638211D01*
X134847417Y-128634910D01*
X134740603Y-128487894D01*
X134612106Y-128359397D01*
X134465090Y-128252583D01*
X134303174Y-128170083D01*
X134303171Y-128170081D01*
X134130348Y-128113928D01*
X134010689Y-128094976D01*
X133950861Y-128085500D01*
X133769139Y-128085500D01*
X133709310Y-128094976D01*
X133589652Y-128113928D01*
X133589649Y-128113928D01*
X133416828Y-128170081D01*
X133416825Y-128170083D01*
X133254909Y-128252583D01*
X133171030Y-128313525D01*
X133107894Y-128359397D01*
X133107892Y-128359399D01*
X133107891Y-128359399D01*
X132979399Y-128487891D01*
X132979399Y-128487892D01*
X132979397Y-128487894D01*
X132933525Y-128551030D01*
X132872583Y-128634909D01*
X132790083Y-128796825D01*
X132790081Y-128796828D01*
X132733928Y-128969649D01*
X132733928Y-128969652D01*
X132712473Y-129105114D01*
X132682544Y-129168249D01*
X132623232Y-129205180D01*
X132553370Y-129204182D01*
X132495137Y-129165572D01*
X132467527Y-129105114D01*
X132449990Y-128994394D01*
X132446072Y-128969654D01*
X132446071Y-128969650D01*
X132446071Y-128969649D01*
X132389918Y-128796828D01*
X132389916Y-128796825D01*
X132309099Y-128638211D01*
X132307417Y-128634910D01*
X132200603Y-128487894D01*
X132072106Y-128359397D01*
X131925090Y-128252583D01*
X131763174Y-128170083D01*
X131763171Y-128170081D01*
X131590348Y-128113928D01*
X131470689Y-128094976D01*
X131410861Y-128085500D01*
X131229139Y-128085500D01*
X131169310Y-128094976D01*
X131049652Y-128113928D01*
X131049649Y-128113928D01*
X130876828Y-128170081D01*
X130876825Y-128170083D01*
X130714909Y-128252583D01*
X130631030Y-128313525D01*
X130567894Y-128359397D01*
X130567892Y-128359399D01*
X130567891Y-128359399D01*
X130439399Y-128487891D01*
X130439399Y-128487892D01*
X130439397Y-128487894D01*
X130393525Y-128551030D01*
X130332583Y-128634909D01*
X130250083Y-128796825D01*
X130250081Y-128796828D01*
X130193928Y-128969649D01*
X130193928Y-128969652D01*
X130172473Y-129105114D01*
X130142544Y-129168249D01*
X130083232Y-129205180D01*
X130013370Y-129204182D01*
X129955137Y-129165572D01*
X129927527Y-129105114D01*
X129909990Y-128994394D01*
X129906072Y-128969654D01*
X129906071Y-128969650D01*
X129906071Y-128969649D01*
X129849918Y-128796828D01*
X129849916Y-128796825D01*
X129769099Y-128638211D01*
X129767417Y-128634910D01*
X129660603Y-128487894D01*
X129532106Y-128359397D01*
X129385090Y-128252583D01*
X129223174Y-128170083D01*
X129223171Y-128170081D01*
X129050348Y-128113928D01*
X128930689Y-128094976D01*
X128870861Y-128085500D01*
X128689139Y-128085500D01*
X128629310Y-128094976D01*
X128509652Y-128113928D01*
X128509649Y-128113928D01*
X128336828Y-128170081D01*
X128336825Y-128170083D01*
X128174909Y-128252583D01*
X128091030Y-128313525D01*
X128027894Y-128359397D01*
X128027892Y-128359399D01*
X128027891Y-128359399D01*
X127899399Y-128487891D01*
X127899399Y-128487892D01*
X127899397Y-128487894D01*
X127853525Y-128551030D01*
X127792583Y-128634909D01*
X127710083Y-128796825D01*
X127710081Y-128796828D01*
X127653928Y-128969649D01*
X127653928Y-128969652D01*
X127632473Y-129105114D01*
X127602544Y-129168249D01*
X127543232Y-129205180D01*
X127473370Y-129204182D01*
X127415137Y-129165572D01*
X127387527Y-129105114D01*
X127369990Y-128994394D01*
X127366072Y-128969654D01*
X127366071Y-128969650D01*
X127366071Y-128969649D01*
X127309918Y-128796828D01*
X127309916Y-128796825D01*
X127229099Y-128638211D01*
X127227417Y-128634910D01*
X127120603Y-128487894D01*
X126992106Y-128359397D01*
X126845090Y-128252583D01*
X126683174Y-128170083D01*
X126683171Y-128170081D01*
X126510348Y-128113928D01*
X126390689Y-128094976D01*
X126330861Y-128085500D01*
X126149139Y-128085500D01*
X126089310Y-128094976D01*
X125969652Y-128113928D01*
X125969649Y-128113928D01*
X125796828Y-128170081D01*
X125796825Y-128170083D01*
X125634909Y-128252583D01*
X125551030Y-128313525D01*
X125487894Y-128359397D01*
X125487892Y-128359399D01*
X125487891Y-128359399D01*
X125359399Y-128487891D01*
X125359399Y-128487892D01*
X125359397Y-128487894D01*
X125313525Y-128551030D01*
X125252583Y-128634909D01*
X125170083Y-128796825D01*
X125170081Y-128796828D01*
X125113928Y-128969649D01*
X125113928Y-128969652D01*
X125092473Y-129105114D01*
X125062544Y-129168249D01*
X125003232Y-129205180D01*
X124933370Y-129204182D01*
X124875137Y-129165572D01*
X124847527Y-129105114D01*
X124829990Y-128994394D01*
X124826072Y-128969654D01*
X124826071Y-128969650D01*
X124826071Y-128969649D01*
X124769918Y-128796828D01*
X124769916Y-128796825D01*
X124689099Y-128638211D01*
X124687417Y-128634910D01*
X124580603Y-128487894D01*
X124452106Y-128359397D01*
X124305090Y-128252583D01*
X124143174Y-128170083D01*
X124143171Y-128170081D01*
X123970348Y-128113928D01*
X123850689Y-128094976D01*
X123790861Y-128085500D01*
X123609139Y-128085500D01*
X123549310Y-128094976D01*
X123429652Y-128113928D01*
X123429649Y-128113928D01*
X123256828Y-128170081D01*
X123256825Y-128170083D01*
X123094909Y-128252583D01*
X123011030Y-128313525D01*
X122947894Y-128359397D01*
X122947892Y-128359399D01*
X122947891Y-128359399D01*
X122819399Y-128487891D01*
X122819399Y-128487892D01*
X122819397Y-128487894D01*
X122773525Y-128551030D01*
X122712583Y-128634909D01*
X122630083Y-128796825D01*
X122630081Y-128796828D01*
X122573928Y-128969649D01*
X122573928Y-128969652D01*
X122552473Y-129105114D01*
X122522544Y-129168249D01*
X122463232Y-129205180D01*
X122393370Y-129204182D01*
X122335137Y-129165572D01*
X122307527Y-129105114D01*
X122289990Y-128994394D01*
X122286072Y-128969654D01*
X122286071Y-128969650D01*
X122286071Y-128969649D01*
X122229918Y-128796828D01*
X122229916Y-128796825D01*
X122149099Y-128638211D01*
X122147417Y-128634910D01*
X122040603Y-128487894D01*
X121912106Y-128359397D01*
X121765090Y-128252583D01*
X121603174Y-128170083D01*
X121603171Y-128170081D01*
X121430348Y-128113928D01*
X121310689Y-128094976D01*
X121250861Y-128085500D01*
X121069139Y-128085500D01*
X121009310Y-128094976D01*
X120889652Y-128113928D01*
X120889649Y-128113928D01*
X120716828Y-128170081D01*
X120716825Y-128170083D01*
X120554909Y-128252583D01*
X120471030Y-128313525D01*
X120407894Y-128359397D01*
X120407892Y-128359399D01*
X120407891Y-128359399D01*
X120279399Y-128487891D01*
X120279399Y-128487892D01*
X120279397Y-128487894D01*
X120233525Y-128551030D01*
X120172583Y-128634909D01*
X120090083Y-128796825D01*
X120090081Y-128796828D01*
X120033928Y-128969649D01*
X120033928Y-128969652D01*
X120012473Y-129105114D01*
X119982544Y-129168249D01*
X119923232Y-129205180D01*
X119853370Y-129204182D01*
X119795137Y-129165572D01*
X119767527Y-129105114D01*
X119749990Y-128994394D01*
X119746072Y-128969654D01*
X119746071Y-128969650D01*
X119746071Y-128969649D01*
X119689918Y-128796828D01*
X119689916Y-128796825D01*
X119609099Y-128638211D01*
X119607417Y-128634910D01*
X119500603Y-128487894D01*
X119372106Y-128359397D01*
X119225090Y-128252583D01*
X119063174Y-128170083D01*
X119063171Y-128170081D01*
X118890348Y-128113928D01*
X118770689Y-128094976D01*
X118710861Y-128085500D01*
X118529139Y-128085500D01*
X118469310Y-128094976D01*
X118349652Y-128113928D01*
X118349649Y-128113928D01*
X118176828Y-128170081D01*
X118176825Y-128170083D01*
X118014909Y-128252583D01*
X117931030Y-128313525D01*
X117867894Y-128359397D01*
X117867892Y-128359399D01*
X117867891Y-128359399D01*
X117739399Y-128487891D01*
X117739399Y-128487892D01*
X117739397Y-128487894D01*
X117693525Y-128551030D01*
X117632583Y-128634909D01*
X117550083Y-128796825D01*
X117550081Y-128796828D01*
X117493928Y-128969649D01*
X117493928Y-128969652D01*
X117472473Y-129105114D01*
X117442544Y-129168249D01*
X117383232Y-129205180D01*
X117313370Y-129204182D01*
X117255137Y-129165572D01*
X117227527Y-129105114D01*
X117209990Y-128994394D01*
X117206072Y-128969654D01*
X117206071Y-128969650D01*
X117206071Y-128969649D01*
X117149918Y-128796828D01*
X117149916Y-128796825D01*
X117069099Y-128638211D01*
X117067417Y-128634910D01*
X116960603Y-128487894D01*
X116832106Y-128359397D01*
X116685090Y-128252583D01*
X116523174Y-128170083D01*
X116523171Y-128170081D01*
X116350348Y-128113928D01*
X116230689Y-128094976D01*
X116170861Y-128085500D01*
X115989139Y-128085500D01*
X115937949Y-128093607D01*
X115836845Y-128109621D01*
X115767551Y-128100666D01*
X115714099Y-128055670D01*
X115693460Y-127988919D01*
X115712185Y-127921605D01*
X115729762Y-127899471D01*
X116358506Y-127270728D01*
X116358511Y-127270724D01*
X116368714Y-127260520D01*
X116368716Y-127260520D01*
X116480520Y-127148716D01*
X116559577Y-127011784D01*
X116600500Y-126859057D01*
X116600500Y-126300097D01*
X116620185Y-126233058D01*
X116636819Y-126212416D01*
X116770178Y-126079057D01*
X117014665Y-125834570D01*
X117075984Y-125801088D01*
X117078151Y-125800637D01*
X117078840Y-125800500D01*
X117078842Y-125800500D01*
X117233497Y-125769737D01*
X117379179Y-125709394D01*
X117510289Y-125621789D01*
X117621789Y-125510289D01*
X117709394Y-125379179D01*
X117769737Y-125233497D01*
X117800500Y-125078842D01*
X117800500Y-124921158D01*
X117800500Y-124921155D01*
X117800499Y-124921153D01*
X117769738Y-124766510D01*
X117769738Y-124766508D01*
X117769737Y-124766503D01*
X117769735Y-124766498D01*
X117709397Y-124620827D01*
X117709390Y-124620814D01*
X117621789Y-124489711D01*
X117621786Y-124489707D01*
X117510292Y-124378213D01*
X117510288Y-124378210D01*
X117379185Y-124290609D01*
X117379172Y-124290602D01*
X117233501Y-124230264D01*
X117233489Y-124230261D01*
X117078845Y-124199500D01*
X117078842Y-124199500D01*
X116921158Y-124199500D01*
X116921155Y-124199500D01*
X116766510Y-124230261D01*
X116766498Y-124230264D01*
X116620827Y-124290602D01*
X116620814Y-124290609D01*
X116489711Y-124378210D01*
X116489707Y-124378213D01*
X116378213Y-124489707D01*
X116378210Y-124489711D01*
X116290609Y-124620814D01*
X116290602Y-124620827D01*
X116230264Y-124766498D01*
X116230261Y-124766508D01*
X116199362Y-124921848D01*
X116166977Y-124983759D01*
X116165426Y-124985337D01*
X115631286Y-125519478D01*
X115519481Y-125631282D01*
X115519479Y-125631285D01*
X115474385Y-125709392D01*
X115474384Y-125709393D01*
X115440423Y-125768214D01*
X115440423Y-125768215D01*
X115399499Y-125920943D01*
X115399499Y-125920945D01*
X115399499Y-126089046D01*
X115399500Y-126089059D01*
X115399500Y-126479902D01*
X115379815Y-126546941D01*
X115363181Y-126567583D01*
X113860624Y-128070139D01*
X113799301Y-128103624D01*
X113753545Y-128104931D01*
X113660888Y-128090255D01*
X113630861Y-128085500D01*
X113449139Y-128085500D01*
X113389310Y-128094976D01*
X113269652Y-128113928D01*
X113269649Y-128113928D01*
X113096828Y-128170081D01*
X113096825Y-128170083D01*
X112934909Y-128252583D01*
X112851030Y-128313525D01*
X112787894Y-128359397D01*
X112787892Y-128359399D01*
X112787891Y-128359399D01*
X112659399Y-128487891D01*
X112659399Y-128487892D01*
X112659397Y-128487894D01*
X112613525Y-128551030D01*
X112552583Y-128634909D01*
X112470083Y-128796825D01*
X112470081Y-128796828D01*
X112413928Y-128969649D01*
X112413928Y-128969652D01*
X112392473Y-129105114D01*
X112362544Y-129168249D01*
X112303232Y-129205180D01*
X112233370Y-129204182D01*
X112175137Y-129165572D01*
X112147527Y-129105114D01*
X112129990Y-128994394D01*
X112126072Y-128969654D01*
X112126071Y-128969650D01*
X112126071Y-128969649D01*
X112069918Y-128796828D01*
X112069916Y-128796825D01*
X111989099Y-128638211D01*
X111987417Y-128634910D01*
X111880603Y-128487894D01*
X111752106Y-128359397D01*
X111605090Y-128252583D01*
X111443174Y-128170083D01*
X111443171Y-128170081D01*
X111270348Y-128113928D01*
X111150689Y-128094976D01*
X111090861Y-128085500D01*
X110909139Y-128085500D01*
X110849310Y-128094976D01*
X110729652Y-128113928D01*
X110729649Y-128113928D01*
X110556828Y-128170081D01*
X110556825Y-128170083D01*
X110394909Y-128252583D01*
X110311030Y-128313525D01*
X110247894Y-128359397D01*
X110247892Y-128359399D01*
X110247891Y-128359399D01*
X110119399Y-128487891D01*
X110119399Y-128487892D01*
X110119397Y-128487894D01*
X110073525Y-128551030D01*
X110012583Y-128634909D01*
X109930083Y-128796825D01*
X109930081Y-128796828D01*
X109873928Y-128969649D01*
X109873928Y-128969650D01*
X109852219Y-129106713D01*
X109822289Y-129169847D01*
X109762978Y-129206778D01*
X109693115Y-129205780D01*
X109634883Y-129167170D01*
X109607273Y-129106711D01*
X109585585Y-128969775D01*
X109585584Y-128969774D01*
X109529450Y-128797012D01*
X109446993Y-128635179D01*
X109446985Y-128635165D01*
X109434950Y-128618603D01*
X109434949Y-128618602D01*
X108860000Y-129193552D01*
X108860000Y-129187339D01*
X108832741Y-129085606D01*
X108780080Y-128994394D01*
X108705606Y-128919920D01*
X108614394Y-128867259D01*
X108512661Y-128840000D01*
X108506447Y-128840000D01*
X109081396Y-128265049D01*
X109081395Y-128265048D01*
X109064834Y-128253014D01*
X109064830Y-128253012D01*
X108902984Y-128170548D01*
X108730225Y-128114415D01*
X108550821Y-128086000D01*
X108369179Y-128086000D01*
X108189774Y-128114415D01*
X108017015Y-128170548D01*
X107855170Y-128253012D01*
X107855161Y-128253018D01*
X107838603Y-128265048D01*
X107838602Y-128265049D01*
X108413554Y-128840000D01*
X108407339Y-128840000D01*
X108305606Y-128867259D01*
X108214394Y-128919920D01*
X108139920Y-128994394D01*
X108087259Y-129085606D01*
X108060000Y-129187339D01*
X108060000Y-129193553D01*
X107485049Y-128618602D01*
X107485048Y-128618603D01*
X107473018Y-128635161D01*
X107473012Y-128635170D01*
X107390548Y-128797015D01*
X107334415Y-128969774D01*
X107306000Y-129149178D01*
X107306000Y-129330821D01*
X107334415Y-129510225D01*
X107390548Y-129682984D01*
X107473012Y-129844830D01*
X107473014Y-129844834D01*
X107485048Y-129861395D01*
X107485049Y-129861396D01*
X108060000Y-129286445D01*
X108060000Y-129292661D01*
X108087259Y-129394394D01*
X108139920Y-129485606D01*
X108214394Y-129560080D01*
X108305606Y-129612741D01*
X108407339Y-129640000D01*
X108413554Y-129640000D01*
X107838602Y-130214949D01*
X107838603Y-130214950D01*
X107855165Y-130226985D01*
X107855179Y-130226993D01*
X108017012Y-130309450D01*
X108189774Y-130365584D01*
X108369179Y-130394000D01*
X108550821Y-130394000D01*
X108730225Y-130365584D01*
X108902984Y-130309451D01*
X109064831Y-130226986D01*
X109081396Y-130214949D01*
X108506447Y-129640000D01*
X108512661Y-129640000D01*
X108614394Y-129612741D01*
X108705606Y-129560080D01*
X108780080Y-129485606D01*
X108832741Y-129394394D01*
X108860000Y-129292661D01*
X108860000Y-129286446D01*
X109434949Y-129861395D01*
X109446986Y-129844831D01*
X109529451Y-129682984D01*
X109585584Y-129510225D01*
X109585585Y-129510224D01*
X109607273Y-129373288D01*
X109637202Y-129310153D01*
X109696513Y-129273221D01*
X109766376Y-129274219D01*
X109824609Y-129312828D01*
X109852219Y-129373286D01*
X109873928Y-129510349D01*
X109873928Y-129510350D01*
X109930081Y-129683171D01*
X109930083Y-129683174D01*
X110012583Y-129845090D01*
X110119397Y-129992106D01*
X110247894Y-130120603D01*
X110394910Y-130227417D01*
X110556826Y-130309917D01*
X110556828Y-130309918D01*
X110718029Y-130362294D01*
X110729654Y-130366072D01*
X110909139Y-130394500D01*
X110909140Y-130394500D01*
X111090860Y-130394500D01*
X111090861Y-130394500D01*
X111270346Y-130366072D01*
X111270349Y-130366071D01*
X111270350Y-130366071D01*
X111443171Y-130309918D01*
X111443171Y-130309917D01*
X111443174Y-130309917D01*
X111605090Y-130227417D01*
X111752106Y-130120603D01*
X111880603Y-129992106D01*
X111987417Y-129845090D01*
X112069917Y-129683174D01*
X112126072Y-129510346D01*
X112147527Y-129374884D01*
X112177456Y-129311750D01*
X112236768Y-129274819D01*
X112306630Y-129275817D01*
X112364863Y-129314427D01*
X112392473Y-129374885D01*
X112413928Y-129510347D01*
X112413928Y-129510350D01*
X112470081Y-129683171D01*
X112470083Y-129683174D01*
X112552583Y-129845090D01*
X112659397Y-129992106D01*
X112787894Y-130120603D01*
X112934910Y-130227417D01*
X113096826Y-130309917D01*
X113096828Y-130309918D01*
X113258029Y-130362294D01*
X113269654Y-130366072D01*
X113449139Y-130394500D01*
X113449140Y-130394500D01*
X113630860Y-130394500D01*
X113630861Y-130394500D01*
X113810346Y-130366072D01*
X113810349Y-130366071D01*
X113810350Y-130366071D01*
X113983171Y-130309918D01*
X113983171Y-130309917D01*
X113983174Y-130309917D01*
X114145090Y-130227417D01*
X114292106Y-130120603D01*
X114420603Y-129992106D01*
X114527417Y-129845090D01*
X114609917Y-129683174D01*
X114666072Y-129510346D01*
X114687527Y-129374884D01*
X114717456Y-129311750D01*
X114776768Y-129274819D01*
X114846630Y-129275817D01*
X114904863Y-129314427D01*
X114932473Y-129374885D01*
X114953928Y-129510347D01*
X114953928Y-129510350D01*
X115010081Y-129683171D01*
X115010083Y-129683174D01*
X115092583Y-129845090D01*
X115199397Y-129992106D01*
X115327894Y-130120603D01*
X115474910Y-130227417D01*
X115636826Y-130309917D01*
X115636828Y-130309918D01*
X115798029Y-130362294D01*
X115809654Y-130366072D01*
X115989139Y-130394500D01*
X115989140Y-130394500D01*
X116170860Y-130394500D01*
X116170861Y-130394500D01*
X116350346Y-130366072D01*
X116350349Y-130366071D01*
X116350350Y-130366071D01*
X116523171Y-130309918D01*
X116523171Y-130309917D01*
X116523174Y-130309917D01*
X116685090Y-130227417D01*
X116832106Y-130120603D01*
X116960603Y-129992106D01*
X117067417Y-129845090D01*
X117149917Y-129683174D01*
X117206072Y-129510346D01*
X117227527Y-129374884D01*
X117257456Y-129311750D01*
X117316768Y-129274819D01*
X117386630Y-129275817D01*
X117444863Y-129314427D01*
X117472473Y-129374885D01*
X117493928Y-129510347D01*
X117493928Y-129510350D01*
X117550081Y-129683171D01*
X117550083Y-129683174D01*
X117632583Y-129845090D01*
X117739397Y-129992106D01*
X117867894Y-130120603D01*
X118014910Y-130227417D01*
X118176826Y-130309917D01*
X118176828Y-130309918D01*
X118338029Y-130362294D01*
X118349654Y-130366072D01*
X118529139Y-130394500D01*
X118529140Y-130394500D01*
X118710860Y-130394500D01*
X118710861Y-130394500D01*
X118890346Y-130366072D01*
X118890349Y-130366071D01*
X118890350Y-130366071D01*
X119063171Y-130309918D01*
X119063171Y-130309917D01*
X119063174Y-130309917D01*
X119225090Y-130227417D01*
X119372106Y-130120603D01*
X119500603Y-129992106D01*
X119607417Y-129845090D01*
X119689917Y-129683174D01*
X119746072Y-129510346D01*
X119767527Y-129374884D01*
X119797456Y-129311750D01*
X119856768Y-129274819D01*
X119926630Y-129275817D01*
X119984863Y-129314427D01*
X120012473Y-129374885D01*
X120033928Y-129510347D01*
X120033928Y-129510350D01*
X120090081Y-129683171D01*
X120090083Y-129683174D01*
X120172583Y-129845090D01*
X120279397Y-129992106D01*
X120407894Y-130120603D01*
X120554910Y-130227417D01*
X120716826Y-130309917D01*
X120716828Y-130309918D01*
X120878029Y-130362294D01*
X120889654Y-130366072D01*
X121069139Y-130394500D01*
X121069140Y-130394500D01*
X121250860Y-130394500D01*
X121250861Y-130394500D01*
X121430346Y-130366072D01*
X121430349Y-130366071D01*
X121430350Y-130366071D01*
X121603171Y-130309918D01*
X121603171Y-130309917D01*
X121603174Y-130309917D01*
X121765090Y-130227417D01*
X121912106Y-130120603D01*
X122040603Y-129992106D01*
X122147417Y-129845090D01*
X122229917Y-129683174D01*
X122286072Y-129510346D01*
X122307527Y-129374884D01*
X122337456Y-129311750D01*
X122396768Y-129274819D01*
X122466630Y-129275817D01*
X122524863Y-129314427D01*
X122552473Y-129374885D01*
X122573928Y-129510347D01*
X122573928Y-129510350D01*
X122630081Y-129683171D01*
X122630083Y-129683174D01*
X122712583Y-129845090D01*
X122819397Y-129992106D01*
X122947894Y-130120603D01*
X123094910Y-130227417D01*
X123256826Y-130309917D01*
X123256828Y-130309918D01*
X123418029Y-130362294D01*
X123429654Y-130366072D01*
X123609139Y-130394500D01*
X123609140Y-130394500D01*
X123790860Y-130394500D01*
X123790861Y-130394500D01*
X123970346Y-130366072D01*
X123970349Y-130366071D01*
X123970350Y-130366071D01*
X124143171Y-130309918D01*
X124143171Y-130309917D01*
X124143174Y-130309917D01*
X124305090Y-130227417D01*
X124452106Y-130120603D01*
X124580603Y-129992106D01*
X124687417Y-129845090D01*
X124769917Y-129683174D01*
X124826072Y-129510346D01*
X124847527Y-129374884D01*
X124877456Y-129311750D01*
X124936768Y-129274819D01*
X125006630Y-129275817D01*
X125064863Y-129314427D01*
X125092473Y-129374885D01*
X125113928Y-129510347D01*
X125113928Y-129510350D01*
X125170081Y-129683171D01*
X125170083Y-129683174D01*
X125252583Y-129845090D01*
X125359397Y-129992106D01*
X125487894Y-130120603D01*
X125634910Y-130227417D01*
X125796826Y-130309917D01*
X125796828Y-130309918D01*
X125958029Y-130362294D01*
X125969654Y-130366072D01*
X126149139Y-130394500D01*
X126149140Y-130394500D01*
X126330860Y-130394500D01*
X126330861Y-130394500D01*
X126510346Y-130366072D01*
X126510349Y-130366071D01*
X126510350Y-130366071D01*
X126683171Y-130309918D01*
X126683171Y-130309917D01*
X126683174Y-130309917D01*
X126845090Y-130227417D01*
X126992106Y-130120603D01*
X127120603Y-129992106D01*
X127227417Y-129845090D01*
X127309917Y-129683174D01*
X127366072Y-129510346D01*
X127387527Y-129374884D01*
X127417456Y-129311750D01*
X127476768Y-129274819D01*
X127546630Y-129275817D01*
X127604863Y-129314427D01*
X127632473Y-129374885D01*
X127653928Y-129510347D01*
X127653928Y-129510350D01*
X127710081Y-129683171D01*
X127710083Y-129683174D01*
X127792583Y-129845090D01*
X127899397Y-129992106D01*
X128027894Y-130120603D01*
X128174910Y-130227417D01*
X128336826Y-130309917D01*
X128336828Y-130309918D01*
X128498029Y-130362294D01*
X128509654Y-130366072D01*
X128689139Y-130394500D01*
X128689140Y-130394500D01*
X128870860Y-130394500D01*
X128870861Y-130394500D01*
X129050346Y-130366072D01*
X129050349Y-130366071D01*
X129050350Y-130366071D01*
X129223171Y-130309918D01*
X129223171Y-130309917D01*
X129223174Y-130309917D01*
X129385090Y-130227417D01*
X129532106Y-130120603D01*
X129660603Y-129992106D01*
X129767417Y-129845090D01*
X129849917Y-129683174D01*
X129906072Y-129510346D01*
X129927527Y-129374884D01*
X129957456Y-129311750D01*
X130016768Y-129274819D01*
X130086630Y-129275817D01*
X130144863Y-129314427D01*
X130172473Y-129374885D01*
X130193928Y-129510347D01*
X130193928Y-129510350D01*
X130250081Y-129683171D01*
X130250083Y-129683174D01*
X130332583Y-129845090D01*
X130439397Y-129992106D01*
X130567894Y-130120603D01*
X130714910Y-130227417D01*
X130876826Y-130309917D01*
X130876828Y-130309918D01*
X131038029Y-130362294D01*
X131049654Y-130366072D01*
X131229139Y-130394500D01*
X131229140Y-130394500D01*
X131410860Y-130394500D01*
X131410861Y-130394500D01*
X131590346Y-130366072D01*
X131590349Y-130366071D01*
X131590350Y-130366071D01*
X131763171Y-130309918D01*
X131763171Y-130309917D01*
X131763174Y-130309917D01*
X131925090Y-130227417D01*
X132072106Y-130120603D01*
X132200603Y-129992106D01*
X132307417Y-129845090D01*
X132389917Y-129683174D01*
X132446072Y-129510346D01*
X132467527Y-129374884D01*
X132497456Y-129311750D01*
X132556768Y-129274819D01*
X132626630Y-129275817D01*
X132684863Y-129314427D01*
X132712473Y-129374885D01*
X132733928Y-129510347D01*
X132733928Y-129510350D01*
X132790081Y-129683171D01*
X132790083Y-129683174D01*
X132872583Y-129845090D01*
X132979397Y-129992106D01*
X133107894Y-130120603D01*
X133254910Y-130227417D01*
X133416826Y-130309917D01*
X133416828Y-130309918D01*
X133578029Y-130362294D01*
X133589654Y-130366072D01*
X133769139Y-130394500D01*
X133769140Y-130394500D01*
X133950860Y-130394500D01*
X133950861Y-130394500D01*
X134130346Y-130366072D01*
X134130349Y-130366071D01*
X134130350Y-130366071D01*
X134303171Y-130309918D01*
X134303171Y-130309917D01*
X134303174Y-130309917D01*
X134465090Y-130227417D01*
X134612106Y-130120603D01*
X134740603Y-129992106D01*
X134847417Y-129845090D01*
X134929917Y-129683174D01*
X134986072Y-129510346D01*
X135007527Y-129374884D01*
X135037456Y-129311750D01*
X135096768Y-129274819D01*
X135166630Y-129275817D01*
X135224863Y-129314427D01*
X135252473Y-129374885D01*
X135273928Y-129510347D01*
X135273928Y-129510350D01*
X135330081Y-129683171D01*
X135330083Y-129683174D01*
X135412583Y-129845090D01*
X135519397Y-129992106D01*
X135647894Y-130120603D01*
X135794910Y-130227417D01*
X135956826Y-130309917D01*
X135956828Y-130309918D01*
X136118029Y-130362294D01*
X136129654Y-130366072D01*
X136309139Y-130394500D01*
X136309140Y-130394500D01*
X136490860Y-130394500D01*
X136490861Y-130394500D01*
X136670346Y-130366072D01*
X136670349Y-130366071D01*
X136670350Y-130366071D01*
X136843171Y-130309918D01*
X136843171Y-130309917D01*
X136843174Y-130309917D01*
X137005090Y-130227417D01*
X137152106Y-130120603D01*
X137280603Y-129992106D01*
X137387417Y-129845090D01*
X137469917Y-129683174D01*
X137526072Y-129510346D01*
X137547527Y-129374884D01*
X137577456Y-129311750D01*
X137636768Y-129274819D01*
X137706630Y-129275817D01*
X137764863Y-129314427D01*
X137792473Y-129374885D01*
X137813928Y-129510347D01*
X137813928Y-129510350D01*
X137870081Y-129683171D01*
X137870083Y-129683174D01*
X137952583Y-129845090D01*
X138059397Y-129992106D01*
X138187894Y-130120603D01*
X138334910Y-130227417D01*
X138496826Y-130309917D01*
X138496828Y-130309918D01*
X138658029Y-130362294D01*
X138669654Y-130366072D01*
X138849139Y-130394500D01*
X138849140Y-130394500D01*
X139030860Y-130394500D01*
X139030861Y-130394500D01*
X139210346Y-130366072D01*
X139210349Y-130366071D01*
X139210350Y-130366071D01*
X139383171Y-130309918D01*
X139383171Y-130309917D01*
X139383174Y-130309917D01*
X139545090Y-130227417D01*
X139692106Y-130120603D01*
X139820603Y-129992106D01*
X139927417Y-129845090D01*
X140009917Y-129683174D01*
X140066072Y-129510346D01*
X140087527Y-129374884D01*
X140117456Y-129311750D01*
X140176768Y-129274819D01*
X140246630Y-129275817D01*
X140304863Y-129314427D01*
X140332473Y-129374885D01*
X140353928Y-129510347D01*
X140353928Y-129510350D01*
X140410081Y-129683171D01*
X140410083Y-129683174D01*
X140492583Y-129845090D01*
X140599397Y-129992106D01*
X140727894Y-130120603D01*
X140874910Y-130227417D01*
X141036826Y-130309917D01*
X141036828Y-130309918D01*
X141198029Y-130362294D01*
X141209654Y-130366072D01*
X141389139Y-130394500D01*
X141389140Y-130394500D01*
X141570860Y-130394500D01*
X141570861Y-130394500D01*
X141750346Y-130366072D01*
X141750349Y-130366071D01*
X141750350Y-130366071D01*
X141923171Y-130309918D01*
X141923171Y-130309917D01*
X141923174Y-130309917D01*
X142085090Y-130227417D01*
X142232106Y-130120603D01*
X142360603Y-129992106D01*
X142467417Y-129845090D01*
X142549917Y-129683174D01*
X142606072Y-129510346D01*
X142627527Y-129374884D01*
X142657456Y-129311750D01*
X142716768Y-129274819D01*
X142786630Y-129275817D01*
X142844863Y-129314427D01*
X142872473Y-129374885D01*
X142893928Y-129510347D01*
X142893928Y-129510350D01*
X142950081Y-129683171D01*
X142950083Y-129683174D01*
X143032583Y-129845090D01*
X143139397Y-129992106D01*
X143267894Y-130120603D01*
X143414910Y-130227417D01*
X143576826Y-130309917D01*
X143576828Y-130309918D01*
X143738029Y-130362294D01*
X143749654Y-130366072D01*
X143929139Y-130394500D01*
X143929140Y-130394500D01*
X144110860Y-130394500D01*
X144110861Y-130394500D01*
X144290346Y-130366072D01*
X144290349Y-130366071D01*
X144290350Y-130366071D01*
X144463171Y-130309918D01*
X144463171Y-130309917D01*
X144463174Y-130309917D01*
X144625090Y-130227417D01*
X144772106Y-130120603D01*
X144900603Y-129992106D01*
X145007417Y-129845090D01*
X145089917Y-129683174D01*
X145146072Y-129510346D01*
X145167527Y-129374884D01*
X145197456Y-129311750D01*
X145256768Y-129274819D01*
X145326630Y-129275817D01*
X145384863Y-129314427D01*
X145412473Y-129374885D01*
X145433928Y-129510347D01*
X145433928Y-129510350D01*
X145490081Y-129683171D01*
X145490083Y-129683174D01*
X145572583Y-129845090D01*
X145679397Y-129992106D01*
X145807894Y-130120603D01*
X145954910Y-130227417D01*
X146116826Y-130309917D01*
X146116828Y-130309918D01*
X146278029Y-130362294D01*
X146289654Y-130366072D01*
X146469139Y-130394500D01*
X146469140Y-130394500D01*
X146650860Y-130394500D01*
X146650861Y-130394500D01*
X146830346Y-130366072D01*
X146830349Y-130366071D01*
X146830350Y-130366071D01*
X147003171Y-130309918D01*
X147003171Y-130309917D01*
X147003174Y-130309917D01*
X147165090Y-130227417D01*
X147312106Y-130120603D01*
X147440603Y-129992106D01*
X147547417Y-129845090D01*
X147629917Y-129683174D01*
X147686072Y-129510346D01*
X147707527Y-129374884D01*
X147737456Y-129311750D01*
X147796768Y-129274819D01*
X147866630Y-129275817D01*
X147924863Y-129314427D01*
X147952473Y-129374885D01*
X147973928Y-129510347D01*
X147973928Y-129510350D01*
X148030081Y-129683171D01*
X148030083Y-129683174D01*
X148112583Y-129845090D01*
X148219397Y-129992106D01*
X148347894Y-130120603D01*
X148494910Y-130227417D01*
X148656826Y-130309917D01*
X148656828Y-130309918D01*
X148818029Y-130362294D01*
X148829654Y-130366072D01*
X149009139Y-130394500D01*
X149009140Y-130394500D01*
X149190860Y-130394500D01*
X149190861Y-130394500D01*
X149370346Y-130366072D01*
X149370349Y-130366071D01*
X149370350Y-130366071D01*
X149543171Y-130309918D01*
X149543171Y-130309917D01*
X149543174Y-130309917D01*
X149705090Y-130227417D01*
X149852106Y-130120603D01*
X149980603Y-129992106D01*
X150087417Y-129845090D01*
X150169917Y-129683174D01*
X150226072Y-129510346D01*
X150247527Y-129374884D01*
X150277456Y-129311750D01*
X150336768Y-129274819D01*
X150406630Y-129275817D01*
X150464863Y-129314427D01*
X150492473Y-129374885D01*
X150513928Y-129510347D01*
X150513928Y-129510350D01*
X150570081Y-129683171D01*
X150570083Y-129683174D01*
X150652583Y-129845090D01*
X150759397Y-129992106D01*
X150887894Y-130120603D01*
X151034910Y-130227417D01*
X151196826Y-130309917D01*
X151196828Y-130309918D01*
X151358029Y-130362294D01*
X151369654Y-130366072D01*
X151549139Y-130394500D01*
X151549140Y-130394500D01*
X151730860Y-130394500D01*
X151730861Y-130394500D01*
X151910346Y-130366072D01*
X151910349Y-130366071D01*
X151910350Y-130366071D01*
X152083171Y-130309918D01*
X152083171Y-130309917D01*
X152083174Y-130309917D01*
X152245090Y-130227417D01*
X152392106Y-130120603D01*
X152520603Y-129992106D01*
X152627417Y-129845090D01*
X152709917Y-129683174D01*
X152766072Y-129510346D01*
X152787527Y-129374884D01*
X152817456Y-129311750D01*
X152876768Y-129274819D01*
X152946630Y-129275817D01*
X153004863Y-129314427D01*
X153032473Y-129374885D01*
X153053928Y-129510347D01*
X153053928Y-129510350D01*
X153110081Y-129683171D01*
X153110083Y-129683174D01*
X153192583Y-129845090D01*
X153299397Y-129992106D01*
X153427894Y-130120603D01*
X153574910Y-130227417D01*
X153736826Y-130309917D01*
X153736828Y-130309918D01*
X153898029Y-130362294D01*
X153909654Y-130366072D01*
X154089139Y-130394500D01*
X154089140Y-130394500D01*
X154270860Y-130394500D01*
X154270861Y-130394500D01*
X154450346Y-130366072D01*
X154450349Y-130366071D01*
X154450350Y-130366071D01*
X154623171Y-130309918D01*
X154623171Y-130309917D01*
X154623174Y-130309917D01*
X154785090Y-130227417D01*
X154932106Y-130120603D01*
X155060603Y-129992106D01*
X155167417Y-129845090D01*
X155249917Y-129683174D01*
X155306072Y-129510346D01*
X155327527Y-129374884D01*
X155357456Y-129311750D01*
X155416768Y-129274819D01*
X155486630Y-129275817D01*
X155544863Y-129314427D01*
X155572473Y-129374885D01*
X155593928Y-129510347D01*
X155593928Y-129510350D01*
X155650081Y-129683171D01*
X155650083Y-129683174D01*
X155732583Y-129845090D01*
X155839397Y-129992106D01*
X155967894Y-130120603D01*
X156114910Y-130227417D01*
X156276826Y-130309917D01*
X156276828Y-130309918D01*
X156438029Y-130362294D01*
X156449654Y-130366072D01*
X156629139Y-130394500D01*
X156629140Y-130394500D01*
X156810860Y-130394500D01*
X156810861Y-130394500D01*
X156990346Y-130366072D01*
X156990349Y-130366071D01*
X156990350Y-130366071D01*
X157163171Y-130309918D01*
X157163171Y-130309917D01*
X157163174Y-130309917D01*
X157325090Y-130227417D01*
X157472106Y-130120603D01*
X157600603Y-129992106D01*
X157707417Y-129845090D01*
X157789917Y-129683174D01*
X157846072Y-129510346D01*
X157867527Y-129374884D01*
X157897456Y-129311750D01*
X157956768Y-129274819D01*
X158026630Y-129275817D01*
X158084863Y-129314427D01*
X158112473Y-129374885D01*
X158133928Y-129510347D01*
X158133928Y-129510350D01*
X158190081Y-129683171D01*
X158190083Y-129683174D01*
X158272583Y-129845090D01*
X158379397Y-129992106D01*
X158507894Y-130120603D01*
X158654910Y-130227417D01*
X158816826Y-130309917D01*
X158816828Y-130309918D01*
X158978029Y-130362294D01*
X158989654Y-130366072D01*
X159169139Y-130394500D01*
X159169140Y-130394500D01*
X159350860Y-130394500D01*
X159350861Y-130394500D01*
X159530346Y-130366072D01*
X159530349Y-130366071D01*
X159530350Y-130366071D01*
X159703171Y-130309918D01*
X159703171Y-130309917D01*
X159703174Y-130309917D01*
X159865090Y-130227417D01*
X160012106Y-130120603D01*
X160140603Y-129992106D01*
X160247417Y-129845090D01*
X160329917Y-129683174D01*
X160386072Y-129510346D01*
X160407527Y-129374884D01*
X160437456Y-129311750D01*
X160496768Y-129274819D01*
X160566630Y-129275817D01*
X160624863Y-129314427D01*
X160652473Y-129374885D01*
X160673928Y-129510347D01*
X160673928Y-129510350D01*
X160730081Y-129683171D01*
X160730083Y-129683174D01*
X160812583Y-129845090D01*
X160919397Y-129992106D01*
X161047894Y-130120603D01*
X161194910Y-130227417D01*
X161356826Y-130309917D01*
X161356828Y-130309918D01*
X161518029Y-130362294D01*
X161529654Y-130366072D01*
X161709139Y-130394500D01*
X161709140Y-130394500D01*
X161890860Y-130394500D01*
X161890861Y-130394500D01*
X162070346Y-130366072D01*
X162070349Y-130366071D01*
X162070350Y-130366071D01*
X162243171Y-130309918D01*
X162243171Y-130309917D01*
X162243174Y-130309917D01*
X162405090Y-130227417D01*
X162552106Y-130120603D01*
X162680603Y-129992106D01*
X162787417Y-129845090D01*
X162869917Y-129683174D01*
X162926072Y-129510346D01*
X162947527Y-129374884D01*
X162977456Y-129311750D01*
X163036768Y-129274819D01*
X163106630Y-129275817D01*
X163164863Y-129314427D01*
X163192473Y-129374885D01*
X163213928Y-129510347D01*
X163213928Y-129510350D01*
X163270081Y-129683171D01*
X163270083Y-129683174D01*
X163352583Y-129845090D01*
X163459397Y-129992106D01*
X163587894Y-130120603D01*
X163734910Y-130227417D01*
X163896826Y-130309917D01*
X163896828Y-130309918D01*
X164058029Y-130362294D01*
X164069654Y-130366072D01*
X164249139Y-130394500D01*
X164249140Y-130394500D01*
X164430860Y-130394500D01*
X164430861Y-130394500D01*
X164610346Y-130366072D01*
X164610349Y-130366071D01*
X164610350Y-130366071D01*
X164783171Y-130309918D01*
X164783171Y-130309917D01*
X164783174Y-130309917D01*
X164945090Y-130227417D01*
X165092106Y-130120603D01*
X165220603Y-129992106D01*
X165327417Y-129845090D01*
X165409917Y-129683174D01*
X165466072Y-129510346D01*
X165487527Y-129374884D01*
X165517456Y-129311750D01*
X165576768Y-129274819D01*
X165646630Y-129275817D01*
X165704863Y-129314427D01*
X165732473Y-129374885D01*
X165753928Y-129510347D01*
X165753928Y-129510350D01*
X165810081Y-129683171D01*
X165810083Y-129683174D01*
X165892583Y-129845090D01*
X165999397Y-129992106D01*
X166127894Y-130120603D01*
X166274910Y-130227417D01*
X166436826Y-130309917D01*
X166436828Y-130309918D01*
X166598029Y-130362294D01*
X166609654Y-130366072D01*
X166789139Y-130394500D01*
X166789140Y-130394500D01*
X166970860Y-130394500D01*
X166970861Y-130394500D01*
X167150346Y-130366072D01*
X167150349Y-130366071D01*
X167150350Y-130366071D01*
X167323171Y-130309918D01*
X167323171Y-130309917D01*
X167323174Y-130309917D01*
X167485090Y-130227417D01*
X167632106Y-130120603D01*
X167760603Y-129992106D01*
X167867417Y-129845090D01*
X167949917Y-129683174D01*
X168006072Y-129510346D01*
X168034500Y-129330861D01*
X168034500Y-129149139D01*
X168006072Y-128969654D01*
X168006071Y-128969650D01*
X168006071Y-128969649D01*
X167987655Y-128912971D01*
X167976523Y-128878711D01*
X171149500Y-128878711D01*
X171149500Y-129121288D01*
X171181161Y-129361785D01*
X171243947Y-129596104D01*
X171336773Y-129820205D01*
X171336777Y-129820214D01*
X171351139Y-129845090D01*
X171458064Y-130030289D01*
X171458066Y-130030292D01*
X171458067Y-130030293D01*
X171605733Y-130222736D01*
X171605739Y-130222743D01*
X171777256Y-130394260D01*
X171777262Y-130394265D01*
X171969711Y-130541936D01*
X172179788Y-130663224D01*
X172403900Y-130756054D01*
X172638211Y-130818838D01*
X172818586Y-130842584D01*
X172878711Y-130850500D01*
X172878712Y-130850500D01*
X173121289Y-130850500D01*
X173169388Y-130844167D01*
X173361789Y-130818838D01*
X173596100Y-130756054D01*
X173820212Y-130663224D01*
X174030289Y-130541936D01*
X174222738Y-130394265D01*
X174394265Y-130222738D01*
X174541936Y-130030289D01*
X174663224Y-129820212D01*
X174756054Y-129596100D01*
X174818838Y-129361789D01*
X174850500Y-129121288D01*
X174850500Y-128878712D01*
X174818838Y-128638211D01*
X174756054Y-128403900D01*
X174663224Y-128179788D01*
X174541936Y-127969711D01*
X174394265Y-127777262D01*
X174394260Y-127777256D01*
X174222743Y-127605739D01*
X174222736Y-127605733D01*
X174030293Y-127458067D01*
X174030292Y-127458066D01*
X174030289Y-127458064D01*
X173820212Y-127336776D01*
X173820205Y-127336773D01*
X173596104Y-127243947D01*
X173361785Y-127181161D01*
X173121289Y-127149500D01*
X173121288Y-127149500D01*
X172878712Y-127149500D01*
X172878711Y-127149500D01*
X172638214Y-127181161D01*
X172403895Y-127243947D01*
X172179794Y-127336773D01*
X172179785Y-127336777D01*
X171969706Y-127458067D01*
X171777263Y-127605733D01*
X171777256Y-127605739D01*
X171605739Y-127777256D01*
X171605733Y-127777263D01*
X171458067Y-127969706D01*
X171336777Y-128179785D01*
X171336773Y-128179794D01*
X171243947Y-128403895D01*
X171181161Y-128638214D01*
X171149500Y-128878711D01*
X167976523Y-128878711D01*
X167949918Y-128796828D01*
X167949916Y-128796825D01*
X167869099Y-128638211D01*
X167867417Y-128634910D01*
X167760603Y-128487894D01*
X167632106Y-128359397D01*
X167485090Y-128252583D01*
X167323174Y-128170083D01*
X167323171Y-128170081D01*
X167150348Y-128113928D01*
X167030689Y-128094976D01*
X166970861Y-128085500D01*
X166789139Y-128085500D01*
X166666453Y-128104931D01*
X166597160Y-128095976D01*
X166559375Y-128070139D01*
X161127590Y-122638355D01*
X161127588Y-122638352D01*
X161008717Y-122519481D01*
X161008709Y-122519475D01*
X160920375Y-122468476D01*
X160920374Y-122468476D01*
X160899838Y-122456619D01*
X160871785Y-122440423D01*
X160719057Y-122399499D01*
X160560943Y-122399499D01*
X160553347Y-122399499D01*
X160553331Y-122399500D01*
X103229602Y-122399500D01*
X103162563Y-122379815D01*
X103119117Y-122331795D01*
X103112284Y-122318385D01*
X102991971Y-122152786D01*
X102847213Y-122008028D01*
X102681614Y-121887715D01*
X102667875Y-121880715D01*
X102530040Y-121810484D01*
X102479245Y-121762511D01*
X102462450Y-121694690D01*
X102484987Y-121628555D01*
X102530039Y-121589515D01*
X102681610Y-121512287D01*
X102702770Y-121496913D01*
X102847213Y-121391971D01*
X102847215Y-121391968D01*
X102847219Y-121391966D01*
X102991966Y-121247219D01*
X102991968Y-121247215D01*
X102991971Y-121247213D01*
X103112284Y-121081614D01*
X103112285Y-121081613D01*
X103112287Y-121081610D01*
X103119117Y-121068204D01*
X103167091Y-121017409D01*
X103229602Y-121000500D01*
X160393331Y-121000500D01*
X160393347Y-121000501D01*
X160400943Y-121000501D01*
X160559054Y-121000501D01*
X160559057Y-121000501D01*
X160711785Y-120959577D01*
X160761904Y-120930639D01*
X160848716Y-120880520D01*
X160960520Y-120768716D01*
X160960520Y-120768714D01*
X160970728Y-120758507D01*
X160970729Y-120758504D01*
X166559376Y-115169858D01*
X166620697Y-115136375D01*
X166666451Y-115135068D01*
X166789139Y-115154500D01*
X166789140Y-115154500D01*
X166970860Y-115154500D01*
X166970861Y-115154500D01*
X167150346Y-115126072D01*
X167150349Y-115126071D01*
X167150350Y-115126071D01*
X167323171Y-115069918D01*
X167323171Y-115069917D01*
X167323174Y-115069917D01*
X167485090Y-114987417D01*
X167632106Y-114880603D01*
X167760603Y-114752106D01*
X167832161Y-114653614D01*
X167887490Y-114610950D01*
X167957103Y-114604971D01*
X168018898Y-114637577D01*
X168020159Y-114638820D01*
X169262181Y-115880842D01*
X169295666Y-115942165D01*
X169298500Y-115968523D01*
X169298500Y-117412330D01*
X169298499Y-117412348D01*
X169298499Y-117578054D01*
X169298498Y-117578054D01*
X169298499Y-117578057D01*
X169339423Y-117730785D01*
X169352123Y-117752781D01*
X169379753Y-117800638D01*
X169418479Y-117867715D01*
X169537349Y-117986585D01*
X169537355Y-117986590D01*
X169705922Y-118155157D01*
X169739407Y-118216480D01*
X169736173Y-118281155D01*
X169731522Y-118295468D01*
X169699500Y-118497648D01*
X169699500Y-118702351D01*
X169731522Y-118904534D01*
X169794781Y-119099223D01*
X169843471Y-119194780D01*
X169880993Y-119268422D01*
X169887715Y-119281613D01*
X170008028Y-119447213D01*
X170152786Y-119591971D01*
X170301054Y-119699692D01*
X170318390Y-119712287D01*
X170415178Y-119761603D01*
X170469958Y-119789515D01*
X170520754Y-119837490D01*
X170537549Y-119905311D01*
X170515012Y-119971446D01*
X170469958Y-120010485D01*
X170318386Y-120087715D01*
X170152786Y-120208028D01*
X170008028Y-120352786D01*
X169887715Y-120518386D01*
X169794781Y-120700776D01*
X169731522Y-120895465D01*
X169699500Y-121097648D01*
X169699500Y-121302351D01*
X169731522Y-121504534D01*
X169794781Y-121699223D01*
X169887715Y-121881613D01*
X170008028Y-122047213D01*
X170152786Y-122191971D01*
X170307749Y-122304556D01*
X170318390Y-122312287D01*
X170450921Y-122379815D01*
X170469958Y-122389515D01*
X170520754Y-122437490D01*
X170537549Y-122505311D01*
X170515012Y-122571446D01*
X170469958Y-122610485D01*
X170318386Y-122687715D01*
X170152786Y-122808028D01*
X170008028Y-122952786D01*
X169887715Y-123118386D01*
X169794781Y-123300776D01*
X169731522Y-123495465D01*
X169699500Y-123697648D01*
X169699500Y-123902351D01*
X169731522Y-124104534D01*
X169794781Y-124299223D01*
X169887715Y-124481613D01*
X170008028Y-124647213D01*
X170152786Y-124791971D01*
X170307749Y-124904556D01*
X170318390Y-124912287D01*
X170394887Y-124951264D01*
X170500776Y-125005218D01*
X170500778Y-125005218D01*
X170500781Y-125005220D01*
X170605137Y-125039127D01*
X170695465Y-125068477D01*
X170760932Y-125078846D01*
X170897648Y-125100500D01*
X170897649Y-125100500D01*
X171102351Y-125100500D01*
X171102352Y-125100500D01*
X171304534Y-125068477D01*
X171499219Y-125005220D01*
X171681610Y-124912287D01*
X171774590Y-124844732D01*
X171847213Y-124791971D01*
X171847215Y-124791968D01*
X171847219Y-124791966D01*
X171991966Y-124647219D01*
X171991968Y-124647215D01*
X171991971Y-124647213D01*
X172106401Y-124489711D01*
X172112287Y-124481610D01*
X172205220Y-124299219D01*
X172268477Y-124104534D01*
X172300500Y-123902352D01*
X172300500Y-123697648D01*
X172295837Y-123668205D01*
X172268477Y-123495465D01*
X172205218Y-123300776D01*
X172171503Y-123234607D01*
X172112287Y-123118390D01*
X172100634Y-123102351D01*
X171991971Y-122952786D01*
X171847213Y-122808028D01*
X171681614Y-122687715D01*
X171667875Y-122680715D01*
X171530040Y-122610484D01*
X171479245Y-122562511D01*
X171462450Y-122494690D01*
X171484987Y-122428555D01*
X171530039Y-122389515D01*
X171681610Y-122312287D01*
X171702770Y-122296913D01*
X171847213Y-122191971D01*
X171847215Y-122191968D01*
X171847219Y-122191966D01*
X171991966Y-122047219D01*
X171991968Y-122047215D01*
X171991971Y-122047213D01*
X172107851Y-121887715D01*
X172112287Y-121881610D01*
X172205220Y-121699219D01*
X172268477Y-121504534D01*
X172300500Y-121302352D01*
X172300500Y-121097648D01*
X172278631Y-120959576D01*
X172268477Y-120895465D01*
X172205218Y-120700776D01*
X172171503Y-120634607D01*
X172112287Y-120518390D01*
X172100634Y-120502351D01*
X171991971Y-120352786D01*
X171847213Y-120208028D01*
X171681614Y-120087715D01*
X171667875Y-120080715D01*
X171530040Y-120010484D01*
X171479245Y-119962511D01*
X171462450Y-119894690D01*
X171484987Y-119828555D01*
X171530039Y-119789515D01*
X171681610Y-119712287D01*
X171702770Y-119696913D01*
X171847213Y-119591971D01*
X171847215Y-119591968D01*
X171847219Y-119591966D01*
X171991966Y-119447219D01*
X171991968Y-119447215D01*
X171991971Y-119447213D01*
X172106401Y-119289711D01*
X172112287Y-119281610D01*
X172205220Y-119099219D01*
X172268477Y-118904534D01*
X172300500Y-118702352D01*
X172300500Y-118497648D01*
X172269072Y-118299223D01*
X172268477Y-118295465D01*
X172205218Y-118100776D01*
X172165320Y-118022473D01*
X172112287Y-117918390D01*
X172076945Y-117869745D01*
X171991968Y-117752783D01*
X171847213Y-117608028D01*
X171681613Y-117487715D01*
X171681612Y-117487714D01*
X171681610Y-117487713D01*
X171597212Y-117444710D01*
X171529491Y-117410204D01*
X171478695Y-117362229D01*
X171461900Y-117294408D01*
X171484438Y-117228273D01*
X171529492Y-117189234D01*
X171681346Y-117111861D01*
X171681347Y-117111861D01*
X171725921Y-117079474D01*
X171129409Y-116482962D01*
X171192993Y-116465925D01*
X171307007Y-116400099D01*
X171400099Y-116307007D01*
X171465925Y-116192993D01*
X171482962Y-116129409D01*
X172079474Y-116725921D01*
X172111859Y-116681349D01*
X172204755Y-116499031D01*
X172267990Y-116304417D01*
X172300000Y-116102317D01*
X172300000Y-115897682D01*
X172267990Y-115695582D01*
X172204755Y-115500968D01*
X172111859Y-115318650D01*
X172079474Y-115274077D01*
X172079474Y-115274076D01*
X171482962Y-115870589D01*
X171465925Y-115807007D01*
X171400099Y-115692993D01*
X171307007Y-115599901D01*
X171192993Y-115534075D01*
X171129408Y-115517037D01*
X171725922Y-114920524D01*
X171725921Y-114920523D01*
X171681359Y-114888147D01*
X171681350Y-114888141D01*
X171499031Y-114795244D01*
X171304417Y-114732009D01*
X171102317Y-114700000D01*
X170897683Y-114700000D01*
X170695582Y-114732009D01*
X170500968Y-114795244D01*
X170318647Y-114888142D01*
X170201206Y-114973468D01*
X170135400Y-114996948D01*
X170067346Y-114981122D01*
X170040643Y-114960833D01*
X167763163Y-112683354D01*
X167763162Y-112683352D01*
X167644291Y-112564481D01*
X167644283Y-112564475D01*
X167541746Y-112505276D01*
X167541745Y-112505275D01*
X167541745Y-112505276D01*
X167507359Y-112485423D01*
X167354631Y-112444499D01*
X167196517Y-112444499D01*
X167188921Y-112444499D01*
X167188905Y-112444500D01*
X160345097Y-112444500D01*
X160278058Y-112424815D01*
X160257416Y-112408181D01*
X156834574Y-108985339D01*
X156825649Y-108968994D01*
X156812652Y-108955652D01*
X156802003Y-108925690D01*
X156801089Y-108924016D01*
X156800753Y-108922424D01*
X156800500Y-108921182D01*
X156800500Y-108921158D01*
X156769737Y-108766503D01*
X156745681Y-108708426D01*
X156709397Y-108620827D01*
X156709390Y-108620814D01*
X156621789Y-108489711D01*
X156621786Y-108489707D01*
X156510292Y-108378213D01*
X156510288Y-108378210D01*
X156408221Y-108310011D01*
X156363416Y-108256399D01*
X156354709Y-108187074D01*
X156384863Y-108124047D01*
X156389410Y-108119249D01*
X157194887Y-107313774D01*
X157256210Y-107280289D01*
X157282568Y-107277455D01*
X158595172Y-107277455D01*
X158662211Y-107297140D01*
X158707966Y-107349944D01*
X158717910Y-107419102D01*
X158688885Y-107482658D01*
X158668058Y-107501773D01*
X158637672Y-107523849D01*
X158492984Y-107668537D01*
X158492984Y-107668538D01*
X158372707Y-107834083D01*
X158279811Y-108016403D01*
X158216576Y-108211019D01*
X158207958Y-108265433D01*
X159051555Y-108265433D01*
X159018642Y-108322440D01*
X158984567Y-108449607D01*
X158984567Y-108581259D01*
X159018642Y-108708426D01*
X159051555Y-108765433D01*
X158207958Y-108765433D01*
X158216576Y-108819846D01*
X158279811Y-109014462D01*
X158372707Y-109196782D01*
X158492984Y-109362327D01*
X158492984Y-109362328D01*
X158637671Y-109507015D01*
X158803217Y-109627292D01*
X158985535Y-109720187D01*
X159180145Y-109783421D01*
X159234567Y-109792040D01*
X159234567Y-108948445D01*
X159291574Y-108981358D01*
X159418741Y-109015433D01*
X159550393Y-109015433D01*
X159677560Y-108981358D01*
X159734567Y-108948445D01*
X159734567Y-109792039D01*
X159788988Y-109783421D01*
X159983598Y-109720187D01*
X160165916Y-109627292D01*
X160331461Y-109507015D01*
X160331462Y-109507015D01*
X160393944Y-109444534D01*
X160476149Y-109362328D01*
X160476149Y-109362327D01*
X160596426Y-109196782D01*
X160689322Y-109014462D01*
X160752557Y-108819846D01*
X160761176Y-108765433D01*
X159917579Y-108765433D01*
X159950492Y-108708426D01*
X159984567Y-108581259D01*
X159984567Y-108449607D01*
X159950492Y-108322440D01*
X159917579Y-108265433D01*
X160761176Y-108265433D01*
X160752557Y-108211019D01*
X160699889Y-108048922D01*
X160697894Y-107979081D01*
X160733974Y-107919248D01*
X160796675Y-107888420D01*
X160856134Y-107892672D01*
X160982289Y-107933662D01*
X161018510Y-107945432D01*
X161119602Y-107961443D01*
X161220693Y-107977455D01*
X161220694Y-107977455D01*
X161425396Y-107977455D01*
X161425397Y-107977455D01*
X161627579Y-107945432D01*
X161822264Y-107882175D01*
X162004655Y-107789242D01*
X162128562Y-107699219D01*
X162170258Y-107668926D01*
X162170260Y-107668923D01*
X162170264Y-107668921D01*
X162315011Y-107524174D01*
X162315013Y-107524170D01*
X162315016Y-107524168D01*
X162367777Y-107451545D01*
X162435332Y-107358565D01*
X162528265Y-107176174D01*
X162591522Y-106981489D01*
X162623545Y-106779307D01*
X162623545Y-106574603D01*
X162591522Y-106372421D01*
X162538954Y-106210636D01*
X162536960Y-106140796D01*
X162573040Y-106080963D01*
X162635741Y-106050135D01*
X162695202Y-106054387D01*
X162763119Y-106076455D01*
X162856987Y-106106955D01*
X162922795Y-106117378D01*
X163059170Y-106138978D01*
X163059171Y-106138978D01*
X163263873Y-106138978D01*
X163263874Y-106138978D01*
X163466056Y-106106955D01*
X163660741Y-106043698D01*
X163843132Y-105950765D01*
X163916242Y-105897648D01*
X169699500Y-105897648D01*
X169699500Y-106102351D01*
X169731522Y-106304534D01*
X169794781Y-106499223D01*
X169887715Y-106681613D01*
X170008028Y-106847213D01*
X170152786Y-106991971D01*
X170318385Y-107112284D01*
X170318387Y-107112285D01*
X170318390Y-107112287D01*
X170372378Y-107139795D01*
X170423174Y-107187769D01*
X170439969Y-107255590D01*
X170417432Y-107321725D01*
X170372378Y-107360765D01*
X170318644Y-107388143D01*
X170274077Y-107420523D01*
X170274077Y-107420524D01*
X170870591Y-108017037D01*
X170807007Y-108034075D01*
X170692993Y-108099901D01*
X170599901Y-108192993D01*
X170534075Y-108307007D01*
X170517037Y-108370590D01*
X169920524Y-107774077D01*
X169920523Y-107774077D01*
X169888143Y-107818644D01*
X169795244Y-108000968D01*
X169732009Y-108195582D01*
X169700000Y-108397682D01*
X169700000Y-108602317D01*
X169732009Y-108804417D01*
X169795244Y-108999031D01*
X169888141Y-109181350D01*
X169888147Y-109181359D01*
X169920523Y-109225921D01*
X169920524Y-109225922D01*
X170517037Y-108629409D01*
X170534075Y-108692993D01*
X170599901Y-108807007D01*
X170692993Y-108900099D01*
X170807007Y-108965925D01*
X170870590Y-108982962D01*
X170274076Y-109579474D01*
X170318650Y-109611859D01*
X170500968Y-109704755D01*
X170695582Y-109767990D01*
X170897683Y-109800000D01*
X171102317Y-109800000D01*
X171304417Y-109767990D01*
X171499031Y-109704755D01*
X171681349Y-109611859D01*
X171725921Y-109579474D01*
X171129409Y-108982962D01*
X171192993Y-108965925D01*
X171307007Y-108900099D01*
X171400099Y-108807007D01*
X171465925Y-108692993D01*
X171482962Y-108629409D01*
X172079474Y-109225921D01*
X172111859Y-109181349D01*
X172204755Y-108999031D01*
X172267990Y-108804417D01*
X172300000Y-108602317D01*
X172300000Y-108397682D01*
X172267990Y-108195582D01*
X172204755Y-108000968D01*
X172111859Y-107818650D01*
X172079474Y-107774077D01*
X172079474Y-107774076D01*
X171482962Y-108370589D01*
X171465925Y-108307007D01*
X171400099Y-108192993D01*
X171307007Y-108099901D01*
X171192993Y-108034075D01*
X171129408Y-108017037D01*
X171725922Y-107420524D01*
X171725921Y-107420523D01*
X171681359Y-107388147D01*
X171681350Y-107388141D01*
X171627621Y-107360765D01*
X171576825Y-107312791D01*
X171560030Y-107244970D01*
X171582567Y-107178835D01*
X171627621Y-107139795D01*
X171681610Y-107112287D01*
X171790812Y-107032948D01*
X171847213Y-106991971D01*
X171847215Y-106991968D01*
X171847219Y-106991966D01*
X171991966Y-106847219D01*
X171991968Y-106847215D01*
X171991971Y-106847213D01*
X172047247Y-106771131D01*
X172112287Y-106681610D01*
X172205220Y-106499219D01*
X172268477Y-106304534D01*
X172300500Y-106102352D01*
X172300500Y-105897648D01*
X172268477Y-105695466D01*
X172264461Y-105683107D01*
X172205218Y-105500776D01*
X172122124Y-105337697D01*
X172112287Y-105318390D01*
X172085565Y-105281610D01*
X171991971Y-105152786D01*
X171847213Y-105008028D01*
X171681613Y-104887715D01*
X171681612Y-104887714D01*
X171681610Y-104887713D01*
X171590761Y-104841423D01*
X171499223Y-104794781D01*
X171304534Y-104731522D01*
X171129995Y-104703878D01*
X171102352Y-104699500D01*
X170897648Y-104699500D01*
X170873329Y-104703351D01*
X170695465Y-104731522D01*
X170500776Y-104794781D01*
X170318386Y-104887715D01*
X170152786Y-105008028D01*
X170008028Y-105152786D01*
X169887715Y-105318386D01*
X169794781Y-105500776D01*
X169731522Y-105695465D01*
X169699500Y-105897648D01*
X163916242Y-105897648D01*
X163956393Y-105868477D01*
X164008735Y-105830449D01*
X164008737Y-105830446D01*
X164008741Y-105830444D01*
X164153488Y-105685697D01*
X164153490Y-105685693D01*
X164153493Y-105685691D01*
X164221587Y-105591966D01*
X164273809Y-105520088D01*
X164366742Y-105337697D01*
X164429999Y-105143012D01*
X164462022Y-104940830D01*
X164462022Y-104736126D01*
X164461293Y-104731522D01*
X164429999Y-104533943D01*
X164410604Y-104474253D01*
X164377430Y-104372156D01*
X164375436Y-104302318D01*
X164411516Y-104242485D01*
X164474216Y-104211656D01*
X164533677Y-104215908D01*
X164651083Y-104254056D01*
X164695465Y-104268477D01*
X164742913Y-104275992D01*
X164897648Y-104300500D01*
X164897649Y-104300500D01*
X165102351Y-104300500D01*
X165102352Y-104300500D01*
X165304534Y-104268477D01*
X165499219Y-104205220D01*
X165681610Y-104112287D01*
X165774590Y-104044732D01*
X165847213Y-103991971D01*
X165847215Y-103991968D01*
X165847219Y-103991966D01*
X165991966Y-103847219D01*
X165991968Y-103847215D01*
X165991971Y-103847213D01*
X166048559Y-103769325D01*
X166112287Y-103681610D01*
X166205220Y-103499219D01*
X166268477Y-103304534D01*
X166300500Y-103102352D01*
X166300500Y-102897648D01*
X166280252Y-102769809D01*
X166268477Y-102695465D01*
X166211296Y-102519481D01*
X166205220Y-102500781D01*
X166205218Y-102500778D01*
X166205218Y-102500776D01*
X166156754Y-102405661D01*
X166112287Y-102318390D01*
X166088277Y-102285343D01*
X165991971Y-102152786D01*
X165847213Y-102008028D01*
X165681613Y-101887715D01*
X165681612Y-101887714D01*
X165681610Y-101887713D01*
X165624653Y-101858691D01*
X165499223Y-101794781D01*
X165304534Y-101731522D01*
X165129995Y-101703878D01*
X165102352Y-101699500D01*
X164897648Y-101699500D01*
X164873329Y-101703351D01*
X164695465Y-101731522D01*
X164500776Y-101794781D01*
X164318386Y-101887715D01*
X164152786Y-102008028D01*
X164008028Y-102152786D01*
X163887715Y-102318385D01*
X163880883Y-102331795D01*
X163832909Y-102382591D01*
X163770398Y-102399500D01*
X163522007Y-102399500D01*
X163363892Y-102399500D01*
X163211165Y-102440423D01*
X163211164Y-102440423D01*
X163211162Y-102440424D01*
X163211159Y-102440425D01*
X163161046Y-102469359D01*
X163161045Y-102469360D01*
X163118604Y-102493863D01*
X163074235Y-102519479D01*
X163074232Y-102519481D01*
X163011664Y-102582050D01*
X162962430Y-102631284D01*
X162962428Y-102631286D01*
X162404200Y-103189515D01*
X161860501Y-103733214D01*
X161799178Y-103766699D01*
X161772820Y-103769533D01*
X152009069Y-103769533D01*
X151942030Y-103749848D01*
X151896275Y-103697044D01*
X151886331Y-103627886D01*
X151891138Y-103607216D01*
X151902068Y-103573575D01*
X151902068Y-103573571D01*
X151902070Y-103573567D01*
X151934093Y-103371385D01*
X151934093Y-103166681D01*
X151925477Y-103112284D01*
X151902070Y-102964498D01*
X151838811Y-102769809D01*
X151749168Y-102593877D01*
X151745880Y-102587423D01*
X151696517Y-102519480D01*
X151625564Y-102421819D01*
X151480806Y-102277061D01*
X151315206Y-102156748D01*
X151315205Y-102156747D01*
X151315203Y-102156746D01*
X151258246Y-102127724D01*
X151132816Y-102063814D01*
X150938127Y-102000555D01*
X150763588Y-101972911D01*
X150735945Y-101968533D01*
X150531241Y-101968533D01*
X150506922Y-101972384D01*
X150329058Y-102000555D01*
X150134369Y-102063814D01*
X149951981Y-102156747D01*
X149920696Y-102179476D01*
X149854889Y-102202954D01*
X149786836Y-102187127D01*
X149738142Y-102137020D01*
X149724268Y-102068542D01*
X149747496Y-102006270D01*
X149770221Y-101974991D01*
X149770222Y-101974990D01*
X149770224Y-101974987D01*
X149863157Y-101792596D01*
X149926414Y-101597911D01*
X149958437Y-101395729D01*
X149958437Y-101191025D01*
X149945966Y-101112287D01*
X149926414Y-100988842D01*
X149897064Y-100898514D01*
X149863157Y-100794158D01*
X149863155Y-100794155D01*
X149863155Y-100794153D01*
X149805812Y-100681613D01*
X149770224Y-100611767D01*
X149762493Y-100601126D01*
X149649908Y-100446163D01*
X149505150Y-100301405D01*
X149339550Y-100181092D01*
X149339549Y-100181091D01*
X149339547Y-100181090D01*
X149282590Y-100152068D01*
X149157160Y-100088158D01*
X148962471Y-100024899D01*
X148901538Y-100015249D01*
X148897165Y-100014556D01*
X148760289Y-99992877D01*
X148555585Y-99992877D01*
X148531266Y-99996728D01*
X148353402Y-100024899D01*
X148158713Y-100088158D01*
X147976321Y-100181092D01*
X147945037Y-100203821D01*
X147879230Y-100227299D01*
X147811177Y-100211472D01*
X147762484Y-100161364D01*
X147748610Y-100092886D01*
X147771836Y-100030616D01*
X147794568Y-99999330D01*
X147846378Y-99897648D01*
X169699500Y-99897648D01*
X169699500Y-100102351D01*
X169731522Y-100304534D01*
X169794781Y-100499223D01*
X169887715Y-100681613D01*
X170008028Y-100847213D01*
X170152786Y-100991971D01*
X170307749Y-101104556D01*
X170318390Y-101112287D01*
X170412872Y-101160428D01*
X170500776Y-101205218D01*
X170500778Y-101205218D01*
X170500781Y-101205220D01*
X170605137Y-101239127D01*
X170695465Y-101268477D01*
X170784482Y-101282576D01*
X170897648Y-101300500D01*
X170897649Y-101300500D01*
X171102351Y-101300500D01*
X171102352Y-101300500D01*
X171304534Y-101268477D01*
X171499219Y-101205220D01*
X171681610Y-101112287D01*
X171774590Y-101044732D01*
X171847213Y-100991971D01*
X171847215Y-100991968D01*
X171847219Y-100991966D01*
X171991966Y-100847219D01*
X171991968Y-100847215D01*
X171991971Y-100847213D01*
X172044732Y-100774590D01*
X172112287Y-100681610D01*
X172205220Y-100499219D01*
X172268477Y-100304534D01*
X172300500Y-100102352D01*
X172300500Y-99897648D01*
X172268477Y-99695465D01*
X172212303Y-99522580D01*
X172205220Y-99500781D01*
X172205218Y-99500778D01*
X172205218Y-99500776D01*
X172153869Y-99400000D01*
X172112287Y-99318390D01*
X172042136Y-99221834D01*
X171991971Y-99152786D01*
X171847213Y-99008028D01*
X171681613Y-98887715D01*
X171681612Y-98887714D01*
X171681610Y-98887713D01*
X171624653Y-98858691D01*
X171499223Y-98794781D01*
X171304534Y-98731522D01*
X171129995Y-98703878D01*
X171102352Y-98699500D01*
X170897648Y-98699500D01*
X170873329Y-98703351D01*
X170695465Y-98731522D01*
X170500776Y-98794781D01*
X170318386Y-98887715D01*
X170152786Y-99008028D01*
X170008028Y-99152786D01*
X169887715Y-99318386D01*
X169794781Y-99500776D01*
X169731522Y-99695465D01*
X169699500Y-99897648D01*
X147846378Y-99897648D01*
X147887501Y-99816939D01*
X147950758Y-99622254D01*
X147982781Y-99420072D01*
X147982781Y-99215368D01*
X147970514Y-99137918D01*
X147950758Y-99013185D01*
X147887499Y-98818496D01*
X147836621Y-98718644D01*
X147794568Y-98636110D01*
X147730033Y-98547284D01*
X147674252Y-98470506D01*
X147529494Y-98325748D01*
X147363894Y-98205435D01*
X147363893Y-98205434D01*
X147363891Y-98205433D01*
X147306934Y-98176411D01*
X147181504Y-98112501D01*
X147072178Y-98076979D01*
X147014503Y-98037541D01*
X146987305Y-97973182D01*
X146999220Y-97904336D01*
X147022813Y-97871370D01*
X147996535Y-96897648D01*
X169699500Y-96897648D01*
X169699500Y-97102351D01*
X169731522Y-97304534D01*
X169794781Y-97499223D01*
X169858691Y-97624653D01*
X169869873Y-97646598D01*
X169887715Y-97681613D01*
X170008028Y-97847213D01*
X170152786Y-97991971D01*
X170269792Y-98076979D01*
X170318390Y-98112287D01*
X170434607Y-98171503D01*
X170500776Y-98205218D01*
X170500778Y-98205218D01*
X170500781Y-98205220D01*
X170605137Y-98239127D01*
X170695465Y-98268477D01*
X170796557Y-98284488D01*
X170897648Y-98300500D01*
X170897649Y-98300500D01*
X171102351Y-98300500D01*
X171102352Y-98300500D01*
X171304534Y-98268477D01*
X171499219Y-98205220D01*
X171681610Y-98112287D01*
X171795084Y-98029844D01*
X171847213Y-97991971D01*
X171847215Y-97991968D01*
X171847219Y-97991966D01*
X171991966Y-97847219D01*
X171991968Y-97847215D01*
X171991971Y-97847213D01*
X172044732Y-97774590D01*
X172112287Y-97681610D01*
X172205220Y-97499219D01*
X172268477Y-97304534D01*
X172300500Y-97102352D01*
X172300500Y-96897648D01*
X172291819Y-96842840D01*
X172268477Y-96695465D01*
X172205218Y-96500776D01*
X172171503Y-96434607D01*
X172112287Y-96318390D01*
X172104556Y-96307749D01*
X171991971Y-96152786D01*
X171847213Y-96008028D01*
X171681613Y-95887715D01*
X171681612Y-95887714D01*
X171681610Y-95887713D01*
X171624653Y-95858691D01*
X171499223Y-95794781D01*
X171304534Y-95731522D01*
X171129995Y-95703878D01*
X171102352Y-95699500D01*
X170897648Y-95699500D01*
X170873329Y-95703351D01*
X170695465Y-95731522D01*
X170500776Y-95794781D01*
X170318386Y-95887715D01*
X170152786Y-96008028D01*
X170008028Y-96152786D01*
X169887715Y-96318386D01*
X169794781Y-96500776D01*
X169731522Y-96695465D01*
X169699500Y-96897648D01*
X147996535Y-96897648D01*
X156281709Y-88612476D01*
X156343032Y-88578991D01*
X156369390Y-88576157D01*
X156794742Y-88576157D01*
X156861781Y-88595842D01*
X156905226Y-88643861D01*
X156911165Y-88655516D01*
X156912059Y-88657271D01*
X157032372Y-88822870D01*
X157177130Y-88967628D01*
X157311451Y-89065216D01*
X157342734Y-89087944D01*
X157458951Y-89147160D01*
X157525120Y-89180875D01*
X157525122Y-89180875D01*
X157525125Y-89180877D01*
X157600045Y-89205220D01*
X157719809Y-89244134D01*
X157820901Y-89260145D01*
X157921992Y-89276157D01*
X157921993Y-89276157D01*
X158126695Y-89276157D01*
X158126696Y-89276157D01*
X158328878Y-89244134D01*
X158523563Y-89180877D01*
X158705954Y-89087944D01*
X158737237Y-89065216D01*
X158803043Y-89041735D01*
X158871097Y-89057560D01*
X158919792Y-89107665D01*
X158933668Y-89176143D01*
X158910443Y-89238416D01*
X158887714Y-89269701D01*
X158794781Y-89452089D01*
X158731522Y-89646778D01*
X158699500Y-89848961D01*
X158699500Y-90053664D01*
X158731522Y-90255847D01*
X158794781Y-90450536D01*
X158858691Y-90575966D01*
X158870938Y-90600001D01*
X158887715Y-90632926D01*
X159008028Y-90798526D01*
X159152786Y-90943284D01*
X159285798Y-91039921D01*
X159318390Y-91063600D01*
X159399499Y-91104927D01*
X159500776Y-91156531D01*
X159500778Y-91156531D01*
X159500781Y-91156533D01*
X159575818Y-91180914D01*
X159695465Y-91219790D01*
X159796557Y-91235801D01*
X159897648Y-91251813D01*
X159897649Y-91251813D01*
X160102351Y-91251813D01*
X160102352Y-91251813D01*
X160304534Y-91219790D01*
X160499219Y-91156533D01*
X160681610Y-91063600D01*
X160714202Y-91039921D01*
X160780008Y-91016440D01*
X160848062Y-91032265D01*
X160896757Y-91082370D01*
X160910633Y-91150848D01*
X160887407Y-91213122D01*
X160863798Y-91245616D01*
X160770901Y-91427939D01*
X160707666Y-91622555D01*
X160699048Y-91676969D01*
X161542645Y-91676969D01*
X161509732Y-91733976D01*
X161475657Y-91861143D01*
X161475657Y-91992795D01*
X161509732Y-92119962D01*
X161542645Y-92176969D01*
X160699048Y-92176969D01*
X160707666Y-92231382D01*
X160770901Y-92425998D01*
X160863797Y-92608318D01*
X160984074Y-92773863D01*
X160984074Y-92773864D01*
X161128761Y-92918551D01*
X161294307Y-93038828D01*
X161476625Y-93131723D01*
X161671235Y-93194957D01*
X161725657Y-93203576D01*
X161725657Y-92359981D01*
X161782664Y-92392894D01*
X161909831Y-92426969D01*
X162041483Y-92426969D01*
X162168650Y-92392894D01*
X162225657Y-92359981D01*
X162225657Y-93203575D01*
X162280078Y-93194957D01*
X162474688Y-93131723D01*
X162657006Y-93038828D01*
X162822551Y-92918551D01*
X162822552Y-92918551D01*
X162967239Y-92773864D01*
X162967239Y-92773863D01*
X163087516Y-92608318D01*
X163180412Y-92425998D01*
X163243647Y-92231382D01*
X163252266Y-92176969D01*
X162408669Y-92176969D01*
X162441582Y-92119962D01*
X162475657Y-91992795D01*
X162475657Y-91861143D01*
X162441582Y-91733976D01*
X162408669Y-91676969D01*
X163252266Y-91676969D01*
X163248250Y-91651614D01*
X163248250Y-91651613D01*
X163243647Y-91622555D01*
X163180412Y-91427939D01*
X163087516Y-91245619D01*
X162967239Y-91080074D01*
X162967239Y-91080073D01*
X162822552Y-90935386D01*
X162657006Y-90815109D01*
X162474686Y-90722213D01*
X162280070Y-90658978D01*
X162225657Y-90650359D01*
X162225657Y-91493957D01*
X162168650Y-91461044D01*
X162041483Y-91426969D01*
X161909831Y-91426969D01*
X161782664Y-91461044D01*
X161725657Y-91493957D01*
X161725657Y-90650359D01*
X161671243Y-90658978D01*
X161476627Y-90722213D01*
X161294308Y-90815108D01*
X161261810Y-90838720D01*
X161196003Y-90862199D01*
X161127949Y-90846373D01*
X161079255Y-90796267D01*
X161065380Y-90727789D01*
X161088608Y-90665515D01*
X161112284Y-90632927D01*
X161112285Y-90632926D01*
X161112287Y-90632923D01*
X161205220Y-90450532D01*
X161268477Y-90255847D01*
X161300500Y-90053665D01*
X161300500Y-89848961D01*
X161268477Y-89646779D01*
X161205220Y-89452094D01*
X161205218Y-89452091D01*
X161205218Y-89452089D01*
X161159717Y-89362790D01*
X161112287Y-89269703D01*
X161065438Y-89205220D01*
X160991971Y-89104099D01*
X160847213Y-88959341D01*
X160681610Y-88839025D01*
X160668200Y-88832192D01*
X160617406Y-88784216D01*
X160600500Y-88721710D01*
X160600500Y-88315205D01*
X160597640Y-88304534D01*
X160587715Y-88267492D01*
X160559577Y-88162479D01*
X160524863Y-88102352D01*
X160480524Y-88025553D01*
X160480518Y-88025545D01*
X160435434Y-87980461D01*
X160368716Y-87913743D01*
X160368713Y-87913741D01*
X160352620Y-87897648D01*
X169699500Y-87897648D01*
X169699500Y-88102352D01*
X169724747Y-88261754D01*
X169731523Y-88304534D01*
X169731522Y-88304534D01*
X169794781Y-88499223D01*
X169833982Y-88576157D01*
X169868479Y-88643862D01*
X169887715Y-88681613D01*
X170008028Y-88847213D01*
X170152786Y-88991971D01*
X170318385Y-89112284D01*
X170318387Y-89112285D01*
X170318390Y-89112287D01*
X170470508Y-89189795D01*
X170521304Y-89237770D01*
X170538099Y-89305591D01*
X170515562Y-89371726D01*
X170470508Y-89410765D01*
X170318644Y-89488143D01*
X170274077Y-89520523D01*
X170274077Y-89520524D01*
X170870591Y-90117037D01*
X170807007Y-90134075D01*
X170692993Y-90199901D01*
X170599901Y-90292993D01*
X170534075Y-90407007D01*
X170517037Y-90470590D01*
X169920524Y-89874077D01*
X169920523Y-89874077D01*
X169888143Y-89918644D01*
X169795244Y-90100968D01*
X169732009Y-90295582D01*
X169700000Y-90497682D01*
X169700000Y-90702317D01*
X169732009Y-90904417D01*
X169795244Y-91099031D01*
X169888141Y-91281350D01*
X169888147Y-91281359D01*
X169920523Y-91325921D01*
X169920524Y-91325922D01*
X170517037Y-90729409D01*
X170534075Y-90792993D01*
X170599901Y-90907007D01*
X170692993Y-91000099D01*
X170807007Y-91065925D01*
X170870590Y-91082962D01*
X170274076Y-91679474D01*
X170318650Y-91711859D01*
X170500968Y-91804755D01*
X170695582Y-91867990D01*
X170897683Y-91900000D01*
X171102317Y-91900000D01*
X171304417Y-91867990D01*
X171499031Y-91804755D01*
X171681349Y-91711859D01*
X171725921Y-91679474D01*
X171129409Y-91082962D01*
X171192993Y-91065925D01*
X171307007Y-91000099D01*
X171400099Y-90907007D01*
X171465925Y-90792993D01*
X171482962Y-90729409D01*
X172079474Y-91325921D01*
X172111859Y-91281349D01*
X172204755Y-91099031D01*
X172267990Y-90904417D01*
X172300000Y-90702317D01*
X172300000Y-90497682D01*
X172267990Y-90295582D01*
X172204755Y-90100968D01*
X172111859Y-89918650D01*
X172079474Y-89874077D01*
X172079474Y-89874076D01*
X171482962Y-90470589D01*
X171465925Y-90407007D01*
X171400099Y-90292993D01*
X171307007Y-90199901D01*
X171192993Y-90134075D01*
X171129408Y-90117037D01*
X171725922Y-89520524D01*
X171725921Y-89520523D01*
X171681359Y-89488147D01*
X171681350Y-89488141D01*
X171529491Y-89410765D01*
X171478695Y-89362790D01*
X171461900Y-89294969D01*
X171484437Y-89228834D01*
X171529489Y-89189796D01*
X171681610Y-89112287D01*
X171756936Y-89057560D01*
X171847213Y-88991971D01*
X171847215Y-88991968D01*
X171847219Y-88991966D01*
X171991966Y-88847219D01*
X171991968Y-88847215D01*
X171991971Y-88847213D01*
X172065437Y-88746094D01*
X172112287Y-88681610D01*
X172205220Y-88499219D01*
X172268477Y-88304534D01*
X172300500Y-88102352D01*
X172300500Y-87897648D01*
X172285860Y-87805218D01*
X172268477Y-87695465D01*
X172205218Y-87500776D01*
X172144084Y-87380795D01*
X172112287Y-87318390D01*
X172075826Y-87268205D01*
X171991971Y-87152786D01*
X171847213Y-87008028D01*
X171681613Y-86887715D01*
X171681612Y-86887714D01*
X171681610Y-86887713D01*
X171619533Y-86856083D01*
X171499223Y-86794781D01*
X171304534Y-86731522D01*
X171129995Y-86703878D01*
X171102352Y-86699500D01*
X170897648Y-86699500D01*
X170873329Y-86703351D01*
X170695465Y-86731522D01*
X170500776Y-86794781D01*
X170318386Y-86887715D01*
X170152786Y-87008028D01*
X170008028Y-87152786D01*
X169887715Y-87318386D01*
X169794781Y-87500776D01*
X169731522Y-87695465D01*
X169699500Y-87897648D01*
X160352620Y-87897648D01*
X158967984Y-86513012D01*
X158967982Y-86513009D01*
X158849111Y-86394138D01*
X158849110Y-86394137D01*
X158762298Y-86344017D01*
X158762298Y-86344016D01*
X158762294Y-86344015D01*
X158712179Y-86315080D01*
X158559451Y-86274156D01*
X158401337Y-86274156D01*
X158393741Y-86274156D01*
X158393725Y-86274157D01*
X157647355Y-86274157D01*
X157647351Y-86274156D01*
X157489237Y-86274156D01*
X157482808Y-86275878D01*
X157468099Y-86276025D01*
X157441413Y-86268477D01*
X157414011Y-86264203D01*
X157408262Y-86259100D01*
X157400867Y-86257009D01*
X157382498Y-86236232D01*
X157361756Y-86217822D01*
X157359678Y-86210422D01*
X157354588Y-86204664D01*
X157350367Y-86177250D01*
X157342873Y-86150552D01*
X157344073Y-86136373D01*
X157343956Y-86135608D01*
X157344181Y-86135100D01*
X157344389Y-86132648D01*
X157349188Y-86102352D01*
X157349188Y-85897648D01*
X157317165Y-85695466D01*
X157253908Y-85500781D01*
X157253906Y-85500778D01*
X157253906Y-85500776D01*
X157220191Y-85434607D01*
X157160975Y-85318390D01*
X157153244Y-85307749D01*
X157040659Y-85152786D01*
X156895901Y-85008028D01*
X156730301Y-84887715D01*
X156730300Y-84887714D01*
X156730298Y-84887713D01*
X156673341Y-84858691D01*
X156547911Y-84794781D01*
X156353222Y-84731522D01*
X156178683Y-84703878D01*
X156151040Y-84699500D01*
X155946336Y-84699500D01*
X155905899Y-84705904D01*
X155744150Y-84731523D01*
X155744148Y-84731523D01*
X155729837Y-84736173D01*
X155659996Y-84738164D01*
X155603845Y-84705921D01*
X155518405Y-84620481D01*
X155518404Y-84620480D01*
X155431592Y-84570360D01*
X155431592Y-84570359D01*
X155431588Y-84570358D01*
X155381473Y-84541423D01*
X155228745Y-84500499D01*
X155070631Y-84500499D01*
X155063035Y-84500499D01*
X155063019Y-84500500D01*
X144079061Y-84500500D01*
X144079057Y-84500499D01*
X143920943Y-84500499D01*
X143920939Y-84500500D01*
X139374951Y-84500500D01*
X139307912Y-84480815D01*
X139262157Y-84428011D01*
X139252213Y-84358853D01*
X139257020Y-84338183D01*
X139267988Y-84304425D01*
X139267989Y-84304418D01*
X139300000Y-84102317D01*
X139300000Y-83897682D01*
X139267990Y-83695582D01*
X139204755Y-83500968D01*
X139111859Y-83318650D01*
X139079474Y-83274077D01*
X139079474Y-83274076D01*
X138482962Y-83870589D01*
X138465925Y-83807007D01*
X138400099Y-83692993D01*
X138307007Y-83599901D01*
X138192993Y-83534075D01*
X138129408Y-83517037D01*
X138725922Y-82920524D01*
X138725921Y-82920523D01*
X138681359Y-82888147D01*
X138681350Y-82888141D01*
X138499031Y-82795244D01*
X138304417Y-82732009D01*
X138102317Y-82700000D01*
X137897683Y-82700000D01*
X137695582Y-82732009D01*
X137500968Y-82795244D01*
X137318644Y-82888143D01*
X137274077Y-82920523D01*
X137274077Y-82920524D01*
X137870591Y-83517037D01*
X137807007Y-83534075D01*
X137692993Y-83599901D01*
X137599901Y-83692993D01*
X137534075Y-83807007D01*
X137517037Y-83870590D01*
X136920524Y-83274077D01*
X136920523Y-83274077D01*
X136888143Y-83318644D01*
X136795244Y-83500968D01*
X136732009Y-83695582D01*
X136700000Y-83897682D01*
X136700000Y-84102317D01*
X136732010Y-84304418D01*
X136732011Y-84304425D01*
X136742980Y-84338183D01*
X136744975Y-84408024D01*
X136708894Y-84467856D01*
X136646193Y-84498684D01*
X136625049Y-84500500D01*
X125351626Y-84500500D01*
X125351610Y-84500499D01*
X125344014Y-84500499D01*
X125185900Y-84500499D01*
X125078544Y-84529265D01*
X125033167Y-84541424D01*
X125033166Y-84541425D01*
X124983053Y-84570359D01*
X124983052Y-84570360D01*
X124954115Y-84587066D01*
X124896243Y-84620478D01*
X124810799Y-84705922D01*
X124749475Y-84739406D01*
X124684805Y-84736173D01*
X124670491Y-84731522D01*
X124495952Y-84703878D01*
X124468309Y-84699500D01*
X124263605Y-84699500D01*
X124239286Y-84703351D01*
X124061422Y-84731522D01*
X123866733Y-84794781D01*
X123684343Y-84887715D01*
X123518743Y-85008028D01*
X123373985Y-85152786D01*
X123253672Y-85318386D01*
X123160738Y-85500776D01*
X123097479Y-85695465D01*
X123065457Y-85897648D01*
X123065457Y-86102351D01*
X123097479Y-86304534D01*
X123160738Y-86499223D01*
X123253672Y-86681613D01*
X123373985Y-86847213D01*
X123518743Y-86991971D01*
X123684345Y-87112286D01*
X123684347Y-87112287D01*
X123760115Y-87150893D01*
X123766873Y-87154336D01*
X123817670Y-87202310D01*
X123834465Y-87270131D01*
X123811928Y-87336266D01*
X123798260Y-87352502D01*
X114376396Y-96774367D01*
X114315073Y-96807852D01*
X114245381Y-96802868D01*
X114189448Y-96760996D01*
X114178230Y-96742981D01*
X114167531Y-96721985D01*
X114136180Y-96660454D01*
X114128449Y-96649813D01*
X114015864Y-96494850D01*
X113871106Y-96350092D01*
X113705506Y-96229779D01*
X113705505Y-96229778D01*
X113705503Y-96229777D01*
X113648546Y-96200755D01*
X113523116Y-96136845D01*
X113328427Y-96073586D01*
X113153888Y-96045942D01*
X113126245Y-96041564D01*
X112921541Y-96041564D01*
X112897222Y-96045415D01*
X112719358Y-96073586D01*
X112524669Y-96136845D01*
X112342279Y-96229779D01*
X112176679Y-96350092D01*
X112031921Y-96494850D01*
X111911608Y-96660450D01*
X111818674Y-96842840D01*
X111755415Y-97037529D01*
X111723393Y-97239712D01*
X111723393Y-97444415D01*
X111755415Y-97646598D01*
X111818674Y-97841287D01*
X111882584Y-97966717D01*
X111908913Y-98018389D01*
X111911608Y-98023677D01*
X112031921Y-98189277D01*
X112176679Y-98334035D01*
X112331642Y-98446620D01*
X112342283Y-98454351D01*
X112403814Y-98485702D01*
X112424810Y-98496401D01*
X112475606Y-98544376D01*
X112492401Y-98612197D01*
X112469863Y-98678332D01*
X112456196Y-98694567D01*
X108091286Y-103059478D01*
X107979481Y-103171282D01*
X107979479Y-103171285D01*
X107945746Y-103229714D01*
X107945745Y-103229716D01*
X107900423Y-103308214D01*
X107886781Y-103359124D01*
X107859499Y-103460943D01*
X107859499Y-103460945D01*
X107859499Y-103629046D01*
X107859500Y-103629059D01*
X107859500Y-111039901D01*
X107839815Y-111106940D01*
X107823181Y-111127582D01*
X103504279Y-115446483D01*
X103442956Y-115479968D01*
X103373264Y-115474984D01*
X103317331Y-115433112D01*
X103292914Y-115367648D01*
X103294125Y-115339401D01*
X103300000Y-115302313D01*
X103300000Y-115097682D01*
X103267990Y-114895582D01*
X103204755Y-114700968D01*
X103111859Y-114518650D01*
X103079474Y-114474077D01*
X103079474Y-114474076D01*
X102482962Y-115070590D01*
X102465925Y-115007007D01*
X102400099Y-114892993D01*
X102307007Y-114799901D01*
X102192993Y-114734075D01*
X102129408Y-114717037D01*
X102725922Y-114120524D01*
X102725921Y-114120523D01*
X102681359Y-114088147D01*
X102681350Y-114088141D01*
X102499031Y-113995244D01*
X102304417Y-113932009D01*
X102102317Y-113900000D01*
X101897683Y-113900000D01*
X101695582Y-113932009D01*
X101500968Y-113995244D01*
X101318644Y-114088143D01*
X101274077Y-114120523D01*
X101274077Y-114120524D01*
X101870591Y-114717037D01*
X101807007Y-114734075D01*
X101692993Y-114799901D01*
X101599901Y-114892993D01*
X101534075Y-115007007D01*
X101517037Y-115070590D01*
X100920524Y-114474077D01*
X100920523Y-114474077D01*
X100888143Y-114518644D01*
X100795244Y-114700968D01*
X100732009Y-114895582D01*
X100700000Y-115097682D01*
X100700000Y-115302317D01*
X100732009Y-115504417D01*
X100795244Y-115699031D01*
X100888141Y-115881350D01*
X100888147Y-115881359D01*
X100920523Y-115925921D01*
X100920524Y-115925922D01*
X101517037Y-115329409D01*
X101534075Y-115392993D01*
X101599901Y-115507007D01*
X101692993Y-115600099D01*
X101807007Y-115665925D01*
X101870590Y-115682962D01*
X101274076Y-116279474D01*
X101318652Y-116311861D01*
X101470507Y-116389234D01*
X101521304Y-116437208D01*
X101538099Y-116505029D01*
X101515562Y-116571164D01*
X101470508Y-116610203D01*
X101318391Y-116687711D01*
X101318389Y-116687712D01*
X101152786Y-116808028D01*
X101008028Y-116952786D01*
X100887715Y-117118386D01*
X100794781Y-117300776D01*
X100731522Y-117495465D01*
X100699500Y-117697648D01*
X99500500Y-117697648D01*
X99500500Y-105897648D01*
X102699500Y-105897648D01*
X102699500Y-106102351D01*
X102731522Y-106304534D01*
X102794781Y-106499223D01*
X102887715Y-106681613D01*
X103008028Y-106847213D01*
X103152786Y-106991971D01*
X103318385Y-107112284D01*
X103318387Y-107112285D01*
X103318390Y-107112287D01*
X103372378Y-107139795D01*
X103423174Y-107187769D01*
X103439969Y-107255590D01*
X103417432Y-107321725D01*
X103372378Y-107360765D01*
X103318644Y-107388143D01*
X103274077Y-107420523D01*
X103274077Y-107420524D01*
X103870591Y-108017037D01*
X103807007Y-108034075D01*
X103692993Y-108099901D01*
X103599901Y-108192993D01*
X103534075Y-108307007D01*
X103517037Y-108370590D01*
X102920524Y-107774077D01*
X102920523Y-107774077D01*
X102888143Y-107818644D01*
X102795244Y-108000968D01*
X102732009Y-108195582D01*
X102700000Y-108397682D01*
X102700000Y-108602317D01*
X102732009Y-108804417D01*
X102795244Y-108999031D01*
X102888141Y-109181350D01*
X102888147Y-109181359D01*
X102920523Y-109225921D01*
X102920524Y-109225922D01*
X103517037Y-108629409D01*
X103534075Y-108692993D01*
X103599901Y-108807007D01*
X103692993Y-108900099D01*
X103807007Y-108965925D01*
X103870590Y-108982962D01*
X103274076Y-109579474D01*
X103318650Y-109611859D01*
X103500968Y-109704755D01*
X103695582Y-109767990D01*
X103897683Y-109800000D01*
X104102317Y-109800000D01*
X104304417Y-109767990D01*
X104499031Y-109704755D01*
X104681349Y-109611859D01*
X104725921Y-109579474D01*
X104129409Y-108982962D01*
X104192993Y-108965925D01*
X104307007Y-108900099D01*
X104400099Y-108807007D01*
X104465925Y-108692993D01*
X104482962Y-108629410D01*
X105079474Y-109225922D01*
X105079474Y-109225921D01*
X105111859Y-109181349D01*
X105204755Y-108999031D01*
X105267990Y-108804417D01*
X105300000Y-108602317D01*
X105300000Y-108397682D01*
X105267990Y-108195582D01*
X105204755Y-108000968D01*
X105111859Y-107818650D01*
X105079474Y-107774077D01*
X105079474Y-107774076D01*
X104482962Y-108370589D01*
X104465925Y-108307007D01*
X104400099Y-108192993D01*
X104307007Y-108099901D01*
X104192993Y-108034075D01*
X104129408Y-108017037D01*
X104725922Y-107420524D01*
X104725921Y-107420523D01*
X104681359Y-107388147D01*
X104681350Y-107388141D01*
X104627621Y-107360765D01*
X104576825Y-107312791D01*
X104560030Y-107244970D01*
X104582567Y-107178835D01*
X104627621Y-107139795D01*
X104681610Y-107112287D01*
X104790812Y-107032948D01*
X104847213Y-106991971D01*
X104847215Y-106991968D01*
X104847219Y-106991966D01*
X104991966Y-106847219D01*
X104991968Y-106847215D01*
X104991971Y-106847213D01*
X105047247Y-106771131D01*
X105112287Y-106681610D01*
X105205220Y-106499219D01*
X105268477Y-106304534D01*
X105300500Y-106102352D01*
X105300500Y-105897648D01*
X105268477Y-105695466D01*
X105264461Y-105683107D01*
X105205218Y-105500776D01*
X105122124Y-105337697D01*
X105112287Y-105318390D01*
X105085565Y-105281610D01*
X104991971Y-105152786D01*
X104847213Y-105008028D01*
X104681613Y-104887715D01*
X104681612Y-104887714D01*
X104681610Y-104887713D01*
X104590761Y-104841423D01*
X104499223Y-104794781D01*
X104304534Y-104731522D01*
X104129995Y-104703878D01*
X104102352Y-104699500D01*
X103897648Y-104699500D01*
X103873329Y-104703351D01*
X103695465Y-104731522D01*
X103500776Y-104794781D01*
X103318386Y-104887715D01*
X103152786Y-105008028D01*
X103008028Y-105152786D01*
X102887715Y-105318386D01*
X102794781Y-105500776D01*
X102731522Y-105695465D01*
X102699500Y-105897648D01*
X99500500Y-105897648D01*
X99500500Y-99897648D01*
X102699500Y-99897648D01*
X102699500Y-100102351D01*
X102731522Y-100304534D01*
X102794781Y-100499223D01*
X102887715Y-100681613D01*
X103008028Y-100847213D01*
X103152786Y-100991971D01*
X103307749Y-101104556D01*
X103318390Y-101112287D01*
X103412872Y-101160428D01*
X103500776Y-101205218D01*
X103500778Y-101205218D01*
X103500781Y-101205220D01*
X103605137Y-101239127D01*
X103695465Y-101268477D01*
X103784482Y-101282576D01*
X103897648Y-101300500D01*
X103897649Y-101300500D01*
X104102351Y-101300500D01*
X104102352Y-101300500D01*
X104304534Y-101268477D01*
X104499219Y-101205220D01*
X104681610Y-101112287D01*
X104774590Y-101044732D01*
X104847213Y-100991971D01*
X104847215Y-100991968D01*
X104847219Y-100991966D01*
X104991966Y-100847219D01*
X104991968Y-100847215D01*
X104991971Y-100847213D01*
X105044732Y-100774590D01*
X105112287Y-100681610D01*
X105205220Y-100499219D01*
X105268477Y-100304534D01*
X105300500Y-100102352D01*
X105300500Y-99897648D01*
X105268477Y-99695465D01*
X105212303Y-99522580D01*
X105205220Y-99500781D01*
X105205218Y-99500778D01*
X105205218Y-99500776D01*
X105153869Y-99400000D01*
X105112287Y-99318390D01*
X105042136Y-99221834D01*
X104991971Y-99152786D01*
X104847213Y-99008028D01*
X104681613Y-98887715D01*
X104681612Y-98887714D01*
X104681610Y-98887713D01*
X104624653Y-98858691D01*
X104499223Y-98794781D01*
X104304534Y-98731522D01*
X104129995Y-98703878D01*
X104102352Y-98699500D01*
X103897648Y-98699500D01*
X103873329Y-98703351D01*
X103695465Y-98731522D01*
X103500776Y-98794781D01*
X103318386Y-98887715D01*
X103152786Y-99008028D01*
X103008028Y-99152786D01*
X102887715Y-99318386D01*
X102794781Y-99500776D01*
X102731522Y-99695465D01*
X102699500Y-99897648D01*
X99500500Y-99897648D01*
X99500500Y-96897648D01*
X102699500Y-96897648D01*
X102699500Y-97102351D01*
X102731522Y-97304534D01*
X102794781Y-97499223D01*
X102858691Y-97624653D01*
X102869873Y-97646598D01*
X102887715Y-97681613D01*
X103008028Y-97847213D01*
X103152786Y-97991971D01*
X103269792Y-98076979D01*
X103318390Y-98112287D01*
X103434607Y-98171503D01*
X103500776Y-98205218D01*
X103500778Y-98205218D01*
X103500781Y-98205220D01*
X103605137Y-98239127D01*
X103695465Y-98268477D01*
X103796557Y-98284488D01*
X103897648Y-98300500D01*
X103897649Y-98300500D01*
X104102351Y-98300500D01*
X104102352Y-98300500D01*
X104304534Y-98268477D01*
X104499219Y-98205220D01*
X104681610Y-98112287D01*
X104795084Y-98029844D01*
X104847213Y-97991971D01*
X104847215Y-97991968D01*
X104847219Y-97991966D01*
X104991966Y-97847219D01*
X104991968Y-97847215D01*
X104991971Y-97847213D01*
X105044732Y-97774590D01*
X105112287Y-97681610D01*
X105205220Y-97499219D01*
X105268477Y-97304534D01*
X105300500Y-97102352D01*
X105300500Y-96897648D01*
X105291819Y-96842840D01*
X105268477Y-96695465D01*
X105205218Y-96500776D01*
X105171503Y-96434607D01*
X105112287Y-96318390D01*
X105104556Y-96307749D01*
X104991971Y-96152786D01*
X104847213Y-96008028D01*
X104681613Y-95887715D01*
X104681612Y-95887714D01*
X104681610Y-95887713D01*
X104624653Y-95858691D01*
X104499223Y-95794781D01*
X104304534Y-95731522D01*
X104129995Y-95703878D01*
X104102352Y-95699500D01*
X103897648Y-95699500D01*
X103873329Y-95703351D01*
X103695465Y-95731522D01*
X103500776Y-95794781D01*
X103318386Y-95887715D01*
X103152786Y-96008028D01*
X103008028Y-96152786D01*
X102887715Y-96318386D01*
X102794781Y-96500776D01*
X102731522Y-96695465D01*
X102699500Y-96897648D01*
X99500500Y-96897648D01*
X99500500Y-87897648D01*
X102699500Y-87897648D01*
X102699500Y-88102352D01*
X102724747Y-88261754D01*
X102731523Y-88304534D01*
X102731522Y-88304534D01*
X102794781Y-88499223D01*
X102833982Y-88576157D01*
X102868479Y-88643862D01*
X102887715Y-88681613D01*
X103008028Y-88847213D01*
X103152786Y-88991971D01*
X103318385Y-89112284D01*
X103318387Y-89112285D01*
X103318390Y-89112287D01*
X103470508Y-89189795D01*
X103521304Y-89237770D01*
X103538099Y-89305591D01*
X103515562Y-89371726D01*
X103470508Y-89410765D01*
X103318644Y-89488143D01*
X103274077Y-89520523D01*
X103274077Y-89520524D01*
X103870591Y-90117037D01*
X103807007Y-90134075D01*
X103692993Y-90199901D01*
X103599901Y-90292993D01*
X103534075Y-90407007D01*
X103517037Y-90470590D01*
X102920524Y-89874077D01*
X102920523Y-89874077D01*
X102888143Y-89918644D01*
X102795244Y-90100968D01*
X102732009Y-90295582D01*
X102700000Y-90497682D01*
X102700000Y-90702317D01*
X102732009Y-90904417D01*
X102795244Y-91099031D01*
X102888141Y-91281350D01*
X102888147Y-91281359D01*
X102920523Y-91325921D01*
X102920524Y-91325922D01*
X103517037Y-90729409D01*
X103534075Y-90792993D01*
X103599901Y-90907007D01*
X103692993Y-91000099D01*
X103807007Y-91065925D01*
X103870590Y-91082962D01*
X103274076Y-91679474D01*
X103318650Y-91711859D01*
X103500968Y-91804755D01*
X103695582Y-91867990D01*
X103897683Y-91900000D01*
X104102317Y-91900000D01*
X104304417Y-91867990D01*
X104499031Y-91804755D01*
X104681349Y-91711859D01*
X104725921Y-91679474D01*
X104129409Y-91082962D01*
X104192993Y-91065925D01*
X104307007Y-91000099D01*
X104400099Y-90907007D01*
X104465925Y-90792993D01*
X104482962Y-90729410D01*
X105079474Y-91325922D01*
X105079474Y-91325921D01*
X105111859Y-91281349D01*
X105204755Y-91099031D01*
X105267990Y-90904417D01*
X105300000Y-90702317D01*
X105300000Y-90497682D01*
X105267990Y-90295582D01*
X105204755Y-90100968D01*
X105111859Y-89918650D01*
X105079474Y-89874077D01*
X105079474Y-89874076D01*
X104482962Y-90470589D01*
X104465925Y-90407007D01*
X104400099Y-90292993D01*
X104307007Y-90199901D01*
X104192993Y-90134075D01*
X104129408Y-90117037D01*
X104725922Y-89520524D01*
X104725921Y-89520523D01*
X104681359Y-89488147D01*
X104681350Y-89488141D01*
X104529491Y-89410765D01*
X104478695Y-89362790D01*
X104461900Y-89294969D01*
X104484437Y-89228834D01*
X104529489Y-89189796D01*
X104681610Y-89112287D01*
X104756936Y-89057560D01*
X104847213Y-88991971D01*
X104847215Y-88991968D01*
X104847219Y-88991966D01*
X104991966Y-88847219D01*
X104991968Y-88847215D01*
X104991971Y-88847213D01*
X105065437Y-88746094D01*
X105112287Y-88681610D01*
X105205220Y-88499219D01*
X105268477Y-88304534D01*
X105300500Y-88102352D01*
X105300500Y-87897648D01*
X105285860Y-87805218D01*
X105268477Y-87695465D01*
X105205218Y-87500776D01*
X105144084Y-87380795D01*
X105112287Y-87318390D01*
X105075826Y-87268205D01*
X104991971Y-87152786D01*
X104847213Y-87008028D01*
X104681613Y-86887715D01*
X104681612Y-86887714D01*
X104681610Y-86887713D01*
X104619533Y-86856083D01*
X104499223Y-86794781D01*
X104304534Y-86731522D01*
X104129995Y-86703878D01*
X104102352Y-86699500D01*
X103897648Y-86699500D01*
X103873329Y-86703351D01*
X103695465Y-86731522D01*
X103500776Y-86794781D01*
X103318386Y-86887715D01*
X103152786Y-87008028D01*
X103008028Y-87152786D01*
X102887715Y-87318386D01*
X102794781Y-87500776D01*
X102731522Y-87695465D01*
X102699500Y-87897648D01*
X99500500Y-87897648D01*
X99500500Y-81878711D01*
X100149500Y-81878711D01*
X100149500Y-82121288D01*
X100181161Y-82361785D01*
X100243947Y-82596104D01*
X100300241Y-82732009D01*
X100336776Y-82820212D01*
X100458064Y-83030289D01*
X100458066Y-83030292D01*
X100458067Y-83030293D01*
X100605733Y-83222736D01*
X100605739Y-83222743D01*
X100777256Y-83394260D01*
X100777262Y-83394265D01*
X100969711Y-83541936D01*
X101179788Y-83663224D01*
X101403900Y-83756054D01*
X101638211Y-83818838D01*
X101818586Y-83842584D01*
X101878711Y-83850500D01*
X101878712Y-83850500D01*
X102121289Y-83850500D01*
X102169388Y-83844167D01*
X102361789Y-83818838D01*
X102596100Y-83756054D01*
X102820212Y-83663224D01*
X103030289Y-83541936D01*
X103222738Y-83394265D01*
X103394265Y-83222738D01*
X103541936Y-83030289D01*
X103663224Y-82820212D01*
X103756054Y-82596100D01*
X103818838Y-82361789D01*
X103850500Y-82121288D01*
X103850500Y-81878712D01*
X103850500Y-81878711D01*
X171149500Y-81878711D01*
X171149500Y-82121288D01*
X171181161Y-82361785D01*
X171243947Y-82596104D01*
X171300241Y-82732009D01*
X171336776Y-82820212D01*
X171458064Y-83030289D01*
X171458066Y-83030292D01*
X171458067Y-83030293D01*
X171605733Y-83222736D01*
X171605739Y-83222743D01*
X171777256Y-83394260D01*
X171777262Y-83394265D01*
X171969711Y-83541936D01*
X172179788Y-83663224D01*
X172403900Y-83756054D01*
X172638211Y-83818838D01*
X172818586Y-83842584D01*
X172878711Y-83850500D01*
X172878712Y-83850500D01*
X173121289Y-83850500D01*
X173169388Y-83844167D01*
X173361789Y-83818838D01*
X173596100Y-83756054D01*
X173820212Y-83663224D01*
X174030289Y-83541936D01*
X174222738Y-83394265D01*
X174394265Y-83222738D01*
X174541936Y-83030289D01*
X174663224Y-82820212D01*
X174756054Y-82596100D01*
X174818838Y-82361789D01*
X174850500Y-82121288D01*
X174850500Y-81878712D01*
X174818838Y-81638211D01*
X174756054Y-81403900D01*
X174663224Y-81179788D01*
X174541936Y-80969711D01*
X174394265Y-80777262D01*
X174394260Y-80777256D01*
X174222743Y-80605739D01*
X174222736Y-80605733D01*
X174030293Y-80458067D01*
X174030292Y-80458066D01*
X174030289Y-80458064D01*
X173820212Y-80336776D01*
X173820205Y-80336773D01*
X173596104Y-80243947D01*
X173361785Y-80181161D01*
X173121289Y-80149500D01*
X173121288Y-80149500D01*
X172878712Y-80149500D01*
X172878711Y-80149500D01*
X172638214Y-80181161D01*
X172403895Y-80243947D01*
X172179794Y-80336773D01*
X172179785Y-80336777D01*
X171969706Y-80458067D01*
X171777263Y-80605733D01*
X171777256Y-80605739D01*
X171605739Y-80777256D01*
X171605733Y-80777263D01*
X171458067Y-80969706D01*
X171336777Y-81179785D01*
X171336773Y-81179794D01*
X171243947Y-81403895D01*
X171181161Y-81638214D01*
X171149500Y-81878711D01*
X103850500Y-81878711D01*
X103818838Y-81638211D01*
X103756054Y-81403900D01*
X103663224Y-81179788D01*
X103541936Y-80969711D01*
X103394265Y-80777262D01*
X103394260Y-80777256D01*
X103222743Y-80605739D01*
X103222736Y-80605733D01*
X103030293Y-80458067D01*
X103030292Y-80458066D01*
X103030289Y-80458064D01*
X102820212Y-80336776D01*
X102820205Y-80336773D01*
X102596104Y-80243947D01*
X102361785Y-80181161D01*
X102121289Y-80149500D01*
X102121288Y-80149500D01*
X101878712Y-80149500D01*
X101878711Y-80149500D01*
X101638214Y-80181161D01*
X101403895Y-80243947D01*
X101179794Y-80336773D01*
X101179785Y-80336777D01*
X100969706Y-80458067D01*
X100777263Y-80605733D01*
X100777256Y-80605739D01*
X100605739Y-80777256D01*
X100605733Y-80777263D01*
X100458067Y-80969706D01*
X100336777Y-81179785D01*
X100336773Y-81179794D01*
X100243947Y-81403895D01*
X100181161Y-81638214D01*
X100149500Y-81878711D01*
X99500500Y-81878711D01*
X99500500Y-79624500D01*
X99520185Y-79557461D01*
X99572989Y-79511706D01*
X99624500Y-79500500D01*
X175375500Y-79500500D01*
X175442539Y-79520185D01*
G37*
%TD.AperFunction*%
%TD*%
M02*
