M48
; DRILL file {KiCad 9.0.7} date 2026-03-17T22:44:40-0400
; FORMAT={-:-/ absolute / metric / decimal}
; #@! TF.CreationDate,2026-03-17T22:44:40-04:00
; #@! TF.GenerationSoftware,Kicad,Pcbnew,9.0.7
; #@! TF.FileFunction,Plated,1,2,PTH
FMAT,2
METRIC
; #@! TA.AperFunction,Plated,PTH,ViaDrill
T1C0.300
; #@! TA.AperFunction,Plated,PTH,ComponentDrill
T2C0.800
; #@! TA.AperFunction,Plated,PTH,ComponentDrill
T3C1.000
%
G90
G05
T1
X117.0Y-125.0
X122.0Y-117.0
X124.0Y-116.0
X129.0Y-112.0
X131.0Y-118.0
X131.951Y-119.8
X156.0Y-109.0
T2
X108.46Y-114.0
X108.46Y-129.24
X111.0Y-114.0
X111.0Y-129.24
X113.54Y-114.0
X113.54Y-129.24
X116.08Y-114.0
X116.08Y-129.24
X118.62Y-114.0
X118.62Y-129.24
X121.16Y-114.0
X121.16Y-129.24
X123.7Y-114.0
X123.7Y-129.24
X126.24Y-114.0
X126.24Y-129.24
X128.78Y-114.0
X128.78Y-129.24
X131.32Y-114.0
X131.32Y-129.24
X133.86Y-114.0
X133.86Y-129.24
X136.4Y-114.0
X136.4Y-129.24
X138.94Y-114.0
X138.94Y-129.24
X141.48Y-114.0
X141.48Y-129.24
X144.02Y-114.0
X144.02Y-129.24
X146.56Y-114.0
X146.56Y-129.24
X149.1Y-114.0
X149.1Y-129.24
X151.64Y-114.0
X151.64Y-129.24
X154.18Y-114.0
X154.18Y-129.24
X156.72Y-114.0
X156.72Y-129.24
X159.26Y-114.0
X159.26Y-129.24
X161.8Y-114.0
X161.8Y-129.24
X164.34Y-114.0
X164.34Y-129.24
X166.88Y-114.0
X166.88Y-129.24
T3
X102.0Y-115.2
X102.0Y-117.8
X102.0Y-120.4
X102.0Y-123.0
X104.0Y-88.0
X104.0Y-90.6
X104.0Y-97.0
X104.0Y-100.0
X104.0Y-106.0
X104.0Y-108.5
X113.024Y-97.342
X115.0Y-99.318
X116.975Y-101.293
X118.951Y-103.269
X124.366Y-86.0
X126.342Y-87.976
X128.317Y-89.951
X130.293Y-91.927
X137.0Y-99.4
X137.0Y-102.0
X137.0Y-104.6
X137.0Y-107.2
X138.0Y-84.0
X138.0Y-86.6
X144.707Y-97.342
X146.682Y-99.318
X148.658Y-101.293
X150.634Y-103.269
X156.049Y-86.0
X158.024Y-87.976
X159.485Y-108.515
X160.0Y-89.951
X161.323Y-106.677
X161.976Y-91.927
X163.162Y-104.838
X165.0Y-103.0
X171.0Y-88.0
X171.0Y-90.6
X171.0Y-97.0
X171.0Y-100.0
X171.0Y-106.0
X171.0Y-108.5
X171.0Y-116.0
X171.0Y-118.6
X171.0Y-121.2
X171.0Y-123.8
M30
