%TF.GenerationSoftware,KiCad,Pcbnew,9.0.7*%
%TF.CreationDate,2026-03-17T22:44:37-04:00*%
%TF.ProjectId,MeltyPCB v2,4d656c74-7950-4434-9220-76322e6b6963,rev?*%
%TF.SameCoordinates,Original*%
%TF.FileFunction,Soldermask,Bot*%
%TF.FilePolarity,Negative*%
%FSLAX46Y46*%
G04 Gerber Fmt 4.6, Leading zero omitted, Abs format (unit mm)*
G04 Created by KiCad (PCBNEW 9.0.7) date 2026-03-17 22:44:37*
%MOMM*%
%LPD*%
G01*
G04 APERTURE LIST*
%ADD10C,1.600000*%
%ADD11C,3.200000*%
%ADD12C,1.512000*%
G04 APERTURE END LIST*
D10*
%TO.C,MAG1*%
X165000000Y-103000000D03*
X163161522Y-104838478D03*
X161323045Y-106676955D03*
X159484567Y-108515433D03*
%TD*%
%TO.C,LED1*%
X104000000Y-88000000D03*
X104000000Y-90600000D03*
%TD*%
D11*
%TO.C,*%
X102000000Y-129000000D03*
%TD*%
%TO.C,*%
X102000000Y-82000000D03*
%TD*%
D10*
%TO.C,REC1*%
X137000000Y-99400000D03*
X137000000Y-102000000D03*
X137000000Y-104600000D03*
X137000000Y-107200000D03*
%TD*%
%TO.C,REC2*%
X171000000Y-116000000D03*
X171000000Y-118600000D03*
X171000000Y-121200000D03*
X171000000Y-123800000D03*
%TD*%
%TO.C,ESC1*%
X104000000Y-106000000D03*
X104000000Y-108500000D03*
%TD*%
D11*
%TO.C,*%
X173000000Y-129000000D03*
%TD*%
D10*
%TO.C,ACC1*%
X113023893Y-97342064D03*
X114999550Y-99317720D03*
X116975206Y-101293377D03*
X118950862Y-103269033D03*
X124365957Y-86000000D03*
X126341613Y-87975657D03*
X128317269Y-89951313D03*
X130292926Y-91926969D03*
%TD*%
%TO.C,R2*%
X171000000Y-97000000D03*
X171000000Y-100000000D03*
%TD*%
%TO.C,R1*%
X104000000Y-97000000D03*
X104000000Y-100000000D03*
%TD*%
%TO.C,ACC2*%
X144706624Y-97342064D03*
X146682281Y-99317720D03*
X148657937Y-101293377D03*
X150633593Y-103269033D03*
X156048688Y-86000000D03*
X158024344Y-87975657D03*
X160000000Y-89951313D03*
X161975657Y-91926969D03*
%TD*%
D12*
%TO.C,U1*%
X111000000Y-129240000D03*
X113540000Y-129240000D03*
X116080000Y-129240000D03*
X118620000Y-129240000D03*
X144020000Y-129240000D03*
X113540000Y-114000000D03*
X121160000Y-129240000D03*
X123700000Y-129240000D03*
X126240000Y-129240000D03*
X128780000Y-129240000D03*
X131320000Y-129240000D03*
X133860000Y-129240000D03*
X136400000Y-129240000D03*
X138940000Y-129240000D03*
X141480000Y-129240000D03*
X141480000Y-114000000D03*
X138940000Y-114000000D03*
X136400000Y-114000000D03*
X133860000Y-114000000D03*
X131320000Y-114000000D03*
X128780000Y-114000000D03*
X126240000Y-114000000D03*
X123700000Y-114000000D03*
X121160000Y-114000000D03*
X118620000Y-114000000D03*
X116080000Y-114000000D03*
X146560000Y-129240000D03*
X149100000Y-129240000D03*
X151640000Y-129240000D03*
X154180000Y-129240000D03*
X156720000Y-129240000D03*
X159260000Y-129240000D03*
X161800000Y-129240000D03*
X164340000Y-129240000D03*
X166880000Y-129240000D03*
X166880000Y-114000000D03*
X164340000Y-114000000D03*
X161800000Y-114000000D03*
X159260000Y-114000000D03*
X156720000Y-114000000D03*
X154180000Y-114000000D03*
X151640000Y-114000000D03*
X149100000Y-114000000D03*
X146560000Y-114000000D03*
X108460000Y-129240000D03*
X144020000Y-114000000D03*
X111000000Y-114000000D03*
X108460000Y-114000000D03*
%TD*%
D11*
%TO.C,*%
X173000000Y-82000000D03*
%TD*%
D10*
%TO.C,POW1*%
X138000000Y-86600000D03*
X138000000Y-84000000D03*
%TD*%
%TO.C,ESC2*%
X171000000Y-106000000D03*
X171000000Y-108500000D03*
%TD*%
%TO.C,LED2*%
X171000000Y-88000000D03*
X171000000Y-90600000D03*
%TD*%
%TO.C,REC3*%
X102000000Y-115200000D03*
X102000000Y-117800000D03*
X102000000Y-120400000D03*
X102000000Y-123000000D03*
%TD*%
M02*
